<?xml version="1.0" encoding="UTF-8"?>
<svg id="Layer_2" data-name="Layer 2" xmlns="http://www.w3.org/2000/svg" viewBox="0 0 566.4 126.4">
  <g id="Layer_1-2" data-name="Layer 1">
    <g>
      <path d="m0,3.2C0,1.44,1.44,0,3.2,0s3.2,1.44,3.2,3.2-1.28,3.2-3.2,3.2c-1.76,0-3.2-1.44-3.2-3.2Zm0,8c0-1.76,1.44-3.2,3.2-3.2s3.2,1.44,3.2,3.2-1.44,3.2-3.2,3.2-3.2-1.44-3.2-3.2Zm0,8c0-1.76,1.44-3.2,3.2-3.2s3.2,1.44,3.2,3.2-1.44,3.2-3.2,3.2-3.2-1.44-3.2-3.2Zm0,8c0-1.76,1.44-3.2,3.2-3.2s3.2,1.44,3.2,3.2-1.44,3.2-3.2,3.2-3.2-1.44-3.2-3.2Zm0,8c0-1.76,1.44-3.2,3.2-3.2s3.2,1.44,3.2,3.2-1.44,3.2-3.2,3.2-3.2-1.44-3.2-3.2Zm0,8c0-1.76,1.44-3.2,3.2-3.2s3.2,1.44,3.2,3.2-1.44,3.2-3.2,3.2-3.2-1.44-3.2-3.2Zm0,8c0-1.76,1.44-3.2,3.2-3.2s3.2,1.44,3.2,3.2-1.44,3.2-3.2,3.2-3.2-1.44-3.2-3.2Zm0,8c0-1.76,1.44-3.2,3.2-3.2s3.2,1.44,3.2,3.2-1.44,3.2-3.2,3.2-3.2-1.44-3.2-3.2Zm0,8c0-1.76,1.44-3.2,3.2-3.2s3.2,1.44,3.2,3.2-1.44,3.2-3.2,3.2-3.2-1.44-3.2-3.2Zm0,8c0-1.76,1.44-3.2,3.2-3.2s3.2,1.44,3.2,3.2-1.44,3.2-3.2,3.2-3.2-1.44-3.2-3.2Zm0,8c0-1.76,1.44-3.2,3.2-3.2s3.2,1.44,3.2,3.2-1.44,3.2-3.2,3.2-3.2-1.44-3.2-3.2Zm0,8c0-1.76,1.44-3.2,3.2-3.2s3.2,1.44,3.2,3.2-1.44,3.2-3.2,3.2-3.2-1.44-3.2-3.2Zm0,8c0-1.76,1.44-3.2,3.2-3.2s3.2,1.44,3.2,3.2-1.44,3.2-3.2,3.2-3.2-1.44-3.2-3.2Zm0,8c0-1.76,1.44-3.2,3.2-3.2s3.2,1.44,3.2,3.2-1.44,3.2-3.2,3.2-3.2-1.44-3.2-3.2Zm0,8c0-1.76,1.44-3.2,3.2-3.2s3.2,1.44,3.2,3.2-1.44,3.2-3.2,3.2-3.2-1.44-3.2-3.2Zm0,8c0-1.76,1.44-3.2,3.2-3.2s3.2,1.44,3.2,3.2-1.28,3.2-3.2,3.2c-1.76,0-3.2-1.44-3.2-3.2ZM8,3.2c0-1.76,1.44-3.2,3.2-3.2s3.2,1.44,3.2,3.2-1.28,3.2-3.2,3.2c-1.76,0-3.2-1.44-3.2-3.2Zm0,8c0-1.76,1.44-3.2,3.2-3.2s3.2,1.44,3.2,3.2-1.28,3.2-3.2,3.2c-1.76,0-3.2-1.44-3.2-3.2Zm0,8c0-1.76,1.44-3.2,3.2-3.2s3.2,1.44,3.2,3.2-1.28,3.2-3.2,3.2c-1.76,0-3.2-1.44-3.2-3.2Zm0,8c0-1.76,1.44-3.2,3.2-3.2s3.2,1.44,3.2,3.2-1.28,3.2-3.2,3.2c-1.76,0-3.2-1.44-3.2-3.2Zm0,8c0-1.76,1.44-3.2,3.2-3.2s3.2,1.44,3.2,3.2-1.28,3.2-3.2,3.2c-1.76,0-3.2-1.44-3.2-3.2Zm0,8c0-1.76,1.44-3.2,3.2-3.2s3.2,1.44,3.2,3.2-1.28,3.2-3.2,3.2c-1.76,0-3.2-1.44-3.2-3.2Zm0,8c0-1.76,1.44-3.2,3.2-3.2s3.2,1.44,3.2,3.2-1.28,3.2-3.2,3.2c-1.76,0-3.2-1.44-3.2-3.2Zm0,8c0-1.76,1.44-3.2,3.2-3.2s3.2,1.44,3.2,3.2-1.28,3.2-3.2,3.2c-1.76,0-3.2-1.44-3.2-3.2Zm0,8c0-1.76,1.44-3.2,3.2-3.2s3.2,1.44,3.2,3.2-1.28,3.2-3.2,3.2c-1.76,0-3.2-1.44-3.2-3.2Zm0,8c0-1.76,1.44-3.2,3.2-3.2s3.2,1.44,3.2,3.2-1.28,3.2-3.2,3.2c-1.76,0-3.2-1.44-3.2-3.2Zm0,8c0-1.76,1.44-3.2,3.2-3.2s3.2,1.44,3.2,3.2-1.28,3.2-3.2,3.2c-1.76,0-3.2-1.44-3.2-3.2Zm0,8c0-1.76,1.44-3.2,3.2-3.2s3.2,1.44,3.2,3.2-1.28,3.2-3.2,3.2c-1.76,0-3.2-1.44-3.2-3.2Zm0,8c0-1.76,1.44-3.2,3.2-3.2s3.2,1.44,3.2,3.2-1.28,3.2-3.2,3.2c-1.76,0-3.2-1.44-3.2-3.2Zm0,8c0-1.76,1.44-3.2,3.2-3.2s3.2,1.44,3.2,3.2-1.28,3.2-3.2,3.2c-1.76,0-3.2-1.44-3.2-3.2Zm0,8c0-1.76,1.44-3.2,3.2-3.2s3.2,1.44,3.2,3.2-1.28,3.2-3.2,3.2c-1.76,0-3.2-1.44-3.2-3.2Zm0,8c0-1.76,1.44-3.2,3.2-3.2s3.2,1.44,3.2,3.2-1.28,3.2-3.2,3.2c-1.76,0-3.2-1.44-3.2-3.2ZM16,3.2c0-1.76,1.44-3.2,3.2-3.2s3.2,1.44,3.2,3.2-1.28,3.2-3.2,3.2c-1.76,0-3.2-1.44-3.2-3.2Zm0,8c0-1.76,1.44-3.2,3.2-3.2s3.2,1.44,3.2,3.2-1.28,3.2-3.2,3.2c-1.76,0-3.2-1.44-3.2-3.2Zm0,8c0-1.76,1.44-3.2,3.2-3.2s3.2,1.44,3.2,3.2-1.28,3.2-3.2,3.2c-1.76,0-3.2-1.44-3.2-3.2Zm0,8c0-1.76,1.44-3.2,3.2-3.2s3.2,1.44,3.2,3.2-1.28,3.2-3.2,3.2c-1.76,0-3.2-1.44-3.2-3.2Zm0,8c0-1.76,1.44-3.2,3.2-3.2s3.2,1.44,3.2,3.2-1.28,3.2-3.2,3.2c-1.76,0-3.2-1.44-3.2-3.2Zm0,8c0-1.76,1.44-3.2,3.2-3.2s3.2,1.44,3.2,3.2-1.28,3.2-3.2,3.2c-1.76,0-3.2-1.44-3.2-3.2Zm0,8c0-1.76,1.44-3.2,3.2-3.2s3.2,1.44,3.2,3.2-1.28,3.2-3.2,3.2c-1.76,0-3.2-1.44-3.2-3.2Zm0,8c0-1.76,1.44-3.2,3.2-3.2s3.2,1.44,3.2,3.2-1.28,3.2-3.2,3.2c-1.76,0-3.2-1.44-3.2-3.2Zm0,8c0-1.76,1.44-3.2,3.2-3.2s3.2,1.44,3.2,3.2-1.28,3.2-3.2,3.2c-1.76,0-3.2-1.44-3.2-3.2Zm0,8c0-1.76,1.44-3.2,3.2-3.2s3.2,1.44,3.2,3.2-1.28,3.2-3.2,3.2c-1.76,0-3.2-1.44-3.2-3.2Zm0,8c0-1.76,1.44-3.2,3.2-3.2s3.2,1.44,3.2,3.2-1.28,3.2-3.2,3.2c-1.76,0-3.2-1.44-3.2-3.2Zm0,8c0-1.76,1.44-3.2,3.2-3.2s3.2,1.44,3.2,3.2-1.28,3.2-3.2,3.2c-1.76,0-3.2-1.44-3.2-3.2Zm0,8c0-1.76,1.44-3.2,3.2-3.2s3.2,1.44,3.2,3.2-1.28,3.2-3.2,3.2c-1.76,0-3.2-1.44-3.2-3.2Zm0,8c0-1.76,1.44-3.2,3.2-3.2s3.2,1.44,3.2,3.2-1.28,3.2-3.2,3.2c-1.76,0-3.2-1.44-3.2-3.2Zm0,8c0-1.76,1.44-3.2,3.2-3.2s3.2,1.44,3.2,3.2-1.28,3.2-3.2,3.2c-1.76,0-3.2-1.44-3.2-3.2Zm0,8c0-1.76,1.44-3.2,3.2-3.2s3.2,1.44,3.2,3.2-1.28,3.2-3.2,3.2c-1.76,0-3.2-1.44-3.2-3.2ZM24,3.2c0-1.76,1.44-3.2,3.2-3.2s3.2,1.44,3.2,3.2-1.28,3.2-3.2,3.2c-1.76,0-3.2-1.44-3.2-3.2Zm0,8c0-1.76,1.44-3.2,3.2-3.2s3.2,1.44,3.2,3.2-1.28,3.2-3.2,3.2c-1.76,0-3.2-1.44-3.2-3.2Zm0,8c0-1.76,1.44-3.2,3.2-3.2s3.2,1.44,3.2,3.2-1.28,3.2-3.2,3.2c-1.76,0-3.2-1.44-3.2-3.2Zm0,8c0-1.76,1.44-3.2,3.2-3.2s3.2,1.44,3.2,3.2-1.28,3.2-3.2,3.2c-1.76,0-3.2-1.44-3.2-3.2Zm0,8c0-1.76,1.44-3.2,3.2-3.2s3.2,1.44,3.2,3.2-1.28,3.2-3.2,3.2c-1.76,0-3.2-1.44-3.2-3.2Zm0,8c0-1.76,1.44-3.2,3.2-3.2s3.2,1.44,3.2,3.2-1.28,3.2-3.2,3.2c-1.76,0-3.2-1.44-3.2-3.2Zm0,8c0-1.76,1.44-3.2,3.2-3.2s3.2,1.44,3.2,3.2-1.28,3.2-3.2,3.2c-1.76,0-3.2-1.44-3.2-3.2Zm0,8c0-1.76,1.44-3.2,3.2-3.2s3.2,1.44,3.2,3.2-1.28,3.2-3.2,3.2c-1.76,0-3.2-1.44-3.2-3.2Zm0,8c0-1.76,1.44-3.2,3.2-3.2s3.2,1.44,3.2,3.2-1.28,3.2-3.2,3.2c-1.76,0-3.2-1.44-3.2-3.2Zm0,8c0-1.76,1.44-3.2,3.2-3.2s3.2,1.44,3.2,3.2-1.28,3.2-3.2,3.2c-1.76,0-3.2-1.44-3.2-3.2Zm0,8c0-1.76,1.44-3.2,3.2-3.2s3.2,1.44,3.2,3.2-1.28,3.2-3.2,3.2c-1.76,0-3.2-1.44-3.2-3.2Zm0,8c0-1.76,1.44-3.2,3.2-3.2s3.2,1.44,3.2,3.2-1.28,3.2-3.2,3.2c-1.76,0-3.2-1.44-3.2-3.2Zm0,8c0-1.76,1.44-3.2,3.2-3.2s3.2,1.44,3.2,3.2-1.28,3.2-3.2,3.2c-1.76,0-3.2-1.44-3.2-3.2Zm0,8c0-1.76,1.44-3.2,3.2-3.2s3.2,1.44,3.2,3.2-1.28,3.2-3.2,3.2c-1.76,0-3.2-1.44-3.2-3.2Zm0,8c0-1.76,1.44-3.2,3.2-3.2s3.2,1.44,3.2,3.2-1.28,3.2-3.2,3.2c-1.76,0-3.2-1.44-3.2-3.2Zm0,8c0-1.76,1.44-3.2,3.2-3.2s3.2,1.44,3.2,3.2-1.28,3.2-3.2,3.2c-1.76,0-3.2-1.44-3.2-3.2ZM32,3.2c0-1.76,1.44-3.2,3.2-3.2s3.2,1.44,3.2,3.2-1.28,3.2-3.2,3.2c-1.76,0-3.2-1.44-3.2-3.2Zm0,8c0-1.76,1.44-3.2,3.2-3.2s3.2,1.44,3.2,3.2-1.28,3.2-3.2,3.2c-1.76,0-3.2-1.44-3.2-3.2Zm0,8c0-1.76,1.44-3.2,3.2-3.2s3.2,1.44,3.2,3.2-1.28,3.2-3.2,3.2c-1.76,0-3.2-1.44-3.2-3.2Zm0,8c0-1.76,1.44-3.2,3.2-3.2s3.2,1.44,3.2,3.2-1.28,3.2-3.2,3.2c-1.76,0-3.2-1.44-3.2-3.2Zm0,72c0-1.76,1.44-3.2,3.2-3.2s3.2,1.44,3.2,3.2-1.28,3.2-3.2,3.2c-1.76,0-3.2-1.44-3.2-3.2Zm0,8c0-1.76,1.44-3.2,3.2-3.2s3.2,1.44,3.2,3.2-1.28,3.2-3.2,3.2c-1.76,0-3.2-1.44-3.2-3.2Zm0,8c0-1.76,1.44-3.2,3.2-3.2s3.2,1.44,3.2,3.2-1.28,3.2-3.2,3.2c-1.76,0-3.2-1.44-3.2-3.2Zm0,8c0-1.76,1.44-3.2,3.2-3.2s3.2,1.44,3.2,3.2-1.28,3.2-3.2,3.2c-1.76,0-3.2-1.44-3.2-3.2ZM40,3.2c0-1.76,1.44-3.2,3.2-3.2s3.2,1.44,3.2,3.2-1.28,3.2-3.2,3.2c-1.76,0-3.2-1.44-3.2-3.2Zm0,8c0-1.76,1.44-3.2,3.2-3.2s3.2,1.44,3.2,3.2-1.28,3.2-3.2,3.2c-1.76,0-3.2-1.44-3.2-3.2Zm0,8c0-1.76,1.44-3.2,3.2-3.2s3.2,1.44,3.2,3.2-1.28,3.2-3.2,3.2c-1.76,0-3.2-1.44-3.2-3.2Zm0,8c0-1.76,1.44-3.2,3.2-3.2s3.2,1.44,3.2,3.2-1.28,3.2-3.2,3.2c-1.76,0-3.2-1.44-3.2-3.2Zm0,8c0-1.76,1.44-3.2,3.2-3.2s3.2,1.44,3.2,3.2-1.28,3.2-3.2,3.2c-1.76,0-3.2-1.44-3.2-3.2Zm0,8c0-1.76,1.44-3.2,3.2-3.2s3.2,1.44,3.2,3.2-1.28,3.2-3.2,3.2c-1.76,0-3.2-1.44-3.2-3.2Zm0,8c0-1.76,1.44-3.2,3.2-3.2s3.2,1.44,3.2,3.2-1.28,3.2-3.2,3.2c-1.76,0-3.2-1.44-3.2-3.2Zm0,8c0-1.76,1.44-3.2,3.2-3.2s3.2,1.44,3.2,3.2-1.28,3.2-3.2,3.2c-1.76,0-3.2-1.44-3.2-3.2Zm0,8c0-1.76,1.44-3.2,3.2-3.2s3.2,1.44,3.2,3.2-1.28,3.2-3.2,3.2c-1.76,0-3.2-1.44-3.2-3.2Zm0,8c0-1.76,1.44-3.2,3.2-3.2s3.2,1.44,3.2,3.2-1.28,3.2-3.2,3.2c-1.76,0-3.2-1.44-3.2-3.2Zm0,8c0-1.76,1.44-3.2,3.2-3.2s3.2,1.44,3.2,3.2-1.28,3.2-3.2,3.2c-1.76,0-3.2-1.44-3.2-3.2Zm0,8c0-1.76,1.44-3.2,3.2-3.2s3.2,1.44,3.2,3.2-1.28,3.2-3.2,3.2c-1.76,0-3.2-1.44-3.2-3.2Zm0,8c0-1.76,1.44-3.2,3.2-3.2s3.2,1.44,3.2,3.2-1.28,3.2-3.2,3.2c-1.76,0-3.2-1.44-3.2-3.2Zm0,8c0-1.76,1.44-3.2,3.2-3.2s3.2,1.44,3.2,3.2-1.28,3.2-3.2,3.2c-1.76,0-3.2-1.44-3.2-3.2Zm0,8c0-1.76,1.44-3.2,3.2-3.2s3.2,1.44,3.2,3.2-1.28,3.2-3.2,3.2c-1.76,0-3.2-1.44-3.2-3.2Zm0,8c0-1.76,1.44-3.2,3.2-3.2s3.2,1.44,3.2,3.2-1.28,3.2-3.2,3.2c-1.76,0-3.2-1.44-3.2-3.2ZM48,3.2c0-1.76,1.44-3.2,3.2-3.2s3.2,1.44,3.2,3.2-1.28,3.2-3.2,3.2c-1.76,0-3.2-1.44-3.2-3.2Zm0,8c0-1.76,1.44-3.2,3.2-3.2s3.2,1.44,3.2,3.2-1.28,3.2-3.2,3.2c-1.76,0-3.2-1.44-3.2-3.2Zm0,8c0-1.76,1.44-3.2,3.2-3.2s3.2,1.44,3.2,3.2-1.28,3.2-3.2,3.2c-1.76,0-3.2-1.44-3.2-3.2Zm0,8c0-1.76,1.44-3.2,3.2-3.2s3.2,1.44,3.2,3.2-1.28,3.2-3.2,3.2c-1.76,0-3.2-1.44-3.2-3.2Zm0,8c0-1.76,1.44-3.2,3.2-3.2s3.2,1.44,3.2,3.2-1.28,3.2-3.2,3.2c-1.76,0-3.2-1.44-3.2-3.2Zm0,8c0-1.76,1.44-3.2,3.2-3.2s3.2,1.44,3.2,3.2-1.28,3.2-3.2,3.2c-1.76,0-3.2-1.44-3.2-3.2Zm0,8c0-1.76,1.44-3.2,3.2-3.2s3.2,1.44,3.2,3.2-1.28,3.2-3.2,3.2c-1.76,0-3.2-1.44-3.2-3.2Zm0,8c0-1.76,1.44-3.2,3.2-3.2s3.2,1.44,3.2,3.2-1.28,3.2-3.2,3.2c-1.76,0-3.2-1.44-3.2-3.2Zm0,8c0-1.76,1.44-3.2,3.2-3.2s3.2,1.44,3.2,3.2-1.28,3.2-3.2,3.2c-1.76,0-3.2-1.44-3.2-3.2Zm0,8c0-1.76,1.44-3.2,3.2-3.2s3.2,1.44,3.2,3.2-1.28,3.2-3.2,3.2c-1.76,0-3.2-1.44-3.2-3.2Zm0,8c0-1.76,1.44-3.2,3.2-3.2s3.2,1.44,3.2,3.2-1.28,3.2-3.2,3.2c-1.76,0-3.2-1.44-3.2-3.2Zm0,8c0-1.76,1.44-3.2,3.2-3.2s3.2,1.44,3.2,3.2-1.28,3.2-3.2,3.2c-1.76,0-3.2-1.44-3.2-3.2Zm0,8c0-1.76,1.44-3.2,3.2-3.2s3.2,1.44,3.2,3.2-1.28,3.2-3.2,3.2c-1.76,0-3.2-1.44-3.2-3.2Zm0,8c0-1.76,1.44-3.2,3.2-3.2s3.2,1.44,3.2,3.2-1.28,3.2-3.2,3.2c-1.76,0-3.2-1.44-3.2-3.2Zm0,8c0-1.76,1.44-3.2,3.2-3.2s3.2,1.44,3.2,3.2-1.28,3.2-3.2,3.2c-1.76,0-3.2-1.44-3.2-3.2Zm0,8c0-1.76,1.44-3.2,3.2-3.2s3.2,1.44,3.2,3.2-1.28,3.2-3.2,3.2c-1.76,0-3.2-1.44-3.2-3.2ZM56,3.2c0-1.76,1.44-3.2,3.2-3.2s3.2,1.44,3.2,3.2-1.28,3.2-3.2,3.2c-1.76,0-3.2-1.44-3.2-3.2Zm0,8c0-1.76,1.44-3.2,3.2-3.2s3.2,1.44,3.2,3.2-1.28,3.2-3.2,3.2c-1.76,0-3.2-1.44-3.2-3.2Zm0,8c0-1.76,1.44-3.2,3.2-3.2s3.2,1.44,3.2,3.2-1.28,3.2-3.2,3.2c-1.76,0-3.2-1.44-3.2-3.2Zm0,8c0-1.76,1.44-3.2,3.2-3.2s3.2,1.44,3.2,3.2-1.28,3.2-3.2,3.2c-1.76,0-3.2-1.44-3.2-3.2Zm0,8c0-1.76,1.44-3.2,3.2-3.2s3.2,1.44,3.2,3.2-1.28,3.2-3.2,3.2c-1.76,0-3.2-1.44-3.2-3.2Zm0,8c0-1.76,1.44-3.2,3.2-3.2s3.2,1.44,3.2,3.2-1.28,3.2-3.2,3.2c-1.76,0-3.2-1.44-3.2-3.2Zm0,8c0-1.76,1.44-3.2,3.2-3.2s3.2,1.44,3.2,3.2-1.28,3.2-3.2,3.2c-1.76,0-3.2-1.44-3.2-3.2Zm0,8c0-1.76,1.44-3.2,3.2-3.2s3.2,1.44,3.2,3.2-1.28,3.2-3.2,3.2c-1.76,0-3.2-1.44-3.2-3.2Zm0,8c0-1.76,1.44-3.2,3.2-3.2s3.2,1.44,3.2,3.2-1.28,3.2-3.2,3.2c-1.76,0-3.2-1.44-3.2-3.2Zm0,8c0-1.76,1.44-3.2,3.2-3.2s3.2,1.44,3.2,3.2-1.28,3.2-3.2,3.2c-1.76,0-3.2-1.44-3.2-3.2Zm0,8c0-1.76,1.44-3.2,3.2-3.2s3.2,1.44,3.2,3.2-1.28,3.2-3.2,3.2c-1.76,0-3.2-1.44-3.2-3.2Zm0,8c0-1.76,1.44-3.2,3.2-3.2s3.2,1.44,3.2,3.2-1.28,3.2-3.2,3.2c-1.76,0-3.2-1.44-3.2-3.2Zm0,8c0-1.76,1.44-3.2,3.2-3.2s3.2,1.44,3.2,3.2-1.28,3.2-3.2,3.2c-1.76,0-3.2-1.44-3.2-3.2Zm0,8c0-1.76,1.44-3.2,3.2-3.2s3.2,1.44,3.2,3.2-1.28,3.2-3.2,3.2c-1.76,0-3.2-1.44-3.2-3.2Zm0,8c0-1.76,1.44-3.2,3.2-3.2s3.2,1.44,3.2,3.2-1.28,3.2-3.2,3.2c-1.76,0-3.2-1.44-3.2-3.2Zm0,8c0-1.76,1.44-3.2,3.2-3.2s3.2,1.44,3.2,3.2-1.28,3.2-3.2,3.2c-1.76,0-3.2-1.44-3.2-3.2Zm8-112c0-1.76,1.44-3.2,3.2-3.2s3.2,1.44,3.2,3.2-1.28,3.2-3.2,3.2c-1.76,0-3.2-1.44-3.2-3.2Zm0,8c0-1.76,1.44-3.2,3.2-3.2s3.2,1.44,3.2,3.2-1.28,3.2-3.2,3.2c-1.76,0-3.2-1.44-3.2-3.2Zm0,8c0-1.76,1.44-3.2,3.2-3.2s3.2,1.44,3.2,3.2-1.28,3.2-3.2,3.2c-1.76,0-3.2-1.44-3.2-3.2Zm0,8c0-1.76,1.44-3.2,3.2-3.2s3.2,1.44,3.2,3.2-1.28,3.2-3.2,3.2c-1.76,0-3.2-1.44-3.2-3.2Zm0,8c0-1.76,1.44-3.2,3.2-3.2s3.2,1.44,3.2,3.2-1.28,3.2-3.2,3.2c-1.76,0-3.2-1.44-3.2-3.2Zm0,8c0-1.76,1.44-3.2,3.2-3.2s3.2,1.44,3.2,3.2-1.28,3.2-3.2,3.2c-1.76,0-3.2-1.44-3.2-3.2Zm0,8c0-1.76,1.44-3.2,3.2-3.2s3.2,1.44,3.2,3.2-1.28,3.2-3.2,3.2c-1.76,0-3.2-1.44-3.2-3.2Zm0,8c0-1.76,1.44-3.2,3.2-3.2s3.2,1.44,3.2,3.2-1.28,3.2-3.2,3.2c-1.76,0-3.2-1.44-3.2-3.2Zm0,8c0-1.76,1.44-3.2,3.2-3.2s3.2,1.44,3.2,3.2-1.28,3.2-3.2,3.2c-1.76,0-3.2-1.44-3.2-3.2Zm0,8c0-1.76,1.44-3.2,3.2-3.2s3.2,1.44,3.2,3.2-1.28,3.2-3.2,3.2c-1.76,0-3.2-1.44-3.2-3.2Zm0,8c0-1.76,1.44-3.2,3.2-3.2s3.2,1.44,3.2,3.2-1.28,3.2-3.2,3.2c-1.76,0-3.2-1.44-3.2-3.2Zm0,8c0-1.76,1.44-3.2,3.2-3.2s3.2,1.44,3.2,3.2-1.28,3.2-3.2,3.2c-1.76,0-3.2-1.44-3.2-3.2Zm0,8c0-1.76,1.44-3.2,3.2-3.2s3.2,1.44,3.2,3.2-1.28,3.2-3.2,3.2c-1.76,0-3.2-1.44-3.2-3.2Zm0,8c0-1.76,1.44-3.2,3.2-3.2s3.2,1.44,3.2,3.2-1.28,3.2-3.2,3.2c-1.76,0-3.2-1.44-3.2-3.2Z"/>
      <path d="m80,3.2c0-1.76,1.44-3.2,3.2-3.2s3.2,1.44,3.2,3.2-1.44,3.2-3.2,3.2-3.2-1.44-3.2-3.2Zm0,8c0-1.76,1.44-3.2,3.2-3.2s3.2,1.44,3.2,3.2-1.44,3.2-3.2,3.2-3.2-1.44-3.2-3.2Zm0,8c0-1.76,1.44-3.2,3.2-3.2s3.2,1.44,3.2,3.2-1.44,3.2-3.2,3.2-3.2-1.44-3.2-3.2Zm0,8c0-1.76,1.44-3.2,3.2-3.2s3.2,1.44,3.2,3.2-1.44,3.2-3.2,3.2-3.2-1.44-3.2-3.2Zm0,8c0-1.76,1.44-3.2,3.2-3.2s3.2,1.44,3.2,3.2-1.44,3.2-3.2,3.2-3.2-1.44-3.2-3.2Zm0,8c0-1.76,1.44-3.2,3.2-3.2s3.2,1.44,3.2,3.2-1.44,3.2-3.2,3.2-3.2-1.44-3.2-3.2Zm0,8c0-1.76,1.44-3.2,3.2-3.2s3.2,1.44,3.2,3.2-1.44,3.2-3.2,3.2-3.2-1.44-3.2-3.2Zm0,8c0-1.76,1.44-3.2,3.2-3.2s3.2,1.44,3.2,3.2-1.44,3.2-3.2,3.2-3.2-1.44-3.2-3.2Zm0,8c0-1.76,1.44-3.2,3.2-3.2s3.2,1.44,3.2,3.2-1.44,3.2-3.2,3.2-3.2-1.44-3.2-3.2Zm0,8c0-1.76,1.44-3.2,3.2-3.2s3.2,1.44,3.2,3.2-1.44,3.2-3.2,3.2-3.2-1.44-3.2-3.2Zm0,8c0-1.76,1.44-3.2,3.2-3.2s3.2,1.44,3.2,3.2-1.44,3.2-3.2,3.2-3.2-1.44-3.2-3.2Zm0,8c0-1.76,1.44-3.2,3.2-3.2s3.2,1.44,3.2,3.2-1.44,3.2-3.2,3.2-3.2-1.44-3.2-3.2Zm0,8c0-1.76,1.44-3.2,3.2-3.2s3.2,1.44,3.2,3.2-1.44,3.2-3.2,3.2-3.2-1.44-3.2-3.2Zm0,8c0-1.76,1.44-3.2,3.2-3.2s3.2,1.44,3.2,3.2-1.44,3.2-3.2,3.2-3.2-1.44-3.2-3.2Zm0,8c0-1.76,1.44-3.2,3.2-3.2s3.2,1.44,3.2,3.2-1.44,3.2-3.2,3.2-3.2-1.44-3.2-3.2Zm0,8c0-1.76,1.44-3.2,3.2-3.2s3.2,1.44,3.2,3.2-1.44,3.2-3.2,3.2-3.2-1.44-3.2-3.2ZM88,3.2c0-1.76,1.44-3.2,3.2-3.2s3.2,1.44,3.2,3.2-1.28,3.2-3.2,3.2c-1.76,0-3.2-1.44-3.2-3.2Zm0,8c0-1.76,1.44-3.2,3.2-3.2s3.2,1.44,3.2,3.2-1.28,3.2-3.2,3.2c-1.76,0-3.2-1.44-3.2-3.2Zm0,8c0-1.76,1.44-3.2,3.2-3.2s3.2,1.44,3.2,3.2-1.28,3.2-3.2,3.2c-1.76,0-3.2-1.44-3.2-3.2Zm0,8c0-1.76,1.44-3.2,3.2-3.2s3.2,1.44,3.2,3.2-1.28,3.2-3.2,3.2c-1.76,0-3.2-1.44-3.2-3.2Zm0,8c0-1.76,1.44-3.2,3.2-3.2s3.2,1.44,3.2,3.2-1.28,3.2-3.2,3.2c-1.76,0-3.2-1.44-3.2-3.2Zm0,8c0-1.76,1.44-3.2,3.2-3.2s3.2,1.44,3.2,3.2-1.28,3.2-3.2,3.2c-1.76,0-3.2-1.44-3.2-3.2Zm0,8c0-1.76,1.44-3.2,3.2-3.2s3.2,1.44,3.2,3.2-1.28,3.2-3.2,3.2c-1.76,0-3.2-1.44-3.2-3.2Zm0,8c0-1.76,1.44-3.2,3.2-3.2s3.2,1.44,3.2,3.2-1.28,3.2-3.2,3.2c-1.76,0-3.2-1.44-3.2-3.2Zm0,8c0-1.76,1.44-3.2,3.2-3.2s3.2,1.44,3.2,3.2-1.28,3.2-3.2,3.2c-1.76,0-3.2-1.44-3.2-3.2Zm0,8c0-1.76,1.44-3.2,3.2-3.2s3.2,1.44,3.2,3.2-1.28,3.2-3.2,3.2c-1.76,0-3.2-1.44-3.2-3.2Zm0,8c0-1.76,1.44-3.2,3.2-3.2s3.2,1.44,3.2,3.2-1.28,3.2-3.2,3.2c-1.76,0-3.2-1.44-3.2-3.2Zm0,8c0-1.76,1.44-3.2,3.2-3.2s3.2,1.44,3.2,3.2-1.28,3.2-3.2,3.2c-1.76,0-3.2-1.44-3.2-3.2Zm0,8c0-1.76,1.44-3.2,3.2-3.2s3.2,1.44,3.2,3.2-1.28,3.2-3.2,3.2c-1.76,0-3.2-1.44-3.2-3.2Zm0,8c0-1.76,1.44-3.2,3.2-3.2s3.2,1.44,3.2,3.2-1.28,3.2-3.2,3.2c-1.76,0-3.2-1.44-3.2-3.2Zm0,8c0-1.76,1.44-3.2,3.2-3.2s3.2,1.44,3.2,3.2-1.28,3.2-3.2,3.2c-1.76,0-3.2-1.44-3.2-3.2Zm0,8c0-1.76,1.44-3.2,3.2-3.2s3.2,1.44,3.2,3.2-1.28,3.2-3.2,3.2c-1.76,0-3.2-1.44-3.2-3.2ZM96,3.2c0-1.76,1.44-3.2,3.2-3.2s3.2,1.44,3.2,3.2-1.28,3.2-3.2,3.2c-1.76,0-3.2-1.44-3.2-3.2Zm0,8c0-1.76,1.44-3.2,3.2-3.2s3.2,1.44,3.2,3.2-1.28,3.2-3.2,3.2c-1.76,0-3.2-1.44-3.2-3.2Zm0,8c0-1.76,1.44-3.2,3.2-3.2s3.2,1.44,3.2,3.2-1.28,3.2-3.2,3.2c-1.76,0-3.2-1.44-3.2-3.2Zm0,8c0-1.76,1.44-3.2,3.2-3.2s3.2,1.44,3.2,3.2-1.28,3.2-3.2,3.2c-1.76,0-3.2-1.44-3.2-3.2Zm0,8c0-1.76,1.44-3.2,3.2-3.2s3.2,1.44,3.2,3.2-1.28,3.2-3.2,3.2c-1.76,0-3.2-1.44-3.2-3.2Zm0,8c0-1.76,1.44-3.2,3.2-3.2s3.2,1.44,3.2,3.2-1.28,3.2-3.2,3.2c-1.76,0-3.2-1.44-3.2-3.2Zm0,8c0-1.76,1.44-3.2,3.2-3.2s3.2,1.44,3.2,3.2-1.28,3.2-3.2,3.2c-1.76,0-3.2-1.44-3.2-3.2Zm0,8c0-1.76,1.44-3.2,3.2-3.2s3.2,1.44,3.2,3.2-1.28,3.2-3.2,3.2c-1.76,0-3.2-1.44-3.2-3.2Zm0,8c0-1.76,1.44-3.2,3.2-3.2s3.2,1.44,3.2,3.2-1.28,3.2-3.2,3.2c-1.76,0-3.2-1.44-3.2-3.2Zm0,8c0-1.76,1.44-3.2,3.2-3.2s3.2,1.44,3.2,3.2-1.28,3.2-3.2,3.2c-1.76,0-3.2-1.44-3.2-3.2Zm0,8c0-1.76,1.44-3.2,3.2-3.2s3.2,1.44,3.2,3.2-1.28,3.2-3.2,3.2c-1.76,0-3.2-1.44-3.2-3.2Zm0,8c0-1.76,1.44-3.2,3.2-3.2s3.2,1.44,3.2,3.2-1.28,3.2-3.2,3.2c-1.76,0-3.2-1.44-3.2-3.2Zm0,8c0-1.76,1.44-3.2,3.2-3.2s3.2,1.44,3.2,3.2-1.28,3.2-3.2,3.2c-1.76,0-3.2-1.44-3.2-3.2Zm0,8c0-1.76,1.44-3.2,3.2-3.2s3.2,1.44,3.2,3.2-1.28,3.2-3.2,3.2c-1.76,0-3.2-1.44-3.2-3.2Zm0,8c0-1.76,1.44-3.2,3.2-3.2s3.2,1.44,3.2,3.2-1.28,3.2-3.2,3.2c-1.76,0-3.2-1.44-3.2-3.2Zm0,8c0-1.76,1.44-3.2,3.2-3.2s3.2,1.44,3.2,3.2-1.28,3.2-3.2,3.2c-1.76,0-3.2-1.44-3.2-3.2ZM104,3.2c0-1.76,1.44-3.2,3.2-3.2s3.2,1.44,3.2,3.2-1.28,3.2-3.2,3.2c-1.76,0-3.2-1.44-3.2-3.2Zm0,8c0-1.76,1.44-3.2,3.2-3.2s3.2,1.44,3.2,3.2-1.28,3.2-3.2,3.2c-1.76,0-3.2-1.44-3.2-3.2Zm0,8c0-1.76,1.44-3.2,3.2-3.2s3.2,1.44,3.2,3.2-1.28,3.2-3.2,3.2c-1.76,0-3.2-1.44-3.2-3.2Zm0,8c0-1.76,1.44-3.2,3.2-3.2s3.2,1.44,3.2,3.2-1.28,3.2-3.2,3.2c-1.76,0-3.2-1.44-3.2-3.2Zm0,8c0-1.76,1.44-3.2,3.2-3.2s3.2,1.44,3.2,3.2-1.28,3.2-3.2,3.2c-1.76,0-3.2-1.44-3.2-3.2Zm0,8c0-1.76,1.44-3.2,3.2-3.2s3.2,1.44,3.2,3.2-1.28,3.2-3.2,3.2c-1.76,0-3.2-1.44-3.2-3.2Zm0,8c0-1.76,1.44-3.2,3.2-3.2s3.2,1.44,3.2,3.2-1.28,3.2-3.2,3.2c-1.76,0-3.2-1.44-3.2-3.2Zm0,8c0-1.76,1.44-3.2,3.2-3.2s3.2,1.44,3.2,3.2-1.28,3.2-3.2,3.2c-1.76,0-3.2-1.44-3.2-3.2Zm0,8c0-1.76,1.44-3.2,3.2-3.2s3.2,1.44,3.2,3.2-1.28,3.2-3.2,3.2c-1.76,0-3.2-1.44-3.2-3.2Zm0,8c0-1.76,1.44-3.2,3.2-3.2s3.2,1.44,3.2,3.2-1.28,3.2-3.2,3.2c-1.76,0-3.2-1.44-3.2-3.2Zm0,8c0-1.76,1.44-3.2,3.2-3.2s3.2,1.44,3.2,3.2-1.28,3.2-3.2,3.2c-1.76,0-3.2-1.44-3.2-3.2Zm0,8c0-1.76,1.44-3.2,3.2-3.2s3.2,1.44,3.2,3.2-1.28,3.2-3.2,3.2c-1.76,0-3.2-1.44-3.2-3.2Zm0,8c0-1.76,1.44-3.2,3.2-3.2s3.2,1.44,3.2,3.2-1.28,3.2-3.2,3.2c-1.76,0-3.2-1.44-3.2-3.2Zm0,8c0-1.76,1.44-3.2,3.2-3.2s3.2,1.44,3.2,3.2-1.28,3.2-3.2,3.2c-1.76,0-3.2-1.44-3.2-3.2Zm0,8c0-1.76,1.44-3.2,3.2-3.2s3.2,1.44,3.2,3.2-1.28,3.2-3.2,3.2c-1.76,0-3.2-1.44-3.2-3.2Zm0,8c0-1.76,1.44-3.2,3.2-3.2s3.2,1.44,3.2,3.2-1.28,3.2-3.2,3.2c-1.76,0-3.2-1.44-3.2-3.2Z"/>
      <path d="m120,11.2c0-1.76,1.44-3.2,3.2-3.2s3.2,1.44,3.2,3.2-1.44,3.2-3.2,3.2-3.2-1.44-3.2-3.2Zm0,8c0-1.76,1.44-3.2,3.2-3.2s3.2,1.44,3.2,3.2-1.44,3.2-3.2,3.2-3.2-1.44-3.2-3.2Zm0,8c0-1.76,1.44-3.2,3.2-3.2s3.2,1.44,3.2,3.2-1.44,3.2-3.2,3.2-3.2-1.44-3.2-3.2Zm0,8c0-1.76,1.44-3.2,3.2-3.2s3.2,1.44,3.2,3.2-1.44,3.2-3.2,3.2-3.2-1.44-3.2-3.2Zm0,8c0-1.76,1.44-3.2,3.2-3.2s3.2,1.44,3.2,3.2-1.44,3.2-3.2,3.2-3.2-1.44-3.2-3.2Zm0,8c0-1.76,1.44-3.2,3.2-3.2s3.2,1.44,3.2,3.2-1.44,3.2-3.2,3.2-3.2-1.44-3.2-3.2Zm0,8c0-1.76,1.44-3.2,3.2-3.2s3.2,1.44,3.2,3.2-1.44,3.2-3.2,3.2-3.2-1.44-3.2-3.2Zm0,8c0-1.76,1.44-3.2,3.2-3.2s3.2,1.44,3.2,3.2-1.44,3.2-3.2,3.2-3.2-1.44-3.2-3.2Zm0,8c0-1.76,1.44-3.2,3.2-3.2s3.2,1.44,3.2,3.2-1.44,3.2-3.2,3.2-3.2-1.44-3.2-3.2Zm0,8c0-1.76,1.44-3.2,3.2-3.2s3.2,1.44,3.2,3.2-1.44,3.2-3.2,3.2-3.2-1.44-3.2-3.2Zm0,8c0-1.76,1.44-3.2,3.2-3.2s3.2,1.44,3.2,3.2-1.44,3.2-3.2,3.2-3.2-1.44-3.2-3.2Zm0,8c0-1.76,1.44-3.2,3.2-3.2s3.2,1.44,3.2,3.2-1.44,3.2-3.2,3.2-3.2-1.44-3.2-3.2Zm0,8c0-1.76,1.44-3.2,3.2-3.2s3.2,1.44,3.2,3.2-1.44,3.2-3.2,3.2-3.2-1.44-3.2-3.2Zm0,8c0-1.76,1.44-3.2,3.2-3.2s3.2,1.44,3.2,3.2-1.44,3.2-3.2,3.2-3.2-1.44-3.2-3.2ZM128,3.2c0-1.76,1.44-3.2,3.2-3.2s3.2,1.44,3.2,3.2-1.28,3.2-3.2,3.2c-1.76,0-3.2-1.44-3.2-3.2Zm0,8c0-1.76,1.44-3.2,3.2-3.2s3.2,1.44,3.2,3.2-1.28,3.2-3.2,3.2c-1.76,0-3.2-1.44-3.2-3.2Zm0,8c0-1.76,1.44-3.2,3.2-3.2s3.2,1.44,3.2,3.2-1.28,3.2-3.2,3.2c-1.76,0-3.2-1.44-3.2-3.2Zm0,8c0-1.76,1.44-3.2,3.2-3.2s3.2,1.44,3.2,3.2-1.28,3.2-3.2,3.2c-1.76,0-3.2-1.44-3.2-3.2Zm0,8c0-1.76,1.44-3.2,3.2-3.2s3.2,1.44,3.2,3.2-1.28,3.2-3.2,3.2c-1.76,0-3.2-1.44-3.2-3.2Zm0,8c0-1.76,1.44-3.2,3.2-3.2s3.2,1.44,3.2,3.2-1.28,3.2-3.2,3.2c-1.76,0-3.2-1.44-3.2-3.2Zm0,8c0-1.76,1.44-3.2,3.2-3.2s3.2,1.44,3.2,3.2-1.28,3.2-3.2,3.2c-1.76,0-3.2-1.44-3.2-3.2Zm0,8c0-1.76,1.44-3.2,3.2-3.2s3.2,1.44,3.2,3.2-1.28,3.2-3.2,3.2c-1.76,0-3.2-1.44-3.2-3.2Zm0,8c0-1.76,1.44-3.2,3.2-3.2s3.2,1.44,3.2,3.2-1.28,3.2-3.2,3.2c-1.76,0-3.2-1.44-3.2-3.2Zm0,8c0-1.76,1.44-3.2,3.2-3.2s3.2,1.44,3.2,3.2-1.28,3.2-3.2,3.2c-1.76,0-3.2-1.44-3.2-3.2Zm0,8c0-1.76,1.44-3.2,3.2-3.2s3.2,1.44,3.2,3.2-1.28,3.2-3.2,3.2c-1.76,0-3.2-1.44-3.2-3.2Zm0,8c0-1.76,1.44-3.2,3.2-3.2s3.2,1.44,3.2,3.2-1.28,3.2-3.2,3.2c-1.76,0-3.2-1.44-3.2-3.2Zm0,8c0-1.76,1.44-3.2,3.2-3.2s3.2,1.44,3.2,3.2-1.28,3.2-3.2,3.2c-1.76,0-3.2-1.44-3.2-3.2Zm0,8c0-1.76,1.44-3.2,3.2-3.2s3.2,1.44,3.2,3.2-1.28,3.2-3.2,3.2c-1.76,0-3.2-1.44-3.2-3.2Zm0,8c0-1.76,1.44-3.2,3.2-3.2s3.2,1.44,3.2,3.2-1.28,3.2-3.2,3.2c-1.76,0-3.2-1.44-3.2-3.2Zm0,8c0-1.76,1.44-3.2,3.2-3.2s3.2,1.44,3.2,3.2-1.28,3.2-3.2,3.2c-1.76,0-3.2-1.44-3.2-3.2ZM136,3.2c0-1.76,1.44-3.2,3.2-3.2s3.2,1.44,3.2,3.2-1.28,3.2-3.2,3.2c-1.76,0-3.2-1.44-3.2-3.2Zm0,8c0-1.76,1.44-3.2,3.2-3.2s3.2,1.44,3.2,3.2-1.28,3.2-3.2,3.2c-1.76,0-3.2-1.44-3.2-3.2Zm0,8c0-1.76,1.44-3.2,3.2-3.2s3.2,1.44,3.2,3.2-1.28,3.2-3.2,3.2c-1.76,0-3.2-1.44-3.2-3.2Zm0,8c0-1.76,1.44-3.2,3.2-3.2s3.2,1.44,3.2,3.2-1.28,3.2-3.2,3.2c-1.76,0-3.2-1.44-3.2-3.2Zm0,8c0-1.76,1.44-3.2,3.2-3.2s3.2,1.44,3.2,3.2-1.28,3.2-3.2,3.2c-1.76,0-3.2-1.44-3.2-3.2Zm0,8c0-1.76,1.44-3.2,3.2-3.2s3.2,1.44,3.2,3.2-1.28,3.2-3.2,3.2c-1.76,0-3.2-1.44-3.2-3.2Zm0,8c0-1.76,1.44-3.2,3.2-3.2s3.2,1.44,3.2,3.2-1.28,3.2-3.2,3.2c-1.76,0-3.2-1.44-3.2-3.2Zm0,8c0-1.76,1.44-3.2,3.2-3.2s3.2,1.44,3.2,3.2-1.28,3.2-3.2,3.2c-1.76,0-3.2-1.44-3.2-3.2Zm0,8c0-1.76,1.44-3.2,3.2-3.2s3.2,1.44,3.2,3.2-1.28,3.2-3.2,3.2c-1.76,0-3.2-1.44-3.2-3.2Zm0,8c0-1.76,1.44-3.2,3.2-3.2s3.2,1.44,3.2,3.2-1.28,3.2-3.2,3.2c-1.76,0-3.2-1.44-3.2-3.2Zm0,8c0-1.76,1.44-3.2,3.2-3.2s3.2,1.44,3.2,3.2-1.28,3.2-3.2,3.2c-1.76,0-3.2-1.44-3.2-3.2Zm0,8c0-1.76,1.44-3.2,3.2-3.2s3.2,1.44,3.2,3.2-1.28,3.2-3.2,3.2c-1.76,0-3.2-1.44-3.2-3.2Zm0,8c0-1.76,1.44-3.2,3.2-3.2s3.2,1.44,3.2,3.2-1.28,3.2-3.2,3.2c-1.76,0-3.2-1.44-3.2-3.2Zm0,8c0-1.76,1.44-3.2,3.2-3.2s3.2,1.44,3.2,3.2-1.28,3.2-3.2,3.2c-1.76,0-3.2-1.44-3.2-3.2Zm0,8c0-1.76,1.44-3.2,3.2-3.2s3.2,1.44,3.2,3.2-1.28,3.2-3.2,3.2c-1.76,0-3.2-1.44-3.2-3.2Zm0,8c0-1.76,1.44-3.2,3.2-3.2s3.2,1.44,3.2,3.2-1.28,3.2-3.2,3.2c-1.76,0-3.2-1.44-3.2-3.2ZM144,3.2c0-1.76,1.44-3.2,3.2-3.2s3.2,1.44,3.2,3.2-1.28,3.2-3.2,3.2c-1.76,0-3.2-1.44-3.2-3.2Zm0,8c0-1.76,1.44-3.2,3.2-3.2s3.2,1.44,3.2,3.2-1.28,3.2-3.2,3.2c-1.76,0-3.2-1.44-3.2-3.2Zm0,8c0-1.76,1.44-3.2,3.2-3.2s3.2,1.44,3.2,3.2-1.28,3.2-3.2,3.2c-1.76,0-3.2-1.44-3.2-3.2Zm0,8c0-1.76,1.44-3.2,3.2-3.2s3.2,1.44,3.2,3.2-1.28,3.2-3.2,3.2c-1.76,0-3.2-1.44-3.2-3.2Zm0,8c0-1.76,1.44-3.2,3.2-3.2s3.2,1.44,3.2,3.2-1.28,3.2-3.2,3.2c-1.76,0-3.2-1.44-3.2-3.2Zm0,8c0-1.76,1.44-3.2,3.2-3.2s3.2,1.44,3.2,3.2-1.28,3.2-3.2,3.2c-1.76,0-3.2-1.44-3.2-3.2Zm0,8c0-1.76,1.44-3.2,3.2-3.2s3.2,1.44,3.2,3.2-1.28,3.2-3.2,3.2c-1.76,0-3.2-1.44-3.2-3.2Zm0,8c0-1.76,1.44-3.2,3.2-3.2s3.2,1.44,3.2,3.2-1.28,3.2-3.2,3.2c-1.76,0-3.2-1.44-3.2-3.2Zm0,8c0-1.76,1.44-3.2,3.2-3.2s3.2,1.44,3.2,3.2-1.28,3.2-3.2,3.2c-1.76,0-3.2-1.44-3.2-3.2Zm0,8c0-1.76,1.44-3.2,3.2-3.2s3.2,1.44,3.2,3.2-1.28,3.2-3.2,3.2c-1.76,0-3.2-1.44-3.2-3.2Zm0,8c0-1.76,1.44-3.2,3.2-3.2s3.2,1.44,3.2,3.2-1.28,3.2-3.2,3.2c-1.76,0-3.2-1.44-3.2-3.2Zm0,8c0-1.76,1.44-3.2,3.2-3.2s3.2,1.44,3.2,3.2-1.28,3.2-3.2,3.2c-1.76,0-3.2-1.44-3.2-3.2Zm0,8c0-1.76,1.44-3.2,3.2-3.2s3.2,1.44,3.2,3.2-1.28,3.2-3.2,3.2c-1.76,0-3.2-1.44-3.2-3.2Zm0,8c0-1.76,1.44-3.2,3.2-3.2s3.2,1.44,3.2,3.2-1.28,3.2-3.2,3.2c-1.76,0-3.2-1.44-3.2-3.2Zm0,8c0-1.76,1.44-3.2,3.2-3.2s3.2,1.44,3.2,3.2-1.28,3.2-3.2,3.2c-1.76,0-3.2-1.44-3.2-3.2Zm0,8c0-1.76,1.44-3.2,3.2-3.2s3.2,1.44,3.2,3.2-1.28,3.2-3.2,3.2c-1.76,0-3.2-1.44-3.2-3.2ZM152,3.2c0-1.76,1.44-3.2,3.2-3.2s3.2,1.44,3.2,3.2-1.28,3.2-3.2,3.2c-1.76,0-3.2-1.44-3.2-3.2Zm0,8c0-1.76,1.44-3.2,3.2-3.2s3.2,1.44,3.2,3.2-1.28,3.2-3.2,3.2c-1.76,0-3.2-1.44-3.2-3.2Zm0,8c0-1.76,1.44-3.2,3.2-3.2s3.2,1.44,3.2,3.2-1.28,3.2-3.2,3.2c-1.76,0-3.2-1.44-3.2-3.2Zm0,8c0-1.76,1.44-3.2,3.2-3.2s3.2,1.44,3.2,3.2-1.28,3.2-3.2,3.2c-1.76,0-3.2-1.44-3.2-3.2Zm0,72c0-1.76,1.44-3.2,3.2-3.2s3.2,1.44,3.2,3.2-1.28,3.2-3.2,3.2c-1.76,0-3.2-1.44-3.2-3.2Zm0,8c0-1.76,1.44-3.2,3.2-3.2s3.2,1.44,3.2,3.2-1.28,3.2-3.2,3.2c-1.76,0-3.2-1.44-3.2-3.2Zm0,8c0-1.76,1.44-3.2,3.2-3.2s3.2,1.44,3.2,3.2-1.28,3.2-3.2,3.2c-1.76,0-3.2-1.44-3.2-3.2Zm0,8c0-1.76,1.44-3.2,3.2-3.2s3.2,1.44,3.2,3.2-1.28,3.2-3.2,3.2c-1.76,0-3.2-1.44-3.2-3.2ZM160,3.2c0-1.76,1.44-3.2,3.2-3.2s3.2,1.44,3.2,3.2-1.28,3.2-3.2,3.2c-1.76,0-3.2-1.44-3.2-3.2Zm0,8c0-1.76,1.44-3.2,3.2-3.2s3.2,1.44,3.2,3.2-1.28,3.2-3.2,3.2c-1.76,0-3.2-1.44-3.2-3.2Zm0,8c0-1.76,1.44-3.2,3.2-3.2s3.2,1.44,3.2,3.2-1.28,3.2-3.2,3.2c-1.76,0-3.2-1.44-3.2-3.2Zm0,8c0-1.76,1.44-3.2,3.2-3.2s3.2,1.44,3.2,3.2-1.28,3.2-3.2,3.2c-1.76,0-3.2-1.44-3.2-3.2Zm0,8c0-1.76,1.44-3.2,3.2-3.2s3.2,1.44,3.2,3.2-1.28,3.2-3.2,3.2c-1.76,0-3.2-1.44-3.2-3.2Zm0,24c0-1.76,1.44-3.2,3.2-3.2s3.2,1.44,3.2,3.2-1.28,3.2-3.2,3.2c-1.76,0-3.2-1.44-3.2-3.2Zm0,8c0-1.76,1.44-3.2,3.2-3.2s3.2,1.44,3.2,3.2-1.28,3.2-3.2,3.2c-1.76,0-3.2-1.44-3.2-3.2Zm0,8c0-1.76,1.44-3.2,3.2-3.2s3.2,1.44,3.2,3.2-1.28,3.2-3.2,3.2c-1.76,0-3.2-1.44-3.2-3.2Zm0,8c0-1.76,1.44-3.2,3.2-3.2s3.2,1.44,3.2,3.2-1.28,3.2-3.2,3.2c-1.76,0-3.2-1.44-3.2-3.2Zm0,16c0-1.76,1.44-3.2,3.2-3.2s3.2,1.44,3.2,3.2-1.28,3.2-3.2,3.2c-1.76,0-3.2-1.44-3.2-3.2Zm0,8c0-1.76,1.44-3.2,3.2-3.2s3.2,1.44,3.2,3.2-1.28,3.2-3.2,3.2c-1.76,0-3.2-1.44-3.2-3.2Zm0,8c0-1.76,1.44-3.2,3.2-3.2s3.2,1.44,3.2,3.2-1.28,3.2-3.2,3.2c-1.76,0-3.2-1.44-3.2-3.2Zm0,8c0-1.76,1.44-3.2,3.2-3.2s3.2,1.44,3.2,3.2-1.28,3.2-3.2,3.2c-1.76,0-3.2-1.44-3.2-3.2ZM168,3.2c0-1.76,1.44-3.2,3.2-3.2s3.2,1.44,3.2,3.2-1.28,3.2-3.2,3.2c-1.76,0-3.2-1.44-3.2-3.2Zm0,8c0-1.76,1.44-3.2,3.2-3.2s3.2,1.44,3.2,3.2-1.28,3.2-3.2,3.2c-1.76,0-3.2-1.44-3.2-3.2Zm0,8c0-1.76,1.44-3.2,3.2-3.2s3.2,1.44,3.2,3.2-1.28,3.2-3.2,3.2c-1.76,0-3.2-1.44-3.2-3.2Zm0,8c0-1.76,1.44-3.2,3.2-3.2s3.2,1.44,3.2,3.2-1.28,3.2-3.2,3.2c-1.76,0-3.2-1.44-3.2-3.2Zm0,8c0-1.76,1.44-3.2,3.2-3.2s3.2,1.44,3.2,3.2-1.28,3.2-3.2,3.2c-1.76,0-3.2-1.44-3.2-3.2Zm0,24c0-1.76,1.44-3.2,3.2-3.2s3.2,1.44,3.2,3.2-1.28,3.2-3.2,3.2c-1.76,0-3.2-1.44-3.2-3.2Zm0,8c0-1.76,1.44-3.2,3.2-3.2s3.2,1.44,3.2,3.2-1.28,3.2-3.2,3.2c-1.76,0-3.2-1.44-3.2-3.2Zm0,8c0-1.76,1.44-3.2,3.2-3.2s3.2,1.44,3.2,3.2-1.28,3.2-3.2,3.2c-1.76,0-3.2-1.44-3.2-3.2Zm0,8c0-1.76,1.44-3.2,3.2-3.2s3.2,1.44,3.2,3.2-1.28,3.2-3.2,3.2c-1.76,0-3.2-1.44-3.2-3.2Zm0,8c0-1.76,1.44-3.2,3.2-3.2s3.2,1.44,3.2,3.2-1.28,3.2-3.2,3.2c-1.76,0-3.2-1.44-3.2-3.2Zm0,8c0-1.76,1.44-3.2,3.2-3.2s3.2,1.44,3.2,3.2-1.28,3.2-3.2,3.2c-1.76,0-3.2-1.44-3.2-3.2Zm0,8c0-1.76,1.44-3.2,3.2-3.2s3.2,1.44,3.2,3.2-1.28,3.2-3.2,3.2c-1.76,0-3.2-1.44-3.2-3.2Zm0,8c0-1.76,1.44-3.2,3.2-3.2s3.2,1.44,3.2,3.2-1.28,3.2-3.2,3.2c-1.76,0-3.2-1.44-3.2-3.2Zm0,8c0-1.76,1.44-3.2,3.2-3.2s3.2,1.44,3.2,3.2-1.28,3.2-3.2,3.2c-1.76,0-3.2-1.44-3.2-3.2ZM176,3.2c0-1.76,1.44-3.2,3.2-3.2s3.2,1.44,3.2,3.2-1.28,3.2-3.2,3.2c-1.76,0-3.2-1.44-3.2-3.2Zm0,8c0-1.76,1.44-3.2,3.2-3.2s3.2,1.44,3.2,3.2-1.28,3.2-3.2,3.2c-1.76,0-3.2-1.44-3.2-3.2Zm0,8c0-1.76,1.44-3.2,3.2-3.2s3.2,1.44,3.2,3.2-1.28,3.2-3.2,3.2c-1.76,0-3.2-1.44-3.2-3.2Zm0,8c0-1.76,1.44-3.2,3.2-3.2s3.2,1.44,3.2,3.2-1.28,3.2-3.2,3.2c-1.76,0-3.2-1.44-3.2-3.2Zm0,8c0-1.76,1.44-3.2,3.2-3.2s3.2,1.44,3.2,3.2-1.28,3.2-3.2,3.2c-1.76,0-3.2-1.44-3.2-3.2Zm0,24c0-1.76,1.44-3.2,3.2-3.2s3.2,1.44,3.2,3.2-1.28,3.2-3.2,3.2c-1.76,0-3.2-1.44-3.2-3.2Zm0,8c0-1.76,1.44-3.2,3.2-3.2s3.2,1.44,3.2,3.2-1.28,3.2-3.2,3.2c-1.76,0-3.2-1.44-3.2-3.2Zm0,8c0-1.76,1.44-3.2,3.2-3.2s3.2,1.44,3.2,3.2-1.28,3.2-3.2,3.2c-1.76,0-3.2-1.44-3.2-3.2Zm0,8c0-1.76,1.44-3.2,3.2-3.2s3.2,1.44,3.2,3.2-1.28,3.2-3.2,3.2c-1.76,0-3.2-1.44-3.2-3.2Zm0,8c0-1.76,1.44-3.2,3.2-3.2s3.2,1.44,3.2,3.2-1.28,3.2-3.2,3.2c-1.76,0-3.2-1.44-3.2-3.2Zm0,8c0-1.76,1.44-3.2,3.2-3.2s3.2,1.44,3.2,3.2-1.28,3.2-3.2,3.2c-1.76,0-3.2-1.44-3.2-3.2Zm0,8c0-1.76,1.44-3.2,3.2-3.2s3.2,1.44,3.2,3.2-1.28,3.2-3.2,3.2c-1.76,0-3.2-1.44-3.2-3.2Zm0,8c0-1.76,1.44-3.2,3.2-3.2s3.2,1.44,3.2,3.2-1.28,3.2-3.2,3.2c-1.76,0-3.2-1.44-3.2-3.2Zm0,8c0-1.76,1.44-3.2,3.2-3.2s3.2,1.44,3.2,3.2-1.28,3.2-3.2,3.2c-1.76,0-3.2-1.44-3.2-3.2Zm8-112c0-1.76,1.44-3.2,3.2-3.2s3.2,1.44,3.2,3.2-1.28,3.2-3.2,3.2c-1.76,0-3.2-1.44-3.2-3.2Zm0,8c0-1.76,1.44-3.2,3.2-3.2s3.2,1.44,3.2,3.2-1.28,3.2-3.2,3.2c-1.76,0-3.2-1.44-3.2-3.2Zm0,8c0-1.76,1.44-3.2,3.2-3.2s3.2,1.44,3.2,3.2-1.28,3.2-3.2,3.2c-1.76,0-3.2-1.44-3.2-3.2Zm0,8c0-1.76,1.44-3.2,3.2-3.2s3.2,1.44,3.2,3.2-1.28,3.2-3.2,3.2c-1.76,0-3.2-1.44-3.2-3.2Zm0,24c0-1.76,1.44-3.2,3.2-3.2s3.2,1.44,3.2,3.2-1.28,3.2-3.2,3.2c-1.76,0-3.2-1.44-3.2-3.2Zm0,8c0-1.76,1.44-3.2,3.2-3.2s3.2,1.44,3.2,3.2-1.28,3.2-3.2,3.2c-1.76,0-3.2-1.44-3.2-3.2Zm0,8c0-1.76,1.44-3.2,3.2-3.2s3.2,1.44,3.2,3.2-1.28,3.2-3.2,3.2c-1.76,0-3.2-1.44-3.2-3.2Zm0,8c0-1.76,1.44-3.2,3.2-3.2s3.2,1.44,3.2,3.2-1.28,3.2-3.2,3.2c-1.76,0-3.2-1.44-3.2-3.2Zm0,8c0-1.76,1.44-3.2,3.2-3.2s3.2,1.44,3.2,3.2-1.28,3.2-3.2,3.2c-1.76,0-3.2-1.44-3.2-3.2Zm0,8c0-1.76,1.44-3.2,3.2-3.2s3.2,1.44,3.2,3.2-1.28,3.2-3.2,3.2c-1.76,0-3.2-1.44-3.2-3.2Zm0,8c0-1.76,1.44-3.2,3.2-3.2s3.2,1.44,3.2,3.2-1.28,3.2-3.2,3.2c-1.76,0-3.2-1.44-3.2-3.2Zm0,8c0-1.76,1.44-3.2,3.2-3.2s3.2,1.44,3.2,3.2-1.28,3.2-3.2,3.2c-1.76,0-3.2-1.44-3.2-3.2Z"/>
      <path d="m200,3.2c0-1.76,1.44-3.2,3.2-3.2s3.2,1.44,3.2,3.2-1.44,3.2-3.2,3.2-3.2-1.44-3.2-3.2Zm0,8c0-1.76,1.44-3.2,3.2-3.2s3.2,1.44,3.2,3.2-1.44,3.2-3.2,3.2-3.2-1.44-3.2-3.2Zm0,8c0-1.76,1.44-3.2,3.2-3.2s3.2,1.44,3.2,3.2-1.44,3.2-3.2,3.2-3.2-1.44-3.2-3.2Zm0,8c0-1.76,1.44-3.2,3.2-3.2s3.2,1.44,3.2,3.2-1.44,3.2-3.2,3.2-3.2-1.44-3.2-3.2Zm0,8c0-1.76,1.44-3.2,3.2-3.2s3.2,1.44,3.2,3.2-1.44,3.2-3.2,3.2-3.2-1.44-3.2-3.2Zm0,8c0-1.76,1.44-3.2,3.2-3.2s3.2,1.44,3.2,3.2-1.44,3.2-3.2,3.2-3.2-1.44-3.2-3.2Zm0,8c0-1.76,1.44-3.2,3.2-3.2s3.2,1.44,3.2,3.2-1.44,3.2-3.2,3.2-3.2-1.44-3.2-3.2Zm0,8c0-1.76,1.44-3.2,3.2-3.2s3.2,1.44,3.2,3.2-1.44,3.2-3.2,3.2-3.2-1.44-3.2-3.2Zm0,8c0-1.76,1.44-3.2,3.2-3.2s3.2,1.44,3.2,3.2-1.44,3.2-3.2,3.2-3.2-1.44-3.2-3.2Zm0,8c0-1.76,1.44-3.2,3.2-3.2s3.2,1.44,3.2,3.2-1.44,3.2-3.2,3.2-3.2-1.44-3.2-3.2Zm0,8c0-1.76,1.44-3.2,3.2-3.2s3.2,1.44,3.2,3.2-1.44,3.2-3.2,3.2-3.2-1.44-3.2-3.2Zm0,8c0-1.76,1.44-3.2,3.2-3.2s3.2,1.44,3.2,3.2-1.44,3.2-3.2,3.2-3.2-1.44-3.2-3.2Zm0,8c0-1.76,1.44-3.2,3.2-3.2s3.2,1.44,3.2,3.2-1.44,3.2-3.2,3.2-3.2-1.44-3.2-3.2Zm0,8c0-1.76,1.44-3.2,3.2-3.2s3.2,1.44,3.2,3.2-1.44,3.2-3.2,3.2-3.2-1.44-3.2-3.2Zm0,8c0-1.76,1.44-3.2,3.2-3.2s3.2,1.44,3.2,3.2-1.44,3.2-3.2,3.2-3.2-1.44-3.2-3.2Zm0,8c0-1.76,1.44-3.2,3.2-3.2s3.2,1.44,3.2,3.2-1.44,3.2-3.2,3.2-3.2-1.44-3.2-3.2ZM208,3.2c0-1.76,1.44-3.2,3.2-3.2s3.2,1.44,3.2,3.2-1.28,3.2-3.2,3.2c-1.76,0-3.2-1.44-3.2-3.2Zm0,8c0-1.76,1.44-3.2,3.2-3.2s3.2,1.44,3.2,3.2-1.28,3.2-3.2,3.2c-1.76,0-3.2-1.44-3.2-3.2Zm0,8c0-1.76,1.44-3.2,3.2-3.2s3.2,1.44,3.2,3.2-1.28,3.2-3.2,3.2c-1.76,0-3.2-1.44-3.2-3.2Zm0,8c0-1.76,1.44-3.2,3.2-3.2s3.2,1.44,3.2,3.2-1.28,3.2-3.2,3.2c-1.76,0-3.2-1.44-3.2-3.2Zm0,8c0-1.76,1.44-3.2,3.2-3.2s3.2,1.44,3.2,3.2-1.28,3.2-3.2,3.2c-1.76,0-3.2-1.44-3.2-3.2Zm0,8c0-1.76,1.44-3.2,3.2-3.2s3.2,1.44,3.2,3.2-1.28,3.2-3.2,3.2c-1.76,0-3.2-1.44-3.2-3.2Zm0,8c0-1.76,1.44-3.2,3.2-3.2s3.2,1.44,3.2,3.2-1.28,3.2-3.2,3.2c-1.76,0-3.2-1.44-3.2-3.2Zm0,8c0-1.76,1.44-3.2,3.2-3.2s3.2,1.44,3.2,3.2-1.28,3.2-3.2,3.2c-1.76,0-3.2-1.44-3.2-3.2Zm0,8c0-1.76,1.44-3.2,3.2-3.2s3.2,1.44,3.2,3.2-1.28,3.2-3.2,3.2c-1.76,0-3.2-1.44-3.2-3.2Zm0,8c0-1.76,1.44-3.2,3.2-3.2s3.2,1.44,3.2,3.2-1.28,3.2-3.2,3.2c-1.76,0-3.2-1.44-3.2-3.2Zm0,8c0-1.76,1.44-3.2,3.2-3.2s3.2,1.44,3.2,3.2-1.28,3.2-3.2,3.2c-1.76,0-3.2-1.44-3.2-3.2Zm0,8c0-1.76,1.44-3.2,3.2-3.2s3.2,1.44,3.2,3.2-1.28,3.2-3.2,3.2c-1.76,0-3.2-1.44-3.2-3.2Zm0,8c0-1.76,1.44-3.2,3.2-3.2s3.2,1.44,3.2,3.2-1.28,3.2-3.2,3.2c-1.76,0-3.2-1.44-3.2-3.2Zm0,8c0-1.76,1.44-3.2,3.2-3.2s3.2,1.44,3.2,3.2-1.28,3.2-3.2,3.2c-1.76,0-3.2-1.44-3.2-3.2Zm0,8c0-1.76,1.44-3.2,3.2-3.2s3.2,1.44,3.2,3.2-1.28,3.2-3.2,3.2c-1.76,0-3.2-1.44-3.2-3.2Zm0,8c0-1.76,1.44-3.2,3.2-3.2s3.2,1.44,3.2,3.2-1.28,3.2-3.2,3.2c-1.76,0-3.2-1.44-3.2-3.2ZM216,3.2c0-1.76,1.44-3.2,3.2-3.2s3.2,1.44,3.2,3.2-1.28,3.2-3.2,3.2c-1.76,0-3.2-1.44-3.2-3.2Zm0,8c0-1.76,1.44-3.2,3.2-3.2s3.2,1.44,3.2,3.2-1.28,3.2-3.2,3.2c-1.76,0-3.2-1.44-3.2-3.2Zm0,8c0-1.76,1.44-3.2,3.2-3.2s3.2,1.44,3.2,3.2-1.28,3.2-3.2,3.2c-1.76,0-3.2-1.44-3.2-3.2Zm0,8c0-1.76,1.44-3.2,3.2-3.2s3.2,1.44,3.2,3.2-1.28,3.2-3.2,3.2c-1.76,0-3.2-1.44-3.2-3.2Zm0,8c0-1.76,1.44-3.2,3.2-3.2s3.2,1.44,3.2,3.2-1.28,3.2-3.2,3.2c-1.76,0-3.2-1.44-3.2-3.2Zm0,8c0-1.76,1.44-3.2,3.2-3.2s3.2,1.44,3.2,3.2-1.28,3.2-3.2,3.2c-1.76,0-3.2-1.44-3.2-3.2Zm0,8c0-1.76,1.44-3.2,3.2-3.2s3.2,1.44,3.2,3.2-1.28,3.2-3.2,3.2c-1.76,0-3.2-1.44-3.2-3.2Zm0,8c0-1.76,1.44-3.2,3.2-3.2s3.2,1.44,3.2,3.2-1.28,3.2-3.2,3.2c-1.76,0-3.2-1.44-3.2-3.2Zm0,8c0-1.76,1.44-3.2,3.2-3.2s3.2,1.44,3.2,3.2-1.28,3.2-3.2,3.2c-1.76,0-3.2-1.44-3.2-3.2Zm0,8c0-1.76,1.44-3.2,3.2-3.2s3.2,1.44,3.2,3.2-1.28,3.2-3.2,3.2c-1.76,0-3.2-1.44-3.2-3.2Zm0,8c0-1.76,1.44-3.2,3.2-3.2s3.2,1.44,3.2,3.2-1.28,3.2-3.2,3.2c-1.76,0-3.2-1.44-3.2-3.2Zm0,8c0-1.76,1.44-3.2,3.2-3.2s3.2,1.44,3.2,3.2-1.28,3.2-3.2,3.2c-1.76,0-3.2-1.44-3.2-3.2Zm0,8c0-1.76,1.44-3.2,3.2-3.2s3.2,1.44,3.2,3.2-1.28,3.2-3.2,3.2c-1.76,0-3.2-1.44-3.2-3.2Zm0,8c0-1.76,1.44-3.2,3.2-3.2s3.2,1.44,3.2,3.2-1.28,3.2-3.2,3.2c-1.76,0-3.2-1.44-3.2-3.2Zm0,8c0-1.76,1.44-3.2,3.2-3.2s3.2,1.44,3.2,3.2-1.28,3.2-3.2,3.2c-1.76,0-3.2-1.44-3.2-3.2Zm0,8c0-1.76,1.44-3.2,3.2-3.2s3.2,1.44,3.2,3.2-1.28,3.2-3.2,3.2c-1.76,0-3.2-1.44-3.2-3.2ZM224,3.2c0-1.76,1.44-3.2,3.2-3.2s3.2,1.44,3.2,3.2-1.28,3.2-3.2,3.2c-1.76,0-3.2-1.44-3.2-3.2Zm0,8c0-1.76,1.44-3.2,3.2-3.2s3.2,1.44,3.2,3.2-1.28,3.2-3.2,3.2c-1.76,0-3.2-1.44-3.2-3.2Zm0,8c0-1.76,1.44-3.2,3.2-3.2s3.2,1.44,3.2,3.2-1.28,3.2-3.2,3.2c-1.76,0-3.2-1.44-3.2-3.2Zm0,8c0-1.76,1.44-3.2,3.2-3.2s3.2,1.44,3.2,3.2-1.28,3.2-3.2,3.2c-1.76,0-3.2-1.44-3.2-3.2Zm0,8c0-1.76,1.44-3.2,3.2-3.2s3.2,1.44,3.2,3.2-1.28,3.2-3.2,3.2c-1.76,0-3.2-1.44-3.2-3.2Zm0,8c0-1.76,1.44-3.2,3.2-3.2s3.2,1.44,3.2,3.2-1.28,3.2-3.2,3.2c-1.76,0-3.2-1.44-3.2-3.2Zm0,8c0-1.76,1.44-3.2,3.2-3.2s3.2,1.44,3.2,3.2-1.28,3.2-3.2,3.2c-1.76,0-3.2-1.44-3.2-3.2Zm0,8c0-1.76,1.44-3.2,3.2-3.2s3.2,1.44,3.2,3.2-1.28,3.2-3.2,3.2c-1.76,0-3.2-1.44-3.2-3.2Zm0,8c0-1.76,1.44-3.2,3.2-3.2s3.2,1.44,3.2,3.2-1.28,3.2-3.2,3.2c-1.76,0-3.2-1.44-3.2-3.2Zm0,8c0-1.76,1.44-3.2,3.2-3.2s3.2,1.44,3.2,3.2-1.28,3.2-3.2,3.2c-1.76,0-3.2-1.44-3.2-3.2Zm0,8c0-1.76,1.44-3.2,3.2-3.2s3.2,1.44,3.2,3.2-1.28,3.2-3.2,3.2c-1.76,0-3.2-1.44-3.2-3.2Zm0,8c0-1.76,1.44-3.2,3.2-3.2s3.2,1.44,3.2,3.2-1.28,3.2-3.2,3.2c-1.76,0-3.2-1.44-3.2-3.2Zm0,8c0-1.76,1.44-3.2,3.2-3.2s3.2,1.44,3.2,3.2-1.28,3.2-3.2,3.2c-1.76,0-3.2-1.44-3.2-3.2Zm0,8c0-1.76,1.44-3.2,3.2-3.2s3.2,1.44,3.2,3.2-1.28,3.2-3.2,3.2c-1.76,0-3.2-1.44-3.2-3.2Zm0,8c0-1.76,1.44-3.2,3.2-3.2s3.2,1.44,3.2,3.2-1.28,3.2-3.2,3.2c-1.76,0-3.2-1.44-3.2-3.2Zm0,8c0-1.76,1.44-3.2,3.2-3.2s3.2,1.44,3.2,3.2-1.28,3.2-3.2,3.2c-1.76,0-3.2-1.44-3.2-3.2Z"/>
      <path d="m236,3.2c0-1.76,1.44-3.2,3.2-3.2s3.2,1.44,3.2,3.2-1.44,3.2-3.2,3.2-3.2-1.44-3.2-3.2Zm0,8c0-1.76,1.44-3.2,3.2-3.2s3.2,1.44,3.2,3.2-1.44,3.2-3.2,3.2-3.2-1.44-3.2-3.2Zm0,8c0-1.76,1.44-3.2,3.2-3.2s3.2,1.44,3.2,3.2-1.44,3.2-3.2,3.2-3.2-1.44-3.2-3.2Zm0,8c0-1.76,1.44-3.2,3.2-3.2s3.2,1.44,3.2,3.2-1.44,3.2-3.2,3.2-3.2-1.44-3.2-3.2Zm8-24c0-1.76,1.44-3.2,3.2-3.2s3.2,1.44,3.2,3.2-1.28,3.2-3.2,3.2c-1.76,0-3.2-1.44-3.2-3.2Zm0,8c0-1.76,1.44-3.2,3.2-3.2s3.2,1.44,3.2,3.2-1.28,3.2-3.2,3.2c-1.76,0-3.2-1.44-3.2-3.2Zm0,8c0-1.76,1.44-3.2,3.2-3.2s3.2,1.44,3.2,3.2-1.28,3.2-3.2,3.2c-1.76,0-3.2-1.44-3.2-3.2Zm0,8c0-1.76,1.44-3.2,3.2-3.2s3.2,1.44,3.2,3.2-1.28,3.2-3.2,3.2c-1.76,0-3.2-1.44-3.2-3.2Zm8-24c0-1.76,1.44-3.2,3.2-3.2s3.2,1.44,3.2,3.2-1.28,3.2-3.2,3.2c-1.76,0-3.2-1.44-3.2-3.2Zm0,8c0-1.76,1.44-3.2,3.2-3.2s3.2,1.44,3.2,3.2-1.28,3.2-3.2,3.2c-1.76,0-3.2-1.44-3.2-3.2Zm0,8c0-1.76,1.44-3.2,3.2-3.2s3.2,1.44,3.2,3.2-1.28,3.2-3.2,3.2c-1.76,0-3.2-1.44-3.2-3.2Zm0,8c0-1.76,1.44-3.2,3.2-3.2s3.2,1.44,3.2,3.2-1.28,3.2-3.2,3.2c-1.76,0-3.2-1.44-3.2-3.2Zm0,8c0-1.76,1.44-3.2,3.2-3.2s3.2,1.44,3.2,3.2-1.28,3.2-3.2,3.2c-1.76,0-3.2-1.44-3.2-3.2Zm0,8c0-1.76,1.44-3.2,3.2-3.2s3.2,1.44,3.2,3.2-1.28,3.2-3.2,3.2c-1.76,0-3.2-1.44-3.2-3.2Zm0,8c0-1.76,1.44-3.2,3.2-3.2s3.2,1.44,3.2,3.2-1.28,3.2-3.2,3.2c-1.76,0-3.2-1.44-3.2-3.2Zm0,8c0-1.76,1.44-3.2,3.2-3.2s3.2,1.44,3.2,3.2-1.28,3.2-3.2,3.2c-1.76,0-3.2-1.44-3.2-3.2Zm0,8c0-1.76,1.44-3.2,3.2-3.2s3.2,1.44,3.2,3.2-1.28,3.2-3.2,3.2c-1.76,0-3.2-1.44-3.2-3.2Zm0,8c0-1.76,1.44-3.2,3.2-3.2s3.2,1.44,3.2,3.2-1.28,3.2-3.2,3.2c-1.76,0-3.2-1.44-3.2-3.2Zm0,8c0-1.76,1.44-3.2,3.2-3.2s3.2,1.44,3.2,3.2-1.28,3.2-3.2,3.2c-1.76,0-3.2-1.44-3.2-3.2Zm0,8c0-1.76,1.44-3.2,3.2-3.2s3.2,1.44,3.2,3.2-1.28,3.2-3.2,3.2c-1.76,0-3.2-1.44-3.2-3.2Zm0,8c0-1.76,1.44-3.2,3.2-3.2s3.2,1.44,3.2,3.2-1.28,3.2-3.2,3.2c-1.76,0-3.2-1.44-3.2-3.2Zm0,8c0-1.76,1.44-3.2,3.2-3.2s3.2,1.44,3.2,3.2-1.28,3.2-3.2,3.2c-1.76,0-3.2-1.44-3.2-3.2Zm0,8c0-1.76,1.44-3.2,3.2-3.2s3.2,1.44,3.2,3.2-1.28,3.2-3.2,3.2c-1.76,0-3.2-1.44-3.2-3.2Zm0,8c0-1.76,1.44-3.2,3.2-3.2s3.2,1.44,3.2,3.2-1.28,3.2-3.2,3.2c-1.76,0-3.2-1.44-3.2-3.2Zm8-120c0-1.76,1.44-3.2,3.2-3.2s3.2,1.44,3.2,3.2-1.28,3.2-3.2,3.2c-1.76,0-3.2-1.44-3.2-3.2Zm0,8c0-1.76,1.44-3.2,3.2-3.2s3.2,1.44,3.2,3.2-1.28,3.2-3.2,3.2c-1.76,0-3.2-1.44-3.2-3.2Zm0,8c0-1.76,1.44-3.2,3.2-3.2s3.2,1.44,3.2,3.2-1.28,3.2-3.2,3.2c-1.76,0-3.2-1.44-3.2-3.2Zm0,8c0-1.76,1.44-3.2,3.2-3.2s3.2,1.44,3.2,3.2-1.28,3.2-3.2,3.2c-1.76,0-3.2-1.44-3.2-3.2Zm0,8c0-1.76,1.44-3.2,3.2-3.2s3.2,1.44,3.2,3.2-1.28,3.2-3.2,3.2c-1.76,0-3.2-1.44-3.2-3.2Zm0,8c0-1.76,1.44-3.2,3.2-3.2s3.2,1.44,3.2,3.2-1.28,3.2-3.2,3.2c-1.76,0-3.2-1.44-3.2-3.2Zm0,8c0-1.76,1.44-3.2,3.2-3.2s3.2,1.44,3.2,3.2-1.28,3.2-3.2,3.2c-1.76,0-3.2-1.44-3.2-3.2Zm0,8c0-1.76,1.44-3.2,3.2-3.2s3.2,1.44,3.2,3.2-1.28,3.2-3.2,3.2c-1.76,0-3.2-1.44-3.2-3.2Zm0,8c0-1.76,1.44-3.2,3.2-3.2s3.2,1.44,3.2,3.2-1.28,3.2-3.2,3.2c-1.76,0-3.2-1.44-3.2-3.2Zm0,8c0-1.76,1.44-3.2,3.2-3.2s3.2,1.44,3.2,3.2-1.28,3.2-3.2,3.2c-1.76,0-3.2-1.44-3.2-3.2Zm0,8c0-1.76,1.44-3.2,3.2-3.2s3.2,1.44,3.2,3.2-1.28,3.2-3.2,3.2c-1.76,0-3.2-1.44-3.2-3.2Zm0,8c0-1.76,1.44-3.2,3.2-3.2s3.2,1.44,3.2,3.2-1.28,3.2-3.2,3.2c-1.76,0-3.2-1.44-3.2-3.2Zm0,8c0-1.76,1.44-3.2,3.2-3.2s3.2,1.44,3.2,3.2-1.28,3.2-3.2,3.2c-1.76,0-3.2-1.44-3.2-3.2Zm0,8c0-1.76,1.44-3.2,3.2-3.2s3.2,1.44,3.2,3.2-1.28,3.2-3.2,3.2c-1.76,0-3.2-1.44-3.2-3.2Zm0,8c0-1.76,1.44-3.2,3.2-3.2s3.2,1.44,3.2,3.2-1.28,3.2-3.2,3.2c-1.76,0-3.2-1.44-3.2-3.2Zm0,8c0-1.76,1.44-3.2,3.2-3.2s3.2,1.44,3.2,3.2-1.28,3.2-3.2,3.2c-1.76,0-3.2-1.44-3.2-3.2Zm8-120c0-1.76,1.44-3.2,3.2-3.2s3.2,1.44,3.2,3.2-1.28,3.2-3.2,3.2c-1.76,0-3.2-1.44-3.2-3.2Zm0,8c0-1.76,1.44-3.2,3.2-3.2s3.2,1.44,3.2,3.2-1.28,3.2-3.2,3.2c-1.76,0-3.2-1.44-3.2-3.2Zm0,8c0-1.76,1.44-3.2,3.2-3.2s3.2,1.44,3.2,3.2-1.28,3.2-3.2,3.2c-1.76,0-3.2-1.44-3.2-3.2Zm0,8c0-1.76,1.44-3.2,3.2-3.2s3.2,1.44,3.2,3.2-1.28,3.2-3.2,3.2c-1.76,0-3.2-1.44-3.2-3.2Zm0,8c0-1.76,1.44-3.2,3.2-3.2s3.2,1.44,3.2,3.2-1.28,3.2-3.2,3.2c-1.76,0-3.2-1.44-3.2-3.2Zm0,8c0-1.76,1.44-3.2,3.2-3.2s3.2,1.44,3.2,3.2-1.28,3.2-3.2,3.2c-1.76,0-3.2-1.44-3.2-3.2Zm0,8c0-1.76,1.44-3.2,3.2-3.2s3.2,1.44,3.2,3.2-1.28,3.2-3.2,3.2c-1.76,0-3.2-1.44-3.2-3.2Zm0,8c0-1.76,1.44-3.2,3.2-3.2s3.2,1.44,3.2,3.2-1.28,3.2-3.2,3.2c-1.76,0-3.2-1.44-3.2-3.2Zm0,8c0-1.76,1.44-3.2,3.2-3.2s3.2,1.44,3.2,3.2-1.28,3.2-3.2,3.2c-1.76,0-3.2-1.44-3.2-3.2Zm0,8c0-1.76,1.44-3.2,3.2-3.2s3.2,1.44,3.2,3.2-1.28,3.2-3.2,3.2c-1.76,0-3.2-1.44-3.2-3.2Zm0,8c0-1.76,1.44-3.2,3.2-3.2s3.2,1.44,3.2,3.2-1.28,3.2-3.2,3.2c-1.76,0-3.2-1.44-3.2-3.2Zm0,8c0-1.76,1.44-3.2,3.2-3.2s3.2,1.44,3.2,3.2-1.28,3.2-3.2,3.2c-1.76,0-3.2-1.44-3.2-3.2Zm0,8c0-1.76,1.44-3.2,3.2-3.2s3.2,1.44,3.2,3.2-1.28,3.2-3.2,3.2c-1.76,0-3.2-1.44-3.2-3.2Zm0,8c0-1.76,1.44-3.2,3.2-3.2s3.2,1.44,3.2,3.2-1.28,3.2-3.2,3.2c-1.76,0-3.2-1.44-3.2-3.2Zm0,8c0-1.76,1.44-3.2,3.2-3.2s3.2,1.44,3.2,3.2-1.28,3.2-3.2,3.2c-1.76,0-3.2-1.44-3.2-3.2Zm0,8c0-1.76,1.44-3.2,3.2-3.2s3.2,1.44,3.2,3.2-1.28,3.2-3.2,3.2c-1.76,0-3.2-1.44-3.2-3.2Zm8-120c0-1.76,1.44-3.2,3.2-3.2s3.2,1.44,3.2,3.2-1.28,3.2-3.2,3.2c-1.76,0-3.2-1.44-3.2-3.2Zm0,8c0-1.76,1.44-3.2,3.2-3.2s3.2,1.44,3.2,3.2-1.28,3.2-3.2,3.2c-1.76,0-3.2-1.44-3.2-3.2Zm0,8c0-1.76,1.44-3.2,3.2-3.2s3.2,1.44,3.2,3.2-1.28,3.2-3.2,3.2c-1.76,0-3.2-1.44-3.2-3.2Zm0,8c0-1.76,1.44-3.2,3.2-3.2s3.2,1.44,3.2,3.2-1.28,3.2-3.2,3.2c-1.76,0-3.2-1.44-3.2-3.2Zm0,8c0-1.76,1.44-3.2,3.2-3.2s3.2,1.44,3.2,3.2-1.28,3.2-3.2,3.2c-1.76,0-3.2-1.44-3.2-3.2Zm0,8c0-1.76,1.44-3.2,3.2-3.2s3.2,1.44,3.2,3.2-1.28,3.2-3.2,3.2c-1.76,0-3.2-1.44-3.2-3.2Zm0,8c0-1.76,1.44-3.2,3.2-3.2s3.2,1.44,3.2,3.2-1.28,3.2-3.2,3.2c-1.76,0-3.2-1.44-3.2-3.2Zm0,8c0-1.76,1.44-3.2,3.2-3.2s3.2,1.44,3.2,3.2-1.28,3.2-3.2,3.2c-1.76,0-3.2-1.44-3.2-3.2Zm0,8c0-1.76,1.44-3.2,3.2-3.2s3.2,1.44,3.2,3.2-1.28,3.2-3.2,3.2c-1.76,0-3.2-1.44-3.2-3.2Zm0,8c0-1.76,1.44-3.2,3.2-3.2s3.2,1.44,3.2,3.2-1.28,3.2-3.2,3.2c-1.76,0-3.2-1.44-3.2-3.2Zm0,8c0-1.76,1.44-3.2,3.2-3.2s3.2,1.44,3.2,3.2-1.28,3.2-3.2,3.2c-1.76,0-3.2-1.44-3.2-3.2Zm0,8c0-1.76,1.44-3.2,3.2-3.2s3.2,1.44,3.2,3.2-1.28,3.2-3.2,3.2c-1.76,0-3.2-1.44-3.2-3.2Zm0,8c0-1.76,1.44-3.2,3.2-3.2s3.2,1.44,3.2,3.2-1.28,3.2-3.2,3.2c-1.76,0-3.2-1.44-3.2-3.2Zm0,8c0-1.76,1.44-3.2,3.2-3.2s3.2,1.44,3.2,3.2-1.28,3.2-3.2,3.2c-1.76,0-3.2-1.44-3.2-3.2Zm0,8c0-1.76,1.44-3.2,3.2-3.2s3.2,1.44,3.2,3.2-1.28,3.2-3.2,3.2c-1.76,0-3.2-1.44-3.2-3.2Zm0,8c0-1.76,1.44-3.2,3.2-3.2s3.2,1.44,3.2,3.2-1.28,3.2-3.2,3.2c-1.76,0-3.2-1.44-3.2-3.2Zm8-120c0-1.76,1.44-3.2,3.2-3.2s3.2,1.44,3.2,3.2-1.28,3.2-3.2,3.2c-1.76,0-3.2-1.44-3.2-3.2Zm0,8c0-1.76,1.44-3.2,3.2-3.2s3.2,1.44,3.2,3.2-1.28,3.2-3.2,3.2c-1.76,0-3.2-1.44-3.2-3.2Zm0,8c0-1.76,1.44-3.2,3.2-3.2s3.2,1.44,3.2,3.2-1.28,3.2-3.2,3.2c-1.76,0-3.2-1.44-3.2-3.2Zm0,8c0-1.76,1.44-3.2,3.2-3.2s3.2,1.44,3.2,3.2-1.28,3.2-3.2,3.2c-1.76,0-3.2-1.44-3.2-3.2Zm8-24c0-1.76,1.44-3.2,3.2-3.2s3.2,1.44,3.2,3.2-1.28,3.2-3.2,3.2c-1.76,0-3.2-1.44-3.2-3.2Zm0,8c0-1.76,1.44-3.2,3.2-3.2s3.2,1.44,3.2,3.2-1.28,3.2-3.2,3.2c-1.76,0-3.2-1.44-3.2-3.2Zm0,8c0-1.76,1.44-3.2,3.2-3.2s3.2,1.44,3.2,3.2-1.28,3.2-3.2,3.2c-1.76,0-3.2-1.44-3.2-3.2Zm0,8c0-1.76,1.44-3.2,3.2-3.2s3.2,1.44,3.2,3.2-1.28,3.2-3.2,3.2c-1.76,0-3.2-1.44-3.2-3.2Z"/>
      <path d="m304,11.2c0-1.76,1.44-3.2,3.2-3.2s3.2,1.44,3.2,3.2-1.44,3.2-3.2,3.2-3.2-1.44-3.2-3.2Zm0,8c0-1.76,1.44-3.2,3.2-3.2s3.2,1.44,3.2,3.2-1.44,3.2-3.2,3.2-3.2-1.44-3.2-3.2Zm0,8c0-1.76,1.44-3.2,3.2-3.2s3.2,1.44,3.2,3.2-1.44,3.2-3.2,3.2-3.2-1.44-3.2-3.2Zm0,8c0-1.76,1.44-3.2,3.2-3.2s3.2,1.44,3.2,3.2-1.44,3.2-3.2,3.2-3.2-1.44-3.2-3.2Zm0,8c0-1.76,1.44-3.2,3.2-3.2s3.2,1.44,3.2,3.2-1.44,3.2-3.2,3.2-3.2-1.44-3.2-3.2Zm0,8c0-1.76,1.44-3.2,3.2-3.2s3.2,1.44,3.2,3.2-1.44,3.2-3.2,3.2-3.2-1.44-3.2-3.2Zm0,8c0-1.76,1.44-3.2,3.2-3.2s3.2,1.44,3.2,3.2-1.44,3.2-3.2,3.2-3.2-1.44-3.2-3.2Zm0,8c0-1.76,1.44-3.2,3.2-3.2s3.2,1.44,3.2,3.2-1.44,3.2-3.2,3.2-3.2-1.44-3.2-3.2Zm0,8c0-1.76,1.44-3.2,3.2-3.2s3.2,1.44,3.2,3.2-1.44,3.2-3.2,3.2-3.2-1.44-3.2-3.2Zm0,8c0-1.76,1.44-3.2,3.2-3.2s3.2,1.44,3.2,3.2-1.44,3.2-3.2,3.2-3.2-1.44-3.2-3.2Zm0,8c0-1.76,1.44-3.2,3.2-3.2s3.2,1.44,3.2,3.2-1.44,3.2-3.2,3.2-3.2-1.44-3.2-3.2Zm0,8c0-1.76,1.44-3.2,3.2-3.2s3.2,1.44,3.2,3.2-1.44,3.2-3.2,3.2-3.2-1.44-3.2-3.2Zm0,8c0-1.76,1.44-3.2,3.2-3.2s3.2,1.44,3.2,3.2-1.44,3.2-3.2,3.2-3.2-1.44-3.2-3.2Zm0,8c0-1.76,1.44-3.2,3.2-3.2s3.2,1.44,3.2,3.2-1.44,3.2-3.2,3.2-3.2-1.44-3.2-3.2Zm0,8c0-1.76,1.44-3.2,3.2-3.2s3.2,1.44,3.2,3.2-1.44,3.2-3.2,3.2-3.2-1.44-3.2-3.2Zm8-120c0-1.76,1.44-3.2,3.2-3.2s3.2,1.44,3.2,3.2-1.28,3.2-3.2,3.2c-1.76,0-3.2-1.44-3.2-3.2Zm0,8c0-1.76,1.44-3.2,3.2-3.2s3.2,1.44,3.2,3.2-1.28,3.2-3.2,3.2c-1.76,0-3.2-1.44-3.2-3.2Zm0,8c0-1.76,1.44-3.2,3.2-3.2s3.2,1.44,3.2,3.2-1.28,3.2-3.2,3.2c-1.76,0-3.2-1.44-3.2-3.2Zm0,8c0-1.76,1.44-3.2,3.2-3.2s3.2,1.44,3.2,3.2-1.28,3.2-3.2,3.2c-1.76,0-3.2-1.44-3.2-3.2Zm0,8c0-1.76,1.44-3.2,3.2-3.2s3.2,1.44,3.2,3.2-1.28,3.2-3.2,3.2c-1.76,0-3.2-1.44-3.2-3.2Zm0,8c0-1.76,1.44-3.2,3.2-3.2s3.2,1.44,3.2,3.2-1.28,3.2-3.2,3.2c-1.76,0-3.2-1.44-3.2-3.2Zm0,8c0-1.76,1.44-3.2,3.2-3.2s3.2,1.44,3.2,3.2-1.28,3.2-3.2,3.2c-1.76,0-3.2-1.44-3.2-3.2Zm0,8c0-1.76,1.44-3.2,3.2-3.2s3.2,1.44,3.2,3.2-1.28,3.2-3.2,3.2c-1.76,0-3.2-1.44-3.2-3.2Zm0,8c0-1.76,1.44-3.2,3.2-3.2s3.2,1.44,3.2,3.2-1.28,3.2-3.2,3.2c-1.76,0-3.2-1.44-3.2-3.2Zm0,8c0-1.76,1.44-3.2,3.2-3.2s3.2,1.44,3.2,3.2-1.28,3.2-3.2,3.2c-1.76,0-3.2-1.44-3.2-3.2Zm0,8c0-1.76,1.44-3.2,3.2-3.2s3.2,1.44,3.2,3.2-1.28,3.2-3.2,3.2c-1.76,0-3.2-1.44-3.2-3.2Zm0,8c0-1.76,1.44-3.2,3.2-3.2s3.2,1.44,3.2,3.2-1.28,3.2-3.2,3.2c-1.76,0-3.2-1.44-3.2-3.2Zm0,8c0-1.76,1.44-3.2,3.2-3.2s3.2,1.44,3.2,3.2-1.28,3.2-3.2,3.2c-1.76,0-3.2-1.44-3.2-3.2Zm0,8c0-1.76,1.44-3.2,3.2-3.2s3.2,1.44,3.2,3.2-1.28,3.2-3.2,3.2c-1.76,0-3.2-1.44-3.2-3.2Zm0,8c0-1.76,1.44-3.2,3.2-3.2s3.2,1.44,3.2,3.2-1.28,3.2-3.2,3.2c-1.76,0-3.2-1.44-3.2-3.2Zm0,8c0-1.76,1.44-3.2,3.2-3.2s3.2,1.44,3.2,3.2-1.28,3.2-3.2,3.2c-1.76,0-3.2-1.44-3.2-3.2Zm8-120c0-1.76,1.44-3.2,3.2-3.2s3.2,1.44,3.2,3.2-1.28,3.2-3.2,3.2c-1.76,0-3.2-1.44-3.2-3.2Zm0,8c0-1.76,1.44-3.2,3.2-3.2s3.2,1.44,3.2,3.2-1.28,3.2-3.2,3.2c-1.76,0-3.2-1.44-3.2-3.2Zm0,8c0-1.76,1.44-3.2,3.2-3.2s3.2,1.44,3.2,3.2-1.28,3.2-3.2,3.2c-1.76,0-3.2-1.44-3.2-3.2Zm0,8c0-1.76,1.44-3.2,3.2-3.2s3.2,1.44,3.2,3.2-1.28,3.2-3.2,3.2c-1.76,0-3.2-1.44-3.2-3.2Zm0,8c0-1.76,1.44-3.2,3.2-3.2s3.2,1.44,3.2,3.2-1.28,3.2-3.2,3.2c-1.76,0-3.2-1.44-3.2-3.2Zm0,8c0-1.76,1.44-3.2,3.2-3.2s3.2,1.44,3.2,3.2-1.28,3.2-3.2,3.2c-1.76,0-3.2-1.44-3.2-3.2Zm0,8c0-1.76,1.44-3.2,3.2-3.2s3.2,1.44,3.2,3.2-1.28,3.2-3.2,3.2c-1.76,0-3.2-1.44-3.2-3.2Zm0,8c0-1.76,1.44-3.2,3.2-3.2s3.2,1.44,3.2,3.2-1.28,3.2-3.2,3.2c-1.76,0-3.2-1.44-3.2-3.2Zm0,8c0-1.76,1.44-3.2,3.2-3.2s3.2,1.44,3.2,3.2-1.28,3.2-3.2,3.2c-1.76,0-3.2-1.44-3.2-3.2Zm0,8c0-1.76,1.44-3.2,3.2-3.2s3.2,1.44,3.2,3.2-1.28,3.2-3.2,3.2c-1.76,0-3.2-1.44-3.2-3.2Zm0,8c0-1.76,1.44-3.2,3.2-3.2s3.2,1.44,3.2,3.2-1.28,3.2-3.2,3.2c-1.76,0-3.2-1.44-3.2-3.2Zm0,8c0-1.76,1.44-3.2,3.2-3.2s3.2,1.44,3.2,3.2-1.28,3.2-3.2,3.2c-1.76,0-3.2-1.44-3.2-3.2Zm0,8c0-1.76,1.44-3.2,3.2-3.2s3.2,1.44,3.2,3.2-1.28,3.2-3.2,3.2c-1.76,0-3.2-1.44-3.2-3.2Zm0,8c0-1.76,1.44-3.2,3.2-3.2s3.2,1.44,3.2,3.2-1.28,3.2-3.2,3.2c-1.76,0-3.2-1.44-3.2-3.2Zm0,8c0-1.76,1.44-3.2,3.2-3.2s3.2,1.44,3.2,3.2-1.28,3.2-3.2,3.2c-1.76,0-3.2-1.44-3.2-3.2Zm0,8c0-1.76,1.44-3.2,3.2-3.2s3.2,1.44,3.2,3.2-1.28,3.2-3.2,3.2c-1.76,0-3.2-1.44-3.2-3.2Zm8-120c0-1.76,1.44-3.2,3.2-3.2s3.2,1.44,3.2,3.2-1.28,3.2-3.2,3.2c-1.76,0-3.2-1.44-3.2-3.2Zm0,8c0-1.76,1.44-3.2,3.2-3.2s3.2,1.44,3.2,3.2-1.28,3.2-3.2,3.2c-1.76,0-3.2-1.44-3.2-3.2Zm0,8c0-1.76,1.44-3.2,3.2-3.2s3.2,1.44,3.2,3.2-1.28,3.2-3.2,3.2c-1.76,0-3.2-1.44-3.2-3.2Zm0,8c0-1.76,1.44-3.2,3.2-3.2s3.2,1.44,3.2,3.2-1.28,3.2-3.2,3.2c-1.76,0-3.2-1.44-3.2-3.2Zm0,8c0-1.76,1.44-3.2,3.2-3.2s3.2,1.44,3.2,3.2-1.28,3.2-3.2,3.2c-1.76,0-3.2-1.44-3.2-3.2Zm0,8c0-1.76,1.44-3.2,3.2-3.2s3.2,1.44,3.2,3.2-1.28,3.2-3.2,3.2c-1.76,0-3.2-1.44-3.2-3.2Zm0,8c0-1.76,1.44-3.2,3.2-3.2s3.2,1.44,3.2,3.2-1.28,3.2-3.2,3.2c-1.76,0-3.2-1.44-3.2-3.2Zm0,8c0-1.76,1.44-3.2,3.2-3.2s3.2,1.44,3.2,3.2-1.28,3.2-3.2,3.2c-1.76,0-3.2-1.44-3.2-3.2Zm0,8c0-1.76,1.44-3.2,3.2-3.2s3.2,1.44,3.2,3.2-1.28,3.2-3.2,3.2c-1.76,0-3.2-1.44-3.2-3.2Zm0,8c0-1.76,1.44-3.2,3.2-3.2s3.2,1.44,3.2,3.2-1.28,3.2-3.2,3.2c-1.76,0-3.2-1.44-3.2-3.2Zm0,8c0-1.76,1.44-3.2,3.2-3.2s3.2,1.44,3.2,3.2-1.28,3.2-3.2,3.2c-1.76,0-3.2-1.44-3.2-3.2Zm0,8c0-1.76,1.44-3.2,3.2-3.2s3.2,1.44,3.2,3.2-1.28,3.2-3.2,3.2c-1.76,0-3.2-1.44-3.2-3.2Zm0,8c0-1.76,1.44-3.2,3.2-3.2s3.2,1.44,3.2,3.2-1.28,3.2-3.2,3.2c-1.76,0-3.2-1.44-3.2-3.2Zm0,8c0-1.76,1.44-3.2,3.2-3.2s3.2,1.44,3.2,3.2-1.28,3.2-3.2,3.2c-1.76,0-3.2-1.44-3.2-3.2Zm0,8c0-1.76,1.44-3.2,3.2-3.2s3.2,1.44,3.2,3.2-1.28,3.2-3.2,3.2c-1.76,0-3.2-1.44-3.2-3.2Zm0,8c0-1.76,1.44-3.2,3.2-3.2s3.2,1.44,3.2,3.2-1.28,3.2-3.2,3.2c-1.76,0-3.2-1.44-3.2-3.2Zm8-120c0-1.76,1.44-3.2,3.2-3.2s3.2,1.44,3.2,3.2-1.28,3.2-3.2,3.2c-1.76,0-3.2-1.44-3.2-3.2Zm0,8c0-1.76,1.44-3.2,3.2-3.2s3.2,1.44,3.2,3.2-1.28,3.2-3.2,3.2c-1.76,0-3.2-1.44-3.2-3.2Zm0,8c0-1.76,1.44-3.2,3.2-3.2s3.2,1.44,3.2,3.2-1.28,3.2-3.2,3.2c-1.76,0-3.2-1.44-3.2-3.2Zm0,8c0-1.76,1.44-3.2,3.2-3.2s3.2,1.44,3.2,3.2-1.28,3.2-3.2,3.2c-1.76,0-3.2-1.44-3.2-3.2Zm0,32c0-1.76,1.44-3.2,3.2-3.2s3.2,1.44,3.2,3.2-1.28,3.2-3.2,3.2c-1.76,0-3.2-1.44-3.2-3.2Zm0,8c0-1.76,1.44-3.2,3.2-3.2s3.2,1.44,3.2,3.2-1.28,3.2-3.2,3.2c-1.76,0-3.2-1.44-3.2-3.2Zm0,8c0-1.76,1.44-3.2,3.2-3.2s3.2,1.44,3.2,3.2-1.28,3.2-3.2,3.2c-1.76,0-3.2-1.44-3.2-3.2Zm0,8c0-1.76,1.44-3.2,3.2-3.2s3.2,1.44,3.2,3.2-1.28,3.2-3.2,3.2c-1.76,0-3.2-1.44-3.2-3.2Zm8-80c0-1.76,1.44-3.2,3.2-3.2s3.2,1.44,3.2,3.2-1.28,3.2-3.2,3.2c-1.76,0-3.2-1.44-3.2-3.2Zm0,8c0-1.76,1.44-3.2,3.2-3.2s3.2,1.44,3.2,3.2-1.28,3.2-3.2,3.2c-1.76,0-3.2-1.44-3.2-3.2Zm0,8c0-1.76,1.44-3.2,3.2-3.2s3.2,1.44,3.2,3.2-1.28,3.2-3.2,3.2c-1.76,0-3.2-1.44-3.2-3.2Zm0,8c0-1.76,1.44-3.2,3.2-3.2s3.2,1.44,3.2,3.2-1.28,3.2-3.2,3.2c-1.76,0-3.2-1.44-3.2-3.2Zm0,8c0-1.76,1.44-3.2,3.2-3.2s3.2,1.44,3.2,3.2-1.28,3.2-3.2,3.2c-1.76,0-3.2-1.44-3.2-3.2Zm0,8c0-1.76,1.44-3.2,3.2-3.2s3.2,1.44,3.2,3.2-1.28,3.2-3.2,3.2c-1.76,0-3.2-1.44-3.2-3.2Zm0,8c0-1.76,1.44-3.2,3.2-3.2s3.2,1.44,3.2,3.2-1.28,3.2-3.2,3.2c-1.76,0-3.2-1.44-3.2-3.2Zm0,8c0-1.76,1.44-3.2,3.2-3.2s3.2,1.44,3.2,3.2-1.28,3.2-3.2,3.2c-1.76,0-3.2-1.44-3.2-3.2Zm0,8c0-1.76,1.44-3.2,3.2-3.2s3.2,1.44,3.2,3.2-1.28,3.2-3.2,3.2c-1.76,0-3.2-1.44-3.2-3.2Zm0,8c0-1.76,1.44-3.2,3.2-3.2s3.2,1.44,3.2,3.2-1.28,3.2-3.2,3.2c-1.76,0-3.2-1.44-3.2-3.2Zm0,8c0-1.76,1.44-3.2,3.2-3.2s3.2,1.44,3.2,3.2-1.28,3.2-3.2,3.2c-1.76,0-3.2-1.44-3.2-3.2Zm0,8c0-1.76,1.44-3.2,3.2-3.2s3.2,1.44,3.2,3.2-1.28,3.2-3.2,3.2c-1.76,0-3.2-1.44-3.2-3.2Zm0,8c0-1.76,1.44-3.2,3.2-3.2s3.2,1.44,3.2,3.2-1.28,3.2-3.2,3.2c-1.76,0-3.2-1.44-3.2-3.2Zm0,8c0-1.76,1.44-3.2,3.2-3.2s3.2,1.44,3.2,3.2-1.28,3.2-3.2,3.2c-1.76,0-3.2-1.44-3.2-3.2Zm0,8c0-1.76,1.44-3.2,3.2-3.2s3.2,1.44,3.2,3.2-1.28,3.2-3.2,3.2c-1.76,0-3.2-1.44-3.2-3.2Zm0,8c0-1.76,1.44-3.2,3.2-3.2s3.2,1.44,3.2,3.2-1.28,3.2-3.2,3.2c-1.76,0-3.2-1.44-3.2-3.2Zm8-120c0-1.76,1.44-3.2,3.2-3.2s3.2,1.44,3.2,3.2-1.28,3.2-3.2,3.2c-1.76,0-3.2-1.44-3.2-3.2Zm0,8c0-1.76,1.44-3.2,3.2-3.2s3.2,1.44,3.2,3.2-1.28,3.2-3.2,3.2c-1.76,0-3.2-1.44-3.2-3.2Zm0,8c0-1.76,1.44-3.2,3.2-3.2s3.2,1.44,3.2,3.2-1.28,3.2-3.2,3.2c-1.76,0-3.2-1.44-3.2-3.2Zm0,8c0-1.76,1.44-3.2,3.2-3.2s3.2,1.44,3.2,3.2-1.28,3.2-3.2,3.2c-1.76,0-3.2-1.44-3.2-3.2Zm0,8c0-1.76,1.44-3.2,3.2-3.2s3.2,1.44,3.2,3.2-1.28,3.2-3.2,3.2c-1.76,0-3.2-1.44-3.2-3.2Zm0,8c0-1.76,1.44-3.2,3.2-3.2s3.2,1.44,3.2,3.2-1.28,3.2-3.2,3.2c-1.76,0-3.2-1.44-3.2-3.2Zm0,8c0-1.76,1.44-3.2,3.2-3.2s3.2,1.44,3.2,3.2-1.28,3.2-3.2,3.2c-1.76,0-3.2-1.44-3.2-3.2Zm0,8c0-1.76,1.44-3.2,3.2-3.2s3.2,1.44,3.2,3.2-1.28,3.2-3.2,3.2c-1.76,0-3.2-1.44-3.2-3.2Zm0,8c0-1.76,1.44-3.2,3.2-3.2s3.2,1.44,3.2,3.2-1.28,3.2-3.2,3.2c-1.76,0-3.2-1.44-3.2-3.2Zm0,8c0-1.76,1.44-3.2,3.2-3.2s3.2,1.44,3.2,3.2-1.28,3.2-3.2,3.2c-1.76,0-3.2-1.44-3.2-3.2Zm0,8c0-1.76,1.44-3.2,3.2-3.2s3.2,1.44,3.2,3.2-1.28,3.2-3.2,3.2c-1.76,0-3.2-1.44-3.2-3.2Zm0,8c0-1.76,1.44-3.2,3.2-3.2s3.2,1.44,3.2,3.2-1.28,3.2-3.2,3.2c-1.76,0-3.2-1.44-3.2-3.2Zm0,8c0-1.76,1.44-3.2,3.2-3.2s3.2,1.44,3.2,3.2-1.28,3.2-3.2,3.2c-1.76,0-3.2-1.44-3.2-3.2Zm0,8c0-1.76,1.44-3.2,3.2-3.2s3.2,1.44,3.2,3.2-1.28,3.2-3.2,3.2c-1.76,0-3.2-1.44-3.2-3.2Zm0,8c0-1.76,1.44-3.2,3.2-3.2s3.2,1.44,3.2,3.2-1.28,3.2-3.2,3.2c-1.76,0-3.2-1.44-3.2-3.2Zm0,8c0-1.76,1.44-3.2,3.2-3.2s3.2,1.44,3.2,3.2-1.28,3.2-3.2,3.2c-1.76,0-3.2-1.44-3.2-3.2Zm8-120c0-1.76,1.44-3.2,3.2-3.2s3.2,1.44,3.2,3.2-1.28,3.2-3.2,3.2c-1.76,0-3.2-1.44-3.2-3.2Zm0,8c0-1.76,1.44-3.2,3.2-3.2s3.2,1.44,3.2,3.2-1.28,3.2-3.2,3.2c-1.76,0-3.2-1.44-3.2-3.2Zm0,8c0-1.76,1.44-3.2,3.2-3.2s3.2,1.44,3.2,3.2-1.28,3.2-3.2,3.2c-1.76,0-3.2-1.44-3.2-3.2Zm0,8c0-1.76,1.44-3.2,3.2-3.2s3.2,1.44,3.2,3.2-1.28,3.2-3.2,3.2c-1.76,0-3.2-1.44-3.2-3.2Zm0,8c0-1.76,1.44-3.2,3.2-3.2s3.2,1.44,3.2,3.2-1.28,3.2-3.2,3.2c-1.76,0-3.2-1.44-3.2-3.2Zm0,8c0-1.76,1.44-3.2,3.2-3.2s3.2,1.44,3.2,3.2-1.28,3.2-3.2,3.2c-1.76,0-3.2-1.44-3.2-3.2Zm0,8c0-1.76,1.44-3.2,3.2-3.2s3.2,1.44,3.2,3.2-1.28,3.2-3.2,3.2c-1.76,0-3.2-1.44-3.2-3.2Zm0,8c0-1.76,1.44-3.2,3.2-3.2s3.2,1.44,3.2,3.2-1.28,3.2-3.2,3.2c-1.76,0-3.2-1.44-3.2-3.2Zm0,8c0-1.76,1.44-3.2,3.2-3.2s3.2,1.44,3.2,3.2-1.28,3.2-3.2,3.2c-1.76,0-3.2-1.44-3.2-3.2Zm0,8c0-1.76,1.44-3.2,3.2-3.2s3.2,1.44,3.2,3.2-1.28,3.2-3.2,3.2c-1.76,0-3.2-1.44-3.2-3.2Zm0,8c0-1.76,1.44-3.2,3.2-3.2s3.2,1.44,3.2,3.2-1.28,3.2-3.2,3.2c-1.76,0-3.2-1.44-3.2-3.2Zm0,8c0-1.76,1.44-3.2,3.2-3.2s3.2,1.44,3.2,3.2-1.28,3.2-3.2,3.2c-1.76,0-3.2-1.44-3.2-3.2Zm0,8c0-1.76,1.44-3.2,3.2-3.2s3.2,1.44,3.2,3.2-1.28,3.2-3.2,3.2c-1.76,0-3.2-1.44-3.2-3.2Zm0,8c0-1.76,1.44-3.2,3.2-3.2s3.2,1.44,3.2,3.2-1.28,3.2-3.2,3.2c-1.76,0-3.2-1.44-3.2-3.2Zm0,8c0-1.76,1.44-3.2,3.2-3.2s3.2,1.44,3.2,3.2-1.28,3.2-3.2,3.2c-1.76,0-3.2-1.44-3.2-3.2Zm0,8c0-1.76,1.44-3.2,3.2-3.2s3.2,1.44,3.2,3.2-1.28,3.2-3.2,3.2c-1.76,0-3.2-1.44-3.2-3.2Zm8-112c0-1.76,1.44-3.2,3.2-3.2s3.2,1.44,3.2,3.2-1.28,3.2-3.2,3.2c-1.76,0-3.2-1.44-3.2-3.2Zm0,8c0-1.76,1.44-3.2,3.2-3.2s3.2,1.44,3.2,3.2-1.28,3.2-3.2,3.2c-1.76,0-3.2-1.44-3.2-3.2Zm0,8c0-1.76,1.44-3.2,3.2-3.2s3.2,1.44,3.2,3.2-1.28,3.2-3.2,3.2c-1.76,0-3.2-1.44-3.2-3.2Zm0,8c0-1.76,1.44-3.2,3.2-3.2s3.2,1.44,3.2,3.2-1.28,3.2-3.2,3.2c-1.76,0-3.2-1.44-3.2-3.2Zm0,8c0-1.76,1.44-3.2,3.2-3.2s3.2,1.44,3.2,3.2-1.28,3.2-3.2,3.2c-1.76,0-3.2-1.44-3.2-3.2Zm0,8c0-1.76,1.44-3.2,3.2-3.2s3.2,1.44,3.2,3.2-1.28,3.2-3.2,3.2c-1.76,0-3.2-1.44-3.2-3.2Zm0,8c0-1.76,1.44-3.2,3.2-3.2s3.2,1.44,3.2,3.2-1.28,3.2-3.2,3.2c-1.76,0-3.2-1.44-3.2-3.2Zm0,8c0-1.76,1.44-3.2,3.2-3.2s3.2,1.44,3.2,3.2-1.28,3.2-3.2,3.2c-1.76,0-3.2-1.44-3.2-3.2Zm0,8c0-1.76,1.44-3.2,3.2-3.2s3.2,1.44,3.2,3.2-1.28,3.2-3.2,3.2c-1.76,0-3.2-1.44-3.2-3.2Zm0,8c0-1.76,1.44-3.2,3.2-3.2s3.2,1.44,3.2,3.2-1.28,3.2-3.2,3.2c-1.76,0-3.2-1.44-3.2-3.2Zm0,8c0-1.76,1.44-3.2,3.2-3.2s3.2,1.44,3.2,3.2-1.28,3.2-3.2,3.2c-1.76,0-3.2-1.44-3.2-3.2Zm0,8c0-1.76,1.44-3.2,3.2-3.2s3.2,1.44,3.2,3.2-1.28,3.2-3.2,3.2c-1.76,0-3.2-1.44-3.2-3.2Zm0,8c0-1.76,1.44-3.2,3.2-3.2s3.2,1.44,3.2,3.2-1.28,3.2-3.2,3.2c-1.76,0-3.2-1.44-3.2-3.2Zm0,8c0-1.76,1.44-3.2,3.2-3.2s3.2,1.44,3.2,3.2-1.28,3.2-3.2,3.2c-1.76,0-3.2-1.44-3.2-3.2Zm0,8c0-1.76,1.44-3.2,3.2-3.2s3.2,1.44,3.2,3.2-1.28,3.2-3.2,3.2c-1.76,0-3.2-1.44-3.2-3.2Z"/>
      <path d="m384,3.2c0-1.76,1.44-3.2,3.2-3.2s3.2,1.44,3.2,3.2-1.44,3.2-3.2,3.2-3.2-1.44-3.2-3.2Zm0,8c0-1.76,1.44-3.2,3.2-3.2s3.2,1.44,3.2,3.2-1.44,3.2-3.2,3.2-3.2-1.44-3.2-3.2Zm0,8c0-1.76,1.44-3.2,3.2-3.2s3.2,1.44,3.2,3.2-1.44,3.2-3.2,3.2-3.2-1.44-3.2-3.2Zm0,8c0-1.76,1.44-3.2,3.2-3.2s3.2,1.44,3.2,3.2-1.44,3.2-3.2,3.2-3.2-1.44-3.2-3.2Zm0,8c0-1.76,1.44-3.2,3.2-3.2s3.2,1.44,3.2,3.2-1.44,3.2-3.2,3.2-3.2-1.44-3.2-3.2Zm0,8c0-1.76,1.44-3.2,3.2-3.2s3.2,1.44,3.2,3.2-1.44,3.2-3.2,3.2-3.2-1.44-3.2-3.2Zm0,8c0-1.76,1.44-3.2,3.2-3.2s3.2,1.44,3.2,3.2-1.44,3.2-3.2,3.2-3.2-1.44-3.2-3.2Zm0,8c0-1.76,1.44-3.2,3.2-3.2s3.2,1.44,3.2,3.2-1.44,3.2-3.2,3.2-3.2-1.44-3.2-3.2Zm0,8c0-1.76,1.44-3.2,3.2-3.2s3.2,1.44,3.2,3.2-1.44,3.2-3.2,3.2-3.2-1.44-3.2-3.2Zm0,8c0-1.76,1.44-3.2,3.2-3.2s3.2,1.44,3.2,3.2-1.44,3.2-3.2,3.2-3.2-1.44-3.2-3.2Zm0,8c0-1.76,1.44-3.2,3.2-3.2s3.2,1.44,3.2,3.2-1.44,3.2-3.2,3.2-3.2-1.44-3.2-3.2Zm0,8c0-1.76,1.44-3.2,3.2-3.2s3.2,1.44,3.2,3.2-1.44,3.2-3.2,3.2-3.2-1.44-3.2-3.2Zm0,8c0-1.76,1.44-3.2,3.2-3.2s3.2,1.44,3.2,3.2-1.44,3.2-3.2,3.2-3.2-1.44-3.2-3.2Zm0,8c0-1.76,1.44-3.2,3.2-3.2s3.2,1.44,3.2,3.2-1.44,3.2-3.2,3.2-3.2-1.44-3.2-3.2Zm0,8c0-1.76,1.44-3.2,3.2-3.2s3.2,1.44,3.2,3.2-1.44,3.2-3.2,3.2-3.2-1.44-3.2-3.2Zm0,8c0-1.76,1.44-3.2,3.2-3.2s3.2,1.44,3.2,3.2-1.44,3.2-3.2,3.2-3.2-1.44-3.2-3.2Zm8-120c0-1.76,1.44-3.2,3.2-3.2s3.2,1.44,3.2,3.2-1.28,3.2-3.2,3.2c-1.76,0-3.2-1.44-3.2-3.2Zm0,8c0-1.76,1.44-3.2,3.2-3.2s3.2,1.44,3.2,3.2-1.28,3.2-3.2,3.2c-1.76,0-3.2-1.44-3.2-3.2Zm0,8c0-1.76,1.44-3.2,3.2-3.2s3.2,1.44,3.2,3.2-1.28,3.2-3.2,3.2c-1.76,0-3.2-1.44-3.2-3.2Zm0,8c0-1.76,1.44-3.2,3.2-3.2s3.2,1.44,3.2,3.2-1.28,3.2-3.2,3.2c-1.76,0-3.2-1.44-3.2-3.2Zm0,8c0-1.76,1.44-3.2,3.2-3.2s3.2,1.44,3.2,3.2-1.28,3.2-3.2,3.2c-1.76,0-3.2-1.44-3.2-3.2Zm0,8c0-1.76,1.44-3.2,3.2-3.2s3.2,1.44,3.2,3.2-1.28,3.2-3.2,3.2c-1.76,0-3.2-1.44-3.2-3.2Zm0,8c0-1.76,1.44-3.2,3.2-3.2s3.2,1.44,3.2,3.2-1.28,3.2-3.2,3.2c-1.76,0-3.2-1.44-3.2-3.2Zm0,8c0-1.76,1.44-3.2,3.2-3.2s3.2,1.44,3.2,3.2-1.28,3.2-3.2,3.2c-1.76,0-3.2-1.44-3.2-3.2Zm0,8c0-1.76,1.44-3.2,3.2-3.2s3.2,1.44,3.2,3.2-1.28,3.2-3.2,3.2c-1.76,0-3.2-1.44-3.2-3.2Zm0,8c0-1.76,1.44-3.2,3.2-3.2s3.2,1.44,3.2,3.2-1.28,3.2-3.2,3.2c-1.76,0-3.2-1.44-3.2-3.2Zm0,8c0-1.76,1.44-3.2,3.2-3.2s3.2,1.44,3.2,3.2-1.28,3.2-3.2,3.2c-1.76,0-3.2-1.44-3.2-3.2Zm0,8c0-1.76,1.44-3.2,3.2-3.2s3.2,1.44,3.2,3.2-1.28,3.2-3.2,3.2c-1.76,0-3.2-1.44-3.2-3.2Zm0,8c0-1.76,1.44-3.2,3.2-3.2s3.2,1.44,3.2,3.2-1.28,3.2-3.2,3.2c-1.76,0-3.2-1.44-3.2-3.2Zm0,8c0-1.76,1.44-3.2,3.2-3.2s3.2,1.44,3.2,3.2-1.28,3.2-3.2,3.2c-1.76,0-3.2-1.44-3.2-3.2Zm0,8c0-1.76,1.44-3.2,3.2-3.2s3.2,1.44,3.2,3.2-1.28,3.2-3.2,3.2c-1.76,0-3.2-1.44-3.2-3.2Zm0,8c0-1.76,1.44-3.2,3.2-3.2s3.2,1.44,3.2,3.2-1.28,3.2-3.2,3.2c-1.76,0-3.2-1.44-3.2-3.2Zm8-120c0-1.76,1.44-3.2,3.2-3.2s3.2,1.44,3.2,3.2-1.28,3.2-3.2,3.2c-1.76,0-3.2-1.44-3.2-3.2Zm0,8c0-1.76,1.44-3.2,3.2-3.2s3.2,1.44,3.2,3.2-1.28,3.2-3.2,3.2c-1.76,0-3.2-1.44-3.2-3.2Zm0,8c0-1.76,1.44-3.2,3.2-3.2s3.2,1.44,3.2,3.2-1.28,3.2-3.2,3.2c-1.76,0-3.2-1.44-3.2-3.2Zm0,8c0-1.76,1.44-3.2,3.2-3.2s3.2,1.44,3.2,3.2-1.28,3.2-3.2,3.2c-1.76,0-3.2-1.44-3.2-3.2Zm0,8c0-1.76,1.44-3.2,3.2-3.2s3.2,1.44,3.2,3.2-1.28,3.2-3.2,3.2c-1.76,0-3.2-1.44-3.2-3.2Zm0,8c0-1.76,1.44-3.2,3.2-3.2s3.2,1.44,3.2,3.2-1.28,3.2-3.2,3.2c-1.76,0-3.2-1.44-3.2-3.2Zm0,8c0-1.76,1.44-3.2,3.2-3.2s3.2,1.44,3.2,3.2-1.28,3.2-3.2,3.2c-1.76,0-3.2-1.44-3.2-3.2Zm0,8c0-1.76,1.44-3.2,3.2-3.2s3.2,1.44,3.2,3.2-1.28,3.2-3.2,3.2c-1.76,0-3.2-1.44-3.2-3.2Zm0,8c0-1.76,1.44-3.2,3.2-3.2s3.2,1.44,3.2,3.2-1.28,3.2-3.2,3.2c-1.76,0-3.2-1.44-3.2-3.2Zm0,8c0-1.76,1.44-3.2,3.2-3.2s3.2,1.44,3.2,3.2-1.28,3.2-3.2,3.2c-1.76,0-3.2-1.44-3.2-3.2Zm0,8c0-1.76,1.44-3.2,3.2-3.2s3.2,1.44,3.2,3.2-1.28,3.2-3.2,3.2c-1.76,0-3.2-1.44-3.2-3.2Zm0,8c0-1.76,1.44-3.2,3.2-3.2s3.2,1.44,3.2,3.2-1.28,3.2-3.2,3.2c-1.76,0-3.2-1.44-3.2-3.2Zm0,8c0-1.76,1.44-3.2,3.2-3.2s3.2,1.44,3.2,3.2-1.28,3.2-3.2,3.2c-1.76,0-3.2-1.44-3.2-3.2Zm0,8c0-1.76,1.44-3.2,3.2-3.2s3.2,1.44,3.2,3.2-1.28,3.2-3.2,3.2c-1.76,0-3.2-1.44-3.2-3.2Zm0,8c0-1.76,1.44-3.2,3.2-3.2s3.2,1.44,3.2,3.2-1.28,3.2-3.2,3.2c-1.76,0-3.2-1.44-3.2-3.2Zm0,8c0-1.76,1.44-3.2,3.2-3.2s3.2,1.44,3.2,3.2-1.28,3.2-3.2,3.2c-1.76,0-3.2-1.44-3.2-3.2Zm8-120c0-1.76,1.44-3.2,3.2-3.2s3.2,1.44,3.2,3.2-1.28,3.2-3.2,3.2c-1.76,0-3.2-1.44-3.2-3.2Zm0,8c0-1.76,1.44-3.2,3.2-3.2s3.2,1.44,3.2,3.2-1.28,3.2-3.2,3.2c-1.76,0-3.2-1.44-3.2-3.2Zm0,8c0-1.76,1.44-3.2,3.2-3.2s3.2,1.44,3.2,3.2-1.28,3.2-3.2,3.2c-1.76,0-3.2-1.44-3.2-3.2Zm0,8c0-1.76,1.44-3.2,3.2-3.2s3.2,1.44,3.2,3.2-1.28,3.2-3.2,3.2c-1.76,0-3.2-1.44-3.2-3.2Zm0,8c0-1.76,1.44-3.2,3.2-3.2s3.2,1.44,3.2,3.2-1.28,3.2-3.2,3.2c-1.76,0-3.2-1.44-3.2-3.2Zm0,8c0-1.76,1.44-3.2,3.2-3.2s3.2,1.44,3.2,3.2-1.28,3.2-3.2,3.2c-1.76,0-3.2-1.44-3.2-3.2Zm0,8c0-1.76,1.44-3.2,3.2-3.2s3.2,1.44,3.2,3.2-1.28,3.2-3.2,3.2c-1.76,0-3.2-1.44-3.2-3.2Zm0,8c0-1.76,1.44-3.2,3.2-3.2s3.2,1.44,3.2,3.2-1.28,3.2-3.2,3.2c-1.76,0-3.2-1.44-3.2-3.2Zm0,8c0-1.76,1.44-3.2,3.2-3.2s3.2,1.44,3.2,3.2-1.28,3.2-3.2,3.2c-1.76,0-3.2-1.44-3.2-3.2Zm0,8c0-1.76,1.44-3.2,3.2-3.2s3.2,1.44,3.2,3.2-1.28,3.2-3.2,3.2c-1.76,0-3.2-1.44-3.2-3.2Zm0,8c0-1.76,1.44-3.2,3.2-3.2s3.2,1.44,3.2,3.2-1.28,3.2-3.2,3.2c-1.76,0-3.2-1.44-3.2-3.2Zm0,8c0-1.76,1.44-3.2,3.2-3.2s3.2,1.44,3.2,3.2-1.28,3.2-3.2,3.2c-1.76,0-3.2-1.44-3.2-3.2Zm0,8c0-1.76,1.44-3.2,3.2-3.2s3.2,1.44,3.2,3.2-1.28,3.2-3.2,3.2c-1.76,0-3.2-1.44-3.2-3.2Zm0,8c0-1.76,1.44-3.2,3.2-3.2s3.2,1.44,3.2,3.2-1.28,3.2-3.2,3.2c-1.76,0-3.2-1.44-3.2-3.2Zm0,8c0-1.76,1.44-3.2,3.2-3.2s3.2,1.44,3.2,3.2-1.28,3.2-3.2,3.2c-1.76,0-3.2-1.44-3.2-3.2Zm0,8c0-1.76,1.44-3.2,3.2-3.2s3.2,1.44,3.2,3.2-1.28,3.2-3.2,3.2c-1.76,0-3.2-1.44-3.2-3.2Zm8-24c0-1.76,1.44-3.2,3.2-3.2s3.2,1.44,3.2,3.2-1.28,3.2-3.2,3.2c-1.76,0-3.2-1.44-3.2-3.2Zm0,8c0-1.76,1.44-3.2,3.2-3.2s3.2,1.44,3.2,3.2-1.28,3.2-3.2,3.2c-1.76,0-3.2-1.44-3.2-3.2Zm0,8c0-1.76,1.44-3.2,3.2-3.2s3.2,1.44,3.2,3.2-1.28,3.2-3.2,3.2c-1.76,0-3.2-1.44-3.2-3.2Zm0,8c0-1.76,1.44-3.2,3.2-3.2s3.2,1.44,3.2,3.2-1.28,3.2-3.2,3.2c-1.76,0-3.2-1.44-3.2-3.2Zm8-24c0-1.76,1.44-3.2,3.2-3.2s3.2,1.44,3.2,3.2-1.28,3.2-3.2,3.2c-1.76,0-3.2-1.44-3.2-3.2Zm0,8c0-1.76,1.44-3.2,3.2-3.2s3.2,1.44,3.2,3.2-1.28,3.2-3.2,3.2c-1.76,0-3.2-1.44-3.2-3.2Zm0,8c0-1.76,1.44-3.2,3.2-3.2s3.2,1.44,3.2,3.2-1.28,3.2-3.2,3.2c-1.76,0-3.2-1.44-3.2-3.2Zm0,8c0-1.76,1.44-3.2,3.2-3.2s3.2,1.44,3.2,3.2-1.28,3.2-3.2,3.2c-1.76,0-3.2-1.44-3.2-3.2Zm8-24c0-1.76,1.44-3.2,3.2-3.2s3.2,1.44,3.2,3.2-1.28,3.2-3.2,3.2c-1.76,0-3.2-1.44-3.2-3.2Zm0,8c0-1.76,1.44-3.2,3.2-3.2s3.2,1.44,3.2,3.2-1.28,3.2-3.2,3.2c-1.76,0-3.2-1.44-3.2-3.2Zm0,8c0-1.76,1.44-3.2,3.2-3.2s3.2,1.44,3.2,3.2-1.28,3.2-3.2,3.2c-1.76,0-3.2-1.44-3.2-3.2Zm0,8c0-1.76,1.44-3.2,3.2-3.2s3.2,1.44,3.2,3.2-1.28,3.2-3.2,3.2c-1.76,0-3.2-1.44-3.2-3.2Z"/>
      <path d="m448,3.2c0-1.76,1.44-3.2,3.2-3.2s3.2,1.44,3.2,3.2-1.44,3.2-3.2,3.2-3.2-1.44-3.2-3.2Zm0,8c0-1.76,1.44-3.2,3.2-3.2s3.2,1.44,3.2,3.2-1.44,3.2-3.2,3.2-3.2-1.44-3.2-3.2Zm0,8c0-1.76,1.44-3.2,3.2-3.2s3.2,1.44,3.2,3.2-1.44,3.2-3.2,3.2-3.2-1.44-3.2-3.2Zm0,8c0-1.76,1.44-3.2,3.2-3.2s3.2,1.44,3.2,3.2-1.44,3.2-3.2,3.2-3.2-1.44-3.2-3.2Zm0,8c0-1.76,1.44-3.2,3.2-3.2s3.2,1.44,3.2,3.2-1.44,3.2-3.2,3.2-3.2-1.44-3.2-3.2Zm0,8c0-1.76,1.44-3.2,3.2-3.2s3.2,1.44,3.2,3.2-1.44,3.2-3.2,3.2-3.2-1.44-3.2-3.2Zm0,8c0-1.76,1.44-3.2,3.2-3.2s3.2,1.44,3.2,3.2-1.44,3.2-3.2,3.2-3.2-1.44-3.2-3.2Zm0,8c0-1.76,1.44-3.2,3.2-3.2s3.2,1.44,3.2,3.2-1.44,3.2-3.2,3.2-3.2-1.44-3.2-3.2Zm0,8c0-1.76,1.44-3.2,3.2-3.2s3.2,1.44,3.2,3.2-1.44,3.2-3.2,3.2-3.2-1.44-3.2-3.2Zm0,8c0-1.76,1.44-3.2,3.2-3.2s3.2,1.44,3.2,3.2-1.44,3.2-3.2,3.2-3.2-1.44-3.2-3.2Zm0,8c0-1.76,1.44-3.2,3.2-3.2s3.2,1.44,3.2,3.2-1.44,3.2-3.2,3.2-3.2-1.44-3.2-3.2Zm0,8c0-1.76,1.44-3.2,3.2-3.2s3.2,1.44,3.2,3.2-1.44,3.2-3.2,3.2-3.2-1.44-3.2-3.2Zm0,8c0-1.76,1.44-3.2,3.2-3.2s3.2,1.44,3.2,3.2-1.44,3.2-3.2,3.2-3.2-1.44-3.2-3.2Zm0,8c0-1.76,1.44-3.2,3.2-3.2s3.2,1.44,3.2,3.2-1.44,3.2-3.2,3.2-3.2-1.44-3.2-3.2Zm0,8c0-1.76,1.44-3.2,3.2-3.2s3.2,1.44,3.2,3.2-1.44,3.2-3.2,3.2-3.2-1.44-3.2-3.2Zm0,8c0-1.76,1.44-3.2,3.2-3.2s3.2,1.44,3.2,3.2-1.44,3.2-3.2,3.2-3.2-1.44-3.2-3.2Zm8-120c0-1.76,1.44-3.2,3.2-3.2s3.2,1.44,3.2,3.2-1.28,3.2-3.2,3.2c-1.76,0-3.2-1.44-3.2-3.2Zm0,8c0-1.76,1.44-3.2,3.2-3.2s3.2,1.44,3.2,3.2-1.28,3.2-3.2,3.2c-1.76,0-3.2-1.44-3.2-3.2Zm0,8c0-1.76,1.44-3.2,3.2-3.2s3.2,1.44,3.2,3.2-1.28,3.2-3.2,3.2c-1.76,0-3.2-1.44-3.2-3.2Zm0,8c0-1.76,1.44-3.2,3.2-3.2s3.2,1.44,3.2,3.2-1.28,3.2-3.2,3.2c-1.76,0-3.2-1.44-3.2-3.2Zm0,8c0-1.76,1.44-3.2,3.2-3.2s3.2,1.44,3.2,3.2-1.28,3.2-3.2,3.2c-1.76,0-3.2-1.44-3.2-3.2Zm0,8c0-1.76,1.44-3.2,3.2-3.2s3.2,1.44,3.2,3.2-1.28,3.2-3.2,3.2c-1.76,0-3.2-1.44-3.2-3.2Zm0,8c0-1.76,1.44-3.2,3.2-3.2s3.2,1.44,3.2,3.2-1.28,3.2-3.2,3.2c-1.76,0-3.2-1.44-3.2-3.2Zm0,8c0-1.76,1.44-3.2,3.2-3.2s3.2,1.44,3.2,3.2-1.28,3.2-3.2,3.2c-1.76,0-3.2-1.44-3.2-3.2Zm0,8c0-1.76,1.44-3.2,3.2-3.2s3.2,1.44,3.2,3.2-1.28,3.2-3.2,3.2c-1.76,0-3.2-1.44-3.2-3.2Zm0,8c0-1.76,1.44-3.2,3.2-3.2s3.2,1.44,3.2,3.2-1.28,3.2-3.2,3.2c-1.76,0-3.2-1.44-3.2-3.2Zm0,8c0-1.76,1.44-3.2,3.2-3.2s3.2,1.44,3.2,3.2-1.28,3.2-3.2,3.2c-1.76,0-3.2-1.44-3.2-3.2Zm0,8c0-1.76,1.44-3.2,3.2-3.2s3.2,1.44,3.2,3.2-1.28,3.2-3.2,3.2c-1.76,0-3.2-1.44-3.2-3.2Zm0,8c0-1.76,1.44-3.2,3.2-3.2s3.2,1.44,3.2,3.2-1.28,3.2-3.2,3.2c-1.76,0-3.2-1.44-3.2-3.2Zm0,8c0-1.76,1.44-3.2,3.2-3.2s3.2,1.44,3.2,3.2-1.28,3.2-3.2,3.2c-1.76,0-3.2-1.44-3.2-3.2Zm0,8c0-1.76,1.44-3.2,3.2-3.2s3.2,1.44,3.2,3.2-1.28,3.2-3.2,3.2c-1.76,0-3.2-1.44-3.2-3.2Zm0,8c0-1.76,1.44-3.2,3.2-3.2s3.2,1.44,3.2,3.2-1.28,3.2-3.2,3.2c-1.76,0-3.2-1.44-3.2-3.2Zm8-120c0-1.76,1.44-3.2,3.2-3.2s3.2,1.44,3.2,3.2-1.28,3.2-3.2,3.2c-1.76,0-3.2-1.44-3.2-3.2Zm0,8c0-1.76,1.44-3.2,3.2-3.2s3.2,1.44,3.2,3.2-1.28,3.2-3.2,3.2c-1.76,0-3.2-1.44-3.2-3.2Zm0,8c0-1.76,1.44-3.2,3.2-3.2s3.2,1.44,3.2,3.2-1.28,3.2-3.2,3.2c-1.76,0-3.2-1.44-3.2-3.2Zm0,8c0-1.76,1.44-3.2,3.2-3.2s3.2,1.44,3.2,3.2-1.28,3.2-3.2,3.2c-1.76,0-3.2-1.44-3.2-3.2Zm0,8c0-1.76,1.44-3.2,3.2-3.2s3.2,1.44,3.2,3.2-1.28,3.2-3.2,3.2c-1.76,0-3.2-1.44-3.2-3.2Zm0,8c0-1.76,1.44-3.2,3.2-3.2s3.2,1.44,3.2,3.2-1.28,3.2-3.2,3.2c-1.76,0-3.2-1.44-3.2-3.2Zm0,8c0-1.76,1.44-3.2,3.2-3.2s3.2,1.44,3.2,3.2-1.28,3.2-3.2,3.2c-1.76,0-3.2-1.44-3.2-3.2Zm0,8c0-1.76,1.44-3.2,3.2-3.2s3.2,1.44,3.2,3.2-1.28,3.2-3.2,3.2c-1.76,0-3.2-1.44-3.2-3.2Zm0,8c0-1.76,1.44-3.2,3.2-3.2s3.2,1.44,3.2,3.2-1.28,3.2-3.2,3.2c-1.76,0-3.2-1.44-3.2-3.2Zm0,8c0-1.76,1.44-3.2,3.2-3.2s3.2,1.44,3.2,3.2-1.28,3.2-3.2,3.2c-1.76,0-3.2-1.44-3.2-3.2Zm0,8c0-1.76,1.44-3.2,3.2-3.2s3.2,1.44,3.2,3.2-1.28,3.2-3.2,3.2c-1.76,0-3.2-1.44-3.2-3.2Zm0,8c0-1.76,1.44-3.2,3.2-3.2s3.2,1.44,3.2,3.2-1.28,3.2-3.2,3.2c-1.76,0-3.2-1.44-3.2-3.2Zm0,8c0-1.76,1.44-3.2,3.2-3.2s3.2,1.44,3.2,3.2-1.28,3.2-3.2,3.2c-1.76,0-3.2-1.44-3.2-3.2Zm0,8c0-1.76,1.44-3.2,3.2-3.2s3.2,1.44,3.2,3.2-1.28,3.2-3.2,3.2c-1.76,0-3.2-1.44-3.2-3.2Zm0,8c0-1.76,1.44-3.2,3.2-3.2s3.2,1.44,3.2,3.2-1.28,3.2-3.2,3.2c-1.76,0-3.2-1.44-3.2-3.2Zm0,8c0-1.76,1.44-3.2,3.2-3.2s3.2,1.44,3.2,3.2-1.28,3.2-3.2,3.2c-1.76,0-3.2-1.44-3.2-3.2Zm8-120c0-1.76,1.44-3.2,3.2-3.2s3.2,1.44,3.2,3.2-1.28,3.2-3.2,3.2c-1.76,0-3.2-1.44-3.2-3.2Zm0,8c0-1.76,1.44-3.2,3.2-3.2s3.2,1.44,3.2,3.2-1.28,3.2-3.2,3.2c-1.76,0-3.2-1.44-3.2-3.2Zm0,8c0-1.76,1.44-3.2,3.2-3.2s3.2,1.44,3.2,3.2-1.28,3.2-3.2,3.2c-1.76,0-3.2-1.44-3.2-3.2Zm0,8c0-1.76,1.44-3.2,3.2-3.2s3.2,1.44,3.2,3.2-1.28,3.2-3.2,3.2c-1.76,0-3.2-1.44-3.2-3.2Zm0,8c0-1.76,1.44-3.2,3.2-3.2s3.2,1.44,3.2,3.2-1.28,3.2-3.2,3.2c-1.76,0-3.2-1.44-3.2-3.2Zm0,8c0-1.76,1.44-3.2,3.2-3.2s3.2,1.44,3.2,3.2-1.28,3.2-3.2,3.2c-1.76,0-3.2-1.44-3.2-3.2Zm0,8c0-1.76,1.44-3.2,3.2-3.2s3.2,1.44,3.2,3.2-1.28,3.2-3.2,3.2c-1.76,0-3.2-1.44-3.2-3.2Zm0,8c0-1.76,1.44-3.2,3.2-3.2s3.2,1.44,3.2,3.2-1.28,3.2-3.2,3.2c-1.76,0-3.2-1.44-3.2-3.2Zm0,8c0-1.76,1.44-3.2,3.2-3.2s3.2,1.44,3.2,3.2-1.28,3.2-3.2,3.2c-1.76,0-3.2-1.44-3.2-3.2Zm0,8c0-1.76,1.44-3.2,3.2-3.2s3.2,1.44,3.2,3.2-1.28,3.2-3.2,3.2c-1.76,0-3.2-1.44-3.2-3.2Zm0,8c0-1.76,1.44-3.2,3.2-3.2s3.2,1.44,3.2,3.2-1.28,3.2-3.2,3.2c-1.76,0-3.2-1.44-3.2-3.2Zm0,8c0-1.76,1.44-3.2,3.2-3.2s3.2,1.44,3.2,3.2-1.28,3.2-3.2,3.2c-1.76,0-3.2-1.44-3.2-3.2Zm0,8c0-1.76,1.44-3.2,3.2-3.2s3.2,1.44,3.2,3.2-1.28,3.2-3.2,3.2c-1.76,0-3.2-1.44-3.2-3.2Zm0,8c0-1.76,1.44-3.2,3.2-3.2s3.2,1.44,3.2,3.2-1.28,3.2-3.2,3.2c-1.76,0-3.2-1.44-3.2-3.2Zm0,8c0-1.76,1.44-3.2,3.2-3.2s3.2,1.44,3.2,3.2-1.28,3.2-3.2,3.2c-1.76,0-3.2-1.44-3.2-3.2Zm0,8c0-1.76,1.44-3.2,3.2-3.2s3.2,1.44,3.2,3.2-1.28,3.2-3.2,3.2c-1.76,0-3.2-1.44-3.2-3.2Zm8-24c0-1.76,1.44-3.2,3.2-3.2s3.2,1.44,3.2,3.2-1.28,3.2-3.2,3.2c-1.76,0-3.2-1.44-3.2-3.2Zm0,8c0-1.76,1.44-3.2,3.2-3.2s3.2,1.44,3.2,3.2-1.28,3.2-3.2,3.2c-1.76,0-3.2-1.44-3.2-3.2Zm0,8c0-1.76,1.44-3.2,3.2-3.2s3.2,1.44,3.2,3.2-1.28,3.2-3.2,3.2c-1.76,0-3.2-1.44-3.2-3.2Zm0,8c0-1.76,1.44-3.2,3.2-3.2s3.2,1.44,3.2,3.2-1.28,3.2-3.2,3.2c-1.76,0-3.2-1.44-3.2-3.2Zm8-24c0-1.76,1.44-3.2,3.2-3.2s3.2,1.44,3.2,3.2-1.28,3.2-3.2,3.2c-1.76,0-3.2-1.44-3.2-3.2Zm0,8c0-1.76,1.44-3.2,3.2-3.2s3.2,1.44,3.2,3.2-1.28,3.2-3.2,3.2c-1.76,0-3.2-1.44-3.2-3.2Zm0,8c0-1.76,1.44-3.2,3.2-3.2s3.2,1.44,3.2,3.2-1.28,3.2-3.2,3.2c-1.76,0-3.2-1.44-3.2-3.2Zm0,8c0-1.76,1.44-3.2,3.2-3.2s3.2,1.44,3.2,3.2-1.28,3.2-3.2,3.2c-1.76,0-3.2-1.44-3.2-3.2Zm8-24c0-1.76,1.44-3.2,3.2-3.2s3.2,1.44,3.2,3.2-1.28,3.2-3.2,3.2c-1.76,0-3.2-1.44-3.2-3.2Zm0,8c0-1.76,1.44-3.2,3.2-3.2s3.2,1.44,3.2,3.2-1.28,3.2-3.2,3.2c-1.76,0-3.2-1.44-3.2-3.2Zm0,8c0-1.76,1.44-3.2,3.2-3.2s3.2,1.44,3.2,3.2-1.28,3.2-3.2,3.2c-1.76,0-3.2-1.44-3.2-3.2Zm0,8c0-1.76,1.44-3.2,3.2-3.2s3.2,1.44,3.2,3.2-1.28,3.2-3.2,3.2c-1.76,0-3.2-1.44-3.2-3.2Z"/>
      <path d="m496,3.2c0-1.76,1.44-3.2,3.2-3.2s3.2,1.44,3.2,3.2-1.44,3.2-3.2,3.2-3.2-1.44-3.2-3.2Zm0,8c0-1.76,1.44-3.2,3.2-3.2s3.2,1.44,3.2,3.2-1.44,3.2-3.2,3.2-3.2-1.44-3.2-3.2Zm0,8c0-1.76,1.44-3.2,3.2-3.2s3.2,1.44,3.2,3.2-1.44,3.2-3.2,3.2-3.2-1.44-3.2-3.2Zm0,8c0-1.76,1.44-3.2,3.2-3.2s3.2,1.44,3.2,3.2-1.44,3.2-3.2,3.2-3.2-1.44-3.2-3.2Zm0,8c0-1.76,1.44-3.2,3.2-3.2s3.2,1.44,3.2,3.2-1.44,3.2-3.2,3.2-3.2-1.44-3.2-3.2Zm0,8c0-1.76,1.44-3.2,3.2-3.2s3.2,1.44,3.2,3.2-1.44,3.2-3.2,3.2-3.2-1.44-3.2-3.2Zm0,8c0-1.76,1.44-3.2,3.2-3.2s3.2,1.44,3.2,3.2-1.44,3.2-3.2,3.2-3.2-1.44-3.2-3.2Zm0,8c0-1.76,1.44-3.2,3.2-3.2s3.2,1.44,3.2,3.2-1.44,3.2-3.2,3.2-3.2-1.44-3.2-3.2Zm0,8c0-1.76,1.44-3.2,3.2-3.2s3.2,1.44,3.2,3.2-1.44,3.2-3.2,3.2-3.2-1.44-3.2-3.2Zm8-64c0-1.76,1.44-3.2,3.2-3.2s3.2,1.44,3.2,3.2-1.28,3.2-3.2,3.2c-1.76,0-3.2-1.44-3.2-3.2Zm0,8c0-1.76,1.44-3.2,3.2-3.2s3.2,1.44,3.2,3.2-1.28,3.2-3.2,3.2c-1.76,0-3.2-1.44-3.2-3.2Zm0,8c0-1.76,1.44-3.2,3.2-3.2s3.2,1.44,3.2,3.2-1.28,3.2-3.2,3.2c-1.76,0-3.2-1.44-3.2-3.2Zm0,8c0-1.76,1.44-3.2,3.2-3.2s3.2,1.44,3.2,3.2-1.28,3.2-3.2,3.2c-1.76,0-3.2-1.44-3.2-3.2Zm0,8c0-1.76,1.44-3.2,3.2-3.2s3.2,1.44,3.2,3.2-1.28,3.2-3.2,3.2c-1.76,0-3.2-1.44-3.2-3.2Zm0,8c0-1.76,1.44-3.2,3.2-3.2s3.2,1.44,3.2,3.2-1.28,3.2-3.2,3.2c-1.76,0-3.2-1.44-3.2-3.2Zm0,8c0-1.76,1.44-3.2,3.2-3.2s3.2,1.44,3.2,3.2-1.28,3.2-3.2,3.2c-1.76,0-3.2-1.44-3.2-3.2Zm0,8c0-1.76,1.44-3.2,3.2-3.2s3.2,1.44,3.2,3.2-1.28,3.2-3.2,3.2c-1.76,0-3.2-1.44-3.2-3.2Zm0,8c0-1.76,1.44-3.2,3.2-3.2s3.2,1.44,3.2,3.2-1.28,3.2-3.2,3.2c-1.76,0-3.2-1.44-3.2-3.2Zm0,8c0-1.76,1.44-3.2,3.2-3.2s3.2,1.44,3.2,3.2-1.28,3.2-3.2,3.2c-1.76,0-3.2-1.44-3.2-3.2Zm8-72c0-1.76,1.44-3.2,3.2-3.2s3.2,1.44,3.2,3.2-1.28,3.2-3.2,3.2c-1.76,0-3.2-1.44-3.2-3.2Zm0,8c0-1.76,1.44-3.2,3.2-3.2s3.2,1.44,3.2,3.2-1.28,3.2-3.2,3.2c-1.76,0-3.2-1.44-3.2-3.2Zm0,8c0-1.76,1.44-3.2,3.2-3.2s3.2,1.44,3.2,3.2-1.28,3.2-3.2,3.2c-1.76,0-3.2-1.44-3.2-3.2Zm0,8c0-1.76,1.44-3.2,3.2-3.2s3.2,1.44,3.2,3.2-1.28,3.2-3.2,3.2c-1.76,0-3.2-1.44-3.2-3.2Zm0,8c0-1.76,1.44-3.2,3.2-3.2s3.2,1.44,3.2,3.2-1.28,3.2-3.2,3.2c-1.76,0-3.2-1.44-3.2-3.2Zm0,8c0-1.76,1.44-3.2,3.2-3.2s3.2,1.44,3.2,3.2-1.28,3.2-3.2,3.2c-1.76,0-3.2-1.44-3.2-3.2Zm0,8c0-1.76,1.44-3.2,3.2-3.2s3.2,1.44,3.2,3.2-1.28,3.2-3.2,3.2c-1.76,0-3.2-1.44-3.2-3.2Zm0,8c0-1.76,1.44-3.2,3.2-3.2s3.2,1.44,3.2,3.2-1.28,3.2-3.2,3.2c-1.76,0-3.2-1.44-3.2-3.2Zm0,8c0-1.76,1.44-3.2,3.2-3.2s3.2,1.44,3.2,3.2-1.28,3.2-3.2,3.2c-1.76,0-3.2-1.44-3.2-3.2Zm0,8c0-1.76,1.44-3.2,3.2-3.2s3.2,1.44,3.2,3.2-1.28,3.2-3.2,3.2c-1.76,0-3.2-1.44-3.2-3.2Zm0,8c0-1.76,1.44-3.2,3.2-3.2s3.2,1.44,3.2,3.2-1.28,3.2-3.2,3.2c-1.76,0-3.2-1.44-3.2-3.2Zm0,8c0-1.76,1.44-3.2,3.2-3.2s3.2,1.44,3.2,3.2-1.28,3.2-3.2,3.2c-1.76,0-3.2-1.44-3.2-3.2Zm0,8c0-1.76,1.44-3.2,3.2-3.2s3.2,1.44,3.2,3.2-1.28,3.2-3.2,3.2c-1.76,0-3.2-1.44-3.2-3.2Zm0,8c0-1.76,1.44-3.2,3.2-3.2s3.2,1.44,3.2,3.2-1.28,3.2-3.2,3.2c-1.76,0-3.2-1.44-3.2-3.2Zm0,8c0-1.76,1.44-3.2,3.2-3.2s3.2,1.44,3.2,3.2-1.28,3.2-3.2,3.2c-1.76,0-3.2-1.44-3.2-3.2Zm0,8c0-1.76,1.44-3.2,3.2-3.2s3.2,1.44,3.2,3.2-1.28,3.2-3.2,3.2c-1.76,0-3.2-1.44-3.2-3.2Zm8-120c0-1.76,1.44-3.2,3.2-3.2s3.2,1.44,3.2,3.2-1.28,3.2-3.2,3.2c-1.76,0-3.2-1.44-3.2-3.2Zm0,8c0-1.76,1.44-3.2,3.2-3.2s3.2,1.44,3.2,3.2-1.28,3.2-3.2,3.2c-1.76,0-3.2-1.44-3.2-3.2Zm0,8c0-1.76,1.44-3.2,3.2-3.2s3.2,1.44,3.2,3.2-1.28,3.2-3.2,3.2c-1.76,0-3.2-1.44-3.2-3.2Zm0,8c0-1.76,1.44-3.2,3.2-3.2s3.2,1.44,3.2,3.2-1.28,3.2-3.2,3.2c-1.76,0-3.2-1.44-3.2-3.2Zm0,8c0-1.76,1.44-3.2,3.2-3.2s3.2,1.44,3.2,3.2-1.28,3.2-3.2,3.2c-1.76,0-3.2-1.44-3.2-3.2Zm0,8c0-1.76,1.44-3.2,3.2-3.2s3.2,1.44,3.2,3.2-1.28,3.2-3.2,3.2c-1.76,0-3.2-1.44-3.2-3.2Zm0,8c0-1.76,1.44-3.2,3.2-3.2s3.2,1.44,3.2,3.2-1.28,3.2-3.2,3.2c-1.76,0-3.2-1.44-3.2-3.2Zm0,8c0-1.76,1.44-3.2,3.2-3.2s3.2,1.44,3.2,3.2-1.28,3.2-3.2,3.2c-1.76,0-3.2-1.44-3.2-3.2Zm0,8c0-1.76,1.44-3.2,3.2-3.2s3.2,1.44,3.2,3.2-1.28,3.2-3.2,3.2c-1.76,0-3.2-1.44-3.2-3.2Zm0,8c0-1.76,1.44-3.2,3.2-3.2s3.2,1.44,3.2,3.2-1.28,3.2-3.2,3.2c-1.76,0-3.2-1.44-3.2-3.2Zm0,8c0-1.76,1.44-3.2,3.2-3.2s3.2,1.44,3.2,3.2-1.28,3.2-3.2,3.2c-1.76,0-3.2-1.44-3.2-3.2Zm0,8c0-1.76,1.44-3.2,3.2-3.2s3.2,1.44,3.2,3.2-1.28,3.2-3.2,3.2c-1.76,0-3.2-1.44-3.2-3.2Zm0,8c0-1.76,1.44-3.2,3.2-3.2s3.2,1.44,3.2,3.2-1.28,3.2-3.2,3.2c-1.76,0-3.2-1.44-3.2-3.2Zm0,8c0-1.76,1.44-3.2,3.2-3.2s3.2,1.44,3.2,3.2-1.28,3.2-3.2,3.2c-1.76,0-3.2-1.44-3.2-3.2Zm0,8c0-1.76,1.44-3.2,3.2-3.2s3.2,1.44,3.2,3.2-1.28,3.2-3.2,3.2c-1.76,0-3.2-1.44-3.2-3.2Zm0,8c0-1.76,1.44-3.2,3.2-3.2s3.2,1.44,3.2,3.2-1.28,3.2-3.2,3.2c-1.76,0-3.2-1.44-3.2-3.2Zm8-56c0-1.76,1.44-3.2,3.2-3.2s3.2,1.44,3.2,3.2-1.28,3.2-3.2,3.2c-1.76,0-3.2-1.44-3.2-3.2Zm0,8c0-1.76,1.44-3.2,3.2-3.2s3.2,1.44,3.2,3.2-1.28,3.2-3.2,3.2c-1.76,0-3.2-1.44-3.2-3.2Zm0,8c0-1.76,1.44-3.2,3.2-3.2s3.2,1.44,3.2,3.2-1.28,3.2-3.2,3.2c-1.76,0-3.2-1.44-3.2-3.2Zm0,8c0-1.76,1.44-3.2,3.2-3.2s3.2,1.44,3.2,3.2-1.28,3.2-3.2,3.2c-1.76,0-3.2-1.44-3.2-3.2Zm0,8c0-1.76,1.44-3.2,3.2-3.2s3.2,1.44,3.2,3.2-1.28,3.2-3.2,3.2c-1.76,0-3.2-1.44-3.2-3.2Zm0,8c0-1.76,1.44-3.2,3.2-3.2s3.2,1.44,3.2,3.2-1.28,3.2-3.2,3.2c-1.76,0-3.2-1.44-3.2-3.2Zm0,8c0-1.76,1.44-3.2,3.2-3.2s3.2,1.44,3.2,3.2-1.28,3.2-3.2,3.2c-1.76,0-3.2-1.44-3.2-3.2Zm0,8c0-1.76,1.44-3.2,3.2-3.2s3.2,1.44,3.2,3.2-1.28,3.2-3.2,3.2c-1.76,0-3.2-1.44-3.2-3.2Zm8-120c0-1.76,1.44-3.2,3.2-3.2s3.2,1.44,3.2,3.2-1.28,3.2-3.2,3.2c-1.76,0-3.2-1.44-3.2-3.2Zm0,8c0-1.76,1.44-3.2,3.2-3.2s3.2,1.44,3.2,3.2-1.28,3.2-3.2,3.2c-1.76,0-3.2-1.44-3.2-3.2Zm0,8c0-1.76,1.44-3.2,3.2-3.2s3.2,1.44,3.2,3.2-1.28,3.2-3.2,3.2c-1.76,0-3.2-1.44-3.2-3.2Zm0,8c0-1.76,1.44-3.2,3.2-3.2s3.2,1.44,3.2,3.2-1.28,3.2-3.2,3.2c-1.76,0-3.2-1.44-3.2-3.2Zm0,8c0-1.76,1.44-3.2,3.2-3.2s3.2,1.44,3.2,3.2-1.28,3.2-3.2,3.2c-1.76,0-3.2-1.44-3.2-3.2Zm0,8c0-1.76,1.44-3.2,3.2-3.2s3.2,1.44,3.2,3.2-1.28,3.2-3.2,3.2c-1.76,0-3.2-1.44-3.2-3.2Zm0,8c0-1.76,1.44-3.2,3.2-3.2s3.2,1.44,3.2,3.2-1.28,3.2-3.2,3.2c-1.76,0-3.2-1.44-3.2-3.2Zm0,8c0-1.76,1.44-3.2,3.2-3.2s3.2,1.44,3.2,3.2-1.28,3.2-3.2,3.2c-1.76,0-3.2-1.44-3.2-3.2Zm0,8c0-1.76,1.44-3.2,3.2-3.2s3.2,1.44,3.2,3.2-1.28,3.2-3.2,3.2c-1.76,0-3.2-1.44-3.2-3.2Zm0,8c0-1.76,1.44-3.2,3.2-3.2s3.2,1.44,3.2,3.2-1.28,3.2-3.2,3.2c-1.76,0-3.2-1.44-3.2-3.2Zm0,8c0-1.76,1.44-3.2,3.2-3.2s3.2,1.44,3.2,3.2-1.28,3.2-3.2,3.2c-1.76,0-3.2-1.44-3.2-3.2Zm0,8c0-1.76,1.44-3.2,3.2-3.2s3.2,1.44,3.2,3.2-1.28,3.2-3.2,3.2c-1.76,0-3.2-1.44-3.2-3.2Zm0,8c0-1.76,1.44-3.2,3.2-3.2s3.2,1.44,3.2,3.2-1.28,3.2-3.2,3.2c-1.76,0-3.2-1.44-3.2-3.2Zm0,8c0-1.76,1.44-3.2,3.2-3.2s3.2,1.44,3.2,3.2-1.28,3.2-3.2,3.2c-1.76,0-3.2-1.44-3.2-3.2Zm0,8c0-1.76,1.44-3.2,3.2-3.2s3.2,1.44,3.2,3.2-1.28,3.2-3.2,3.2c-1.76,0-3.2-1.44-3.2-3.2Zm0,8c0-1.76,1.44-3.2,3.2-3.2s3.2,1.44,3.2,3.2-1.28,3.2-3.2,3.2c-1.76,0-3.2-1.44-3.2-3.2Zm8-120c0-1.76,1.44-3.2,3.2-3.2s3.2,1.44,3.2,3.2-1.28,3.2-3.2,3.2c-1.76,0-3.2-1.44-3.2-3.2Zm0,8c0-1.76,1.44-3.2,3.2-3.2s3.2,1.44,3.2,3.2-1.28,3.2-3.2,3.2c-1.76,0-3.2-1.44-3.2-3.2Zm0,8c0-1.76,1.44-3.2,3.2-3.2s3.2,1.44,3.2,3.2-1.28,3.2-3.2,3.2c-1.76,0-3.2-1.44-3.2-3.2Zm0,8c0-1.76,1.44-3.2,3.2-3.2s3.2,1.44,3.2,3.2-1.28,3.2-3.2,3.2c-1.76,0-3.2-1.44-3.2-3.2Zm0,8c0-1.76,1.44-3.2,3.2-3.2s3.2,1.44,3.2,3.2-1.28,3.2-3.2,3.2c-1.76,0-3.2-1.44-3.2-3.2Zm0,8c0-1.76,1.44-3.2,3.2-3.2s3.2,1.44,3.2,3.2-1.28,3.2-3.2,3.2c-1.76,0-3.2-1.44-3.2-3.2Zm0,8c0-1.76,1.44-3.2,3.2-3.2s3.2,1.44,3.2,3.2-1.28,3.2-3.2,3.2c-1.76,0-3.2-1.44-3.2-3.2Zm0,8c0-1.76,1.44-3.2,3.2-3.2s3.2,1.44,3.2,3.2-1.28,3.2-3.2,3.2c-1.76,0-3.2-1.44-3.2-3.2Zm0,8c0-1.76,1.44-3.2,3.2-3.2s3.2,1.44,3.2,3.2-1.28,3.2-3.2,3.2c-1.76,0-3.2-1.44-3.2-3.2Zm0,8c0-1.76,1.44-3.2,3.2-3.2s3.2,1.44,3.2,3.2-1.28,3.2-3.2,3.2c-1.76,0-3.2-1.44-3.2-3.2Zm0,8c0-1.76,1.44-3.2,3.2-3.2s3.2,1.44,3.2,3.2-1.28,3.2-3.2,3.2c-1.76,0-3.2-1.44-3.2-3.2Zm0,8c0-1.76,1.44-3.2,3.2-3.2s3.2,1.44,3.2,3.2-1.28,3.2-3.2,3.2c-1.76,0-3.2-1.44-3.2-3.2Zm0,8c0-1.76,1.44-3.2,3.2-3.2s3.2,1.44,3.2,3.2-1.28,3.2-3.2,3.2c-1.76,0-3.2-1.44-3.2-3.2Zm0,8c0-1.76,1.44-3.2,3.2-3.2s3.2,1.44,3.2,3.2-1.28,3.2-3.2,3.2c-1.76,0-3.2-1.44-3.2-3.2Zm0,8c0-1.76,1.44-3.2,3.2-3.2s3.2,1.44,3.2,3.2-1.28,3.2-3.2,3.2c-1.76,0-3.2-1.44-3.2-3.2Zm0,8c0-1.76,1.44-3.2,3.2-3.2s3.2,1.44,3.2,3.2-1.28,3.2-3.2,3.2c-1.76,0-3.2-1.44-3.2-3.2Zm8-120c0-1.76,1.44-3.2,3.2-3.2s3.2,1.44,3.2,3.2-1.28,3.2-3.2,3.2c-1.76,0-3.2-1.44-3.2-3.2Zm0,8c0-1.76,1.44-3.2,3.2-3.2s3.2,1.44,3.2,3.2-1.28,3.2-3.2,3.2c-1.76,0-3.2-1.44-3.2-3.2Zm0,8c0-1.76,1.44-3.2,3.2-3.2s3.2,1.44,3.2,3.2-1.28,3.2-3.2,3.2c-1.76,0-3.2-1.44-3.2-3.2Zm0,8c0-1.76,1.44-3.2,3.2-3.2s3.2,1.44,3.2,3.2-1.28,3.2-3.2,3.2c-1.76,0-3.2-1.44-3.2-3.2Zm0,8c0-1.76,1.44-3.2,3.2-3.2s3.2,1.44,3.2,3.2-1.28,3.2-3.2,3.2c-1.76,0-3.2-1.44-3.2-3.2Zm0,8c0-1.76,1.44-3.2,3.2-3.2s3.2,1.44,3.2,3.2-1.28,3.2-3.2,3.2c-1.76,0-3.2-1.44-3.2-3.2Zm0,8c0-1.76,1.44-3.2,3.2-3.2s3.2,1.44,3.2,3.2-1.28,3.2-3.2,3.2c-1.76,0-3.2-1.44-3.2-3.2Zm0,8c0-1.76,1.44-3.2,3.2-3.2s3.2,1.44,3.2,3.2-1.28,3.2-3.2,3.2c-1.76,0-3.2-1.44-3.2-3.2Zm0,8c0-1.76,1.44-3.2,3.2-3.2s3.2,1.44,3.2,3.2-1.28,3.2-3.2,3.2c-1.76,0-3.2-1.44-3.2-3.2Zm0,8c0-1.76,1.44-3.2,3.2-3.2s3.2,1.44,3.2,3.2-1.28,3.2-3.2,3.2c-1.76,0-3.2-1.44-3.2-3.2Zm8-72c0-1.76,1.44-3.2,3.2-3.2s3.2,1.44,3.2,3.2-1.28,3.2-3.2,3.2c-1.76,0-3.2-1.44-3.2-3.2Zm0,8c0-1.76,1.44-3.2,3.2-3.2s3.2,1.44,3.2,3.2-1.28,3.2-3.2,3.2c-1.76,0-3.2-1.44-3.2-3.2Zm0,8c0-1.76,1.44-3.2,3.2-3.2s3.2,1.44,3.2,3.2-1.28,3.2-3.2,3.2c-1.76,0-3.2-1.44-3.2-3.2Zm0,8c0-1.76,1.44-3.2,3.2-3.2s3.2,1.44,3.2,3.2-1.28,3.2-3.2,3.2c-1.76,0-3.2-1.44-3.2-3.2Zm0,8c0-1.76,1.44-3.2,3.2-3.2s3.2,1.44,3.2,3.2-1.28,3.2-3.2,3.2c-1.76,0-3.2-1.44-3.2-3.2Zm0,8c0-1.76,1.44-3.2,3.2-3.2s3.2,1.44,3.2,3.2-1.28,3.2-3.2,3.2c-1.76,0-3.2-1.44-3.2-3.2Zm0,8c0-1.76,1.44-3.2,3.2-3.2s3.2,1.44,3.2,3.2-1.28,3.2-3.2,3.2c-1.76,0-3.2-1.44-3.2-3.2Zm0,8c0-1.76,1.44-3.2,3.2-3.2s3.2,1.44,3.2,3.2-1.28,3.2-3.2,3.2c-1.76,0-3.2-1.44-3.2-3.2Zm0,8c0-1.76,1.44-3.2,3.2-3.2s3.2,1.44,3.2,3.2-1.28,3.2-3.2,3.2c-1.76,0-3.2-1.44-3.2-3.2Z"/>
    </g>
  </g>
</svg>