<?xml version="1.0" encoding="UTF-8"?>
<svg id="Layer_2" data-name="Layer 2" xmlns="http://www.w3.org/2000/svg" viewBox="0 0 483.92 121.99">
  <defs>
    <style>
      .cls-1 {
        fill: #ff9fe2;
      }
    </style>
  </defs>
  <g id="Layer_2-2" data-name="Layer 2">
    <g>
      <path class="cls-1" d="m0,3.09C0,1.39,1.65,0,3.67,0s3.67,1.39,3.67,3.09-1.65,3.09-3.67,3.09S0,4.79,0,3.09Zm0,7.72c0-1.7,1.65-3.09,3.67-3.09s3.67,1.39,3.67,3.09-1.65,3.09-3.67,3.09-3.67-1.39-3.67-3.09Zm0,7.72c0-1.7,1.65-3.09,3.67-3.09s3.67,1.39,3.67,3.09-1.65,3.09-3.67,3.09-3.67-1.39-3.67-3.09Zm0,7.72c0-1.7,1.65-3.09,3.67-3.09s3.67,1.39,3.67,3.09-1.65,3.09-3.67,3.09-3.67-1.39-3.67-3.09Zm0,7.72c0-1.7,1.65-3.09,3.67-3.09s3.67,1.39,3.67,3.09-1.65,3.09-3.67,3.09-3.67-1.39-3.67-3.09Zm0,7.72c0-1.7,1.65-3.09,3.67-3.09s3.67,1.39,3.67,3.09-1.65,3.09-3.67,3.09-3.67-1.39-3.67-3.09Zm0,7.72c0-1.7,1.65-3.09,3.67-3.09s3.67,1.39,3.67,3.09-1.65,3.09-3.67,3.09-3.67-1.39-3.67-3.09Zm0,7.72c0-1.7,1.65-3.09,3.67-3.09s3.67,1.39,3.67,3.09-1.65,3.09-3.67,3.09-3.67-1.39-3.67-3.09Zm0,7.72c0-1.7,1.65-3.09,3.67-3.09s3.67,1.39,3.67,3.09-1.65,3.09-3.67,3.09-3.67-1.39-3.67-3.09Zm0,7.72c0-1.7,1.65-3.09,3.67-3.09s3.67,1.39,3.67,3.09-1.65,3.09-3.67,3.09-3.67-1.39-3.67-3.09Zm0,7.72c0-1.7,1.65-3.09,3.67-3.09s3.67,1.39,3.67,3.09-1.65,3.09-3.67,3.09-3.67-1.39-3.67-3.09Zm0,7.72c0-1.7,1.65-3.09,3.67-3.09s3.67,1.39,3.67,3.09-1.65,3.09-3.67,3.09-3.67-1.39-3.67-3.09Zm0,7.72c0-1.7,1.65-3.09,3.67-3.09s3.67,1.39,3.67,3.09-1.65,3.09-3.67,3.09-3.67-1.39-3.67-3.09Zm0,7.72c0-1.7,1.65-3.09,3.67-3.09s3.67,1.39,3.67,3.09-1.65,3.09-3.67,3.09-3.67-1.39-3.67-3.09Zm0,7.72c0-1.7,1.65-3.09,3.67-3.09s3.67,1.39,3.67,3.09-1.65,3.09-3.67,3.09-3.67-1.39-3.67-3.09Zm0,7.72c0-1.7,1.65-3.09,3.67-3.09s3.67,1.39,3.67,3.09-1.65,3.09-3.67,3.09-3.67-1.39-3.67-3.09ZM9.17,3.09c0-1.7,1.65-3.09,3.67-3.09s3.67,1.39,3.67,3.09-1.47,3.09-3.67,3.09c-2.02,0-3.67-1.39-3.67-3.09Zm0,7.72c0-1.7,1.65-3.09,3.67-3.09s3.67,1.39,3.67,3.09-1.47,3.09-3.67,3.09c-2.02,0-3.67-1.39-3.67-3.09Zm0,7.72c0-1.7,1.65-3.09,3.67-3.09s3.67,1.39,3.67,3.09-1.47,3.09-3.67,3.09c-2.02,0-3.67-1.39-3.67-3.09Zm0,7.72c0-1.7,1.65-3.09,3.67-3.09s3.67,1.39,3.67,3.09-1.47,3.09-3.67,3.09c-2.02,0-3.67-1.39-3.67-3.09Zm0,7.72c0-1.7,1.65-3.09,3.67-3.09s3.67,1.39,3.67,3.09-1.47,3.09-3.67,3.09c-2.02,0-3.67-1.39-3.67-3.09Zm0,7.72c0-1.7,1.65-3.09,3.67-3.09s3.67,1.39,3.67,3.09-1.47,3.09-3.67,3.09c-2.02,0-3.67-1.39-3.67-3.09Zm0,7.72c0-1.7,1.65-3.09,3.67-3.09s3.67,1.39,3.67,3.09-1.47,3.09-3.67,3.09c-2.02,0-3.67-1.39-3.67-3.09Zm0,7.72c0-1.7,1.65-3.09,3.67-3.09s3.67,1.39,3.67,3.09-1.47,3.09-3.67,3.09c-2.02,0-3.67-1.39-3.67-3.09Zm0,7.72c0-1.7,1.65-3.09,3.67-3.09s3.67,1.39,3.67,3.09-1.47,3.09-3.67,3.09c-2.02,0-3.67-1.39-3.67-3.09Zm0,7.72c0-1.7,1.65-3.09,3.67-3.09s3.67,1.39,3.67,3.09-1.47,3.09-3.67,3.09c-2.02,0-3.67-1.39-3.67-3.09Zm0,7.72c0-1.7,1.65-3.09,3.67-3.09s3.67,1.39,3.67,3.09-1.47,3.09-3.67,3.09c-2.02,0-3.67-1.39-3.67-3.09Zm0,7.72c0-1.7,1.65-3.09,3.67-3.09s3.67,1.39,3.67,3.09-1.47,3.09-3.67,3.09c-2.02,0-3.67-1.39-3.67-3.09Zm0,7.72c0-1.7,1.65-3.09,3.67-3.09s3.67,1.39,3.67,3.09-1.47,3.09-3.67,3.09c-2.02,0-3.67-1.39-3.67-3.09Zm0,7.72c0-1.7,1.65-3.09,3.67-3.09s3.67,1.39,3.67,3.09-1.47,3.09-3.67,3.09c-2.02,0-3.67-1.39-3.67-3.09Zm0,7.72c0-1.7,1.65-3.09,3.67-3.09s3.67,1.39,3.67,3.09-1.47,3.09-3.67,3.09c-2.02,0-3.67-1.39-3.67-3.09Zm0,7.72c0-1.7,1.65-3.09,3.67-3.09s3.67,1.39,3.67,3.09-1.47,3.09-3.67,3.09c-2.02,0-3.67-1.39-3.67-3.09ZM18.33,3.09c0-1.7,1.65-3.09,3.67-3.09s3.67,1.39,3.67,3.09-1.47,3.09-3.67,3.09c-2.02,0-3.67-1.39-3.67-3.09Zm0,7.72c0-1.7,1.65-3.09,3.67-3.09s3.67,1.39,3.67,3.09-1.47,3.09-3.67,3.09c-2.02,0-3.67-1.39-3.67-3.09Zm0,7.72c0-1.7,1.65-3.09,3.67-3.09s3.67,1.39,3.67,3.09-1.47,3.09-3.67,3.09c-2.02,0-3.67-1.39-3.67-3.09Zm0,7.72c0-1.7,1.65-3.09,3.67-3.09s3.67,1.39,3.67,3.09-1.47,3.09-3.67,3.09c-2.02,0-3.67-1.39-3.67-3.09Zm0,7.72c0-1.7,1.65-3.09,3.67-3.09s3.67,1.39,3.67,3.09-1.47,3.09-3.67,3.09c-2.02,0-3.67-1.39-3.67-3.09Zm0,7.72c0-1.7,1.65-3.09,3.67-3.09s3.67,1.39,3.67,3.09-1.47,3.09-3.67,3.09c-2.02,0-3.67-1.39-3.67-3.09Zm0,7.72c0-1.7,1.65-3.09,3.67-3.09s3.67,1.39,3.67,3.09-1.47,3.09-3.67,3.09c-2.02,0-3.67-1.39-3.67-3.09Zm0,7.72c0-1.7,1.65-3.09,3.67-3.09s3.67,1.39,3.67,3.09-1.47,3.09-3.67,3.09c-2.02,0-3.67-1.39-3.67-3.09Zm0,7.72c0-1.7,1.65-3.09,3.67-3.09s3.67,1.39,3.67,3.09-1.47,3.09-3.67,3.09c-2.02,0-3.67-1.39-3.67-3.09Zm0,7.72c0-1.7,1.65-3.09,3.67-3.09s3.67,1.39,3.67,3.09-1.47,3.09-3.67,3.09c-2.02,0-3.67-1.39-3.67-3.09Zm0,7.72c0-1.7,1.65-3.09,3.67-3.09s3.67,1.39,3.67,3.09-1.47,3.09-3.67,3.09c-2.02,0-3.67-1.39-3.67-3.09Zm0,7.72c0-1.7,1.65-3.09,3.67-3.09s3.67,1.39,3.67,3.09-1.47,3.09-3.67,3.09c-2.02,0-3.67-1.39-3.67-3.09Zm0,7.72c0-1.7,1.65-3.09,3.67-3.09s3.67,1.39,3.67,3.09-1.47,3.09-3.67,3.09c-2.02,0-3.67-1.39-3.67-3.09Zm0,7.72c0-1.7,1.65-3.09,3.67-3.09s3.67,1.39,3.67,3.09-1.47,3.09-3.67,3.09c-2.02,0-3.67-1.39-3.67-3.09Zm0,7.72c0-1.7,1.65-3.09,3.67-3.09s3.67,1.39,3.67,3.09-1.47,3.09-3.67,3.09c-2.02,0-3.67-1.39-3.67-3.09Zm0,7.72c0-1.7,1.65-3.09,3.67-3.09s3.67,1.39,3.67,3.09-1.47,3.09-3.67,3.09c-2.02,0-3.67-1.39-3.67-3.09ZM27.5,3.09c0-1.7,1.65-3.09,3.67-3.09s3.67,1.39,3.67,3.09-1.47,3.09-3.67,3.09c-2.02,0-3.67-1.39-3.67-3.09Zm0,7.72c0-1.7,1.65-3.09,3.67-3.09s3.67,1.39,3.67,3.09-1.47,3.09-3.67,3.09c-2.02,0-3.67-1.39-3.67-3.09Zm0,7.72c0-1.7,1.65-3.09,3.67-3.09s3.67,1.39,3.67,3.09-1.47,3.09-3.67,3.09c-2.02,0-3.67-1.39-3.67-3.09Zm0,7.72c0-1.7,1.65-3.09,3.67-3.09s3.67,1.39,3.67,3.09-1.47,3.09-3.67,3.09c-2.02,0-3.67-1.39-3.67-3.09Zm0,7.72c0-1.7,1.65-3.09,3.67-3.09s3.67,1.39,3.67,3.09-1.47,3.09-3.67,3.09c-2.02,0-3.67-1.39-3.67-3.09Zm0,7.72c0-1.7,1.65-3.09,3.67-3.09s3.67,1.39,3.67,3.09-1.47,3.09-3.67,3.09c-2.02,0-3.67-1.39-3.67-3.09Zm0,7.72c0-1.7,1.65-3.09,3.67-3.09s3.67,1.39,3.67,3.09-1.47,3.09-3.67,3.09c-2.02,0-3.67-1.39-3.67-3.09Zm0,7.72c0-1.7,1.65-3.09,3.67-3.09s3.67,1.39,3.67,3.09-1.47,3.09-3.67,3.09c-2.02,0-3.67-1.39-3.67-3.09Zm0,7.72c0-1.7,1.65-3.09,3.67-3.09s3.67,1.39,3.67,3.09-1.47,3.09-3.67,3.09c-2.02,0-3.67-1.39-3.67-3.09Zm0,7.72c0-1.7,1.65-3.09,3.67-3.09s3.67,1.39,3.67,3.09-1.47,3.09-3.67,3.09c-2.02,0-3.67-1.39-3.67-3.09Zm0,7.72c0-1.7,1.65-3.09,3.67-3.09s3.67,1.39,3.67,3.09-1.47,3.09-3.67,3.09c-2.02,0-3.67-1.39-3.67-3.09Zm0,7.72c0-1.7,1.65-3.09,3.67-3.09s3.67,1.39,3.67,3.09-1.47,3.09-3.67,3.09c-2.02,0-3.67-1.39-3.67-3.09Zm0,7.72c0-1.7,1.65-3.09,3.67-3.09s3.67,1.39,3.67,3.09-1.47,3.09-3.67,3.09c-2.02,0-3.67-1.39-3.67-3.09Zm0,7.72c0-1.7,1.65-3.09,3.67-3.09s3.67,1.39,3.67,3.09-1.47,3.09-3.67,3.09c-2.02,0-3.67-1.39-3.67-3.09Zm0,7.72c0-1.7,1.65-3.09,3.67-3.09s3.67,1.39,3.67,3.09-1.47,3.09-3.67,3.09c-2.02,0-3.67-1.39-3.67-3.09Zm0,7.72c0-1.7,1.65-3.09,3.67-3.09s3.67,1.39,3.67,3.09-1.47,3.09-3.67,3.09c-2.02,0-3.67-1.39-3.67-3.09Zm9.17-23.16c0-1.7,1.65-3.09,3.67-3.09s3.67,1.39,3.67,3.09-1.47,3.09-3.67,3.09c-2.02,0-3.67-1.39-3.67-3.09Zm0,7.72c0-1.7,1.65-3.09,3.67-3.09s3.67,1.39,3.67,3.09-1.47,3.09-3.67,3.09c-2.02,0-3.67-1.39-3.67-3.09Zm0,7.72c0-1.7,1.65-3.09,3.67-3.09s3.67,1.39,3.67,3.09-1.47,3.09-3.67,3.09c-2.02,0-3.67-1.39-3.67-3.09Zm0,7.72c0-1.7,1.65-3.09,3.67-3.09s3.67,1.39,3.67,3.09-1.47,3.09-3.67,3.09c-2.02,0-3.67-1.39-3.67-3.09Zm9.17-23.16c0-1.7,1.65-3.09,3.67-3.09s3.67,1.39,3.67,3.09-1.47,3.09-3.67,3.09c-2.02,0-3.67-1.39-3.67-3.09Zm0,7.72c0-1.7,1.65-3.09,3.67-3.09s3.67,1.39,3.67,3.09-1.47,3.09-3.67,3.09c-2.02,0-3.67-1.39-3.67-3.09Zm0,7.72c0-1.7,1.65-3.09,3.67-3.09s3.67,1.39,3.67,3.09-1.47,3.09-3.67,3.09c-2.02,0-3.67-1.39-3.67-3.09Zm0,7.72c0-1.7,1.65-3.09,3.67-3.09s3.67,1.39,3.67,3.09-1.47,3.09-3.67,3.09c-2.02,0-3.67-1.39-3.67-3.09Zm9.17-23.16c0-1.7,1.65-3.09,3.67-3.09s3.67,1.39,3.67,3.09-1.47,3.09-3.67,3.09c-2.02,0-3.67-1.39-3.67-3.09Zm0,7.72c0-1.7,1.65-3.09,3.67-3.09s3.67,1.39,3.67,3.09-1.47,3.09-3.67,3.09c-2.02,0-3.67-1.39-3.67-3.09Zm0,7.72c0-1.7,1.65-3.09,3.67-3.09s3.67,1.39,3.67,3.09-1.47,3.09-3.67,3.09c-2.02,0-3.67-1.39-3.67-3.09Zm0,7.72c0-1.7,1.65-3.09,3.67-3.09s3.67,1.39,3.67,3.09-1.47,3.09-3.67,3.09c-2.02,0-3.67-1.39-3.67-3.09Z"/>
      <path class="cls-1" d="m73.32,3.09c0-1.7,1.65-3.09,3.67-3.09s3.67,1.39,3.67,3.09-1.65,3.09-3.67,3.09-3.67-1.39-3.67-3.09Zm0,7.72c0-1.7,1.65-3.09,3.67-3.09s3.67,1.39,3.67,3.09-1.65,3.09-3.67,3.09-3.67-1.39-3.67-3.09Zm0,7.72c0-1.7,1.65-3.09,3.67-3.09s3.67,1.39,3.67,3.09-1.65,3.09-3.67,3.09-3.67-1.39-3.67-3.09Zm0,7.72c0-1.7,1.65-3.09,3.67-3.09s3.67,1.39,3.67,3.09-1.65,3.09-3.67,3.09-3.67-1.39-3.67-3.09Zm0,7.72c0-1.7,1.65-3.09,3.67-3.09s3.67,1.39,3.67,3.09-1.65,3.09-3.67,3.09-3.67-1.39-3.67-3.09Zm0,7.72c0-1.7,1.65-3.09,3.67-3.09s3.67,1.39,3.67,3.09-1.65,3.09-3.67,3.09-3.67-1.39-3.67-3.09Zm0,7.72c0-1.7,1.65-3.09,3.67-3.09s3.67,1.39,3.67,3.09-1.65,3.09-3.67,3.09-3.67-1.39-3.67-3.09Zm0,7.72c0-1.7,1.65-3.09,3.67-3.09s3.67,1.39,3.67,3.09-1.65,3.09-3.67,3.09-3.67-1.39-3.67-3.09Zm0,7.72c0-1.7,1.65-3.09,3.67-3.09s3.67,1.39,3.67,3.09-1.65,3.09-3.67,3.09-3.67-1.39-3.67-3.09Zm0,7.72c0-1.7,1.65-3.09,3.67-3.09s3.67,1.39,3.67,3.09-1.65,3.09-3.67,3.09-3.67-1.39-3.67-3.09Zm0,7.72c0-1.7,1.65-3.09,3.67-3.09s3.67,1.39,3.67,3.09-1.65,3.09-3.67,3.09-3.67-1.39-3.67-3.09Zm0,7.72c0-1.7,1.65-3.09,3.67-3.09s3.67,1.39,3.67,3.09-1.65,3.09-3.67,3.09-3.67-1.39-3.67-3.09Zm0,7.72c0-1.7,1.65-3.09,3.67-3.09s3.67,1.39,3.67,3.09-1.65,3.09-3.67,3.09-3.67-1.39-3.67-3.09Zm0,7.72c0-1.7,1.65-3.09,3.67-3.09s3.67,1.39,3.67,3.09-1.65,3.09-3.67,3.09-3.67-1.39-3.67-3.09Zm0,7.72c0-1.7,1.65-3.09,3.67-3.09s3.67,1.39,3.67,3.09-1.65,3.09-3.67,3.09-3.67-1.39-3.67-3.09Zm0,7.72c0-1.7,1.65-3.09,3.67-3.09s3.67,1.39,3.67,3.09-1.65,3.09-3.67,3.09-3.67-1.39-3.67-3.09ZM82.49,3.09c0-1.7,1.65-3.09,3.67-3.09s3.67,1.39,3.67,3.09-1.47,3.09-3.67,3.09c-2.02,0-3.67-1.39-3.67-3.09Zm0,7.72c0-1.7,1.65-3.09,3.67-3.09s3.67,1.39,3.67,3.09-1.47,3.09-3.67,3.09c-2.02,0-3.67-1.39-3.67-3.09Zm0,7.72c0-1.7,1.65-3.09,3.67-3.09s3.67,1.39,3.67,3.09-1.47,3.09-3.67,3.09c-2.02,0-3.67-1.39-3.67-3.09Zm0,7.72c0-1.7,1.65-3.09,3.67-3.09s3.67,1.39,3.67,3.09-1.47,3.09-3.67,3.09c-2.02,0-3.67-1.39-3.67-3.09Zm0,7.72c0-1.7,1.65-3.09,3.67-3.09s3.67,1.39,3.67,3.09-1.47,3.09-3.67,3.09c-2.02,0-3.67-1.39-3.67-3.09Zm0,7.72c0-1.7,1.65-3.09,3.67-3.09s3.67,1.39,3.67,3.09-1.47,3.09-3.67,3.09c-2.02,0-3.67-1.39-3.67-3.09Zm0,7.72c0-1.7,1.65-3.09,3.67-3.09s3.67,1.39,3.67,3.09-1.47,3.09-3.67,3.09c-2.02,0-3.67-1.39-3.67-3.09Zm0,7.72c0-1.7,1.65-3.09,3.67-3.09s3.67,1.39,3.67,3.09-1.47,3.09-3.67,3.09c-2.02,0-3.67-1.39-3.67-3.09Zm0,7.72c0-1.7,1.65-3.09,3.67-3.09s3.67,1.39,3.67,3.09-1.47,3.09-3.67,3.09c-2.02,0-3.67-1.39-3.67-3.09Zm0,7.72c0-1.7,1.65-3.09,3.67-3.09s3.67,1.39,3.67,3.09-1.47,3.09-3.67,3.09c-2.02,0-3.67-1.39-3.67-3.09Zm0,7.72c0-1.7,1.65-3.09,3.67-3.09s3.67,1.39,3.67,3.09-1.47,3.09-3.67,3.09c-2.02,0-3.67-1.39-3.67-3.09Zm0,7.72c0-1.7,1.65-3.09,3.67-3.09s3.67,1.39,3.67,3.09-1.47,3.09-3.67,3.09c-2.02,0-3.67-1.39-3.67-3.09Zm0,7.72c0-1.7,1.65-3.09,3.67-3.09s3.67,1.39,3.67,3.09-1.47,3.09-3.67,3.09c-2.02,0-3.67-1.39-3.67-3.09Zm0,7.72c0-1.7,1.65-3.09,3.67-3.09s3.67,1.39,3.67,3.09-1.47,3.09-3.67,3.09c-2.02,0-3.67-1.39-3.67-3.09Zm0,7.72c0-1.7,1.65-3.09,3.67-3.09s3.67,1.39,3.67,3.09-1.47,3.09-3.67,3.09c-2.02,0-3.67-1.39-3.67-3.09Zm0,7.72c0-1.7,1.65-3.09,3.67-3.09s3.67,1.39,3.67,3.09-1.47,3.09-3.67,3.09c-2.02,0-3.67-1.39-3.67-3.09ZM91.65,3.09c0-1.7,1.65-3.09,3.67-3.09s3.67,1.39,3.67,3.09-1.47,3.09-3.67,3.09c-2.02,0-3.67-1.39-3.67-3.09Zm0,7.72c0-1.7,1.65-3.09,3.67-3.09s3.67,1.39,3.67,3.09-1.47,3.09-3.67,3.09c-2.02,0-3.67-1.39-3.67-3.09Zm0,7.72c0-1.7,1.65-3.09,3.67-3.09s3.67,1.39,3.67,3.09-1.47,3.09-3.67,3.09c-2.02,0-3.67-1.39-3.67-3.09Zm0,7.72c0-1.7,1.65-3.09,3.67-3.09s3.67,1.39,3.67,3.09-1.47,3.09-3.67,3.09c-2.02,0-3.67-1.39-3.67-3.09Zm0,7.72c0-1.7,1.65-3.09,3.67-3.09s3.67,1.39,3.67,3.09-1.47,3.09-3.67,3.09c-2.02,0-3.67-1.39-3.67-3.09Zm0,7.72c0-1.7,1.65-3.09,3.67-3.09s3.67,1.39,3.67,3.09-1.47,3.09-3.67,3.09c-2.02,0-3.67-1.39-3.67-3.09Zm0,7.72c0-1.7,1.65-3.09,3.67-3.09s3.67,1.39,3.67,3.09-1.47,3.09-3.67,3.09c-2.02,0-3.67-1.39-3.67-3.09Zm0,7.72c0-1.7,1.65-3.09,3.67-3.09s3.67,1.39,3.67,3.09-1.47,3.09-3.67,3.09c-2.02,0-3.67-1.39-3.67-3.09Zm0,7.72c0-1.7,1.65-3.09,3.67-3.09s3.67,1.39,3.67,3.09-1.47,3.09-3.67,3.09c-2.02,0-3.67-1.39-3.67-3.09Zm0,7.72c0-1.7,1.65-3.09,3.67-3.09s3.67,1.39,3.67,3.09-1.47,3.09-3.67,3.09c-2.02,0-3.67-1.39-3.67-3.09Zm0,7.72c0-1.7,1.65-3.09,3.67-3.09s3.67,1.39,3.67,3.09-1.47,3.09-3.67,3.09c-2.02,0-3.67-1.39-3.67-3.09Zm0,7.72c0-1.7,1.65-3.09,3.67-3.09s3.67,1.39,3.67,3.09-1.47,3.09-3.67,3.09c-2.02,0-3.67-1.39-3.67-3.09Zm0,7.72c0-1.7,1.65-3.09,3.67-3.09s3.67,1.39,3.67,3.09-1.47,3.09-3.67,3.09c-2.02,0-3.67-1.39-3.67-3.09Zm0,7.72c0-1.7,1.65-3.09,3.67-3.09s3.67,1.39,3.67,3.09-1.47,3.09-3.67,3.09c-2.02,0-3.67-1.39-3.67-3.09Zm0,7.72c0-1.7,1.65-3.09,3.67-3.09s3.67,1.39,3.67,3.09-1.47,3.09-3.67,3.09c-2.02,0-3.67-1.39-3.67-3.09Zm0,7.72c0-1.7,1.65-3.09,3.67-3.09s3.67,1.39,3.67,3.09-1.47,3.09-3.67,3.09c-2.02,0-3.67-1.39-3.67-3.09ZM100.82,3.09c0-1.7,1.65-3.09,3.67-3.09s3.67,1.39,3.67,3.09-1.47,3.09-3.67,3.09c-2.02,0-3.67-1.39-3.67-3.09Zm0,7.72c0-1.7,1.65-3.09,3.67-3.09s3.67,1.39,3.67,3.09-1.47,3.09-3.67,3.09c-2.02,0-3.67-1.39-3.67-3.09Zm0,7.72c0-1.7,1.65-3.09,3.67-3.09s3.67,1.39,3.67,3.09-1.47,3.09-3.67,3.09c-2.02,0-3.67-1.39-3.67-3.09Zm0,7.72c0-1.7,1.65-3.09,3.67-3.09s3.67,1.39,3.67,3.09-1.47,3.09-3.67,3.09c-2.02,0-3.67-1.39-3.67-3.09Zm0,7.72c0-1.7,1.65-3.09,3.67-3.09s3.67,1.39,3.67,3.09-1.47,3.09-3.67,3.09c-2.02,0-3.67-1.39-3.67-3.09Zm0,7.72c0-1.7,1.65-3.09,3.67-3.09s3.67,1.39,3.67,3.09-1.47,3.09-3.67,3.09c-2.02,0-3.67-1.39-3.67-3.09Zm0,7.72c0-1.7,1.65-3.09,3.67-3.09s3.67,1.39,3.67,3.09-1.47,3.09-3.67,3.09c-2.02,0-3.67-1.39-3.67-3.09Zm0,7.72c0-1.7,1.65-3.09,3.67-3.09s3.67,1.39,3.67,3.09-1.47,3.09-3.67,3.09c-2.02,0-3.67-1.39-3.67-3.09Zm0,7.72c0-1.7,1.65-3.09,3.67-3.09s3.67,1.39,3.67,3.09-1.47,3.09-3.67,3.09c-2.02,0-3.67-1.39-3.67-3.09Zm0,7.72c0-1.7,1.65-3.09,3.67-3.09s3.67,1.39,3.67,3.09-1.47,3.09-3.67,3.09c-2.02,0-3.67-1.39-3.67-3.09Zm0,7.72c0-1.7,1.65-3.09,3.67-3.09s3.67,1.39,3.67,3.09-1.47,3.09-3.67,3.09c-2.02,0-3.67-1.39-3.67-3.09Zm0,7.72c0-1.7,1.65-3.09,3.67-3.09s3.67,1.39,3.67,3.09-1.47,3.09-3.67,3.09c-2.02,0-3.67-1.39-3.67-3.09Zm0,7.72c0-1.7,1.65-3.09,3.67-3.09s3.67,1.39,3.67,3.09-1.47,3.09-3.67,3.09c-2.02,0-3.67-1.39-3.67-3.09Zm0,7.72c0-1.7,1.65-3.09,3.67-3.09s3.67,1.39,3.67,3.09-1.47,3.09-3.67,3.09c-2.02,0-3.67-1.39-3.67-3.09Zm0,7.72c0-1.7,1.65-3.09,3.67-3.09s3.67,1.39,3.67,3.09-1.47,3.09-3.67,3.09c-2.02,0-3.67-1.39-3.67-3.09Zm0,7.72c0-1.7,1.65-3.09,3.67-3.09s3.67,1.39,3.67,3.09-1.47,3.09-3.67,3.09c-2.02,0-3.67-1.39-3.67-3.09Z"/>
      <path class="cls-1" d="m119.15,3.09c0-1.7,1.65-3.09,3.67-3.09s3.67,1.39,3.67,3.09-1.65,3.09-3.67,3.09-3.67-1.39-3.67-3.09Zm0,7.72c0-1.7,1.65-3.09,3.67-3.09s3.67,1.39,3.67,3.09-1.65,3.09-3.67,3.09-3.67-1.39-3.67-3.09Zm0,7.72c0-1.7,1.65-3.09,3.67-3.09s3.67,1.39,3.67,3.09-1.65,3.09-3.67,3.09-3.67-1.39-3.67-3.09Zm0,7.72c0-1.7,1.65-3.09,3.67-3.09s3.67,1.39,3.67,3.09-1.65,3.09-3.67,3.09-3.67-1.39-3.67-3.09Zm0,7.72c0-1.7,1.65-3.09,3.67-3.09s3.67,1.39,3.67,3.09-1.65,3.09-3.67,3.09-3.67-1.39-3.67-3.09Zm0,7.72c0-1.7,1.65-3.09,3.67-3.09s3.67,1.39,3.67,3.09-1.65,3.09-3.67,3.09-3.67-1.39-3.67-3.09Zm0,7.72c0-1.7,1.65-3.09,3.67-3.09s3.67,1.39,3.67,3.09-1.65,3.09-3.67,3.09-3.67-1.39-3.67-3.09Zm0,7.72c0-1.7,1.65-3.09,3.67-3.09s3.67,1.39,3.67,3.09-1.65,3.09-3.67,3.09-3.67-1.39-3.67-3.09Zm0,7.72c0-1.7,1.65-3.09,3.67-3.09s3.67,1.39,3.67,3.09-1.65,3.09-3.67,3.09-3.67-1.39-3.67-3.09Zm0,7.72c0-1.7,1.65-3.09,3.67-3.09s3.67,1.39,3.67,3.09-1.65,3.09-3.67,3.09-3.67-1.39-3.67-3.09Zm0,7.72c0-1.7,1.65-3.09,3.67-3.09s3.67,1.39,3.67,3.09-1.65,3.09-3.67,3.09-3.67-1.39-3.67-3.09Zm0,7.72c0-1.7,1.65-3.09,3.67-3.09s3.67,1.39,3.67,3.09-1.65,3.09-3.67,3.09-3.67-1.39-3.67-3.09Zm0,7.72c0-1.7,1.65-3.09,3.67-3.09s3.67,1.39,3.67,3.09-1.65,3.09-3.67,3.09-3.67-1.39-3.67-3.09Zm0,7.72c0-1.7,1.65-3.09,3.67-3.09s3.67,1.39,3.67,3.09-1.65,3.09-3.67,3.09-3.67-1.39-3.67-3.09Zm0,7.72c0-1.7,1.65-3.09,3.67-3.09s3.67,1.39,3.67,3.09-1.65,3.09-3.67,3.09-3.67-1.39-3.67-3.09Zm0,7.72c0-1.7,1.65-3.09,3.67-3.09s3.67,1.39,3.67,3.09-1.65,3.09-3.67,3.09-3.67-1.39-3.67-3.09ZM128.31,3.09c0-1.7,1.65-3.09,3.67-3.09s3.67,1.39,3.67,3.09-1.47,3.09-3.67,3.09c-2.02,0-3.67-1.39-3.67-3.09Zm0,7.72c0-1.7,1.65-3.09,3.67-3.09s3.67,1.39,3.67,3.09-1.47,3.09-3.67,3.09c-2.02,0-3.67-1.39-3.67-3.09Zm0,7.72c0-1.7,1.65-3.09,3.67-3.09s3.67,1.39,3.67,3.09-1.47,3.09-3.67,3.09c-2.02,0-3.67-1.39-3.67-3.09Zm0,7.72c0-1.7,1.65-3.09,3.67-3.09s3.67,1.39,3.67,3.09-1.47,3.09-3.67,3.09c-2.02,0-3.67-1.39-3.67-3.09Zm0,7.72c0-1.7,1.65-3.09,3.67-3.09s3.67,1.39,3.67,3.09-1.47,3.09-3.67,3.09c-2.02,0-3.67-1.39-3.67-3.09Zm0,7.72c0-1.7,1.65-3.09,3.67-3.09s3.67,1.39,3.67,3.09-1.47,3.09-3.67,3.09c-2.02,0-3.67-1.39-3.67-3.09Zm0,7.72c0-1.7,1.65-3.09,3.67-3.09s3.67,1.39,3.67,3.09-1.47,3.09-3.67,3.09c-2.02,0-3.67-1.39-3.67-3.09Zm0,7.72c0-1.7,1.65-3.09,3.67-3.09s3.67,1.39,3.67,3.09-1.47,3.09-3.67,3.09c-2.02,0-3.67-1.39-3.67-3.09Zm0,7.72c0-1.7,1.65-3.09,3.67-3.09s3.67,1.39,3.67,3.09-1.47,3.09-3.67,3.09c-2.02,0-3.67-1.39-3.67-3.09Zm0,7.72c0-1.7,1.65-3.09,3.67-3.09s3.67,1.39,3.67,3.09-1.47,3.09-3.67,3.09c-2.02,0-3.67-1.39-3.67-3.09Zm0,7.72c0-1.7,1.65-3.09,3.67-3.09s3.67,1.39,3.67,3.09-1.47,3.09-3.67,3.09c-2.02,0-3.67-1.39-3.67-3.09Zm0,7.72c0-1.7,1.65-3.09,3.67-3.09s3.67,1.39,3.67,3.09-1.47,3.09-3.67,3.09c-2.02,0-3.67-1.39-3.67-3.09Zm0,7.72c0-1.7,1.65-3.09,3.67-3.09s3.67,1.39,3.67,3.09-1.47,3.09-3.67,3.09c-2.02,0-3.67-1.39-3.67-3.09Zm0,7.72c0-1.7,1.65-3.09,3.67-3.09s3.67,1.39,3.67,3.09-1.47,3.09-3.67,3.09c-2.02,0-3.67-1.39-3.67-3.09Zm0,7.72c0-1.7,1.65-3.09,3.67-3.09s3.67,1.39,3.67,3.09-1.47,3.09-3.67,3.09c-2.02,0-3.67-1.39-3.67-3.09Zm0,7.72c0-1.7,1.65-3.09,3.67-3.09s3.67,1.39,3.67,3.09-1.47,3.09-3.67,3.09c-2.02,0-3.67-1.39-3.67-3.09ZM137.48,3.09c0-1.7,1.65-3.09,3.67-3.09s3.67,1.39,3.67,3.09-1.47,3.09-3.67,3.09c-2.02,0-3.67-1.39-3.67-3.09Zm0,7.72c0-1.7,1.65-3.09,3.67-3.09s3.67,1.39,3.67,3.09-1.47,3.09-3.67,3.09c-2.02,0-3.67-1.39-3.67-3.09Zm0,7.72c0-1.7,1.65-3.09,3.67-3.09s3.67,1.39,3.67,3.09-1.47,3.09-3.67,3.09c-2.02,0-3.67-1.39-3.67-3.09Zm0,7.72c0-1.7,1.65-3.09,3.67-3.09s3.67,1.39,3.67,3.09-1.47,3.09-3.67,3.09c-2.02,0-3.67-1.39-3.67-3.09Zm0,7.72c0-1.7,1.65-3.09,3.67-3.09s3.67,1.39,3.67,3.09-1.47,3.09-3.67,3.09c-2.02,0-3.67-1.39-3.67-3.09Zm0,7.72c0-1.7,1.65-3.09,3.67-3.09s3.67,1.39,3.67,3.09-1.47,3.09-3.67,3.09c-2.02,0-3.67-1.39-3.67-3.09Zm0,7.72c0-1.7,1.65-3.09,3.67-3.09s3.67,1.39,3.67,3.09-1.47,3.09-3.67,3.09c-2.02,0-3.67-1.39-3.67-3.09Zm0,7.72c0-1.7,1.65-3.09,3.67-3.09s3.67,1.39,3.67,3.09-1.47,3.09-3.67,3.09c-2.02,0-3.67-1.39-3.67-3.09Zm0,7.72c0-1.7,1.65-3.09,3.67-3.09s3.67,1.39,3.67,3.09-1.47,3.09-3.67,3.09c-2.02,0-3.67-1.39-3.67-3.09Zm0,7.72c0-1.7,1.65-3.09,3.67-3.09s3.67,1.39,3.67,3.09-1.47,3.09-3.67,3.09c-2.02,0-3.67-1.39-3.67-3.09Zm0,7.72c0-1.7,1.65-3.09,3.67-3.09s3.67,1.39,3.67,3.09-1.47,3.09-3.67,3.09c-2.02,0-3.67-1.39-3.67-3.09Zm0,7.72c0-1.7,1.65-3.09,3.67-3.09s3.67,1.39,3.67,3.09-1.47,3.09-3.67,3.09c-2.02,0-3.67-1.39-3.67-3.09Zm0,7.72c0-1.7,1.65-3.09,3.67-3.09s3.67,1.39,3.67,3.09-1.47,3.09-3.67,3.09c-2.02,0-3.67-1.39-3.67-3.09Zm0,7.72c0-1.7,1.65-3.09,3.67-3.09s3.67,1.39,3.67,3.09-1.47,3.09-3.67,3.09c-2.02,0-3.67-1.39-3.67-3.09Zm0,7.72c0-1.7,1.65-3.09,3.67-3.09s3.67,1.39,3.67,3.09-1.47,3.09-3.67,3.09c-2.02,0-3.67-1.39-3.67-3.09Zm0,7.72c0-1.7,1.65-3.09,3.67-3.09s3.67,1.39,3.67,3.09-1.47,3.09-3.67,3.09c-2.02,0-3.67-1.39-3.67-3.09ZM146.64,3.09c0-1.7,1.65-3.09,3.67-3.09s3.67,1.39,3.67,3.09-1.47,3.09-3.67,3.09c-2.02,0-3.67-1.39-3.67-3.09Zm0,7.72c0-1.7,1.65-3.09,3.67-3.09s3.67,1.39,3.67,3.09-1.47,3.09-3.67,3.09c-2.02,0-3.67-1.39-3.67-3.09Zm0,7.72c0-1.7,1.65-3.09,3.67-3.09s3.67,1.39,3.67,3.09-1.47,3.09-3.67,3.09c-2.02,0-3.67-1.39-3.67-3.09Zm0,7.72c0-1.7,1.65-3.09,3.67-3.09s3.67,1.39,3.67,3.09-1.47,3.09-3.67,3.09c-2.02,0-3.67-1.39-3.67-3.09Zm0,7.72c0-1.7,1.65-3.09,3.67-3.09s3.67,1.39,3.67,3.09-1.47,3.09-3.67,3.09c-2.02,0-3.67-1.39-3.67-3.09Zm0,7.72c0-1.7,1.65-3.09,3.67-3.09s3.67,1.39,3.67,3.09-1.47,3.09-3.67,3.09c-2.02,0-3.67-1.39-3.67-3.09Zm0,7.72c0-1.7,1.65-3.09,3.67-3.09s3.67,1.39,3.67,3.09-1.47,3.09-3.67,3.09c-2.02,0-3.67-1.39-3.67-3.09Zm0,7.72c0-1.7,1.65-3.09,3.67-3.09s3.67,1.39,3.67,3.09-1.47,3.09-3.67,3.09c-2.02,0-3.67-1.39-3.67-3.09Zm0,7.72c0-1.7,1.65-3.09,3.67-3.09s3.67,1.39,3.67,3.09-1.47,3.09-3.67,3.09c-2.02,0-3.67-1.39-3.67-3.09Zm0,7.72c0-1.7,1.65-3.09,3.67-3.09s3.67,1.39,3.67,3.09-1.47,3.09-3.67,3.09c-2.02,0-3.67-1.39-3.67-3.09Zm0,7.72c0-1.7,1.65-3.09,3.67-3.09s3.67,1.39,3.67,3.09-1.47,3.09-3.67,3.09c-2.02,0-3.67-1.39-3.67-3.09Zm0,7.72c0-1.7,1.65-3.09,3.67-3.09s3.67,1.39,3.67,3.09-1.47,3.09-3.67,3.09c-2.02,0-3.67-1.39-3.67-3.09Zm0,7.72c0-1.7,1.65-3.09,3.67-3.09s3.67,1.39,3.67,3.09-1.47,3.09-3.67,3.09c-2.02,0-3.67-1.39-3.67-3.09Zm0,7.72c0-1.7,1.65-3.09,3.67-3.09s3.67,1.39,3.67,3.09-1.47,3.09-3.67,3.09c-2.02,0-3.67-1.39-3.67-3.09Zm0,7.72c0-1.7,1.65-3.09,3.67-3.09s3.67,1.39,3.67,3.09-1.47,3.09-3.67,3.09c-2.02,0-3.67-1.39-3.67-3.09Zm0,7.72c0-1.7,1.65-3.09,3.67-3.09s3.67,1.39,3.67,3.09-1.47,3.09-3.67,3.09c-2.02,0-3.67-1.39-3.67-3.09ZM155.81,3.09c0-1.7,1.65-3.09,3.67-3.09s3.67,1.39,3.67,3.09-1.47,3.09-3.67,3.09c-2.02,0-3.67-1.39-3.67-3.09Zm0,7.72c0-1.7,1.65-3.09,3.67-3.09s3.67,1.39,3.67,3.09-1.47,3.09-3.67,3.09c-2.02,0-3.67-1.39-3.67-3.09Zm0,7.72c0-1.7,1.65-3.09,3.67-3.09s3.67,1.39,3.67,3.09-1.47,3.09-3.67,3.09c-2.02,0-3.67-1.39-3.67-3.09Zm0,7.72c0-1.7,1.65-3.09,3.67-3.09s3.67,1.39,3.67,3.09-1.47,3.09-3.67,3.09c-2.02,0-3.67-1.39-3.67-3.09Zm0,23.16c0-1.7,1.65-3.09,3.67-3.09s3.67,1.39,3.67,3.09-1.47,3.09-3.67,3.09c-2.02,0-3.67-1.39-3.67-3.09Zm0,7.72c0-1.7,1.65-3.09,3.67-3.09s3.67,1.39,3.67,3.09-1.47,3.09-3.67,3.09c-2.02,0-3.67-1.39-3.67-3.09Zm0,7.72c0-1.7,1.65-3.09,3.67-3.09s3.67,1.39,3.67,3.09-1.47,3.09-3.67,3.09c-2.02,0-3.67-1.39-3.67-3.09Zm0,7.72c0-1.7,1.65-3.09,3.67-3.09s3.67,1.39,3.67,3.09-1.47,3.09-3.67,3.09c-2.02,0-3.67-1.39-3.67-3.09ZM164.97,3.09c0-1.7,1.65-3.09,3.67-3.09s3.67,1.39,3.67,3.09-1.47,3.09-3.67,3.09c-2.02,0-3.67-1.39-3.67-3.09Zm0,7.72c0-1.7,1.65-3.09,3.67-3.09s3.67,1.39,3.67,3.09-1.47,3.09-3.67,3.09c-2.02,0-3.67-1.39-3.67-3.09Zm0,7.72c0-1.7,1.65-3.09,3.67-3.09s3.67,1.39,3.67,3.09-1.47,3.09-3.67,3.09c-2.02,0-3.67-1.39-3.67-3.09Zm0,7.72c0-1.7,1.65-3.09,3.67-3.09s3.67,1.39,3.67,3.09-1.47,3.09-3.67,3.09c-2.02,0-3.67-1.39-3.67-3.09Zm0,23.16c0-1.7,1.65-3.09,3.67-3.09s3.67,1.39,3.67,3.09-1.47,3.09-3.67,3.09c-2.02,0-3.67-1.39-3.67-3.09Zm0,7.72c0-1.7,1.65-3.09,3.67-3.09s3.67,1.39,3.67,3.09-1.47,3.09-3.67,3.09c-2.02,0-3.67-1.39-3.67-3.09Zm0,7.72c0-1.7,1.65-3.09,3.67-3.09s3.67,1.39,3.67,3.09-1.47,3.09-3.67,3.09c-2.02,0-3.67-1.39-3.67-3.09Zm0,7.72c0-1.7,1.65-3.09,3.67-3.09s3.67,1.39,3.67,3.09-1.47,3.09-3.67,3.09c-2.02,0-3.67-1.39-3.67-3.09ZM174.14,3.09c0-1.7,1.65-3.09,3.67-3.09s3.67,1.39,3.67,3.09-1.47,3.09-3.67,3.09c-2.02,0-3.67-1.39-3.67-3.09Zm0,7.72c0-1.7,1.65-3.09,3.67-3.09s3.67,1.39,3.67,3.09-1.47,3.09-3.67,3.09c-2.02,0-3.67-1.39-3.67-3.09Zm0,7.72c0-1.7,1.65-3.09,3.67-3.09s3.67,1.39,3.67,3.09-1.47,3.09-3.67,3.09c-2.02,0-3.67-1.39-3.67-3.09Zm0,7.72c0-1.7,1.65-3.09,3.67-3.09s3.67,1.39,3.67,3.09-1.47,3.09-3.67,3.09c-2.02,0-3.67-1.39-3.67-3.09Zm0,23.16c0-1.7,1.65-3.09,3.67-3.09s3.67,1.39,3.67,3.09-1.47,3.09-3.67,3.09c-2.02,0-3.67-1.39-3.67-3.09Zm0,7.72c0-1.7,1.65-3.09,3.67-3.09s3.67,1.39,3.67,3.09-1.47,3.09-3.67,3.09c-2.02,0-3.67-1.39-3.67-3.09Zm0,7.72c0-1.7,1.65-3.09,3.67-3.09s3.67,1.39,3.67,3.09-1.47,3.09-3.67,3.09c-2.02,0-3.67-1.39-3.67-3.09Zm0,7.72c0-1.7,1.65-3.09,3.67-3.09s3.67,1.39,3.67,3.09-1.47,3.09-3.67,3.09c-2.02,0-3.67-1.39-3.67-3.09ZM183.3,3.09c0-1.7,1.65-3.09,3.67-3.09s3.67,1.39,3.67,3.09-1.47,3.09-3.67,3.09c-2.02,0-3.67-1.39-3.67-3.09Zm0,7.72c0-1.7,1.65-3.09,3.67-3.09s3.67,1.39,3.67,3.09-1.47,3.09-3.67,3.09c-2.02,0-3.67-1.39-3.67-3.09Zm0,7.72c0-1.7,1.65-3.09,3.67-3.09s3.67,1.39,3.67,3.09-1.47,3.09-3.67,3.09c-2.02,0-3.67-1.39-3.67-3.09Zm0,7.72c0-1.7,1.65-3.09,3.67-3.09s3.67,1.39,3.67,3.09-1.47,3.09-3.67,3.09c-2.02,0-3.67-1.39-3.67-3.09Z"/>
      <path class="cls-1" d="m197.05,3.09c0-1.7,1.65-3.09,3.67-3.09s3.67,1.39,3.67,3.09-1.65,3.09-3.67,3.09-3.67-1.39-3.67-3.09Zm0,7.72c0-1.7,1.65-3.09,3.67-3.09s3.67,1.39,3.67,3.09-1.65,3.09-3.67,3.09-3.67-1.39-3.67-3.09Zm0,7.72c0-1.7,1.65-3.09,3.67-3.09s3.67,1.39,3.67,3.09-1.65,3.09-3.67,3.09-3.67-1.39-3.67-3.09Zm0,7.72c0-1.7,1.65-3.09,3.67-3.09s3.67,1.39,3.67,3.09-1.65,3.09-3.67,3.09-3.67-1.39-3.67-3.09Zm9.17-23.16c0-1.7,1.65-3.09,3.67-3.09s3.67,1.39,3.67,3.09-1.47,3.09-3.67,3.09c-2.02,0-3.67-1.39-3.67-3.09Zm0,7.72c0-1.7,1.65-3.09,3.67-3.09s3.67,1.39,3.67,3.09-1.47,3.09-3.67,3.09c-2.02,0-3.67-1.39-3.67-3.09Zm0,7.72c0-1.7,1.65-3.09,3.67-3.09s3.67,1.39,3.67,3.09-1.47,3.09-3.67,3.09c-2.02,0-3.67-1.39-3.67-3.09Zm0,7.72c0-1.7,1.65-3.09,3.67-3.09s3.67,1.39,3.67,3.09-1.47,3.09-3.67,3.09c-2.02,0-3.67-1.39-3.67-3.09Zm9.17-23.16c0-1.7,1.65-3.09,3.67-3.09s3.67,1.39,3.67,3.09-1.47,3.09-3.67,3.09c-2.02,0-3.67-1.39-3.67-3.09Zm0,7.72c0-1.7,1.65-3.09,3.67-3.09s3.67,1.39,3.67,3.09-1.47,3.09-3.67,3.09c-2.02,0-3.67-1.39-3.67-3.09Zm0,7.72c0-1.7,1.65-3.09,3.67-3.09s3.67,1.39,3.67,3.09-1.47,3.09-3.67,3.09c-2.02,0-3.67-1.39-3.67-3.09Zm0,7.72c0-1.7,1.65-3.09,3.67-3.09s3.67,1.39,3.67,3.09-1.47,3.09-3.67,3.09c-2.02,0-3.67-1.39-3.67-3.09Zm0,7.72c0-1.7,1.65-3.09,3.67-3.09s3.67,1.39,3.67,3.09-1.47,3.09-3.67,3.09c-2.02,0-3.67-1.39-3.67-3.09Zm0,7.72c0-1.7,1.65-3.09,3.67-3.09s3.67,1.39,3.67,3.09-1.47,3.09-3.67,3.09c-2.02,0-3.67-1.39-3.67-3.09Zm0,7.72c0-1.7,1.65-3.09,3.67-3.09s3.67,1.39,3.67,3.09-1.47,3.09-3.67,3.09c-2.02,0-3.67-1.39-3.67-3.09Zm0,7.72c0-1.7,1.65-3.09,3.67-3.09s3.67,1.39,3.67,3.09-1.47,3.09-3.67,3.09c-2.02,0-3.67-1.39-3.67-3.09Zm0,7.72c0-1.7,1.65-3.09,3.67-3.09s3.67,1.39,3.67,3.09-1.47,3.09-3.67,3.09c-2.02,0-3.67-1.39-3.67-3.09Zm0,7.72c0-1.7,1.65-3.09,3.67-3.09s3.67,1.39,3.67,3.09-1.47,3.09-3.67,3.09c-2.02,0-3.67-1.39-3.67-3.09Zm0,7.72c0-1.7,1.65-3.09,3.67-3.09s3.67,1.39,3.67,3.09-1.47,3.09-3.67,3.09c-2.02,0-3.67-1.39-3.67-3.09Zm0,7.72c0-1.7,1.65-3.09,3.67-3.09s3.67,1.39,3.67,3.09-1.47,3.09-3.67,3.09c-2.02,0-3.67-1.39-3.67-3.09Zm0,7.72c0-1.7,1.65-3.09,3.67-3.09s3.67,1.39,3.67,3.09-1.47,3.09-3.67,3.09c-2.02,0-3.67-1.39-3.67-3.09Zm0,7.72c0-1.7,1.65-3.09,3.67-3.09s3.67,1.39,3.67,3.09-1.47,3.09-3.67,3.09c-2.02,0-3.67-1.39-3.67-3.09Zm0,7.72c0-1.7,1.65-3.09,3.67-3.09s3.67,1.39,3.67,3.09-1.47,3.09-3.67,3.09c-2.02,0-3.67-1.39-3.67-3.09Zm0,7.72c0-1.7,1.65-3.09,3.67-3.09s3.67,1.39,3.67,3.09-1.47,3.09-3.67,3.09c-2.02,0-3.67-1.39-3.67-3.09ZM224.54,3.09c0-1.7,1.65-3.09,3.67-3.09s3.67,1.39,3.67,3.09-1.47,3.09-3.67,3.09c-2.02,0-3.67-1.39-3.67-3.09Zm0,7.72c0-1.7,1.65-3.09,3.67-3.09s3.67,1.39,3.67,3.09-1.47,3.09-3.67,3.09c-2.02,0-3.67-1.39-3.67-3.09Zm0,7.72c0-1.7,1.65-3.09,3.67-3.09s3.67,1.39,3.67,3.09-1.47,3.09-3.67,3.09c-2.02,0-3.67-1.39-3.67-3.09Zm0,7.72c0-1.7,1.65-3.09,3.67-3.09s3.67,1.39,3.67,3.09-1.47,3.09-3.67,3.09c-2.02,0-3.67-1.39-3.67-3.09Zm0,7.72c0-1.7,1.65-3.09,3.67-3.09s3.67,1.39,3.67,3.09-1.47,3.09-3.67,3.09c-2.02,0-3.67-1.39-3.67-3.09Zm0,7.72c0-1.7,1.65-3.09,3.67-3.09s3.67,1.39,3.67,3.09-1.47,3.09-3.67,3.09c-2.02,0-3.67-1.39-3.67-3.09Zm0,7.72c0-1.7,1.65-3.09,3.67-3.09s3.67,1.39,3.67,3.09-1.47,3.09-3.67,3.09c-2.02,0-3.67-1.39-3.67-3.09Zm0,7.72c0-1.7,1.65-3.09,3.67-3.09s3.67,1.39,3.67,3.09-1.47,3.09-3.67,3.09c-2.02,0-3.67-1.39-3.67-3.09Zm0,7.72c0-1.7,1.65-3.09,3.67-3.09s3.67,1.39,3.67,3.09-1.47,3.09-3.67,3.09c-2.02,0-3.67-1.39-3.67-3.09Zm0,7.72c0-1.7,1.65-3.09,3.67-3.09s3.67,1.39,3.67,3.09-1.47,3.09-3.67,3.09c-2.02,0-3.67-1.39-3.67-3.09Zm0,7.72c0-1.7,1.65-3.09,3.67-3.09s3.67,1.39,3.67,3.09-1.47,3.09-3.67,3.09c-2.02,0-3.67-1.39-3.67-3.09Zm0,7.72c0-1.7,1.65-3.09,3.67-3.09s3.67,1.39,3.67,3.09-1.47,3.09-3.67,3.09c-2.02,0-3.67-1.39-3.67-3.09Zm0,7.72c0-1.7,1.65-3.09,3.67-3.09s3.67,1.39,3.67,3.09-1.47,3.09-3.67,3.09c-2.02,0-3.67-1.39-3.67-3.09Zm0,7.72c0-1.7,1.65-3.09,3.67-3.09s3.67,1.39,3.67,3.09-1.47,3.09-3.67,3.09c-2.02,0-3.67-1.39-3.67-3.09Zm0,7.72c0-1.7,1.65-3.09,3.67-3.09s3.67,1.39,3.67,3.09-1.47,3.09-3.67,3.09c-2.02,0-3.67-1.39-3.67-3.09Zm0,7.72c0-1.7,1.65-3.09,3.67-3.09s3.67,1.39,3.67,3.09-1.47,3.09-3.67,3.09c-2.02,0-3.67-1.39-3.67-3.09ZM233.71,3.09c0-1.7,1.65-3.09,3.67-3.09s3.67,1.39,3.67,3.09-1.47,3.09-3.67,3.09c-2.02,0-3.67-1.39-3.67-3.09Zm0,7.72c0-1.7,1.65-3.09,3.67-3.09s3.67,1.39,3.67,3.09-1.47,3.09-3.67,3.09c-2.02,0-3.67-1.39-3.67-3.09Zm0,7.72c0-1.7,1.65-3.09,3.67-3.09s3.67,1.39,3.67,3.09-1.47,3.09-3.67,3.09c-2.02,0-3.67-1.39-3.67-3.09Zm0,7.72c0-1.7,1.65-3.09,3.67-3.09s3.67,1.39,3.67,3.09-1.47,3.09-3.67,3.09c-2.02,0-3.67-1.39-3.67-3.09Zm0,7.72c0-1.7,1.65-3.09,3.67-3.09s3.67,1.39,3.67,3.09-1.47,3.09-3.67,3.09c-2.02,0-3.67-1.39-3.67-3.09Zm0,7.72c0-1.7,1.65-3.09,3.67-3.09s3.67,1.39,3.67,3.09-1.47,3.09-3.67,3.09c-2.02,0-3.67-1.39-3.67-3.09Zm0,7.72c0-1.7,1.65-3.09,3.67-3.09s3.67,1.39,3.67,3.09-1.47,3.09-3.67,3.09c-2.02,0-3.67-1.39-3.67-3.09Zm0,7.72c0-1.7,1.65-3.09,3.67-3.09s3.67,1.39,3.67,3.09-1.47,3.09-3.67,3.09c-2.02,0-3.67-1.39-3.67-3.09Zm0,7.72c0-1.7,1.65-3.09,3.67-3.09s3.67,1.39,3.67,3.09-1.47,3.09-3.67,3.09c-2.02,0-3.67-1.39-3.67-3.09Zm0,7.72c0-1.7,1.65-3.09,3.67-3.09s3.67,1.39,3.67,3.09-1.47,3.09-3.67,3.09c-2.02,0-3.67-1.39-3.67-3.09Zm0,7.72c0-1.7,1.65-3.09,3.67-3.09s3.67,1.39,3.67,3.09-1.47,3.09-3.67,3.09c-2.02,0-3.67-1.39-3.67-3.09Zm0,7.72c0-1.7,1.65-3.09,3.67-3.09s3.67,1.39,3.67,3.09-1.47,3.09-3.67,3.09c-2.02,0-3.67-1.39-3.67-3.09Zm0,7.72c0-1.7,1.65-3.09,3.67-3.09s3.67,1.39,3.67,3.09-1.47,3.09-3.67,3.09c-2.02,0-3.67-1.39-3.67-3.09Zm0,7.72c0-1.7,1.65-3.09,3.67-3.09s3.67,1.39,3.67,3.09-1.47,3.09-3.67,3.09c-2.02,0-3.67-1.39-3.67-3.09Zm0,7.72c0-1.7,1.65-3.09,3.67-3.09s3.67,1.39,3.67,3.09-1.47,3.09-3.67,3.09c-2.02,0-3.67-1.39-3.67-3.09Zm0,7.72c0-1.7,1.65-3.09,3.67-3.09s3.67,1.39,3.67,3.09-1.47,3.09-3.67,3.09c-2.02,0-3.67-1.39-3.67-3.09ZM242.87,3.09c0-1.7,1.65-3.09,3.67-3.09s3.67,1.39,3.67,3.09-1.47,3.09-3.67,3.09c-2.02,0-3.67-1.39-3.67-3.09Zm0,7.72c0-1.7,1.65-3.09,3.67-3.09s3.67,1.39,3.67,3.09-1.47,3.09-3.67,3.09c-2.02,0-3.67-1.39-3.67-3.09Zm0,7.72c0-1.7,1.65-3.09,3.67-3.09s3.67,1.39,3.67,3.09-1.47,3.09-3.67,3.09c-2.02,0-3.67-1.39-3.67-3.09Zm0,7.72c0-1.7,1.65-3.09,3.67-3.09s3.67,1.39,3.67,3.09-1.47,3.09-3.67,3.09c-2.02,0-3.67-1.39-3.67-3.09Zm0,7.72c0-1.7,1.65-3.09,3.67-3.09s3.67,1.39,3.67,3.09-1.47,3.09-3.67,3.09c-2.02,0-3.67-1.39-3.67-3.09Zm0,7.72c0-1.7,1.65-3.09,3.67-3.09s3.67,1.39,3.67,3.09-1.47,3.09-3.67,3.09c-2.02,0-3.67-1.39-3.67-3.09Zm0,7.72c0-1.7,1.65-3.09,3.67-3.09s3.67,1.39,3.67,3.09-1.47,3.09-3.67,3.09c-2.02,0-3.67-1.39-3.67-3.09Zm0,7.72c0-1.7,1.65-3.09,3.67-3.09s3.67,1.39,3.67,3.09-1.47,3.09-3.67,3.09c-2.02,0-3.67-1.39-3.67-3.09Zm0,7.72c0-1.7,1.65-3.09,3.67-3.09s3.67,1.39,3.67,3.09-1.47,3.09-3.67,3.09c-2.02,0-3.67-1.39-3.67-3.09Zm0,7.72c0-1.7,1.65-3.09,3.67-3.09s3.67,1.39,3.67,3.09-1.47,3.09-3.67,3.09c-2.02,0-3.67-1.39-3.67-3.09Zm0,7.72c0-1.7,1.65-3.09,3.67-3.09s3.67,1.39,3.67,3.09-1.47,3.09-3.67,3.09c-2.02,0-3.67-1.39-3.67-3.09Zm0,7.72c0-1.7,1.65-3.09,3.67-3.09s3.67,1.39,3.67,3.09-1.47,3.09-3.67,3.09c-2.02,0-3.67-1.39-3.67-3.09Zm0,7.72c0-1.7,1.65-3.09,3.67-3.09s3.67,1.39,3.67,3.09-1.47,3.09-3.67,3.09c-2.02,0-3.67-1.39-3.67-3.09Zm0,7.72c0-1.7,1.65-3.09,3.67-3.09s3.67,1.39,3.67,3.09-1.47,3.09-3.67,3.09c-2.02,0-3.67-1.39-3.67-3.09Zm0,7.72c0-1.7,1.65-3.09,3.67-3.09s3.67,1.39,3.67,3.09-1.47,3.09-3.67,3.09c-2.02,0-3.67-1.39-3.67-3.09Zm0,7.72c0-1.7,1.65-3.09,3.67-3.09s3.67,1.39,3.67,3.09-1.47,3.09-3.67,3.09c-2.02,0-3.67-1.39-3.67-3.09ZM252.04,3.09c0-1.7,1.65-3.09,3.67-3.09s3.67,1.39,3.67,3.09-1.47,3.09-3.67,3.09c-2.02,0-3.67-1.39-3.67-3.09Zm0,7.72c0-1.7,1.65-3.09,3.67-3.09s3.67,1.39,3.67,3.09-1.47,3.09-3.67,3.09c-2.02,0-3.67-1.39-3.67-3.09Zm0,7.72c0-1.7,1.65-3.09,3.67-3.09s3.67,1.39,3.67,3.09-1.47,3.09-3.67,3.09c-2.02,0-3.67-1.39-3.67-3.09Zm0,7.72c0-1.7,1.65-3.09,3.67-3.09s3.67,1.39,3.67,3.09-1.47,3.09-3.67,3.09c-2.02,0-3.67-1.39-3.67-3.09Zm9.16-23.16c0-1.7,1.65-3.09,3.67-3.09s3.67,1.39,3.67,3.09-1.47,3.09-3.67,3.09c-2.02,0-3.67-1.39-3.67-3.09Zm0,7.72c0-1.7,1.65-3.09,3.67-3.09s3.67,1.39,3.67,3.09-1.47,3.09-3.67,3.09c-2.02,0-3.67-1.39-3.67-3.09Zm0,7.72c0-1.7,1.65-3.09,3.67-3.09s3.67,1.39,3.67,3.09-1.47,3.09-3.67,3.09c-2.02,0-3.67-1.39-3.67-3.09Zm0,7.72c0-1.7,1.65-3.09,3.67-3.09s3.67,1.39,3.67,3.09-1.47,3.09-3.67,3.09c-2.02,0-3.67-1.39-3.67-3.09Z"/>
      <path class="cls-1" d="m311.61,3.09c0-1.7,1.65-3.09,3.67-3.09s3.67,1.39,3.67,3.09-1.65,3.09-3.67,3.09-3.67-1.39-3.67-3.09Zm0,7.72c0-1.7,1.65-3.09,3.67-3.09s3.67,1.39,3.67,3.09-1.65,3.09-3.67,3.09-3.67-1.39-3.67-3.09Zm0,7.72c0-1.7,1.65-3.09,3.67-3.09s3.67,1.39,3.67,3.09-1.65,3.09-3.67,3.09-3.67-1.39-3.67-3.09Zm0,7.72c0-1.7,1.65-3.09,3.67-3.09s3.67,1.39,3.67,3.09-1.65,3.09-3.67,3.09-3.67-1.39-3.67-3.09Zm0,7.72c0-1.7,1.65-3.09,3.67-3.09s3.67,1.39,3.67,3.09-1.65,3.09-3.67,3.09-3.67-1.39-3.67-3.09Zm0,7.72c0-1.7,1.65-3.09,3.67-3.09s3.67,1.39,3.67,3.09-1.65,3.09-3.67,3.09-3.67-1.39-3.67-3.09Zm0,7.72c0-1.7,1.65-3.09,3.67-3.09s3.67,1.39,3.67,3.09-1.65,3.09-3.67,3.09-3.67-1.39-3.67-3.09Zm0,7.72c0-1.7,1.65-3.09,3.67-3.09s3.67,1.39,3.67,3.09-1.65,3.09-3.67,3.09-3.67-1.39-3.67-3.09Zm0,7.72c0-1.7,1.65-3.09,3.67-3.09s3.67,1.39,3.67,3.09-1.65,3.09-3.67,3.09-3.67-1.39-3.67-3.09Zm0,7.72c0-1.7,1.65-3.09,3.67-3.09s3.67,1.39,3.67,3.09-1.65,3.09-3.67,3.09-3.67-1.39-3.67-3.09Zm0,7.72c0-1.7,1.65-3.09,3.67-3.09s3.67,1.39,3.67,3.09-1.65,3.09-3.67,3.09-3.67-1.39-3.67-3.09Zm0,7.72c0-1.7,1.65-3.09,3.67-3.09s3.67,1.39,3.67,3.09-1.65,3.09-3.67,3.09-3.67-1.39-3.67-3.09Zm0,7.72c0-1.7,1.65-3.09,3.67-3.09s3.67,1.39,3.67,3.09-1.65,3.09-3.67,3.09-3.67-1.39-3.67-3.09Zm0,7.72c0-1.7,1.65-3.09,3.67-3.09s3.67,1.39,3.67,3.09-1.65,3.09-3.67,3.09-3.67-1.39-3.67-3.09Zm0,7.72c0-1.7,1.65-3.09,3.67-3.09s3.67,1.39,3.67,3.09-1.65,3.09-3.67,3.09-3.67-1.39-3.67-3.09Zm9.17-108.09c0-1.7,1.65-3.09,3.67-3.09s3.67,1.39,3.67,3.09-1.47,3.09-3.67,3.09c-2.02,0-3.67-1.39-3.67-3.09Zm0,7.72c0-1.7,1.65-3.09,3.67-3.09s3.67,1.39,3.67,3.09-1.47,3.09-3.67,3.09c-2.02,0-3.67-1.39-3.67-3.09Zm0,7.72c0-1.7,1.65-3.09,3.67-3.09s3.67,1.39,3.67,3.09-1.47,3.09-3.67,3.09c-2.02,0-3.67-1.39-3.67-3.09Zm0,7.72c0-1.7,1.65-3.09,3.67-3.09s3.67,1.39,3.67,3.09-1.47,3.09-3.67,3.09c-2.02,0-3.67-1.39-3.67-3.09Zm0,7.72c0-1.7,1.65-3.09,3.67-3.09s3.67,1.39,3.67,3.09-1.47,3.09-3.67,3.09c-2.02,0-3.67-1.39-3.67-3.09Zm0,7.72c0-1.7,1.65-3.09,3.67-3.09s3.67,1.39,3.67,3.09-1.47,3.09-3.67,3.09c-2.02,0-3.67-1.39-3.67-3.09Zm0,7.72c0-1.7,1.65-3.09,3.67-3.09s3.67,1.39,3.67,3.09-1.47,3.09-3.67,3.09c-2.02,0-3.67-1.39-3.67-3.09Zm0,7.72c0-1.7,1.65-3.09,3.67-3.09s3.67,1.39,3.67,3.09-1.47,3.09-3.67,3.09c-2.02,0-3.67-1.39-3.67-3.09Zm0,7.72c0-1.7,1.65-3.09,3.67-3.09s3.67,1.39,3.67,3.09-1.47,3.09-3.67,3.09c-2.02,0-3.67-1.39-3.67-3.09Zm0,7.72c0-1.7,1.65-3.09,3.67-3.09s3.67,1.39,3.67,3.09-1.47,3.09-3.67,3.09c-2.02,0-3.67-1.39-3.67-3.09Zm0,7.72c0-1.7,1.65-3.09,3.67-3.09s3.67,1.39,3.67,3.09-1.47,3.09-3.67,3.09c-2.02,0-3.67-1.39-3.67-3.09Zm0,7.72c0-1.7,1.65-3.09,3.67-3.09s3.67,1.39,3.67,3.09-1.47,3.09-3.67,3.09c-2.02,0-3.67-1.39-3.67-3.09Zm0,7.72c0-1.7,1.65-3.09,3.67-3.09s3.67,1.39,3.67,3.09-1.47,3.09-3.67,3.09c-2.02,0-3.67-1.39-3.67-3.09Zm0,7.72c0-1.7,1.65-3.09,3.67-3.09s3.67,1.39,3.67,3.09-1.47,3.09-3.67,3.09c-2.02,0-3.67-1.39-3.67-3.09Zm0,7.72c0-1.7,1.65-3.09,3.67-3.09s3.67,1.39,3.67,3.09-1.47,3.09-3.67,3.09c-2.02,0-3.67-1.39-3.67-3.09Zm0,7.72c0-1.7,1.65-3.09,3.67-3.09s3.67,1.39,3.67,3.09-1.47,3.09-3.67,3.09c-2.02,0-3.67-1.39-3.67-3.09Zm9.17-115.81c0-1.7,1.65-3.09,3.67-3.09s3.67,1.39,3.67,3.09-1.47,3.09-3.67,3.09c-2.02,0-3.67-1.39-3.67-3.09Zm0,7.72c0-1.7,1.65-3.09,3.67-3.09s3.67,1.39,3.67,3.09-1.47,3.09-3.67,3.09c-2.02,0-3.67-1.39-3.67-3.09Zm0,7.72c0-1.7,1.65-3.09,3.67-3.09s3.67,1.39,3.67,3.09-1.47,3.09-3.67,3.09c-2.02,0-3.67-1.39-3.67-3.09Zm0,7.72c0-1.7,1.65-3.09,3.67-3.09s3.67,1.39,3.67,3.09-1.47,3.09-3.67,3.09c-2.02,0-3.67-1.39-3.67-3.09Zm0,7.72c0-1.7,1.65-3.09,3.67-3.09s3.67,1.39,3.67,3.09-1.47,3.09-3.67,3.09c-2.02,0-3.67-1.39-3.67-3.09Zm0,7.72c0-1.7,1.65-3.09,3.67-3.09s3.67,1.39,3.67,3.09-1.47,3.09-3.67,3.09c-2.02,0-3.67-1.39-3.67-3.09Zm0,7.72c0-1.7,1.65-3.09,3.67-3.09s3.67,1.39,3.67,3.09-1.47,3.09-3.67,3.09c-2.02,0-3.67-1.39-3.67-3.09Zm0,7.72c0-1.7,1.65-3.09,3.67-3.09s3.67,1.39,3.67,3.09-1.47,3.09-3.67,3.09c-2.02,0-3.67-1.39-3.67-3.09Zm0,7.72c0-1.7,1.65-3.09,3.67-3.09s3.67,1.39,3.67,3.09-1.47,3.09-3.67,3.09c-2.02,0-3.67-1.39-3.67-3.09Zm0,7.72c0-1.7,1.65-3.09,3.67-3.09s3.67,1.39,3.67,3.09-1.47,3.09-3.67,3.09c-2.02,0-3.67-1.39-3.67-3.09Zm0,7.72c0-1.7,1.65-3.09,3.67-3.09s3.67,1.39,3.67,3.09-1.47,3.09-3.67,3.09c-2.02,0-3.67-1.39-3.67-3.09Zm0,7.72c0-1.7,1.65-3.09,3.67-3.09s3.67,1.39,3.67,3.09-1.47,3.09-3.67,3.09c-2.02,0-3.67-1.39-3.67-3.09Zm0,7.72c0-1.7,1.65-3.09,3.67-3.09s3.67,1.39,3.67,3.09-1.47,3.09-3.67,3.09c-2.02,0-3.67-1.39-3.67-3.09Zm0,7.72c0-1.7,1.65-3.09,3.67-3.09s3.67,1.39,3.67,3.09-1.47,3.09-3.67,3.09c-2.02,0-3.67-1.39-3.67-3.09Zm0,7.72c0-1.7,1.65-3.09,3.67-3.09s3.67,1.39,3.67,3.09-1.47,3.09-3.67,3.09c-2.02,0-3.67-1.39-3.67-3.09Zm0,7.72c0-1.7,1.65-3.09,3.67-3.09s3.67,1.39,3.67,3.09-1.47,3.09-3.67,3.09c-2.02,0-3.67-1.39-3.67-3.09Zm9.17-115.81c0-1.7,1.65-3.09,3.67-3.09s3.67,1.39,3.67,3.09-1.47,3.09-3.67,3.09c-2.02,0-3.67-1.39-3.67-3.09Zm0,7.72c0-1.7,1.65-3.09,3.67-3.09s3.67,1.39,3.67,3.09-1.47,3.09-3.67,3.09c-2.02,0-3.67-1.39-3.67-3.09Zm0,7.72c0-1.7,1.65-3.09,3.67-3.09s3.67,1.39,3.67,3.09-1.47,3.09-3.67,3.09c-2.02,0-3.67-1.39-3.67-3.09Zm0,7.72c0-1.7,1.65-3.09,3.67-3.09s3.67,1.39,3.67,3.09-1.47,3.09-3.67,3.09c-2.02,0-3.67-1.39-3.67-3.09Zm0,7.72c0-1.7,1.65-3.09,3.67-3.09s3.67,1.39,3.67,3.09-1.47,3.09-3.67,3.09c-2.02,0-3.67-1.39-3.67-3.09Zm0,7.72c0-1.7,1.65-3.09,3.67-3.09s3.67,1.39,3.67,3.09-1.47,3.09-3.67,3.09c-2.02,0-3.67-1.39-3.67-3.09Zm0,7.72c0-1.7,1.65-3.09,3.67-3.09s3.67,1.39,3.67,3.09-1.47,3.09-3.67,3.09c-2.02,0-3.67-1.39-3.67-3.09Zm0,7.72c0-1.7,1.65-3.09,3.67-3.09s3.67,1.39,3.67,3.09-1.47,3.09-3.67,3.09c-2.02,0-3.67-1.39-3.67-3.09Zm0,7.72c0-1.7,1.65-3.09,3.67-3.09s3.67,1.39,3.67,3.09-1.47,3.09-3.67,3.09c-2.02,0-3.67-1.39-3.67-3.09Zm0,7.72c0-1.7,1.65-3.09,3.67-3.09s3.67,1.39,3.67,3.09-1.47,3.09-3.67,3.09c-2.02,0-3.67-1.39-3.67-3.09Zm0,7.72c0-1.7,1.65-3.09,3.67-3.09s3.67,1.39,3.67,3.09-1.47,3.09-3.67,3.09c-2.02,0-3.67-1.39-3.67-3.09Zm0,7.72c0-1.7,1.65-3.09,3.67-3.09s3.67,1.39,3.67,3.09-1.47,3.09-3.67,3.09c-2.02,0-3.67-1.39-3.67-3.09Zm0,7.72c0-1.7,1.65-3.09,3.67-3.09s3.67,1.39,3.67,3.09-1.47,3.09-3.67,3.09c-2.02,0-3.67-1.39-3.67-3.09Zm0,7.72c0-1.7,1.65-3.09,3.67-3.09s3.67,1.39,3.67,3.09-1.47,3.09-3.67,3.09c-2.02,0-3.67-1.39-3.67-3.09Zm0,7.72c0-1.7,1.65-3.09,3.67-3.09s3.67,1.39,3.67,3.09-1.47,3.09-3.67,3.09c-2.02,0-3.67-1.39-3.67-3.09Zm0,7.72c0-1.7,1.65-3.09,3.67-3.09s3.67,1.39,3.67,3.09-1.47,3.09-3.67,3.09c-2.02,0-3.67-1.39-3.67-3.09Zm9.17-23.16c0-1.7,1.65-3.09,3.67-3.09s3.67,1.39,3.67,3.09-1.47,3.09-3.67,3.09c-2.02,0-3.67-1.39-3.67-3.09Zm0,7.72c0-1.7,1.65-3.09,3.67-3.09s3.67,1.39,3.67,3.09-1.47,3.09-3.67,3.09c-2.02,0-3.67-1.39-3.67-3.09Zm0,7.72c0-1.7,1.65-3.09,3.67-3.09s3.67,1.39,3.67,3.09-1.47,3.09-3.67,3.09c-2.02,0-3.67-1.39-3.67-3.09Zm0,7.72c0-1.7,1.65-3.09,3.67-3.09s3.67,1.39,3.67,3.09-1.47,3.09-3.67,3.09c-2.02,0-3.67-1.39-3.67-3.09Zm9.17-115.81c0-1.7,1.65-3.09,3.67-3.09s3.67,1.39,3.67,3.09-1.47,3.09-3.67,3.09c-2.02,0-3.67-1.39-3.67-3.09Zm0,7.72c0-1.7,1.65-3.09,3.67-3.09s3.67,1.39,3.67,3.09-1.47,3.09-3.67,3.09c-2.02,0-3.67-1.39-3.67-3.09Zm0,7.72c0-1.7,1.65-3.09,3.67-3.09s3.67,1.39,3.67,3.09-1.47,3.09-3.67,3.09c-2.02,0-3.67-1.39-3.67-3.09Zm0,7.72c0-1.7,1.65-3.09,3.67-3.09s3.67,1.39,3.67,3.09-1.47,3.09-3.67,3.09c-2.02,0-3.67-1.39-3.67-3.09Zm0,7.72c0-1.7,1.65-3.09,3.67-3.09s3.67,1.39,3.67,3.09-1.47,3.09-3.67,3.09c-2.02,0-3.67-1.39-3.67-3.09Zm0,7.72c0-1.7,1.65-3.09,3.67-3.09s3.67,1.39,3.67,3.09-1.47,3.09-3.67,3.09c-2.02,0-3.67-1.39-3.67-3.09Zm0,7.72c0-1.7,1.65-3.09,3.67-3.09s3.67,1.39,3.67,3.09-1.47,3.09-3.67,3.09c-2.02,0-3.67-1.39-3.67-3.09Zm0,7.72c0-1.7,1.65-3.09,3.67-3.09s3.67,1.39,3.67,3.09-1.47,3.09-3.67,3.09c-2.02,0-3.67-1.39-3.67-3.09Zm0,7.72c0-1.7,1.65-3.09,3.67-3.09s3.67,1.39,3.67,3.09-1.47,3.09-3.67,3.09c-2.02,0-3.67-1.39-3.67-3.09Zm0,7.72c0-1.7,1.65-3.09,3.67-3.09s3.67,1.39,3.67,3.09-1.47,3.09-3.67,3.09c-2.02,0-3.67-1.39-3.67-3.09Zm0,7.72c0-1.7,1.65-3.09,3.67-3.09s3.67,1.39,3.67,3.09-1.47,3.09-3.67,3.09c-2.02,0-3.67-1.39-3.67-3.09Zm0,7.72c0-1.7,1.65-3.09,3.67-3.09s3.67,1.39,3.67,3.09-1.47,3.09-3.67,3.09c-2.02,0-3.67-1.39-3.67-3.09Zm0,7.72c0-1.7,1.65-3.09,3.67-3.09s3.67,1.39,3.67,3.09-1.47,3.09-3.67,3.09c-2.02,0-3.67-1.39-3.67-3.09Zm0,7.72c0-1.7,1.65-3.09,3.67-3.09s3.67,1.39,3.67,3.09-1.47,3.09-3.67,3.09c-2.02,0-3.67-1.39-3.67-3.09Zm0,7.72c0-1.7,1.65-3.09,3.67-3.09s3.67,1.39,3.67,3.09-1.47,3.09-3.67,3.09c-2.02,0-3.67-1.39-3.67-3.09Zm0,7.72c0-1.7,1.65-3.09,3.67-3.09s3.67,1.39,3.67,3.09-1.47,3.09-3.67,3.09c-2.02,0-3.67-1.39-3.67-3.09Zm9.17-115.81c0-1.7,1.65-3.09,3.67-3.09s3.67,1.39,3.67,3.09-1.47,3.09-3.67,3.09c-2.02,0-3.67-1.39-3.67-3.09Zm0,7.72c0-1.7,1.65-3.09,3.67-3.09s3.67,1.39,3.67,3.09-1.47,3.09-3.67,3.09c-2.02,0-3.67-1.39-3.67-3.09Zm0,7.72c0-1.7,1.65-3.09,3.67-3.09s3.67,1.39,3.67,3.09-1.47,3.09-3.67,3.09c-2.02,0-3.67-1.39-3.67-3.09Zm0,7.72c0-1.7,1.65-3.09,3.67-3.09s3.67,1.39,3.67,3.09-1.47,3.09-3.67,3.09c-2.02,0-3.67-1.39-3.67-3.09Zm0,7.72c0-1.7,1.65-3.09,3.67-3.09s3.67,1.39,3.67,3.09-1.47,3.09-3.67,3.09c-2.02,0-3.67-1.39-3.67-3.09Zm0,7.72c0-1.7,1.65-3.09,3.67-3.09s3.67,1.39,3.67,3.09-1.47,3.09-3.67,3.09c-2.02,0-3.67-1.39-3.67-3.09Zm0,7.72c0-1.7,1.65-3.09,3.67-3.09s3.67,1.39,3.67,3.09-1.47,3.09-3.67,3.09c-2.02,0-3.67-1.39-3.67-3.09Zm0,7.72c0-1.7,1.65-3.09,3.67-3.09s3.67,1.39,3.67,3.09-1.47,3.09-3.67,3.09c-2.02,0-3.67-1.39-3.67-3.09Zm0,7.72c0-1.7,1.65-3.09,3.67-3.09s3.67,1.39,3.67,3.09-1.47,3.09-3.67,3.09c-2.02,0-3.67-1.39-3.67-3.09Zm0,7.72c0-1.7,1.65-3.09,3.67-3.09s3.67,1.39,3.67,3.09-1.47,3.09-3.67,3.09c-2.02,0-3.67-1.39-3.67-3.09Zm0,7.72c0-1.7,1.65-3.09,3.67-3.09s3.67,1.39,3.67,3.09-1.47,3.09-3.67,3.09c-2.02,0-3.67-1.39-3.67-3.09Zm0,7.72c0-1.7,1.65-3.09,3.67-3.09s3.67,1.39,3.67,3.09-1.47,3.09-3.67,3.09c-2.02,0-3.67-1.39-3.67-3.09Zm0,7.72c0-1.7,1.65-3.09,3.67-3.09s3.67,1.39,3.67,3.09-1.47,3.09-3.67,3.09c-2.02,0-3.67-1.39-3.67-3.09Zm0,7.72c0-1.7,1.65-3.09,3.67-3.09s3.67,1.39,3.67,3.09-1.47,3.09-3.67,3.09c-2.02,0-3.67-1.39-3.67-3.09Zm0,7.72c0-1.7,1.65-3.09,3.67-3.09s3.67,1.39,3.67,3.09-1.47,3.09-3.67,3.09c-2.02,0-3.67-1.39-3.67-3.09Zm0,7.72c0-1.7,1.65-3.09,3.67-3.09s3.67,1.39,3.67,3.09-1.47,3.09-3.67,3.09c-2.02,0-3.67-1.39-3.67-3.09Zm9.17-115.81c0-1.7,1.65-3.09,3.67-3.09s3.67,1.39,3.67,3.09-1.47,3.09-3.67,3.09c-2.02,0-3.67-1.39-3.67-3.09Zm0,7.72c0-1.7,1.65-3.09,3.67-3.09s3.67,1.39,3.67,3.09-1.47,3.09-3.67,3.09c-2.02,0-3.67-1.39-3.67-3.09Zm0,7.72c0-1.7,1.65-3.09,3.67-3.09s3.67,1.39,3.67,3.09-1.47,3.09-3.67,3.09c-2.02,0-3.67-1.39-3.67-3.09Zm0,7.72c0-1.7,1.65-3.09,3.67-3.09s3.67,1.39,3.67,3.09-1.47,3.09-3.67,3.09c-2.02,0-3.67-1.39-3.67-3.09Zm0,7.72c0-1.7,1.65-3.09,3.67-3.09s3.67,1.39,3.67,3.09-1.47,3.09-3.67,3.09c-2.02,0-3.67-1.39-3.67-3.09Zm0,7.72c0-1.7,1.65-3.09,3.67-3.09s3.67,1.39,3.67,3.09-1.47,3.09-3.67,3.09c-2.02,0-3.67-1.39-3.67-3.09Zm0,7.72c0-1.7,1.65-3.09,3.67-3.09s3.67,1.39,3.67,3.09-1.47,3.09-3.67,3.09c-2.02,0-3.67-1.39-3.67-3.09Zm0,7.72c0-1.7,1.65-3.09,3.67-3.09s3.67,1.39,3.67,3.09-1.47,3.09-3.67,3.09c-2.02,0-3.67-1.39-3.67-3.09Zm0,7.72c0-1.7,1.65-3.09,3.67-3.09s3.67,1.39,3.67,3.09-1.47,3.09-3.67,3.09c-2.02,0-3.67-1.39-3.67-3.09Zm0,7.72c0-1.7,1.65-3.09,3.67-3.09s3.67,1.39,3.67,3.09-1.47,3.09-3.67,3.09c-2.02,0-3.67-1.39-3.67-3.09Zm0,7.72c0-1.7,1.65-3.09,3.67-3.09s3.67,1.39,3.67,3.09-1.47,3.09-3.67,3.09c-2.02,0-3.67-1.39-3.67-3.09Zm0,7.72c0-1.7,1.65-3.09,3.67-3.09s3.67,1.39,3.67,3.09-1.47,3.09-3.67,3.09c-2.02,0-3.67-1.39-3.67-3.09Zm0,7.72c0-1.7,1.65-3.09,3.67-3.09s3.67,1.39,3.67,3.09-1.47,3.09-3.67,3.09c-2.02,0-3.67-1.39-3.67-3.09Zm0,7.72c0-1.7,1.65-3.09,3.67-3.09s3.67,1.39,3.67,3.09-1.47,3.09-3.67,3.09c-2.02,0-3.67-1.39-3.67-3.09Zm0,7.72c0-1.7,1.65-3.09,3.67-3.09s3.67,1.39,3.67,3.09-1.47,3.09-3.67,3.09c-2.02,0-3.67-1.39-3.67-3.09Zm0,7.72c0-1.7,1.65-3.09,3.67-3.09s3.67,1.39,3.67,3.09-1.47,3.09-3.67,3.09c-2.02,0-3.67-1.39-3.67-3.09Zm9.17-115.81c0-1.7,1.65-3.09,3.67-3.09s3.67,1.39,3.67,3.09-1.47,3.09-3.67,3.09c-2.02,0-3.67-1.39-3.67-3.09Zm0,7.72c0-1.7,1.65-3.09,3.67-3.09s3.67,1.39,3.67,3.09-1.47,3.09-3.67,3.09c-2.02,0-3.67-1.39-3.67-3.09Zm0,7.72c0-1.7,1.65-3.09,3.67-3.09s3.67,1.39,3.67,3.09-1.47,3.09-3.67,3.09c-2.02,0-3.67-1.39-3.67-3.09Zm0,7.72c0-1.7,1.65-3.09,3.67-3.09s3.67,1.39,3.67,3.09-1.47,3.09-3.67,3.09c-2.02,0-3.67-1.39-3.67-3.09Zm0,7.72c0-1.7,1.65-3.09,3.67-3.09s3.67,1.39,3.67,3.09-1.47,3.09-3.67,3.09c-2.02,0-3.67-1.39-3.67-3.09Zm0,7.72c0-1.7,1.65-3.09,3.67-3.09s3.67,1.39,3.67,3.09-1.47,3.09-3.67,3.09c-2.02,0-3.67-1.39-3.67-3.09Zm0,7.72c0-1.7,1.65-3.09,3.67-3.09s3.67,1.39,3.67,3.09-1.47,3.09-3.67,3.09c-2.02,0-3.67-1.39-3.67-3.09Zm0,7.72c0-1.7,1.65-3.09,3.67-3.09s3.67,1.39,3.67,3.09-1.47,3.09-3.67,3.09c-2.02,0-3.67-1.39-3.67-3.09Zm0,7.72c0-1.7,1.65-3.09,3.67-3.09s3.67,1.39,3.67,3.09-1.47,3.09-3.67,3.09c-2.02,0-3.67-1.39-3.67-3.09Zm0,7.72c0-1.7,1.65-3.09,3.67-3.09s3.67,1.39,3.67,3.09-1.47,3.09-3.67,3.09c-2.02,0-3.67-1.39-3.67-3.09Zm0,7.72c0-1.7,1.65-3.09,3.67-3.09s3.67,1.39,3.67,3.09-1.47,3.09-3.67,3.09c-2.02,0-3.67-1.39-3.67-3.09Zm0,7.72c0-1.7,1.65-3.09,3.67-3.09s3.67,1.39,3.67,3.09-1.47,3.09-3.67,3.09c-2.02,0-3.67-1.39-3.67-3.09Zm0,7.72c0-1.7,1.65-3.09,3.67-3.09s3.67,1.39,3.67,3.09-1.47,3.09-3.67,3.09c-2.02,0-3.67-1.39-3.67-3.09Zm0,7.72c0-1.7,1.65-3.09,3.67-3.09s3.67,1.39,3.67,3.09-1.47,3.09-3.67,3.09c-2.02,0-3.67-1.39-3.67-3.09Zm0,7.72c0-1.7,1.65-3.09,3.67-3.09s3.67,1.39,3.67,3.09-1.47,3.09-3.67,3.09c-2.02,0-3.67-1.39-3.67-3.09Z"/>
      <path class="cls-1" d="m403.26,3.09c0-1.7,1.65-3.09,3.67-3.09s3.67,1.39,3.67,3.09-1.65,3.09-3.67,3.09-3.67-1.39-3.67-3.09Zm0,7.72c0-1.7,1.65-3.09,3.67-3.09s3.67,1.39,3.67,3.09-1.65,3.09-3.67,3.09-3.67-1.39-3.67-3.09Zm0,7.72c0-1.7,1.65-3.09,3.67-3.09s3.67,1.39,3.67,3.09-1.65,3.09-3.67,3.09-3.67-1.39-3.67-3.09Zm0,7.72c0-1.7,1.65-3.09,3.67-3.09s3.67,1.39,3.67,3.09-1.65,3.09-3.67,3.09-3.67-1.39-3.67-3.09Zm0,7.72c0-1.7,1.65-3.09,3.67-3.09s3.67,1.39,3.67,3.09-1.65,3.09-3.67,3.09-3.67-1.39-3.67-3.09Zm0,7.72c0-1.7,1.65-3.09,3.67-3.09s3.67,1.39,3.67,3.09-1.65,3.09-3.67,3.09-3.67-1.39-3.67-3.09Zm0,7.72c0-1.7,1.65-3.09,3.67-3.09s3.67,1.39,3.67,3.09-1.65,3.09-3.67,3.09-3.67-1.39-3.67-3.09Zm0,7.72c0-1.7,1.65-3.09,3.67-3.09s3.67,1.39,3.67,3.09-1.65,3.09-3.67,3.09-3.67-1.39-3.67-3.09Zm0,7.72c0-1.7,1.65-3.09,3.67-3.09s3.67,1.39,3.67,3.09-1.65,3.09-3.67,3.09-3.67-1.39-3.67-3.09Zm0,7.72c0-1.7,1.65-3.09,3.67-3.09s3.67,1.39,3.67,3.09-1.65,3.09-3.67,3.09-3.67-1.39-3.67-3.09Zm0,7.72c0-1.7,1.65-3.09,3.67-3.09s3.67,1.39,3.67,3.09-1.65,3.09-3.67,3.09-3.67-1.39-3.67-3.09Zm0,7.72c0-1.7,1.65-3.09,3.67-3.09s3.67,1.39,3.67,3.09-1.65,3.09-3.67,3.09-3.67-1.39-3.67-3.09Zm0,7.72c0-1.7,1.65-3.09,3.67-3.09s3.67,1.39,3.67,3.09-1.65,3.09-3.67,3.09-3.67-1.39-3.67-3.09Zm0,7.72c0-1.7,1.65-3.09,3.67-3.09s3.67,1.39,3.67,3.09-1.65,3.09-3.67,3.09-3.67-1.39-3.67-3.09Zm0,7.72c0-1.7,1.65-3.09,3.67-3.09s3.67,1.39,3.67,3.09-1.65,3.09-3.67,3.09-3.67-1.39-3.67-3.09Zm0,7.72c0-1.7,1.65-3.09,3.67-3.09s3.67,1.39,3.67,3.09-1.65,3.09-3.67,3.09-3.67-1.39-3.67-3.09Zm9.17-115.81c0-1.7,1.65-3.09,3.67-3.09s3.67,1.39,3.67,3.09-1.47,3.09-3.67,3.09c-2.02,0-3.67-1.39-3.67-3.09Zm0,7.72c0-1.7,1.65-3.09,3.67-3.09s3.67,1.39,3.67,3.09-1.47,3.09-3.67,3.09c-2.02,0-3.67-1.39-3.67-3.09Zm0,7.72c0-1.7,1.65-3.09,3.67-3.09s3.67,1.39,3.67,3.09-1.47,3.09-3.67,3.09c-2.02,0-3.67-1.39-3.67-3.09Zm0,7.72c0-1.7,1.65-3.09,3.67-3.09s3.67,1.39,3.67,3.09-1.47,3.09-3.67,3.09c-2.02,0-3.67-1.39-3.67-3.09Zm0,7.72c0-1.7,1.65-3.09,3.67-3.09s3.67,1.39,3.67,3.09-1.47,3.09-3.67,3.09c-2.02,0-3.67-1.39-3.67-3.09Zm0,7.72c0-1.7,1.65-3.09,3.67-3.09s3.67,1.39,3.67,3.09-1.47,3.09-3.67,3.09c-2.02,0-3.67-1.39-3.67-3.09Zm0,7.72c0-1.7,1.65-3.09,3.67-3.09s3.67,1.39,3.67,3.09-1.47,3.09-3.67,3.09c-2.02,0-3.67-1.39-3.67-3.09Zm0,7.72c0-1.7,1.65-3.09,3.67-3.09s3.67,1.39,3.67,3.09-1.47,3.09-3.67,3.09c-2.02,0-3.67-1.39-3.67-3.09Zm0,7.72c0-1.7,1.65-3.09,3.67-3.09s3.67,1.39,3.67,3.09-1.47,3.09-3.67,3.09c-2.02,0-3.67-1.39-3.67-3.09Zm0,7.72c0-1.7,1.65-3.09,3.67-3.09s3.67,1.39,3.67,3.09-1.47,3.09-3.67,3.09c-2.02,0-3.67-1.39-3.67-3.09Zm0,7.72c0-1.7,1.65-3.09,3.67-3.09s3.67,1.39,3.67,3.09-1.47,3.09-3.67,3.09c-2.02,0-3.67-1.39-3.67-3.09Zm0,7.72c0-1.7,1.65-3.09,3.67-3.09s3.67,1.39,3.67,3.09-1.47,3.09-3.67,3.09c-2.02,0-3.67-1.39-3.67-3.09Zm0,7.72c0-1.7,1.65-3.09,3.67-3.09s3.67,1.39,3.67,3.09-1.47,3.09-3.67,3.09c-2.02,0-3.67-1.39-3.67-3.09Zm0,7.72c0-1.7,1.65-3.09,3.67-3.09s3.67,1.39,3.67,3.09-1.47,3.09-3.67,3.09c-2.02,0-3.67-1.39-3.67-3.09Zm0,7.72c0-1.7,1.65-3.09,3.67-3.09s3.67,1.39,3.67,3.09-1.47,3.09-3.67,3.09c-2.02,0-3.67-1.39-3.67-3.09Zm0,7.72c0-1.7,1.65-3.09,3.67-3.09s3.67,1.39,3.67,3.09-1.47,3.09-3.67,3.09c-2.02,0-3.67-1.39-3.67-3.09Zm9.17-115.81c0-1.7,1.65-3.09,3.67-3.09s3.67,1.39,3.67,3.09-1.47,3.09-3.67,3.09c-2.02,0-3.67-1.39-3.67-3.09Zm0,7.72c0-1.7,1.65-3.09,3.67-3.09s3.67,1.39,3.67,3.09-1.47,3.09-3.67,3.09c-2.02,0-3.67-1.39-3.67-3.09Zm0,7.72c0-1.7,1.65-3.09,3.67-3.09s3.67,1.39,3.67,3.09-1.47,3.09-3.67,3.09c-2.02,0-3.67-1.39-3.67-3.09Zm0,7.72c0-1.7,1.65-3.09,3.67-3.09s3.67,1.39,3.67,3.09-1.47,3.09-3.67,3.09c-2.02,0-3.67-1.39-3.67-3.09Zm0,7.72c0-1.7,1.65-3.09,3.67-3.09s3.67,1.39,3.67,3.09-1.47,3.09-3.67,3.09c-2.02,0-3.67-1.39-3.67-3.09Zm0,7.72c0-1.7,1.65-3.09,3.67-3.09s3.67,1.39,3.67,3.09-1.47,3.09-3.67,3.09c-2.02,0-3.67-1.39-3.67-3.09Zm0,7.72c0-1.7,1.65-3.09,3.67-3.09s3.67,1.39,3.67,3.09-1.47,3.09-3.67,3.09c-2.02,0-3.67-1.39-3.67-3.09Zm0,7.72c0-1.7,1.65-3.09,3.67-3.09s3.67,1.39,3.67,3.09-1.47,3.09-3.67,3.09c-2.02,0-3.67-1.39-3.67-3.09Zm0,7.72c0-1.7,1.65-3.09,3.67-3.09s3.67,1.39,3.67,3.09-1.47,3.09-3.67,3.09c-2.02,0-3.67-1.39-3.67-3.09Zm0,7.72c0-1.7,1.65-3.09,3.67-3.09s3.67,1.39,3.67,3.09-1.47,3.09-3.67,3.09c-2.02,0-3.67-1.39-3.67-3.09Zm0,7.72c0-1.7,1.65-3.09,3.67-3.09s3.67,1.39,3.67,3.09-1.47,3.09-3.67,3.09c-2.02,0-3.67-1.39-3.67-3.09Zm0,7.72c0-1.7,1.65-3.09,3.67-3.09s3.67,1.39,3.67,3.09-1.47,3.09-3.67,3.09c-2.02,0-3.67-1.39-3.67-3.09Zm0,7.72c0-1.7,1.65-3.09,3.67-3.09s3.67,1.39,3.67,3.09-1.47,3.09-3.67,3.09c-2.02,0-3.67-1.39-3.67-3.09Zm0,7.72c0-1.7,1.65-3.09,3.67-3.09s3.67,1.39,3.67,3.09-1.47,3.09-3.67,3.09c-2.02,0-3.67-1.39-3.67-3.09Zm0,7.72c0-1.7,1.65-3.09,3.67-3.09s3.67,1.39,3.67,3.09-1.47,3.09-3.67,3.09c-2.02,0-3.67-1.39-3.67-3.09Zm0,7.72c0-1.7,1.65-3.09,3.67-3.09s3.67,1.39,3.67,3.09-1.47,3.09-3.67,3.09c-2.02,0-3.67-1.39-3.67-3.09Zm9.17-115.81c0-1.7,1.65-3.09,3.67-3.09s3.67,1.39,3.67,3.09-1.47,3.09-3.67,3.09c-2.02,0-3.67-1.39-3.67-3.09Zm0,7.72c0-1.7,1.65-3.09,3.67-3.09s3.67,1.39,3.67,3.09-1.47,3.09-3.67,3.09c-2.02,0-3.67-1.39-3.67-3.09Zm0,7.72c0-1.7,1.65-3.09,3.67-3.09s3.67,1.39,3.67,3.09-1.47,3.09-3.67,3.09c-2.02,0-3.67-1.39-3.67-3.09Zm0,7.72c0-1.7,1.65-3.09,3.67-3.09s3.67,1.39,3.67,3.09-1.47,3.09-3.67,3.09c-2.02,0-3.67-1.39-3.67-3.09Zm0,7.72c0-1.7,1.65-3.09,3.67-3.09s3.67,1.39,3.67,3.09-1.47,3.09-3.67,3.09c-2.02,0-3.67-1.39-3.67-3.09Zm0,7.72c0-1.7,1.65-3.09,3.67-3.09s3.67,1.39,3.67,3.09-1.47,3.09-3.67,3.09c-2.02,0-3.67-1.39-3.67-3.09Zm0,7.72c0-1.7,1.65-3.09,3.67-3.09s3.67,1.39,3.67,3.09-1.47,3.09-3.67,3.09c-2.02,0-3.67-1.39-3.67-3.09Zm0,7.72c0-1.7,1.65-3.09,3.67-3.09s3.67,1.39,3.67,3.09-1.47,3.09-3.67,3.09c-2.02,0-3.67-1.39-3.67-3.09Zm0,7.72c0-1.7,1.65-3.09,3.67-3.09s3.67,1.39,3.67,3.09-1.47,3.09-3.67,3.09c-2.02,0-3.67-1.39-3.67-3.09Zm0,7.72c0-1.7,1.65-3.09,3.67-3.09s3.67,1.39,3.67,3.09-1.47,3.09-3.67,3.09c-2.02,0-3.67-1.39-3.67-3.09Zm0,7.72c0-1.7,1.65-3.09,3.67-3.09s3.67,1.39,3.67,3.09-1.47,3.09-3.67,3.09c-2.02,0-3.67-1.39-3.67-3.09Zm0,7.72c0-1.7,1.65-3.09,3.67-3.09s3.67,1.39,3.67,3.09-1.47,3.09-3.67,3.09c-2.02,0-3.67-1.39-3.67-3.09Zm0,7.72c0-1.7,1.65-3.09,3.67-3.09s3.67,1.39,3.67,3.09-1.47,3.09-3.67,3.09c-2.02,0-3.67-1.39-3.67-3.09Zm0,7.72c0-1.7,1.65-3.09,3.67-3.09s3.67,1.39,3.67,3.09-1.47,3.09-3.67,3.09c-2.02,0-3.67-1.39-3.67-3.09Zm0,7.72c0-1.7,1.65-3.09,3.67-3.09s3.67,1.39,3.67,3.09-1.47,3.09-3.67,3.09c-2.02,0-3.67-1.39-3.67-3.09Zm0,7.72c0-1.7,1.65-3.09,3.67-3.09s3.67,1.39,3.67,3.09-1.47,3.09-3.67,3.09c-2.02,0-3.67-1.39-3.67-3.09Zm9.17-115.81c0-1.7,1.65-3.09,3.67-3.09s3.67,1.39,3.67,3.09-1.47,3.09-3.67,3.09c-2.02,0-3.67-1.39-3.67-3.09Zm0,7.72c0-1.7,1.65-3.09,3.67-3.09s3.67,1.39,3.67,3.09-1.47,3.09-3.67,3.09c-2.02,0-3.67-1.39-3.67-3.09Zm0,7.72c0-1.7,1.65-3.09,3.67-3.09s3.67,1.39,3.67,3.09-1.47,3.09-3.67,3.09c-2.02,0-3.67-1.39-3.67-3.09Zm0,7.72c0-1.7,1.65-3.09,3.67-3.09s3.67,1.39,3.67,3.09-1.47,3.09-3.67,3.09c-2.02,0-3.67-1.39-3.67-3.09Zm0,23.16c0-1.7,1.65-3.09,3.67-3.09s3.67,1.39,3.67,3.09-1.47,3.09-3.67,3.09c-2.02,0-3.67-1.39-3.67-3.09Zm0,7.72c0-1.7,1.65-3.09,3.67-3.09s3.67,1.39,3.67,3.09-1.47,3.09-3.67,3.09c-2.02,0-3.67-1.39-3.67-3.09Zm0,7.72c0-1.7,1.65-3.09,3.67-3.09s3.67,1.39,3.67,3.09-1.47,3.09-3.67,3.09c-2.02,0-3.67-1.39-3.67-3.09Zm0,7.72c0-1.7,1.65-3.09,3.67-3.09s3.67,1.39,3.67,3.09-1.47,3.09-3.67,3.09c-2.02,0-3.67-1.39-3.67-3.09Zm9.17-69.49c0-1.7,1.65-3.09,3.67-3.09s3.67,1.39,3.67,3.09-1.47,3.09-3.67,3.09c-2.02,0-3.67-1.39-3.67-3.09Zm0,7.72c0-1.7,1.65-3.09,3.67-3.09s3.67,1.39,3.67,3.09-1.47,3.09-3.67,3.09c-2.02,0-3.67-1.39-3.67-3.09Zm0,7.72c0-1.7,1.65-3.09,3.67-3.09s3.67,1.39,3.67,3.09-1.47,3.09-3.67,3.09c-2.02,0-3.67-1.39-3.67-3.09Zm0,7.72c0-1.7,1.65-3.09,3.67-3.09s3.67,1.39,3.67,3.09-1.47,3.09-3.67,3.09c-2.02,0-3.67-1.39-3.67-3.09Zm0,7.72c0-1.7,1.65-3.09,3.67-3.09s3.67,1.39,3.67,3.09-1.47,3.09-3.67,3.09c-2.02,0-3.67-1.39-3.67-3.09Zm0,7.72c0-1.7,1.65-3.09,3.67-3.09s3.67,1.39,3.67,3.09-1.47,3.09-3.67,3.09c-2.02,0-3.67-1.39-3.67-3.09Zm0,7.72c0-1.7,1.65-3.09,3.67-3.09s3.67,1.39,3.67,3.09-1.47,3.09-3.67,3.09c-2.02,0-3.67-1.39-3.67-3.09Zm0,7.72c0-1.7,1.65-3.09,3.67-3.09s3.67,1.39,3.67,3.09-1.47,3.09-3.67,3.09c-2.02,0-3.67-1.39-3.67-3.09Zm0,7.72c0-1.7,1.65-3.09,3.67-3.09s3.67,1.39,3.67,3.09-1.47,3.09-3.67,3.09c-2.02,0-3.67-1.39-3.67-3.09Zm0,7.72c0-1.7,1.65-3.09,3.67-3.09s3.67,1.39,3.67,3.09-1.47,3.09-3.67,3.09c-2.02,0-3.67-1.39-3.67-3.09Zm9.17-69.49c0-1.7,1.65-3.09,3.67-3.09s3.67,1.39,3.67,3.09-1.47,3.09-3.67,3.09c-2.02,0-3.67-1.39-3.67-3.09Zm0,7.72c0-1.7,1.65-3.09,3.67-3.09s3.67,1.39,3.67,3.09-1.47,3.09-3.67,3.09c-2.02,0-3.67-1.39-3.67-3.09Zm0,7.72c0-1.7,1.65-3.09,3.67-3.09s3.67,1.39,3.67,3.09-1.47,3.09-3.67,3.09c-2.02,0-3.67-1.39-3.67-3.09Zm0,7.72c0-1.7,1.65-3.09,3.67-3.09s3.67,1.39,3.67,3.09-1.47,3.09-3.67,3.09c-2.02,0-3.67-1.39-3.67-3.09Zm0,7.72c0-1.7,1.65-3.09,3.67-3.09s3.67,1.39,3.67,3.09-1.47,3.09-3.67,3.09c-2.02,0-3.67-1.39-3.67-3.09Zm0,7.72c0-1.7,1.65-3.09,3.67-3.09s3.67,1.39,3.67,3.09-1.47,3.09-3.67,3.09c-2.02,0-3.67-1.39-3.67-3.09Zm0,7.72c0-1.7,1.65-3.09,3.67-3.09s3.67,1.39,3.67,3.09-1.47,3.09-3.67,3.09c-2.02,0-3.67-1.39-3.67-3.09Zm0,7.72c0-1.7,1.65-3.09,3.67-3.09s3.67,1.39,3.67,3.09-1.47,3.09-3.67,3.09c-2.02,0-3.67-1.39-3.67-3.09Zm0,7.72c0-1.7,1.65-3.09,3.67-3.09s3.67,1.39,3.67,3.09-1.47,3.09-3.67,3.09c-2.02,0-3.67-1.39-3.67-3.09Zm0,7.72c0-1.7,1.65-3.09,3.67-3.09s3.67,1.39,3.67,3.09-1.47,3.09-3.67,3.09c-2.02,0-3.67-1.39-3.67-3.09Zm9.17-69.49c0-1.7,1.65-3.09,3.67-3.09s3.67,1.39,3.67,3.09-1.47,3.09-3.67,3.09c-2.02,0-3.67-1.39-3.67-3.09Zm0,7.72c0-1.7,1.65-3.09,3.67-3.09s3.67,1.39,3.67,3.09-1.47,3.09-3.67,3.09c-2.02,0-3.67-1.39-3.67-3.09Zm0,7.72c0-1.7,1.65-3.09,3.67-3.09s3.67,1.39,3.67,3.09-1.47,3.09-3.67,3.09c-2.02,0-3.67-1.39-3.67-3.09Zm0,7.72c0-1.7,1.65-3.09,3.67-3.09s3.67,1.39,3.67,3.09-1.47,3.09-3.67,3.09c-2.02,0-3.67-1.39-3.67-3.09Zm0,7.72c0-1.7,1.65-3.09,3.67-3.09s3.67,1.39,3.67,3.09-1.47,3.09-3.67,3.09c-2.02,0-3.67-1.39-3.67-3.09Zm0,7.72c0-1.7,1.65-3.09,3.67-3.09s3.67,1.39,3.67,3.09-1.47,3.09-3.67,3.09c-2.02,0-3.67-1.39-3.67-3.09Zm0,7.72c0-1.7,1.65-3.09,3.67-3.09s3.67,1.39,3.67,3.09-1.47,3.09-3.67,3.09c-2.02,0-3.67-1.39-3.67-3.09Zm0,7.72c0-1.7,1.65-3.09,3.67-3.09s3.67,1.39,3.67,3.09-1.47,3.09-3.67,3.09c-2.02,0-3.67-1.39-3.67-3.09Zm0,7.72c0-1.7,1.65-3.09,3.67-3.09s3.67,1.39,3.67,3.09-1.47,3.09-3.67,3.09c-2.02,0-3.67-1.39-3.67-3.09Zm0,7.72c0-1.7,1.65-3.09,3.67-3.09s3.67,1.39,3.67,3.09-1.47,3.09-3.67,3.09c-2.02,0-3.67-1.39-3.67-3.09Zm9.17-61.77c0-1.7,1.65-3.09,3.67-3.09s3.67,1.39,3.67,3.09-1.47,3.09-3.67,3.09c-2.02,0-3.67-1.39-3.67-3.09Zm0,7.72c0-1.7,1.65-3.09,3.67-3.09s3.67,1.39,3.67,3.09-1.47,3.09-3.67,3.09c-2.02,0-3.67-1.39-3.67-3.09Zm0,7.72c0-1.7,1.65-3.09,3.67-3.09s3.67,1.39,3.67,3.09-1.47,3.09-3.67,3.09c-2.02,0-3.67-1.39-3.67-3.09Zm0,7.72c0-1.7,1.65-3.09,3.67-3.09s3.67,1.39,3.67,3.09-1.47,3.09-3.67,3.09c-2.02,0-3.67-1.39-3.67-3.09Zm0,7.72c0-1.7,1.65-3.09,3.67-3.09s3.67,1.39,3.67,3.09-1.47,3.09-3.67,3.09c-2.02,0-3.67-1.39-3.67-3.09Zm0,7.72c0-1.7,1.65-3.09,3.67-3.09s3.67,1.39,3.67,3.09-1.47,3.09-3.67,3.09c-2.02,0-3.67-1.39-3.67-3.09Zm0,7.72c0-1.7,1.65-3.09,3.67-3.09s3.67,1.39,3.67,3.09-1.47,3.09-3.67,3.09c-2.02,0-3.67-1.39-3.67-3.09Zm0,7.72c0-1.7,1.65-3.09,3.67-3.09s3.67,1.39,3.67,3.09-1.47,3.09-3.67,3.09c-2.02,0-3.67-1.39-3.67-3.09Z"/>
    </g>
  </g>
</svg>