<?xml version="1.0" encoding="UTF-8"?>
<svg id="Layer_2" data-name="Layer 2" xmlns="http://www.w3.org/2000/svg" viewBox="0 0 518.4 126.4">
  <defs>
    <style>
      .cls-1 {
        fill: #ff9fe2;
      }
    </style>
  </defs>
  <g id="Layer_2-2" data-name="Layer 2">
    <g id="Layer_1-2" data-name="Layer 1-2">
      <g>
        <path class="cls-1" d="m0,11.2c0-1.76,1.44-3.2,3.2-3.2s3.2,1.44,3.2,3.2-1.44,3.2-3.2,3.2-3.2-1.44-3.2-3.2Zm0,8c0-1.76,1.44-3.2,3.2-3.2s3.2,1.44,3.2,3.2-1.44,3.2-3.2,3.2-3.2-1.44-3.2-3.2Zm0,8c0-1.76,1.44-3.2,3.2-3.2s3.2,1.44,3.2,3.2-1.44,3.2-3.2,3.2-3.2-1.44-3.2-3.2Zm0,8c0-1.76,1.44-3.2,3.2-3.2s3.2,1.44,3.2,3.2-1.44,3.2-3.2,3.2-3.2-1.44-3.2-3.2Zm0,8c0-1.76,1.44-3.2,3.2-3.2s3.2,1.44,3.2,3.2-1.44,3.2-3.2,3.2-3.2-1.44-3.2-3.2Zm0,8c0-1.76,1.44-3.2,3.2-3.2s3.2,1.44,3.2,3.2-1.44,3.2-3.2,3.2-3.2-1.44-3.2-3.2Zm0,8c0-1.76,1.44-3.2,3.2-3.2s3.2,1.44,3.2,3.2-1.44,3.2-3.2,3.2-3.2-1.44-3.2-3.2Zm0,8c0-1.76,1.44-3.2,3.2-3.2s3.2,1.44,3.2,3.2-1.44,3.2-3.2,3.2-3.2-1.44-3.2-3.2Zm0,8c0-1.76,1.44-3.2,3.2-3.2s3.2,1.44,3.2,3.2-1.44,3.2-3.2,3.2-3.2-1.44-3.2-3.2Zm0,8c0-1.76,1.44-3.2,3.2-3.2s3.2,1.44,3.2,3.2-1.44,3.2-3.2,3.2-3.2-1.44-3.2-3.2Zm0,8c0-1.76,1.44-3.2,3.2-3.2s3.2,1.44,3.2,3.2-1.44,3.2-3.2,3.2-3.2-1.44-3.2-3.2Zm0,8c0-1.76,1.44-3.2,3.2-3.2s3.2,1.44,3.2,3.2-1.44,3.2-3.2,3.2-3.2-1.44-3.2-3.2Zm0,8c0-1.76,1.44-3.2,3.2-3.2s3.2,1.44,3.2,3.2-1.44,3.2-3.2,3.2-3.2-1.44-3.2-3.2Zm0,8c0-1.76,1.44-3.2,3.2-3.2s3.2,1.44,3.2,3.2-1.44,3.2-3.2,3.2-3.2-1.44-3.2-3.2ZM8,3.2C8,1.44,9.44,0,11.2,0s3.2,1.44,3.2,3.2-1.28,3.2-3.2,3.2c-1.76,0-3.2-1.44-3.2-3.2Zm0,8c0-1.76,1.44-3.2,3.2-3.2s3.2,1.44,3.2,3.2-1.28,3.2-3.2,3.2c-1.76,0-3.2-1.44-3.2-3.2Zm0,8c0-1.76,1.44-3.2,3.2-3.2s3.2,1.44,3.2,3.2-1.28,3.2-3.2,3.2c-1.76,0-3.2-1.44-3.2-3.2Zm0,8c0-1.76,1.44-3.2,3.2-3.2s3.2,1.44,3.2,3.2-1.28,3.2-3.2,3.2c-1.76,0-3.2-1.44-3.2-3.2Zm0,8c0-1.76,1.44-3.2,3.2-3.2s3.2,1.44,3.2,3.2-1.28,3.2-3.2,3.2c-1.76,0-3.2-1.44-3.2-3.2Zm0,8c0-1.76,1.44-3.2,3.2-3.2s3.2,1.44,3.2,3.2-1.28,3.2-3.2,3.2c-1.76,0-3.2-1.44-3.2-3.2Zm0,8c0-1.76,1.44-3.2,3.2-3.2s3.2,1.44,3.2,3.2-1.28,3.2-3.2,3.2c-1.76,0-3.2-1.44-3.2-3.2Zm0,8c0-1.76,1.44-3.2,3.2-3.2s3.2,1.44,3.2,3.2-1.28,3.2-3.2,3.2c-1.76,0-3.2-1.44-3.2-3.2Zm0,8c0-1.76,1.44-3.2,3.2-3.2s3.2,1.44,3.2,3.2-1.28,3.2-3.2,3.2c-1.76,0-3.2-1.44-3.2-3.2Zm0,8c0-1.76,1.44-3.2,3.2-3.2s3.2,1.44,3.2,3.2-1.28,3.2-3.2,3.2c-1.76,0-3.2-1.44-3.2-3.2Zm0,8c0-1.76,1.44-3.2,3.2-3.2s3.2,1.44,3.2,3.2-1.28,3.2-3.2,3.2c-1.76,0-3.2-1.44-3.2-3.2Zm0,8c0-1.76,1.44-3.2,3.2-3.2s3.2,1.44,3.2,3.2-1.28,3.2-3.2,3.2c-1.76,0-3.2-1.44-3.2-3.2Zm0,8c0-1.76,1.44-3.2,3.2-3.2s3.2,1.44,3.2,3.2-1.28,3.2-3.2,3.2c-1.76,0-3.2-1.44-3.2-3.2Zm0,8c0-1.76,1.44-3.2,3.2-3.2s3.2,1.44,3.2,3.2-1.28,3.2-3.2,3.2c-1.76,0-3.2-1.44-3.2-3.2Zm0,8c0-1.76,1.44-3.2,3.2-3.2s3.2,1.44,3.2,3.2-1.28,3.2-3.2,3.2c-1.76,0-3.2-1.44-3.2-3.2Zm0,8c0-1.76,1.44-3.2,3.2-3.2s3.2,1.44,3.2,3.2-1.28,3.2-3.2,3.2c-1.76,0-3.2-1.44-3.2-3.2ZM16,3.2C16,1.44,17.44,0,19.2,0s3.2,1.44,3.2,3.2-1.28,3.2-3.2,3.2c-1.76,0-3.2-1.44-3.2-3.2Zm0,8c0-1.76,1.44-3.2,3.2-3.2s3.2,1.44,3.2,3.2-1.28,3.2-3.2,3.2c-1.76,0-3.2-1.44-3.2-3.2Zm0,8c0-1.76,1.44-3.2,3.2-3.2s3.2,1.44,3.2,3.2-1.28,3.2-3.2,3.2c-1.76,0-3.2-1.44-3.2-3.2Zm0,8c0-1.76,1.44-3.2,3.2-3.2s3.2,1.44,3.2,3.2-1.28,3.2-3.2,3.2c-1.76,0-3.2-1.44-3.2-3.2Zm0,8c0-1.76,1.44-3.2,3.2-3.2s3.2,1.44,3.2,3.2-1.28,3.2-3.2,3.2c-1.76,0-3.2-1.44-3.2-3.2Zm0,8c0-1.76,1.44-3.2,3.2-3.2s3.2,1.44,3.2,3.2-1.28,3.2-3.2,3.2c-1.76,0-3.2-1.44-3.2-3.2Zm0,8c0-1.76,1.44-3.2,3.2-3.2s3.2,1.44,3.2,3.2-1.28,3.2-3.2,3.2c-1.76,0-3.2-1.44-3.2-3.2Zm0,8c0-1.76,1.44-3.2,3.2-3.2s3.2,1.44,3.2,3.2-1.28,3.2-3.2,3.2c-1.76,0-3.2-1.44-3.2-3.2Zm0,8c0-1.76,1.44-3.2,3.2-3.2s3.2,1.44,3.2,3.2-1.28,3.2-3.2,3.2c-1.76,0-3.2-1.44-3.2-3.2Zm0,8c0-1.76,1.44-3.2,3.2-3.2s3.2,1.44,3.2,3.2-1.28,3.2-3.2,3.2c-1.76,0-3.2-1.44-3.2-3.2Zm0,8c0-1.76,1.44-3.2,3.2-3.2s3.2,1.44,3.2,3.2-1.28,3.2-3.2,3.2c-1.76,0-3.2-1.44-3.2-3.2Zm0,8c0-1.76,1.44-3.2,3.2-3.2s3.2,1.44,3.2,3.2-1.28,3.2-3.2,3.2c-1.76,0-3.2-1.44-3.2-3.2Zm0,8c0-1.76,1.44-3.2,3.2-3.2s3.2,1.44,3.2,3.2-1.28,3.2-3.2,3.2c-1.76,0-3.2-1.44-3.2-3.2Zm0,8c0-1.76,1.44-3.2,3.2-3.2s3.2,1.44,3.2,3.2-1.28,3.2-3.2,3.2c-1.76,0-3.2-1.44-3.2-3.2Zm0,8c0-1.76,1.44-3.2,3.2-3.2s3.2,1.44,3.2,3.2-1.28,3.2-3.2,3.2c-1.76,0-3.2-1.44-3.2-3.2Zm0,8c0-1.76,1.44-3.2,3.2-3.2s3.2,1.44,3.2,3.2-1.28,3.2-3.2,3.2c-1.76,0-3.2-1.44-3.2-3.2ZM24,3.2C24,1.44,25.44,0,27.2,0s3.2,1.44,3.2,3.2-1.28,3.2-3.2,3.2c-1.76,0-3.2-1.44-3.2-3.2Zm0,8c0-1.76,1.44-3.2,3.2-3.2s3.2,1.44,3.2,3.2-1.28,3.2-3.2,3.2c-1.76,0-3.2-1.44-3.2-3.2Zm0,8c0-1.76,1.44-3.2,3.2-3.2s3.2,1.44,3.2,3.2-1.28,3.2-3.2,3.2c-1.76,0-3.2-1.44-3.2-3.2Zm0,8c0-1.76,1.44-3.2,3.2-3.2s3.2,1.44,3.2,3.2-1.28,3.2-3.2,3.2c-1.76,0-3.2-1.44-3.2-3.2Zm0,8c0-1.76,1.44-3.2,3.2-3.2s3.2,1.44,3.2,3.2-1.28,3.2-3.2,3.2c-1.76,0-3.2-1.44-3.2-3.2Zm0,8c0-1.76,1.44-3.2,3.2-3.2s3.2,1.44,3.2,3.2-1.28,3.2-3.2,3.2c-1.76,0-3.2-1.44-3.2-3.2Zm0,8c0-1.76,1.44-3.2,3.2-3.2s3.2,1.44,3.2,3.2-1.28,3.2-3.2,3.2c-1.76,0-3.2-1.44-3.2-3.2Zm0,8c0-1.76,1.44-3.2,3.2-3.2s3.2,1.44,3.2,3.2-1.28,3.2-3.2,3.2c-1.76,0-3.2-1.44-3.2-3.2Zm0,8c0-1.76,1.44-3.2,3.2-3.2s3.2,1.44,3.2,3.2-1.28,3.2-3.2,3.2c-1.76,0-3.2-1.44-3.2-3.2Zm0,8c0-1.76,1.44-3.2,3.2-3.2s3.2,1.44,3.2,3.2-1.28,3.2-3.2,3.2c-1.76,0-3.2-1.44-3.2-3.2Zm0,8c0-1.76,1.44-3.2,3.2-3.2s3.2,1.44,3.2,3.2-1.28,3.2-3.2,3.2c-1.76,0-3.2-1.44-3.2-3.2Zm0,8c0-1.76,1.44-3.2,3.2-3.2s3.2,1.44,3.2,3.2-1.28,3.2-3.2,3.2c-1.76,0-3.2-1.44-3.2-3.2Zm0,8c0-1.76,1.44-3.2,3.2-3.2s3.2,1.44,3.2,3.2-1.28,3.2-3.2,3.2c-1.76,0-3.2-1.44-3.2-3.2Zm0,8c0-1.76,1.44-3.2,3.2-3.2s3.2,1.44,3.2,3.2-1.28,3.2-3.2,3.2c-1.76,0-3.2-1.44-3.2-3.2Zm0,8c0-1.76,1.44-3.2,3.2-3.2s3.2,1.44,3.2,3.2-1.28,3.2-3.2,3.2c-1.76,0-3.2-1.44-3.2-3.2Zm0,8c0-1.76,1.44-3.2,3.2-3.2s3.2,1.44,3.2,3.2-1.28,3.2-3.2,3.2c-1.76,0-3.2-1.44-3.2-3.2ZM32,3.2C32,1.44,33.44,0,35.2,0s3.2,1.44,3.2,3.2-1.28,3.2-3.2,3.2c-1.76,0-3.2-1.44-3.2-3.2Zm0,8c0-1.76,1.44-3.2,3.2-3.2s3.2,1.44,3.2,3.2-1.28,3.2-3.2,3.2c-1.76,0-3.2-1.44-3.2-3.2Zm0,8c0-1.76,1.44-3.2,3.2-3.2s3.2,1.44,3.2,3.2-1.28,3.2-3.2,3.2c-1.76,0-3.2-1.44-3.2-3.2Zm0,8c0-1.76,1.44-3.2,3.2-3.2s3.2,1.44,3.2,3.2-1.28,3.2-3.2,3.2c-1.76,0-3.2-1.44-3.2-3.2Zm0,72c0-1.76,1.44-3.2,3.2-3.2s3.2,1.44,3.2,3.2-1.28,3.2-3.2,3.2c-1.76,0-3.2-1.44-3.2-3.2Zm0,8c0-1.76,1.44-3.2,3.2-3.2s3.2,1.44,3.2,3.2-1.28,3.2-3.2,3.2c-1.76,0-3.2-1.44-3.2-3.2Zm0,8c0-1.76,1.44-3.2,3.2-3.2s3.2,1.44,3.2,3.2-1.28,3.2-3.2,3.2c-1.76,0-3.2-1.44-3.2-3.2Zm0,8c0-1.76,1.44-3.2,3.2-3.2s3.2,1.44,3.2,3.2-1.28,3.2-3.2,3.2c-1.76,0-3.2-1.44-3.2-3.2ZM40,3.2C40,1.44,41.44,0,43.2,0s3.2,1.44,3.2,3.2-1.28,3.2-3.2,3.2c-1.76,0-3.2-1.44-3.2-3.2Zm0,8c0-1.76,1.44-3.2,3.2-3.2s3.2,1.44,3.2,3.2-1.28,3.2-3.2,3.2c-1.76,0-3.2-1.44-3.2-3.2Zm0,8c0-1.76,1.44-3.2,3.2-3.2s3.2,1.44,3.2,3.2-1.28,3.2-3.2,3.2c-1.76,0-3.2-1.44-3.2-3.2Zm0,8c0-1.76,1.44-3.2,3.2-3.2s3.2,1.44,3.2,3.2-1.28,3.2-3.2,3.2c-1.76,0-3.2-1.44-3.2-3.2Zm0,8c0-1.76,1.44-3.2,3.2-3.2s3.2,1.44,3.2,3.2-1.28,3.2-3.2,3.2c-1.76,0-3.2-1.44-3.2-3.2Zm0,8c0-1.76,1.44-3.2,3.2-3.2s3.2,1.44,3.2,3.2-1.28,3.2-3.2,3.2c-1.76,0-3.2-1.44-3.2-3.2Zm0,40c0-1.76,1.44-3.2,3.2-3.2s3.2,1.44,3.2,3.2-1.28,3.2-3.2,3.2c-1.76,0-3.2-1.44-3.2-3.2Zm0,8c0-1.76,1.44-3.2,3.2-3.2s3.2,1.44,3.2,3.2-1.28,3.2-3.2,3.2c-1.76,0-3.2-1.44-3.2-3.2Zm0,8c0-1.76,1.44-3.2,3.2-3.2s3.2,1.44,3.2,3.2-1.28,3.2-3.2,3.2c-1.76,0-3.2-1.44-3.2-3.2Zm0,8c0-1.76,1.44-3.2,3.2-3.2s3.2,1.44,3.2,3.2-1.28,3.2-3.2,3.2c-1.76,0-3.2-1.44-3.2-3.2Zm0,8c0-1.76,1.44-3.2,3.2-3.2s3.2,1.44,3.2,3.2-1.28,3.2-3.2,3.2c-1.76,0-3.2-1.44-3.2-3.2Zm0,8c0-1.76,1.44-3.2,3.2-3.2s3.2,1.44,3.2,3.2-1.28,3.2-3.2,3.2c-1.76,0-3.2-1.44-3.2-3.2ZM48,3.2C48,1.44,49.44,0,51.2,0s3.2,1.44,3.2,3.2-1.28,3.2-3.2,3.2c-1.76,0-3.2-1.44-3.2-3.2Zm0,8c0-1.76,1.44-3.2,3.2-3.2s3.2,1.44,3.2,3.2-1.28,3.2-3.2,3.2c-1.76,0-3.2-1.44-3.2-3.2Zm0,8c0-1.76,1.44-3.2,3.2-3.2s3.2,1.44,3.2,3.2-1.28,3.2-3.2,3.2c-1.76,0-3.2-1.44-3.2-3.2Zm0,8c0-1.76,1.44-3.2,3.2-3.2s3.2,1.44,3.2,3.2-1.28,3.2-3.2,3.2c-1.76,0-3.2-1.44-3.2-3.2Zm0,8c0-1.76,1.44-3.2,3.2-3.2s3.2,1.44,3.2,3.2-1.28,3.2-3.2,3.2c-1.76,0-3.2-1.44-3.2-3.2Zm0,8c0-1.76,1.44-3.2,3.2-3.2s3.2,1.44,3.2,3.2-1.28,3.2-3.2,3.2c-1.76,0-3.2-1.44-3.2-3.2Zm0,40c0-1.76,1.44-3.2,3.2-3.2s3.2,1.44,3.2,3.2-1.28,3.2-3.2,3.2c-1.76,0-3.2-1.44-3.2-3.2Zm0,8c0-1.76,1.44-3.2,3.2-3.2s3.2,1.44,3.2,3.2-1.28,3.2-3.2,3.2c-1.76,0-3.2-1.44-3.2-3.2Zm0,8c0-1.76,1.44-3.2,3.2-3.2s3.2,1.44,3.2,3.2-1.28,3.2-3.2,3.2c-1.76,0-3.2-1.44-3.2-3.2Zm0,8c0-1.76,1.44-3.2,3.2-3.2s3.2,1.44,3.2,3.2-1.28,3.2-3.2,3.2c-1.76,0-3.2-1.44-3.2-3.2Zm0,8c0-1.76,1.44-3.2,3.2-3.2s3.2,1.44,3.2,3.2-1.28,3.2-3.2,3.2c-1.76,0-3.2-1.44-3.2-3.2Zm0,8c0-1.76,1.44-3.2,3.2-3.2s3.2,1.44,3.2,3.2-1.28,3.2-3.2,3.2c-1.76,0-3.2-1.44-3.2-3.2ZM56,3.2C56,1.44,57.44,0,59.2,0s3.2,1.44,3.2,3.2-1.28,3.2-3.2,3.2c-1.76,0-3.2-1.44-3.2-3.2Zm0,8c0-1.76,1.44-3.2,3.2-3.2s3.2,1.44,3.2,3.2-1.28,3.2-3.2,3.2c-1.76,0-3.2-1.44-3.2-3.2Zm0,8c0-1.76,1.44-3.2,3.2-3.2s3.2,1.44,3.2,3.2-1.28,3.2-3.2,3.2c-1.76,0-3.2-1.44-3.2-3.2Zm0,8c0-1.76,1.44-3.2,3.2-3.2s3.2,1.44,3.2,3.2-1.28,3.2-3.2,3.2c-1.76,0-3.2-1.44-3.2-3.2Zm0,8c0-1.76,1.44-3.2,3.2-3.2s3.2,1.44,3.2,3.2-1.28,3.2-3.2,3.2c-1.76,0-3.2-1.44-3.2-3.2Zm0,8c0-1.76,1.44-3.2,3.2-3.2s3.2,1.44,3.2,3.2-1.28,3.2-3.2,3.2c-1.76,0-3.2-1.44-3.2-3.2Zm0,40c0-1.76,1.44-3.2,3.2-3.2s3.2,1.44,3.2,3.2-1.28,3.2-3.2,3.2c-1.76,0-3.2-1.44-3.2-3.2Zm0,8c0-1.76,1.44-3.2,3.2-3.2s3.2,1.44,3.2,3.2-1.28,3.2-3.2,3.2c-1.76,0-3.2-1.44-3.2-3.2Zm0,8c0-1.76,1.44-3.2,3.2-3.2s3.2,1.44,3.2,3.2-1.28,3.2-3.2,3.2c-1.76,0-3.2-1.44-3.2-3.2Zm0,8c0-1.76,1.44-3.2,3.2-3.2s3.2,1.44,3.2,3.2-1.28,3.2-3.2,3.2c-1.76,0-3.2-1.44-3.2-3.2Zm0,8c0-1.76,1.44-3.2,3.2-3.2s3.2,1.44,3.2,3.2-1.28,3.2-3.2,3.2c-1.76,0-3.2-1.44-3.2-3.2Zm0,8c0-1.76,1.44-3.2,3.2-3.2s3.2,1.44,3.2,3.2-1.28,3.2-3.2,3.2c-1.76,0-3.2-1.44-3.2-3.2Zm8-112c0-1.76,1.44-3.2,3.2-3.2s3.2,1.44,3.2,3.2-1.28,3.2-3.2,3.2c-1.76,0-3.2-1.44-3.2-3.2Zm0,8c0-1.76,1.44-3.2,3.2-3.2s3.2,1.44,3.2,3.2-1.28,3.2-3.2,3.2c-1.76,0-3.2-1.44-3.2-3.2Zm0,8c0-1.76,1.44-3.2,3.2-3.2s3.2,1.44,3.2,3.2-1.28,3.2-3.2,3.2c-1.76,0-3.2-1.44-3.2-3.2Zm0,8c0-1.76,1.44-3.2,3.2-3.2s3.2,1.44,3.2,3.2-1.28,3.2-3.2,3.2c-1.76,0-3.2-1.44-3.2-3.2Zm0,8c0-1.76,1.44-3.2,3.2-3.2s3.2,1.44,3.2,3.2-1.28,3.2-3.2,3.2c-1.76,0-3.2-1.44-3.2-3.2Zm0,40c0-1.76,1.44-3.2,3.2-3.2s3.2,1.44,3.2,3.2-1.28,3.2-3.2,3.2c-1.76,0-3.2-1.44-3.2-3.2Zm0,8c0-1.76,1.44-3.2,3.2-3.2s3.2,1.44,3.2,3.2-1.28,3.2-3.2,3.2c-1.76,0-3.2-1.44-3.2-3.2Zm0,8c0-1.76,1.44-3.2,3.2-3.2s3.2,1.44,3.2,3.2-1.28,3.2-3.2,3.2c-1.76,0-3.2-1.44-3.2-3.2Zm0,8c0-1.76,1.44-3.2,3.2-3.2s3.2,1.44,3.2,3.2-1.28,3.2-3.2,3.2c-1.76,0-3.2-1.44-3.2-3.2Zm0,8c0-1.76,1.44-3.2,3.2-3.2s3.2,1.44,3.2,3.2-1.28,3.2-3.2,3.2c-1.76,0-3.2-1.44-3.2-3.2Z"/>
        <path class="cls-1" d="m80,11.2c0-1.76,1.44-3.2,3.2-3.2s3.2,1.44,3.2,3.2-1.44,3.2-3.2,3.2-3.2-1.44-3.2-3.2Zm0,8c0-1.76,1.44-3.2,3.2-3.2s3.2,1.44,3.2,3.2-1.44,3.2-3.2,3.2-3.2-1.44-3.2-3.2Zm0,8c0-1.76,1.44-3.2,3.2-3.2s3.2,1.44,3.2,3.2-1.44,3.2-3.2,3.2-3.2-1.44-3.2-3.2Zm0,8c0-1.76,1.44-3.2,3.2-3.2s3.2,1.44,3.2,3.2-1.44,3.2-3.2,3.2-3.2-1.44-3.2-3.2Zm0,8c0-1.76,1.44-3.2,3.2-3.2s3.2,1.44,3.2,3.2-1.44,3.2-3.2,3.2-3.2-1.44-3.2-3.2Zm0,8c0-1.76,1.44-3.2,3.2-3.2s3.2,1.44,3.2,3.2-1.44,3.2-3.2,3.2-3.2-1.44-3.2-3.2Zm0,8c0-1.76,1.44-3.2,3.2-3.2s3.2,1.44,3.2,3.2-1.44,3.2-3.2,3.2-3.2-1.44-3.2-3.2Zm0,8c0-1.76,1.44-3.2,3.2-3.2s3.2,1.44,3.2,3.2-1.44,3.2-3.2,3.2-3.2-1.44-3.2-3.2Zm0,8c0-1.76,1.44-3.2,3.2-3.2s3.2,1.44,3.2,3.2-1.44,3.2-3.2,3.2-3.2-1.44-3.2-3.2Zm0,8c0-1.76,1.44-3.2,3.2-3.2s3.2,1.44,3.2,3.2-1.44,3.2-3.2,3.2-3.2-1.44-3.2-3.2Zm0,8c0-1.76,1.44-3.2,3.2-3.2s3.2,1.44,3.2,3.2-1.44,3.2-3.2,3.2-3.2-1.44-3.2-3.2Zm0,8c0-1.76,1.44-3.2,3.2-3.2s3.2,1.44,3.2,3.2-1.44,3.2-3.2,3.2-3.2-1.44-3.2-3.2Zm0,8c0-1.76,1.44-3.2,3.2-3.2s3.2,1.44,3.2,3.2-1.44,3.2-3.2,3.2-3.2-1.44-3.2-3.2Zm0,8c0-1.76,1.44-3.2,3.2-3.2s3.2,1.44,3.2,3.2-1.44,3.2-3.2,3.2-3.2-1.44-3.2-3.2ZM88,3.2C88,1.44,89.44,0,91.2,0s3.2,1.44,3.2,3.2-1.28,3.2-3.2,3.2c-1.76,0-3.2-1.44-3.2-3.2Zm0,8c0-1.76,1.44-3.2,3.2-3.2s3.2,1.44,3.2,3.2-1.28,3.2-3.2,3.2c-1.76,0-3.2-1.44-3.2-3.2Zm0,8c0-1.76,1.44-3.2,3.2-3.2s3.2,1.44,3.2,3.2-1.28,3.2-3.2,3.2c-1.76,0-3.2-1.44-3.2-3.2Zm0,8c0-1.76,1.44-3.2,3.2-3.2s3.2,1.44,3.2,3.2-1.28,3.2-3.2,3.2c-1.76,0-3.2-1.44-3.2-3.2Zm0,8c0-1.76,1.44-3.2,3.2-3.2s3.2,1.44,3.2,3.2-1.28,3.2-3.2,3.2c-1.76,0-3.2-1.44-3.2-3.2Zm0,8c0-1.76,1.44-3.2,3.2-3.2s3.2,1.44,3.2,3.2-1.28,3.2-3.2,3.2c-1.76,0-3.2-1.44-3.2-3.2Zm0,8c0-1.76,1.44-3.2,3.2-3.2s3.2,1.44,3.2,3.2-1.28,3.2-3.2,3.2c-1.76,0-3.2-1.44-3.2-3.2Zm0,8c0-1.76,1.44-3.2,3.2-3.2s3.2,1.44,3.2,3.2-1.28,3.2-3.2,3.2c-1.76,0-3.2-1.44-3.2-3.2Zm0,8c0-1.76,1.44-3.2,3.2-3.2s3.2,1.44,3.2,3.2-1.28,3.2-3.2,3.2c-1.76,0-3.2-1.44-3.2-3.2Zm0,8c0-1.76,1.44-3.2,3.2-3.2s3.2,1.44,3.2,3.2-1.28,3.2-3.2,3.2c-1.76,0-3.2-1.44-3.2-3.2Zm0,8c0-1.76,1.44-3.2,3.2-3.2s3.2,1.44,3.2,3.2-1.28,3.2-3.2,3.2c-1.76,0-3.2-1.44-3.2-3.2Zm0,8c0-1.76,1.44-3.2,3.2-3.2s3.2,1.44,3.2,3.2-1.28,3.2-3.2,3.2c-1.76,0-3.2-1.44-3.2-3.2Zm0,8c0-1.76,1.44-3.2,3.2-3.2s3.2,1.44,3.2,3.2-1.28,3.2-3.2,3.2c-1.76,0-3.2-1.44-3.2-3.2Zm0,8c0-1.76,1.44-3.2,3.2-3.2s3.2,1.44,3.2,3.2-1.28,3.2-3.2,3.2c-1.76,0-3.2-1.44-3.2-3.2Zm0,8c0-1.76,1.44-3.2,3.2-3.2s3.2,1.44,3.2,3.2-1.28,3.2-3.2,3.2c-1.76,0-3.2-1.44-3.2-3.2Zm0,8c0-1.76,1.44-3.2,3.2-3.2s3.2,1.44,3.2,3.2-1.28,3.2-3.2,3.2c-1.76,0-3.2-1.44-3.2-3.2ZM96,3.2C96,1.44,97.44,0,99.2,0s3.2,1.44,3.2,3.2-1.28,3.2-3.2,3.2c-1.76,0-3.2-1.44-3.2-3.2Zm0,8c0-1.76,1.44-3.2,3.2-3.2s3.2,1.44,3.2,3.2-1.28,3.2-3.2,3.2c-1.76,0-3.2-1.44-3.2-3.2Zm0,8c0-1.76,1.44-3.2,3.2-3.2s3.2,1.44,3.2,3.2-1.28,3.2-3.2,3.2c-1.76,0-3.2-1.44-3.2-3.2Zm0,8c0-1.76,1.44-3.2,3.2-3.2s3.2,1.44,3.2,3.2-1.28,3.2-3.2,3.2c-1.76,0-3.2-1.44-3.2-3.2Zm0,8c0-1.76,1.44-3.2,3.2-3.2s3.2,1.44,3.2,3.2-1.28,3.2-3.2,3.2c-1.76,0-3.2-1.44-3.2-3.2Zm0,8c0-1.76,1.44-3.2,3.2-3.2s3.2,1.44,3.2,3.2-1.28,3.2-3.2,3.2c-1.76,0-3.2-1.44-3.2-3.2Zm0,8c0-1.76,1.44-3.2,3.2-3.2s3.2,1.44,3.2,3.2-1.28,3.2-3.2,3.2c-1.76,0-3.2-1.44-3.2-3.2Zm0,8c0-1.76,1.44-3.2,3.2-3.2s3.2,1.44,3.2,3.2-1.28,3.2-3.2,3.2c-1.76,0-3.2-1.44-3.2-3.2Zm0,8c0-1.76,1.44-3.2,3.2-3.2s3.2,1.44,3.2,3.2-1.28,3.2-3.2,3.2c-1.76,0-3.2-1.44-3.2-3.2Zm0,8c0-1.76,1.44-3.2,3.2-3.2s3.2,1.44,3.2,3.2-1.28,3.2-3.2,3.2c-1.76,0-3.2-1.44-3.2-3.2Zm0,8c0-1.76,1.44-3.2,3.2-3.2s3.2,1.44,3.2,3.2-1.28,3.2-3.2,3.2c-1.76,0-3.2-1.44-3.2-3.2Zm0,8c0-1.76,1.44-3.2,3.2-3.2s3.2,1.44,3.2,3.2-1.28,3.2-3.2,3.2c-1.76,0-3.2-1.44-3.2-3.2Zm0,8c0-1.76,1.44-3.2,3.2-3.2s3.2,1.44,3.2,3.2-1.28,3.2-3.2,3.2c-1.76,0-3.2-1.44-3.2-3.2Zm0,8c0-1.76,1.44-3.2,3.2-3.2s3.2,1.44,3.2,3.2-1.28,3.2-3.2,3.2c-1.76,0-3.2-1.44-3.2-3.2Zm0,8c0-1.76,1.44-3.2,3.2-3.2s3.2,1.44,3.2,3.2-1.28,3.2-3.2,3.2c-1.76,0-3.2-1.44-3.2-3.2Zm0,8c0-1.76,1.44-3.2,3.2-3.2s3.2,1.44,3.2,3.2-1.28,3.2-3.2,3.2c-1.76,0-3.2-1.44-3.2-3.2ZM104,3.2C104,1.44,105.44,0,107.2,0s3.2,1.44,3.2,3.2-1.28,3.2-3.2,3.2c-1.76,0-3.2-1.44-3.2-3.2Zm0,8c0-1.76,1.44-3.2,3.2-3.2s3.2,1.44,3.2,3.2-1.28,3.2-3.2,3.2c-1.76,0-3.2-1.44-3.2-3.2Zm0,8c0-1.76,1.44-3.2,3.2-3.2s3.2,1.44,3.2,3.2-1.28,3.2-3.2,3.2c-1.76,0-3.2-1.44-3.2-3.2Zm0,8c0-1.76,1.44-3.2,3.2-3.2s3.2,1.44,3.2,3.2-1.28,3.2-3.2,3.2c-1.76,0-3.2-1.44-3.2-3.2Zm0,8c0-1.76,1.44-3.2,3.2-3.2s3.2,1.44,3.2,3.2-1.28,3.2-3.2,3.2c-1.76,0-3.2-1.44-3.2-3.2Zm0,8c0-1.76,1.44-3.2,3.2-3.2s3.2,1.44,3.2,3.2-1.28,3.2-3.2,3.2c-1.76,0-3.2-1.44-3.2-3.2Zm0,8c0-1.76,1.44-3.2,3.2-3.2s3.2,1.44,3.2,3.2-1.28,3.2-3.2,3.2c-1.76,0-3.2-1.44-3.2-3.2Zm0,8c0-1.76,1.44-3.2,3.2-3.2s3.2,1.44,3.2,3.2-1.28,3.2-3.2,3.2c-1.76,0-3.2-1.44-3.2-3.2Zm0,8c0-1.76,1.44-3.2,3.2-3.2s3.2,1.44,3.2,3.2-1.28,3.2-3.2,3.2c-1.76,0-3.2-1.44-3.2-3.2Zm0,8c0-1.76,1.44-3.2,3.2-3.2s3.2,1.44,3.2,3.2-1.28,3.2-3.2,3.2c-1.76,0-3.2-1.44-3.2-3.2Zm0,8c0-1.76,1.44-3.2,3.2-3.2s3.2,1.44,3.2,3.2-1.28,3.2-3.2,3.2c-1.76,0-3.2-1.44-3.2-3.2Zm0,8c0-1.76,1.44-3.2,3.2-3.2s3.2,1.44,3.2,3.2-1.28,3.2-3.2,3.2c-1.76,0-3.2-1.44-3.2-3.2Zm0,8c0-1.76,1.44-3.2,3.2-3.2s3.2,1.44,3.2,3.2-1.28,3.2-3.2,3.2c-1.76,0-3.2-1.44-3.2-3.2Zm0,8c0-1.76,1.44-3.2,3.2-3.2s3.2,1.44,3.2,3.2-1.28,3.2-3.2,3.2c-1.76,0-3.2-1.44-3.2-3.2Zm0,8c0-1.76,1.44-3.2,3.2-3.2s3.2,1.44,3.2,3.2-1.28,3.2-3.2,3.2c-1.76,0-3.2-1.44-3.2-3.2Zm0,8c0-1.76,1.44-3.2,3.2-3.2s3.2,1.44,3.2,3.2-1.28,3.2-3.2,3.2c-1.76,0-3.2-1.44-3.2-3.2ZM112,3.2C112,1.44,113.44,0,115.2,0s3.2,1.44,3.2,3.2-1.28,3.2-3.2,3.2c-1.76,0-3.2-1.44-3.2-3.2Zm0,8c0-1.76,1.44-3.2,3.2-3.2s3.2,1.44,3.2,3.2-1.28,3.2-3.2,3.2c-1.76,0-3.2-1.44-3.2-3.2Zm0,8c0-1.76,1.44-3.2,3.2-3.2s3.2,1.44,3.2,3.2-1.28,3.2-3.2,3.2c-1.76,0-3.2-1.44-3.2-3.2Zm0,8c0-1.76,1.44-3.2,3.2-3.2s3.2,1.44,3.2,3.2-1.28,3.2-3.2,3.2c-1.76,0-3.2-1.44-3.2-3.2Zm0,72c0-1.76,1.44-3.2,3.2-3.2s3.2,1.44,3.2,3.2-1.28,3.2-3.2,3.2c-1.76,0-3.2-1.44-3.2-3.2Zm0,8c0-1.76,1.44-3.2,3.2-3.2s3.2,1.44,3.2,3.2-1.28,3.2-3.2,3.2c-1.76,0-3.2-1.44-3.2-3.2Zm0,8c0-1.76,1.44-3.2,3.2-3.2s3.2,1.44,3.2,3.2-1.28,3.2-3.2,3.2c-1.76,0-3.2-1.44-3.2-3.2Zm0,8c0-1.76,1.44-3.2,3.2-3.2s3.2,1.44,3.2,3.2-1.28,3.2-3.2,3.2c-1.76,0-3.2-1.44-3.2-3.2ZM120,3.2C120,1.44,121.44,0,123.2,0s3.2,1.44,3.2,3.2-1.28,3.2-3.2,3.2c-1.76,0-3.2-1.44-3.2-3.2Zm0,8c0-1.76,1.44-3.2,3.2-3.2s3.2,1.44,3.2,3.2-1.28,3.2-3.2,3.2c-1.76,0-3.2-1.44-3.2-3.2Zm0,8c0-1.76,1.44-3.2,3.2-3.2s3.2,1.44,3.2,3.2-1.28,3.2-3.2,3.2c-1.76,0-3.2-1.44-3.2-3.2Zm0,8c0-1.76,1.44-3.2,3.2-3.2s3.2,1.44,3.2,3.2-1.28,3.2-3.2,3.2c-1.76,0-3.2-1.44-3.2-3.2Zm0,8c0-1.76,1.44-3.2,3.2-3.2s3.2,1.44,3.2,3.2-1.28,3.2-3.2,3.2c-1.76,0-3.2-1.44-3.2-3.2Zm0,8c0-1.76,1.44-3.2,3.2-3.2s3.2,1.44,3.2,3.2-1.28,3.2-3.2,3.2c-1.76,0-3.2-1.44-3.2-3.2Zm0,8c0-1.76,1.44-3.2,3.2-3.2s3.2,1.44,3.2,3.2-1.28,3.2-3.2,3.2c-1.76,0-3.2-1.44-3.2-3.2Zm0,8c0-1.76,1.44-3.2,3.2-3.2s3.2,1.44,3.2,3.2-1.28,3.2-3.2,3.2c-1.76,0-3.2-1.44-3.2-3.2Zm0,8c0-1.76,1.44-3.2,3.2-3.2s3.2,1.44,3.2,3.2-1.28,3.2-3.2,3.2c-1.76,0-3.2-1.44-3.2-3.2Zm0,8c0-1.76,1.44-3.2,3.2-3.2s3.2,1.44,3.2,3.2-1.28,3.2-3.2,3.2c-1.76,0-3.2-1.44-3.2-3.2Zm0,8c0-1.76,1.44-3.2,3.2-3.2s3.2,1.44,3.2,3.2-1.28,3.2-3.2,3.2c-1.76,0-3.2-1.44-3.2-3.2Zm0,8c0-1.76,1.44-3.2,3.2-3.2s3.2,1.44,3.2,3.2-1.28,3.2-3.2,3.2c-1.76,0-3.2-1.44-3.2-3.2Zm0,8c0-1.76,1.44-3.2,3.2-3.2s3.2,1.44,3.2,3.2-1.28,3.2-3.2,3.2c-1.76,0-3.2-1.44-3.2-3.2Zm0,8c0-1.76,1.44-3.2,3.2-3.2s3.2,1.44,3.2,3.2-1.28,3.2-3.2,3.2c-1.76,0-3.2-1.44-3.2-3.2Zm0,8c0-1.76,1.44-3.2,3.2-3.2s3.2,1.44,3.2,3.2-1.28,3.2-3.2,3.2c-1.76,0-3.2-1.44-3.2-3.2Zm0,8c0-1.76,1.44-3.2,3.2-3.2s3.2,1.44,3.2,3.2-1.28,3.2-3.2,3.2c-1.76,0-3.2-1.44-3.2-3.2ZM128,3.2C128,1.44,129.44,0,131.2,0s3.2,1.44,3.2,3.2-1.28,3.2-3.2,3.2c-1.76,0-3.2-1.44-3.2-3.2Zm0,8c0-1.76,1.44-3.2,3.2-3.2s3.2,1.44,3.2,3.2-1.28,3.2-3.2,3.2c-1.76,0-3.2-1.44-3.2-3.2Zm0,8c0-1.76,1.44-3.2,3.2-3.2s3.2,1.44,3.2,3.2-1.28,3.2-3.2,3.2c-1.76,0-3.2-1.44-3.2-3.2Zm0,8c0-1.76,1.44-3.2,3.2-3.2s3.2,1.44,3.2,3.2-1.28,3.2-3.2,3.2c-1.76,0-3.2-1.44-3.2-3.2Zm0,8c0-1.76,1.44-3.2,3.2-3.2s3.2,1.44,3.2,3.2-1.28,3.2-3.2,3.2c-1.76,0-3.2-1.44-3.2-3.2Zm0,8c0-1.76,1.44-3.2,3.2-3.2s3.2,1.44,3.2,3.2-1.28,3.2-3.2,3.2c-1.76,0-3.2-1.44-3.2-3.2Zm0,8c0-1.76,1.44-3.2,3.2-3.2s3.2,1.44,3.2,3.2-1.28,3.2-3.2,3.2c-1.76,0-3.2-1.44-3.2-3.2Zm0,8c0-1.76,1.44-3.2,3.2-3.2s3.2,1.44,3.2,3.2-1.28,3.2-3.2,3.2c-1.76,0-3.2-1.44-3.2-3.2Zm0,8c0-1.76,1.44-3.2,3.2-3.2s3.2,1.44,3.2,3.2-1.28,3.2-3.2,3.2c-1.76,0-3.2-1.44-3.2-3.2Zm0,8c0-1.76,1.44-3.2,3.2-3.2s3.2,1.44,3.2,3.2-1.28,3.2-3.2,3.2c-1.76,0-3.2-1.44-3.2-3.2Zm0,8c0-1.76,1.44-3.2,3.2-3.2s3.2,1.44,3.2,3.2-1.28,3.2-3.2,3.2c-1.76,0-3.2-1.44-3.2-3.2Zm0,8c0-1.76,1.44-3.2,3.2-3.2s3.2,1.44,3.2,3.2-1.28,3.2-3.2,3.2c-1.76,0-3.2-1.44-3.2-3.2Zm0,8c0-1.76,1.44-3.2,3.2-3.2s3.2,1.44,3.2,3.2-1.28,3.2-3.2,3.2c-1.76,0-3.2-1.44-3.2-3.2Zm0,8c0-1.76,1.44-3.2,3.2-3.2s3.2,1.44,3.2,3.2-1.28,3.2-3.2,3.2c-1.76,0-3.2-1.44-3.2-3.2Zm0,8c0-1.76,1.44-3.2,3.2-3.2s3.2,1.44,3.2,3.2-1.28,3.2-3.2,3.2c-1.76,0-3.2-1.44-3.2-3.2Zm0,8c0-1.76,1.44-3.2,3.2-3.2s3.2,1.44,3.2,3.2-1.28,3.2-3.2,3.2c-1.76,0-3.2-1.44-3.2-3.2ZM136,3.2C136,1.44,137.44,0,139.2,0s3.2,1.44,3.2,3.2-1.28,3.2-3.2,3.2c-1.76,0-3.2-1.44-3.2-3.2Zm0,8c0-1.76,1.44-3.2,3.2-3.2s3.2,1.44,3.2,3.2-1.28,3.2-3.2,3.2c-1.76,0-3.2-1.44-3.2-3.2Zm0,8c0-1.76,1.44-3.2,3.2-3.2s3.2,1.44,3.2,3.2-1.28,3.2-3.2,3.2c-1.76,0-3.2-1.44-3.2-3.2Zm0,8c0-1.76,1.44-3.2,3.2-3.2s3.2,1.44,3.2,3.2-1.28,3.2-3.2,3.2c-1.76,0-3.2-1.44-3.2-3.2Zm0,8c0-1.76,1.44-3.2,3.2-3.2s3.2,1.44,3.2,3.2-1.28,3.2-3.2,3.2c-1.76,0-3.2-1.44-3.2-3.2Zm0,8c0-1.76,1.44-3.2,3.2-3.2s3.2,1.44,3.2,3.2-1.28,3.2-3.2,3.2c-1.76,0-3.2-1.44-3.2-3.2Zm0,8c0-1.76,1.44-3.2,3.2-3.2s3.2,1.44,3.2,3.2-1.28,3.2-3.2,3.2c-1.76,0-3.2-1.44-3.2-3.2Zm0,8c0-1.76,1.44-3.2,3.2-3.2s3.2,1.44,3.2,3.2-1.28,3.2-3.2,3.2c-1.76,0-3.2-1.44-3.2-3.2Zm0,8c0-1.76,1.44-3.2,3.2-3.2s3.2,1.44,3.2,3.2-1.28,3.2-3.2,3.2c-1.76,0-3.2-1.44-3.2-3.2Zm0,8c0-1.76,1.44-3.2,3.2-3.2s3.2,1.44,3.2,3.2-1.28,3.2-3.2,3.2c-1.76,0-3.2-1.44-3.2-3.2Zm0,8c0-1.76,1.44-3.2,3.2-3.2s3.2,1.44,3.2,3.2-1.28,3.2-3.2,3.2c-1.76,0-3.2-1.44-3.2-3.2Zm0,8c0-1.76,1.44-3.2,3.2-3.2s3.2,1.44,3.2,3.2-1.28,3.2-3.2,3.2c-1.76,0-3.2-1.44-3.2-3.2Zm0,8c0-1.76,1.44-3.2,3.2-3.2s3.2,1.44,3.2,3.2-1.28,3.2-3.2,3.2c-1.76,0-3.2-1.44-3.2-3.2Zm0,8c0-1.76,1.44-3.2,3.2-3.2s3.2,1.44,3.2,3.2-1.28,3.2-3.2,3.2c-1.76,0-3.2-1.44-3.2-3.2Zm0,8c0-1.76,1.44-3.2,3.2-3.2s3.2,1.44,3.2,3.2-1.28,3.2-3.2,3.2c-1.76,0-3.2-1.44-3.2-3.2Zm0,8c0-1.76,1.44-3.2,3.2-3.2s3.2,1.44,3.2,3.2-1.28,3.2-3.2,3.2c-1.76,0-3.2-1.44-3.2-3.2Zm8-112c0-1.76,1.44-3.2,3.2-3.2s3.2,1.44,3.2,3.2-1.28,3.2-3.2,3.2c-1.76,0-3.2-1.44-3.2-3.2Zm0,8c0-1.76,1.44-3.2,3.2-3.2s3.2,1.44,3.2,3.2-1.28,3.2-3.2,3.2c-1.76,0-3.2-1.44-3.2-3.2Zm0,8c0-1.76,1.44-3.2,3.2-3.2s3.2,1.44,3.2,3.2-1.28,3.2-3.2,3.2c-1.76,0-3.2-1.44-3.2-3.2Zm0,8c0-1.76,1.44-3.2,3.2-3.2s3.2,1.44,3.2,3.2-1.28,3.2-3.2,3.2c-1.76,0-3.2-1.44-3.2-3.2Zm0,8c0-1.76,1.44-3.2,3.2-3.2s3.2,1.44,3.2,3.2-1.28,3.2-3.2,3.2c-1.76,0-3.2-1.44-3.2-3.2Zm0,8c0-1.76,1.44-3.2,3.2-3.2s3.2,1.44,3.2,3.2-1.28,3.2-3.2,3.2c-1.76,0-3.2-1.44-3.2-3.2Zm0,8c0-1.76,1.44-3.2,3.2-3.2s3.2,1.44,3.2,3.2-1.28,3.2-3.2,3.2c-1.76,0-3.2-1.44-3.2-3.2Zm0,8c0-1.76,1.44-3.2,3.2-3.2s3.2,1.44,3.2,3.2-1.28,3.2-3.2,3.2c-1.76,0-3.2-1.44-3.2-3.2Zm0,8c0-1.76,1.44-3.2,3.2-3.2s3.2,1.44,3.2,3.2-1.28,3.2-3.2,3.2c-1.76,0-3.2-1.44-3.2-3.2Zm0,8c0-1.76,1.44-3.2,3.2-3.2s3.2,1.44,3.2,3.2-1.28,3.2-3.2,3.2c-1.76,0-3.2-1.44-3.2-3.2Zm0,8c0-1.76,1.44-3.2,3.2-3.2s3.2,1.44,3.2,3.2-1.28,3.2-3.2,3.2c-1.76,0-3.2-1.44-3.2-3.2Zm0,8c0-1.76,1.44-3.2,3.2-3.2s3.2,1.44,3.2,3.2-1.28,3.2-3.2,3.2c-1.76,0-3.2-1.44-3.2-3.2Zm0,8c0-1.76,1.44-3.2,3.2-3.2s3.2,1.44,3.2,3.2-1.28,3.2-3.2,3.2c-1.76,0-3.2-1.44-3.2-3.2Zm0,8c0-1.76,1.44-3.2,3.2-3.2s3.2,1.44,3.2,3.2-1.28,3.2-3.2,3.2c-1.76,0-3.2-1.44-3.2-3.2Z"/>
        <path class="cls-1" d="m160,3.2C160,1.44,161.44,0,163.2,0s3.2,1.44,3.2,3.2-1.44,3.2-3.2,3.2-3.2-1.44-3.2-3.2Zm0,8c0-1.76,1.44-3.2,3.2-3.2s3.2,1.44,3.2,3.2-1.44,3.2-3.2,3.2-3.2-1.44-3.2-3.2Zm0,8c0-1.76,1.44-3.2,3.2-3.2s3.2,1.44,3.2,3.2-1.44,3.2-3.2,3.2-3.2-1.44-3.2-3.2Zm0,8c0-1.76,1.44-3.2,3.2-3.2s3.2,1.44,3.2,3.2-1.44,3.2-3.2,3.2-3.2-1.44-3.2-3.2Zm0,8c0-1.76,1.44-3.2,3.2-3.2s3.2,1.44,3.2,3.2-1.44,3.2-3.2,3.2-3.2-1.44-3.2-3.2Zm0,8c0-1.76,1.44-3.2,3.2-3.2s3.2,1.44,3.2,3.2-1.44,3.2-3.2,3.2-3.2-1.44-3.2-3.2Zm0,8c0-1.76,1.44-3.2,3.2-3.2s3.2,1.44,3.2,3.2-1.44,3.2-3.2,3.2-3.2-1.44-3.2-3.2Zm0,8c0-1.76,1.44-3.2,3.2-3.2s3.2,1.44,3.2,3.2-1.44,3.2-3.2,3.2-3.2-1.44-3.2-3.2Zm0,8c0-1.76,1.44-3.2,3.2-3.2s3.2,1.44,3.2,3.2-1.44,3.2-3.2,3.2-3.2-1.44-3.2-3.2Zm0,8c0-1.76,1.44-3.2,3.2-3.2s3.2,1.44,3.2,3.2-1.44,3.2-3.2,3.2-3.2-1.44-3.2-3.2Zm0,8c0-1.76,1.44-3.2,3.2-3.2s3.2,1.44,3.2,3.2-1.44,3.2-3.2,3.2-3.2-1.44-3.2-3.2Zm0,8c0-1.76,1.44-3.2,3.2-3.2s3.2,1.44,3.2,3.2-1.44,3.2-3.2,3.2-3.2-1.44-3.2-3.2Zm0,8c0-1.76,1.44-3.2,3.2-3.2s3.2,1.44,3.2,3.2-1.44,3.2-3.2,3.2-3.2-1.44-3.2-3.2Zm0,8c0-1.76,1.44-3.2,3.2-3.2s3.2,1.44,3.2,3.2-1.44,3.2-3.2,3.2-3.2-1.44-3.2-3.2Zm0,8c0-1.76,1.44-3.2,3.2-3.2s3.2,1.44,3.2,3.2-1.44,3.2-3.2,3.2-3.2-1.44-3.2-3.2Zm0,8c0-1.76,1.44-3.2,3.2-3.2s3.2,1.44,3.2,3.2-1.44,3.2-3.2,3.2-3.2-1.44-3.2-3.2ZM168,3.2C168,1.44,169.44,0,171.2,0s3.2,1.44,3.2,3.2-1.28,3.2-3.2,3.2c-1.76,0-3.2-1.44-3.2-3.2Zm0,8c0-1.76,1.44-3.2,3.2-3.2s3.2,1.44,3.2,3.2-1.28,3.2-3.2,3.2c-1.76,0-3.2-1.44-3.2-3.2Zm0,8c0-1.76,1.44-3.2,3.2-3.2s3.2,1.44,3.2,3.2-1.28,3.2-3.2,3.2c-1.76,0-3.2-1.44-3.2-3.2Zm0,8c0-1.76,1.44-3.2,3.2-3.2s3.2,1.44,3.2,3.2-1.28,3.2-3.2,3.2c-1.76,0-3.2-1.44-3.2-3.2Zm0,8c0-1.76,1.44-3.2,3.2-3.2s3.2,1.44,3.2,3.2-1.28,3.2-3.2,3.2c-1.76,0-3.2-1.44-3.2-3.2Zm0,8c0-1.76,1.44-3.2,3.2-3.2s3.2,1.44,3.2,3.2-1.28,3.2-3.2,3.2c-1.76,0-3.2-1.44-3.2-3.2Zm0,8c0-1.76,1.44-3.2,3.2-3.2s3.2,1.44,3.2,3.2-1.28,3.2-3.2,3.2c-1.76,0-3.2-1.44-3.2-3.2Zm0,8c0-1.76,1.44-3.2,3.2-3.2s3.2,1.44,3.2,3.2-1.28,3.2-3.2,3.2c-1.76,0-3.2-1.44-3.2-3.2Zm0,8c0-1.76,1.44-3.2,3.2-3.2s3.2,1.44,3.2,3.2-1.28,3.2-3.2,3.2c-1.76,0-3.2-1.44-3.2-3.2Zm0,8c0-1.76,1.44-3.2,3.2-3.2s3.2,1.44,3.2,3.2-1.28,3.2-3.2,3.2c-1.76,0-3.2-1.44-3.2-3.2Zm0,8c0-1.76,1.44-3.2,3.2-3.2s3.2,1.44,3.2,3.2-1.28,3.2-3.2,3.2c-1.76,0-3.2-1.44-3.2-3.2Zm0,8c0-1.76,1.44-3.2,3.2-3.2s3.2,1.44,3.2,3.2-1.28,3.2-3.2,3.2c-1.76,0-3.2-1.44-3.2-3.2Zm0,8c0-1.76,1.44-3.2,3.2-3.2s3.2,1.44,3.2,3.2-1.28,3.2-3.2,3.2c-1.76,0-3.2-1.44-3.2-3.2Zm0,8c0-1.76,1.44-3.2,3.2-3.2s3.2,1.44,3.2,3.2-1.28,3.2-3.2,3.2c-1.76,0-3.2-1.44-3.2-3.2Zm0,8c0-1.76,1.44-3.2,3.2-3.2s3.2,1.44,3.2,3.2-1.28,3.2-3.2,3.2c-1.76,0-3.2-1.44-3.2-3.2Zm0,8c0-1.76,1.44-3.2,3.2-3.2s3.2,1.44,3.2,3.2-1.28,3.2-3.2,3.2c-1.76,0-3.2-1.44-3.2-3.2ZM176,3.2C176,1.44,177.44,0,179.2,0s3.2,1.44,3.2,3.2-1.28,3.2-3.2,3.2c-1.76,0-3.2-1.44-3.2-3.2Zm0,8c0-1.76,1.44-3.2,3.2-3.2s3.2,1.44,3.2,3.2-1.28,3.2-3.2,3.2c-1.76,0-3.2-1.44-3.2-3.2Zm0,8c0-1.76,1.44-3.2,3.2-3.2s3.2,1.44,3.2,3.2-1.28,3.2-3.2,3.2c-1.76,0-3.2-1.44-3.2-3.2Zm0,8c0-1.76,1.44-3.2,3.2-3.2s3.2,1.44,3.2,3.2-1.28,3.2-3.2,3.2c-1.76,0-3.2-1.44-3.2-3.2Zm0,8c0-1.76,1.44-3.2,3.2-3.2s3.2,1.44,3.2,3.2-1.28,3.2-3.2,3.2c-1.76,0-3.2-1.44-3.2-3.2Zm0,8c0-1.76,1.44-3.2,3.2-3.2s3.2,1.44,3.2,3.2-1.28,3.2-3.2,3.2c-1.76,0-3.2-1.44-3.2-3.2Zm0,8c0-1.76,1.44-3.2,3.2-3.2s3.2,1.44,3.2,3.2-1.28,3.2-3.2,3.2c-1.76,0-3.2-1.44-3.2-3.2Zm0,8c0-1.76,1.44-3.2,3.2-3.2s3.2,1.44,3.2,3.2-1.28,3.2-3.2,3.2c-1.76,0-3.2-1.44-3.2-3.2Zm0,8c0-1.76,1.44-3.2,3.2-3.2s3.2,1.44,3.2,3.2-1.28,3.2-3.2,3.2c-1.76,0-3.2-1.44-3.2-3.2Zm0,8c0-1.76,1.44-3.2,3.2-3.2s3.2,1.44,3.2,3.2-1.28,3.2-3.2,3.2c-1.76,0-3.2-1.44-3.2-3.2Zm0,8c0-1.76,1.44-3.2,3.2-3.2s3.2,1.44,3.2,3.2-1.28,3.2-3.2,3.2c-1.76,0-3.2-1.44-3.2-3.2Zm0,8c0-1.76,1.44-3.2,3.2-3.2s3.2,1.44,3.2,3.2-1.28,3.2-3.2,3.2c-1.76,0-3.2-1.44-3.2-3.2Zm0,8c0-1.76,1.44-3.2,3.2-3.2s3.2,1.44,3.2,3.2-1.28,3.2-3.2,3.2c-1.76,0-3.2-1.44-3.2-3.2Zm0,8c0-1.76,1.44-3.2,3.2-3.2s3.2,1.44,3.2,3.2-1.28,3.2-3.2,3.2c-1.76,0-3.2-1.44-3.2-3.2Zm0,8c0-1.76,1.44-3.2,3.2-3.2s3.2,1.44,3.2,3.2-1.28,3.2-3.2,3.2c-1.76,0-3.2-1.44-3.2-3.2Zm0,8c0-1.76,1.44-3.2,3.2-3.2s3.2,1.44,3.2,3.2-1.28,3.2-3.2,3.2c-1.76,0-3.2-1.44-3.2-3.2ZM184,3.2C184,1.44,185.44,0,187.2,0s3.2,1.44,3.2,3.2-1.28,3.2-3.2,3.2c-1.76,0-3.2-1.44-3.2-3.2Zm0,8c0-1.76,1.44-3.2,3.2-3.2s3.2,1.44,3.2,3.2-1.28,3.2-3.2,3.2c-1.76,0-3.2-1.44-3.2-3.2Zm0,8c0-1.76,1.44-3.2,3.2-3.2s3.2,1.44,3.2,3.2-1.28,3.2-3.2,3.2c-1.76,0-3.2-1.44-3.2-3.2Zm0,8c0-1.76,1.44-3.2,3.2-3.2s3.2,1.44,3.2,3.2-1.28,3.2-3.2,3.2c-1.76,0-3.2-1.44-3.2-3.2Zm0,8c0-1.76,1.44-3.2,3.2-3.2s3.2,1.44,3.2,3.2-1.28,3.2-3.2,3.2c-1.76,0-3.2-1.44-3.2-3.2Zm0,8c0-1.76,1.44-3.2,3.2-3.2s3.2,1.44,3.2,3.2-1.28,3.2-3.2,3.2c-1.76,0-3.2-1.44-3.2-3.2Zm0,8c0-1.76,1.44-3.2,3.2-3.2s3.2,1.44,3.2,3.2-1.28,3.2-3.2,3.2c-1.76,0-3.2-1.44-3.2-3.2Zm0,8c0-1.76,1.44-3.2,3.2-3.2s3.2,1.44,3.2,3.2-1.28,3.2-3.2,3.2c-1.76,0-3.2-1.44-3.2-3.2Zm0,8c0-1.76,1.44-3.2,3.2-3.2s3.2,1.44,3.2,3.2-1.28,3.2-3.2,3.2c-1.76,0-3.2-1.44-3.2-3.2Zm0,8c0-1.76,1.44-3.2,3.2-3.2s3.2,1.44,3.2,3.2-1.28,3.2-3.2,3.2c-1.76,0-3.2-1.44-3.2-3.2Zm0,8c0-1.76,1.44-3.2,3.2-3.2s3.2,1.44,3.2,3.2-1.28,3.2-3.2,3.2c-1.76,0-3.2-1.44-3.2-3.2Zm0,8c0-1.76,1.44-3.2,3.2-3.2s3.2,1.44,3.2,3.2-1.28,3.2-3.2,3.2c-1.76,0-3.2-1.44-3.2-3.2Zm0,8c0-1.76,1.44-3.2,3.2-3.2s3.2,1.44,3.2,3.2-1.28,3.2-3.2,3.2c-1.76,0-3.2-1.44-3.2-3.2Zm0,8c0-1.76,1.44-3.2,3.2-3.2s3.2,1.44,3.2,3.2-1.28,3.2-3.2,3.2c-1.76,0-3.2-1.44-3.2-3.2Zm0,8c0-1.76,1.44-3.2,3.2-3.2s3.2,1.44,3.2,3.2-1.28,3.2-3.2,3.2c-1.76,0-3.2-1.44-3.2-3.2Zm0,8c0-1.76,1.44-3.2,3.2-3.2s3.2,1.44,3.2,3.2-1.28,3.2-3.2,3.2c-1.76,0-3.2-1.44-3.2-3.2Zm8-24c0-1.76,1.44-3.2,3.2-3.2s3.2,1.44,3.2,3.2-1.28,3.2-3.2,3.2c-1.76,0-3.2-1.44-3.2-3.2Zm0,8c0-1.76,1.44-3.2,3.2-3.2s3.2,1.44,3.2,3.2-1.28,3.2-3.2,3.2c-1.76,0-3.2-1.44-3.2-3.2Zm0,8c0-1.76,1.44-3.2,3.2-3.2s3.2,1.44,3.2,3.2-1.28,3.2-3.2,3.2c-1.76,0-3.2-1.44-3.2-3.2Zm0,8c0-1.76,1.44-3.2,3.2-3.2s3.2,1.44,3.2,3.2-1.28,3.2-3.2,3.2c-1.76,0-3.2-1.44-3.2-3.2Zm8-24c0-1.76,1.44-3.2,3.2-3.2s3.2,1.44,3.2,3.2-1.28,3.2-3.2,3.2c-1.76,0-3.2-1.44-3.2-3.2Zm0,8c0-1.76,1.44-3.2,3.2-3.2s3.2,1.44,3.2,3.2-1.28,3.2-3.2,3.2c-1.76,0-3.2-1.44-3.2-3.2Zm0,8c0-1.76,1.44-3.2,3.2-3.2s3.2,1.44,3.2,3.2-1.28,3.2-3.2,3.2c-1.76,0-3.2-1.44-3.2-3.2Zm0,8c0-1.76,1.44-3.2,3.2-3.2s3.2,1.44,3.2,3.2-1.28,3.2-3.2,3.2c-1.76,0-3.2-1.44-3.2-3.2Zm8-24c0-1.76,1.44-3.2,3.2-3.2s3.2,1.44,3.2,3.2-1.28,3.2-3.2,3.2c-1.76,0-3.2-1.44-3.2-3.2Zm0,8c0-1.76,1.44-3.2,3.2-3.2s3.2,1.44,3.2,3.2-1.28,3.2-3.2,3.2c-1.76,0-3.2-1.44-3.2-3.2Zm0,8c0-1.76,1.44-3.2,3.2-3.2s3.2,1.44,3.2,3.2-1.28,3.2-3.2,3.2c-1.76,0-3.2-1.44-3.2-3.2Zm0,8c0-1.76,1.44-3.2,3.2-3.2s3.2,1.44,3.2,3.2-1.28,3.2-3.2,3.2c-1.76,0-3.2-1.44-3.2-3.2Z"/>
        <path class="cls-1" d="m224,3.2C224,1.44,225.44,0,227.2,0s3.2,1.44,3.2,3.2-1.44,3.2-3.2,3.2-3.2-1.44-3.2-3.2Zm0,8c0-1.76,1.44-3.2,3.2-3.2s3.2,1.44,3.2,3.2-1.44,3.2-3.2,3.2-3.2-1.44-3.2-3.2Zm0,8c0-1.76,1.44-3.2,3.2-3.2s3.2,1.44,3.2,3.2-1.44,3.2-3.2,3.2-3.2-1.44-3.2-3.2Zm0,8c0-1.76,1.44-3.2,3.2-3.2s3.2,1.44,3.2,3.2-1.44,3.2-3.2,3.2-3.2-1.44-3.2-3.2Zm0,8c0-1.76,1.44-3.2,3.2-3.2s3.2,1.44,3.2,3.2-1.44,3.2-3.2,3.2-3.2-1.44-3.2-3.2Zm0,8c0-1.76,1.44-3.2,3.2-3.2s3.2,1.44,3.2,3.2-1.44,3.2-3.2,3.2-3.2-1.44-3.2-3.2Zm0,8c0-1.76,1.44-3.2,3.2-3.2s3.2,1.44,3.2,3.2-1.44,3.2-3.2,3.2-3.2-1.44-3.2-3.2Zm0,8c0-1.76,1.44-3.2,3.2-3.2s3.2,1.44,3.2,3.2-1.44,3.2-3.2,3.2-3.2-1.44-3.2-3.2Zm0,8c0-1.76,1.44-3.2,3.2-3.2s3.2,1.44,3.2,3.2-1.44,3.2-3.2,3.2-3.2-1.44-3.2-3.2Zm0,8c0-1.76,1.44-3.2,3.2-3.2s3.2,1.44,3.2,3.2-1.44,3.2-3.2,3.2-3.2-1.44-3.2-3.2Zm0,8c0-1.76,1.44-3.2,3.2-3.2s3.2,1.44,3.2,3.2-1.44,3.2-3.2,3.2-3.2-1.44-3.2-3.2Zm0,8c0-1.76,1.44-3.2,3.2-3.2s3.2,1.44,3.2,3.2-1.44,3.2-3.2,3.2-3.2-1.44-3.2-3.2Zm0,8c0-1.76,1.44-3.2,3.2-3.2s3.2,1.44,3.2,3.2-1.44,3.2-3.2,3.2-3.2-1.44-3.2-3.2Zm0,8c0-1.76,1.44-3.2,3.2-3.2s3.2,1.44,3.2,3.2-1.44,3.2-3.2,3.2-3.2-1.44-3.2-3.2Zm0,8c0-1.76,1.44-3.2,3.2-3.2s3.2,1.44,3.2,3.2-1.44,3.2-3.2,3.2-3.2-1.44-3.2-3.2Zm0,8c0-1.76,1.44-3.2,3.2-3.2s3.2,1.44,3.2,3.2-1.44,3.2-3.2,3.2-3.2-1.44-3.2-3.2ZM232,3.2C232,1.44,233.44,0,235.2,0s3.2,1.44,3.2,3.2-1.28,3.2-3.2,3.2c-1.76,0-3.2-1.44-3.2-3.2Zm0,8c0-1.76,1.44-3.2,3.2-3.2s3.2,1.44,3.2,3.2-1.28,3.2-3.2,3.2c-1.76,0-3.2-1.44-3.2-3.2Zm0,8c0-1.76,1.44-3.2,3.2-3.2s3.2,1.44,3.2,3.2-1.28,3.2-3.2,3.2c-1.76,0-3.2-1.44-3.2-3.2Zm0,8c0-1.76,1.44-3.2,3.2-3.2s3.2,1.44,3.2,3.2-1.28,3.2-3.2,3.2c-1.76,0-3.2-1.44-3.2-3.2Zm0,8c0-1.76,1.44-3.2,3.2-3.2s3.2,1.44,3.2,3.2-1.28,3.2-3.2,3.2c-1.76,0-3.2-1.44-3.2-3.2Zm0,8c0-1.76,1.44-3.2,3.2-3.2s3.2,1.44,3.2,3.2-1.28,3.2-3.2,3.2c-1.76,0-3.2-1.44-3.2-3.2Zm0,8c0-1.76,1.44-3.2,3.2-3.2s3.2,1.44,3.2,3.2-1.28,3.2-3.2,3.2c-1.76,0-3.2-1.44-3.2-3.2Zm0,8c0-1.76,1.44-3.2,3.2-3.2s3.2,1.44,3.2,3.2-1.28,3.2-3.2,3.2c-1.76,0-3.2-1.44-3.2-3.2Zm0,8c0-1.76,1.44-3.2,3.2-3.2s3.2,1.44,3.2,3.2-1.28,3.2-3.2,3.2c-1.76,0-3.2-1.44-3.2-3.2Zm0,8c0-1.76,1.44-3.2,3.2-3.2s3.2,1.44,3.2,3.2-1.28,3.2-3.2,3.2c-1.76,0-3.2-1.44-3.2-3.2Zm0,8c0-1.76,1.44-3.2,3.2-3.2s3.2,1.44,3.2,3.2-1.28,3.2-3.2,3.2c-1.76,0-3.2-1.44-3.2-3.2Zm0,8c0-1.76,1.44-3.2,3.2-3.2s3.2,1.44,3.2,3.2-1.28,3.2-3.2,3.2c-1.76,0-3.2-1.44-3.2-3.2Zm0,8c0-1.76,1.44-3.2,3.2-3.2s3.2,1.44,3.2,3.2-1.28,3.2-3.2,3.2c-1.76,0-3.2-1.44-3.2-3.2Zm0,8c0-1.76,1.44-3.2,3.2-3.2s3.2,1.44,3.2,3.2-1.28,3.2-3.2,3.2c-1.76,0-3.2-1.44-3.2-3.2Zm0,8c0-1.76,1.44-3.2,3.2-3.2s3.2,1.44,3.2,3.2-1.28,3.2-3.2,3.2c-1.76,0-3.2-1.44-3.2-3.2Zm0,8c0-1.76,1.44-3.2,3.2-3.2s3.2,1.44,3.2,3.2-1.28,3.2-3.2,3.2c-1.76,0-3.2-1.44-3.2-3.2ZM240,3.2C240,1.44,241.44,0,243.2,0s3.2,1.44,3.2,3.2-1.28,3.2-3.2,3.2c-1.76,0-3.2-1.44-3.2-3.2Zm0,8c0-1.76,1.44-3.2,3.2-3.2s3.2,1.44,3.2,3.2-1.28,3.2-3.2,3.2c-1.76,0-3.2-1.44-3.2-3.2Zm0,8c0-1.76,1.44-3.2,3.2-3.2s3.2,1.44,3.2,3.2-1.28,3.2-3.2,3.2c-1.76,0-3.2-1.44-3.2-3.2Zm0,8c0-1.76,1.44-3.2,3.2-3.2s3.2,1.44,3.2,3.2-1.28,3.2-3.2,3.2c-1.76,0-3.2-1.44-3.2-3.2Zm0,8c0-1.76,1.44-3.2,3.2-3.2s3.2,1.44,3.2,3.2-1.28,3.2-3.2,3.2c-1.76,0-3.2-1.44-3.2-3.2Zm0,8c0-1.76,1.44-3.2,3.2-3.2s3.2,1.44,3.2,3.2-1.28,3.2-3.2,3.2c-1.76,0-3.2-1.44-3.2-3.2Zm0,8c0-1.76,1.44-3.2,3.2-3.2s3.2,1.44,3.2,3.2-1.28,3.2-3.2,3.2c-1.76,0-3.2-1.44-3.2-3.2Zm0,8c0-1.76,1.44-3.2,3.2-3.2s3.2,1.44,3.2,3.2-1.28,3.2-3.2,3.2c-1.76,0-3.2-1.44-3.2-3.2Zm0,8c0-1.76,1.44-3.2,3.2-3.2s3.2,1.44,3.2,3.2-1.28,3.2-3.2,3.2c-1.76,0-3.2-1.44-3.2-3.2Zm0,8c0-1.76,1.44-3.2,3.2-3.2s3.2,1.44,3.2,3.2-1.28,3.2-3.2,3.2c-1.76,0-3.2-1.44-3.2-3.2Zm0,8c0-1.76,1.44-3.2,3.2-3.2s3.2,1.44,3.2,3.2-1.28,3.2-3.2,3.2c-1.76,0-3.2-1.44-3.2-3.2Zm0,8c0-1.76,1.44-3.2,3.2-3.2s3.2,1.44,3.2,3.2-1.28,3.2-3.2,3.2c-1.76,0-3.2-1.44-3.2-3.2Zm0,8c0-1.76,1.44-3.2,3.2-3.2s3.2,1.44,3.2,3.2-1.28,3.2-3.2,3.2c-1.76,0-3.2-1.44-3.2-3.2Zm0,8c0-1.76,1.44-3.2,3.2-3.2s3.2,1.44,3.2,3.2-1.28,3.2-3.2,3.2c-1.76,0-3.2-1.44-3.2-3.2Zm0,8c0-1.76,1.44-3.2,3.2-3.2s3.2,1.44,3.2,3.2-1.28,3.2-3.2,3.2c-1.76,0-3.2-1.44-3.2-3.2Zm0,8c0-1.76,1.44-3.2,3.2-3.2s3.2,1.44,3.2,3.2-1.28,3.2-3.2,3.2c-1.76,0-3.2-1.44-3.2-3.2ZM248,3.2C248,1.44,249.44,0,251.2,0s3.2,1.44,3.2,3.2-1.28,3.2-3.2,3.2c-1.76,0-3.2-1.44-3.2-3.2Zm0,8c0-1.76,1.44-3.2,3.2-3.2s3.2,1.44,3.2,3.2-1.28,3.2-3.2,3.2c-1.76,0-3.2-1.44-3.2-3.2Zm0,8c0-1.76,1.44-3.2,3.2-3.2s3.2,1.44,3.2,3.2-1.28,3.2-3.2,3.2c-1.76,0-3.2-1.44-3.2-3.2Zm0,8c0-1.76,1.44-3.2,3.2-3.2s3.2,1.44,3.2,3.2-1.28,3.2-3.2,3.2c-1.76,0-3.2-1.44-3.2-3.2Zm0,8c0-1.76,1.44-3.2,3.2-3.2s3.2,1.44,3.2,3.2-1.28,3.2-3.2,3.2c-1.76,0-3.2-1.44-3.2-3.2Zm0,8c0-1.76,1.44-3.2,3.2-3.2s3.2,1.44,3.2,3.2-1.28,3.2-3.2,3.2c-1.76,0-3.2-1.44-3.2-3.2Zm0,8c0-1.76,1.44-3.2,3.2-3.2s3.2,1.44,3.2,3.2-1.28,3.2-3.2,3.2c-1.76,0-3.2-1.44-3.2-3.2Zm0,8c0-1.76,1.44-3.2,3.2-3.2s3.2,1.44,3.2,3.2-1.28,3.2-3.2,3.2c-1.76,0-3.2-1.44-3.2-3.2Zm0,8c0-1.76,1.44-3.2,3.2-3.2s3.2,1.44,3.2,3.2-1.28,3.2-3.2,3.2c-1.76,0-3.2-1.44-3.2-3.2Zm0,8c0-1.76,1.44-3.2,3.2-3.2s3.2,1.44,3.2,3.2-1.28,3.2-3.2,3.2c-1.76,0-3.2-1.44-3.2-3.2Zm0,8c0-1.76,1.44-3.2,3.2-3.2s3.2,1.44,3.2,3.2-1.28,3.2-3.2,3.2c-1.76,0-3.2-1.44-3.2-3.2Zm0,8c0-1.76,1.44-3.2,3.2-3.2s3.2,1.44,3.2,3.2-1.28,3.2-3.2,3.2c-1.76,0-3.2-1.44-3.2-3.2Zm0,8c0-1.76,1.44-3.2,3.2-3.2s3.2,1.44,3.2,3.2-1.28,3.2-3.2,3.2c-1.76,0-3.2-1.44-3.2-3.2Zm0,8c0-1.76,1.44-3.2,3.2-3.2s3.2,1.44,3.2,3.2-1.28,3.2-3.2,3.2c-1.76,0-3.2-1.44-3.2-3.2Zm0,8c0-1.76,1.44-3.2,3.2-3.2s3.2,1.44,3.2,3.2-1.28,3.2-3.2,3.2c-1.76,0-3.2-1.44-3.2-3.2Zm0,8c0-1.76,1.44-3.2,3.2-3.2s3.2,1.44,3.2,3.2-1.28,3.2-3.2,3.2c-1.76,0-3.2-1.44-3.2-3.2Zm8-24c0-1.76,1.44-3.2,3.2-3.2s3.2,1.44,3.2,3.2-1.28,3.2-3.2,3.2c-1.76,0-3.2-1.44-3.2-3.2Zm0,8c0-1.76,1.44-3.2,3.2-3.2s3.2,1.44,3.2,3.2-1.28,3.2-3.2,3.2c-1.76,0-3.2-1.44-3.2-3.2Zm0,8c0-1.76,1.44-3.2,3.2-3.2s3.2,1.44,3.2,3.2-1.28,3.2-3.2,3.2c-1.76,0-3.2-1.44-3.2-3.2Zm0,8c0-1.76,1.44-3.2,3.2-3.2s3.2,1.44,3.2,3.2-1.28,3.2-3.2,3.2c-1.76,0-3.2-1.44-3.2-3.2Zm8-24c0-1.76,1.44-3.2,3.2-3.2s3.2,1.44,3.2,3.2-1.28,3.2-3.2,3.2c-1.76,0-3.2-1.44-3.2-3.2Zm0,8c0-1.76,1.44-3.2,3.2-3.2s3.2,1.44,3.2,3.2-1.28,3.2-3.2,3.2c-1.76,0-3.2-1.44-3.2-3.2Zm0,8c0-1.76,1.44-3.2,3.2-3.2s3.2,1.44,3.2,3.2-1.28,3.2-3.2,3.2c-1.76,0-3.2-1.44-3.2-3.2Zm0,8c0-1.76,1.44-3.2,3.2-3.2s3.2,1.44,3.2,3.2-1.28,3.2-3.2,3.2c-1.76,0-3.2-1.44-3.2-3.2Zm8-24c0-1.76,1.44-3.2,3.2-3.2s3.2,1.44,3.2,3.2-1.28,3.2-3.2,3.2c-1.76,0-3.2-1.44-3.2-3.2Zm0,8c0-1.76,1.44-3.2,3.2-3.2s3.2,1.44,3.2,3.2-1.28,3.2-3.2,3.2c-1.76,0-3.2-1.44-3.2-3.2Zm0,8c0-1.76,1.44-3.2,3.2-3.2s3.2,1.44,3.2,3.2-1.28,3.2-3.2,3.2c-1.76,0-3.2-1.44-3.2-3.2Zm0,8c0-1.76,1.44-3.2,3.2-3.2s3.2,1.44,3.2,3.2-1.28,3.2-3.2,3.2c-1.76,0-3.2-1.44-3.2-3.2Z"/>
        <path class="cls-1" d="m288,11.2c0-1.76,1.44-3.2,3.2-3.2s3.2,1.44,3.2,3.2-1.44,3.2-3.2,3.2-3.2-1.44-3.2-3.2Zm0,8c0-1.76,1.44-3.2,3.2-3.2s3.2,1.44,3.2,3.2-1.44,3.2-3.2,3.2-3.2-1.44-3.2-3.2Zm0,8c0-1.76,1.44-3.2,3.2-3.2s3.2,1.44,3.2,3.2-1.44,3.2-3.2,3.2-3.2-1.44-3.2-3.2Zm0,8c0-1.76,1.44-3.2,3.2-3.2s3.2,1.44,3.2,3.2-1.44,3.2-3.2,3.2-3.2-1.44-3.2-3.2Zm0,8c0-1.76,1.44-3.2,3.2-3.2s3.2,1.44,3.2,3.2-1.44,3.2-3.2,3.2-3.2-1.44-3.2-3.2Zm0,8c0-1.76,1.44-3.2,3.2-3.2s3.2,1.44,3.2,3.2-1.44,3.2-3.2,3.2-3.2-1.44-3.2-3.2Zm0,8c0-1.76,1.44-3.2,3.2-3.2s3.2,1.44,3.2,3.2-1.44,3.2-3.2,3.2-3.2-1.44-3.2-3.2Zm0,8c0-1.76,1.44-3.2,3.2-3.2s3.2,1.44,3.2,3.2-1.44,3.2-3.2,3.2-3.2-1.44-3.2-3.2Zm0,8c0-1.76,1.44-3.2,3.2-3.2s3.2,1.44,3.2,3.2-1.44,3.2-3.2,3.2-3.2-1.44-3.2-3.2Zm0,8c0-1.76,1.44-3.2,3.2-3.2s3.2,1.44,3.2,3.2-1.44,3.2-3.2,3.2-3.2-1.44-3.2-3.2Zm0,8c0-1.76,1.44-3.2,3.2-3.2s3.2,1.44,3.2,3.2-1.44,3.2-3.2,3.2-3.2-1.44-3.2-3.2Zm0,8c0-1.76,1.44-3.2,3.2-3.2s3.2,1.44,3.2,3.2-1.44,3.2-3.2,3.2-3.2-1.44-3.2-3.2Zm0,8c0-1.76,1.44-3.2,3.2-3.2s3.2,1.44,3.2,3.2-1.44,3.2-3.2,3.2-3.2-1.44-3.2-3.2Zm0,8c0-1.76,1.44-3.2,3.2-3.2s3.2,1.44,3.2,3.2-1.44,3.2-3.2,3.2-3.2-1.44-3.2-3.2Zm0,8c0-1.76,1.44-3.2,3.2-3.2s3.2,1.44,3.2,3.2-1.44,3.2-3.2,3.2-3.2-1.44-3.2-3.2Zm8-120c0-1.76,1.44-3.2,3.2-3.2s3.2,1.44,3.2,3.2-1.28,3.2-3.2,3.2c-1.76,0-3.2-1.44-3.2-3.2Zm0,8c0-1.76,1.44-3.2,3.2-3.2s3.2,1.44,3.2,3.2-1.28,3.2-3.2,3.2c-1.76,0-3.2-1.44-3.2-3.2Zm0,8c0-1.76,1.44-3.2,3.2-3.2s3.2,1.44,3.2,3.2-1.28,3.2-3.2,3.2c-1.76,0-3.2-1.44-3.2-3.2Zm0,8c0-1.76,1.44-3.2,3.2-3.2s3.2,1.44,3.2,3.2-1.28,3.2-3.2,3.2c-1.76,0-3.2-1.44-3.2-3.2Zm0,8c0-1.76,1.44-3.2,3.2-3.2s3.2,1.44,3.2,3.2-1.28,3.2-3.2,3.2c-1.76,0-3.2-1.44-3.2-3.2Zm0,8c0-1.76,1.44-3.2,3.2-3.2s3.2,1.44,3.2,3.2-1.28,3.2-3.2,3.2c-1.76,0-3.2-1.44-3.2-3.2Zm0,8c0-1.76,1.44-3.2,3.2-3.2s3.2,1.44,3.2,3.2-1.28,3.2-3.2,3.2c-1.76,0-3.2-1.44-3.2-3.2Zm0,8c0-1.76,1.44-3.2,3.2-3.2s3.2,1.44,3.2,3.2-1.28,3.2-3.2,3.2c-1.76,0-3.2-1.44-3.2-3.2Zm0,8c0-1.76,1.44-3.2,3.2-3.2s3.2,1.44,3.2,3.2-1.28,3.2-3.2,3.2c-1.76,0-3.2-1.44-3.2-3.2Zm0,8c0-1.76,1.44-3.2,3.2-3.2s3.2,1.44,3.2,3.2-1.28,3.2-3.2,3.2c-1.76,0-3.2-1.44-3.2-3.2Zm0,8c0-1.76,1.44-3.2,3.2-3.2s3.2,1.44,3.2,3.2-1.28,3.2-3.2,3.2c-1.76,0-3.2-1.44-3.2-3.2Zm0,8c0-1.76,1.44-3.2,3.2-3.2s3.2,1.44,3.2,3.2-1.28,3.2-3.2,3.2c-1.76,0-3.2-1.44-3.2-3.2Zm0,8c0-1.76,1.44-3.2,3.2-3.2s3.2,1.44,3.2,3.2-1.28,3.2-3.2,3.2c-1.76,0-3.2-1.44-3.2-3.2Zm0,8c0-1.76,1.44-3.2,3.2-3.2s3.2,1.44,3.2,3.2-1.28,3.2-3.2,3.2c-1.76,0-3.2-1.44-3.2-3.2Zm0,8c0-1.76,1.44-3.2,3.2-3.2s3.2,1.44,3.2,3.2-1.28,3.2-3.2,3.2c-1.76,0-3.2-1.44-3.2-3.2Zm0,8c0-1.76,1.44-3.2,3.2-3.2s3.2,1.44,3.2,3.2-1.28,3.2-3.2,3.2c-1.76,0-3.2-1.44-3.2-3.2Zm8-120c0-1.76,1.44-3.2,3.2-3.2s3.2,1.44,3.2,3.2-1.28,3.2-3.2,3.2c-1.76,0-3.2-1.44-3.2-3.2Zm0,8c0-1.76,1.44-3.2,3.2-3.2s3.2,1.44,3.2,3.2-1.28,3.2-3.2,3.2c-1.76,0-3.2-1.44-3.2-3.2Zm0,8c0-1.76,1.44-3.2,3.2-3.2s3.2,1.44,3.2,3.2-1.28,3.2-3.2,3.2c-1.76,0-3.2-1.44-3.2-3.2Zm0,8c0-1.76,1.44-3.2,3.2-3.2s3.2,1.44,3.2,3.2-1.28,3.2-3.2,3.2c-1.76,0-3.2-1.44-3.2-3.2Zm0,8c0-1.76,1.44-3.2,3.2-3.2s3.2,1.44,3.2,3.2-1.28,3.2-3.2,3.2c-1.76,0-3.2-1.44-3.2-3.2Zm0,8c0-1.76,1.44-3.2,3.2-3.2s3.2,1.44,3.2,3.2-1.28,3.2-3.2,3.2c-1.76,0-3.2-1.44-3.2-3.2Zm0,8c0-1.76,1.44-3.2,3.2-3.2s3.2,1.44,3.2,3.2-1.28,3.2-3.2,3.2c-1.76,0-3.2-1.44-3.2-3.2Zm0,8c0-1.76,1.44-3.2,3.2-3.2s3.2,1.44,3.2,3.2-1.28,3.2-3.2,3.2c-1.76,0-3.2-1.44-3.2-3.2Zm0,8c0-1.76,1.44-3.2,3.2-3.2s3.2,1.44,3.2,3.2-1.28,3.2-3.2,3.2c-1.76,0-3.2-1.44-3.2-3.2Zm0,8c0-1.76,1.44-3.2,3.2-3.2s3.2,1.44,3.2,3.2-1.28,3.2-3.2,3.2c-1.76,0-3.2-1.44-3.2-3.2Zm0,8c0-1.76,1.44-3.2,3.2-3.2s3.2,1.44,3.2,3.2-1.28,3.2-3.2,3.2c-1.76,0-3.2-1.44-3.2-3.2Zm0,8c0-1.76,1.44-3.2,3.2-3.2s3.2,1.44,3.2,3.2-1.28,3.2-3.2,3.2c-1.76,0-3.2-1.44-3.2-3.2Zm0,8c0-1.76,1.44-3.2,3.2-3.2s3.2,1.44,3.2,3.2-1.28,3.2-3.2,3.2c-1.76,0-3.2-1.44-3.2-3.2Zm0,8c0-1.76,1.44-3.2,3.2-3.2s3.2,1.44,3.2,3.2-1.28,3.2-3.2,3.2c-1.76,0-3.2-1.44-3.2-3.2Zm0,8c0-1.76,1.44-3.2,3.2-3.2s3.2,1.44,3.2,3.2-1.28,3.2-3.2,3.2c-1.76,0-3.2-1.44-3.2-3.2Zm0,8c0-1.76,1.44-3.2,3.2-3.2s3.2,1.44,3.2,3.2-1.28,3.2-3.2,3.2c-1.76,0-3.2-1.44-3.2-3.2Zm8-120c0-1.76,1.44-3.2,3.2-3.2s3.2,1.44,3.2,3.2-1.28,3.2-3.2,3.2c-1.76,0-3.2-1.44-3.2-3.2Zm0,8c0-1.76,1.44-3.2,3.2-3.2s3.2,1.44,3.2,3.2-1.28,3.2-3.2,3.2c-1.76,0-3.2-1.44-3.2-3.2Zm0,8c0-1.76,1.44-3.2,3.2-3.2s3.2,1.44,3.2,3.2-1.28,3.2-3.2,3.2c-1.76,0-3.2-1.44-3.2-3.2Zm0,8c0-1.76,1.44-3.2,3.2-3.2s3.2,1.44,3.2,3.2-1.28,3.2-3.2,3.2c-1.76,0-3.2-1.44-3.2-3.2Zm0,8c0-1.76,1.44-3.2,3.2-3.2s3.2,1.44,3.2,3.2-1.28,3.2-3.2,3.2c-1.76,0-3.2-1.44-3.2-3.2Zm0,8c0-1.76,1.44-3.2,3.2-3.2s3.2,1.44,3.2,3.2-1.28,3.2-3.2,3.2c-1.76,0-3.2-1.44-3.2-3.2Zm0,8c0-1.76,1.44-3.2,3.2-3.2s3.2,1.44,3.2,3.2-1.28,3.2-3.2,3.2c-1.76,0-3.2-1.44-3.2-3.2Zm0,8c0-1.76,1.44-3.2,3.2-3.2s3.2,1.44,3.2,3.2-1.28,3.2-3.2,3.2c-1.76,0-3.2-1.44-3.2-3.2Zm0,8c0-1.76,1.44-3.2,3.2-3.2s3.2,1.44,3.2,3.2-1.28,3.2-3.2,3.2c-1.76,0-3.2-1.44-3.2-3.2Zm0,8c0-1.76,1.44-3.2,3.2-3.2s3.2,1.44,3.2,3.2-1.28,3.2-3.2,3.2c-1.76,0-3.2-1.44-3.2-3.2Zm0,8c0-1.76,1.44-3.2,3.2-3.2s3.2,1.44,3.2,3.2-1.28,3.2-3.2,3.2c-1.76,0-3.2-1.44-3.2-3.2Zm0,8c0-1.76,1.44-3.2,3.2-3.2s3.2,1.44,3.2,3.2-1.28,3.2-3.2,3.2c-1.76,0-3.2-1.44-3.2-3.2Zm0,8c0-1.76,1.44-3.2,3.2-3.2s3.2,1.44,3.2,3.2-1.28,3.2-3.2,3.2c-1.76,0-3.2-1.44-3.2-3.2Zm0,8c0-1.76,1.44-3.2,3.2-3.2s3.2,1.44,3.2,3.2-1.28,3.2-3.2,3.2c-1.76,0-3.2-1.44-3.2-3.2Zm0,8c0-1.76,1.44-3.2,3.2-3.2s3.2,1.44,3.2,3.2-1.28,3.2-3.2,3.2c-1.76,0-3.2-1.44-3.2-3.2Zm0,8c0-1.76,1.44-3.2,3.2-3.2s3.2,1.44,3.2,3.2-1.28,3.2-3.2,3.2c-1.76,0-3.2-1.44-3.2-3.2Zm8-120c0-1.76,1.44-3.2,3.2-3.2s3.2,1.44,3.2,3.2-1.28,3.2-3.2,3.2c-1.76,0-3.2-1.44-3.2-3.2Zm0,8c0-1.76,1.44-3.2,3.2-3.2s3.2,1.44,3.2,3.2-1.28,3.2-3.2,3.2c-1.76,0-3.2-1.44-3.2-3.2Zm0,8c0-1.76,1.44-3.2,3.2-3.2s3.2,1.44,3.2,3.2-1.28,3.2-3.2,3.2c-1.76,0-3.2-1.44-3.2-3.2Zm0,8c0-1.76,1.44-3.2,3.2-3.2s3.2,1.44,3.2,3.2-1.28,3.2-3.2,3.2c-1.76,0-3.2-1.44-3.2-3.2Zm0,32c0-1.76,1.44-3.2,3.2-3.2s3.2,1.44,3.2,3.2-1.28,3.2-3.2,3.2c-1.76,0-3.2-1.44-3.2-3.2Zm0,8c0-1.76,1.44-3.2,3.2-3.2s3.2,1.44,3.2,3.2-1.28,3.2-3.2,3.2c-1.76,0-3.2-1.44-3.2-3.2Zm0,8c0-1.76,1.44-3.2,3.2-3.2s3.2,1.44,3.2,3.2-1.28,3.2-3.2,3.2c-1.76,0-3.2-1.44-3.2-3.2Zm0,8c0-1.76,1.44-3.2,3.2-3.2s3.2,1.44,3.2,3.2-1.28,3.2-3.2,3.2c-1.76,0-3.2-1.44-3.2-3.2Zm8-80c0-1.76,1.44-3.2,3.2-3.2s3.2,1.44,3.2,3.2-1.28,3.2-3.2,3.2c-1.76,0-3.2-1.44-3.2-3.2Zm0,8c0-1.76,1.44-3.2,3.2-3.2s3.2,1.44,3.2,3.2-1.28,3.2-3.2,3.2c-1.76,0-3.2-1.44-3.2-3.2Zm0,8c0-1.76,1.44-3.2,3.2-3.2s3.2,1.44,3.2,3.2-1.28,3.2-3.2,3.2c-1.76,0-3.2-1.44-3.2-3.2Zm0,8c0-1.76,1.44-3.2,3.2-3.2s3.2,1.44,3.2,3.2-1.28,3.2-3.2,3.2c-1.76,0-3.2-1.44-3.2-3.2Zm0,8c0-1.76,1.44-3.2,3.2-3.2s3.2,1.44,3.2,3.2-1.28,3.2-3.2,3.2c-1.76,0-3.2-1.44-3.2-3.2Zm0,8c0-1.76,1.44-3.2,3.2-3.2s3.2,1.44,3.2,3.2-1.28,3.2-3.2,3.2c-1.76,0-3.2-1.44-3.2-3.2Zm0,8c0-1.76,1.44-3.2,3.2-3.2s3.2,1.44,3.2,3.2-1.28,3.2-3.2,3.2c-1.76,0-3.2-1.44-3.2-3.2Zm0,8c0-1.76,1.44-3.2,3.2-3.2s3.2,1.44,3.2,3.2-1.28,3.2-3.2,3.2c-1.76,0-3.2-1.44-3.2-3.2Zm0,8c0-1.76,1.44-3.2,3.2-3.2s3.2,1.44,3.2,3.2-1.28,3.2-3.2,3.2c-1.76,0-3.2-1.44-3.2-3.2Zm0,8c0-1.76,1.44-3.2,3.2-3.2s3.2,1.44,3.2,3.2-1.28,3.2-3.2,3.2c-1.76,0-3.2-1.44-3.2-3.2Zm0,8c0-1.76,1.44-3.2,3.2-3.2s3.2,1.44,3.2,3.2-1.28,3.2-3.2,3.2c-1.76,0-3.2-1.44-3.2-3.2Zm0,8c0-1.76,1.44-3.2,3.2-3.2s3.2,1.44,3.2,3.2-1.28,3.2-3.2,3.2c-1.76,0-3.2-1.44-3.2-3.2Zm0,8c0-1.76,1.44-3.2,3.2-3.2s3.2,1.44,3.2,3.2-1.28,3.2-3.2,3.2c-1.76,0-3.2-1.44-3.2-3.2Zm0,8c0-1.76,1.44-3.2,3.2-3.2s3.2,1.44,3.2,3.2-1.28,3.2-3.2,3.2c-1.76,0-3.2-1.44-3.2-3.2Zm0,8c0-1.76,1.44-3.2,3.2-3.2s3.2,1.44,3.2,3.2-1.28,3.2-3.2,3.2c-1.76,0-3.2-1.44-3.2-3.2Zm0,8c0-1.76,1.44-3.2,3.2-3.2s3.2,1.44,3.2,3.2-1.28,3.2-3.2,3.2c-1.76,0-3.2-1.44-3.2-3.2Zm8-120c0-1.76,1.44-3.2,3.2-3.2s3.2,1.44,3.2,3.2-1.28,3.2-3.2,3.2c-1.76,0-3.2-1.44-3.2-3.2Zm0,8c0-1.76,1.44-3.2,3.2-3.2s3.2,1.44,3.2,3.2-1.28,3.2-3.2,3.2c-1.76,0-3.2-1.44-3.2-3.2Zm0,8c0-1.76,1.44-3.2,3.2-3.2s3.2,1.44,3.2,3.2-1.28,3.2-3.2,3.2c-1.76,0-3.2-1.44-3.2-3.2Zm0,8c0-1.76,1.44-3.2,3.2-3.2s3.2,1.44,3.2,3.2-1.28,3.2-3.2,3.2c-1.76,0-3.2-1.44-3.2-3.2Zm0,8c0-1.76,1.44-3.2,3.2-3.2s3.2,1.44,3.2,3.2-1.28,3.2-3.2,3.2c-1.76,0-3.2-1.44-3.2-3.2Zm0,8c0-1.76,1.44-3.2,3.2-3.2s3.2,1.44,3.2,3.2-1.28,3.2-3.2,3.2c-1.76,0-3.2-1.44-3.2-3.2Zm0,8c0-1.76,1.44-3.2,3.2-3.2s3.2,1.44,3.2,3.2-1.28,3.2-3.2,3.2c-1.76,0-3.2-1.44-3.2-3.2Zm0,8c0-1.76,1.44-3.2,3.2-3.2s3.2,1.44,3.2,3.2-1.28,3.2-3.2,3.2c-1.76,0-3.2-1.44-3.2-3.2Zm0,8c0-1.76,1.44-3.2,3.2-3.2s3.2,1.44,3.2,3.2-1.28,3.2-3.2,3.2c-1.76,0-3.2-1.44-3.2-3.2Zm0,8c0-1.76,1.44-3.2,3.2-3.2s3.2,1.44,3.2,3.2-1.28,3.2-3.2,3.2c-1.76,0-3.2-1.44-3.2-3.2Zm0,8c0-1.76,1.44-3.2,3.2-3.2s3.2,1.44,3.2,3.2-1.28,3.2-3.2,3.2c-1.76,0-3.2-1.44-3.2-3.2Zm0,8c0-1.76,1.44-3.2,3.2-3.2s3.2,1.44,3.2,3.2-1.28,3.2-3.2,3.2c-1.76,0-3.2-1.44-3.2-3.2Zm0,8c0-1.76,1.44-3.2,3.2-3.2s3.2,1.44,3.2,3.2-1.28,3.2-3.2,3.2c-1.76,0-3.2-1.44-3.2-3.2Zm0,8c0-1.76,1.44-3.2,3.2-3.2s3.2,1.44,3.2,3.2-1.28,3.2-3.2,3.2c-1.76,0-3.2-1.44-3.2-3.2Zm0,8c0-1.76,1.44-3.2,3.2-3.2s3.2,1.44,3.2,3.2-1.28,3.2-3.2,3.2c-1.76,0-3.2-1.44-3.2-3.2Zm0,8c0-1.76,1.44-3.2,3.2-3.2s3.2,1.44,3.2,3.2-1.28,3.2-3.2,3.2c-1.76,0-3.2-1.44-3.2-3.2Zm8-120c0-1.76,1.44-3.2,3.2-3.2s3.2,1.44,3.2,3.2-1.28,3.2-3.2,3.2c-1.76,0-3.2-1.44-3.2-3.2Zm0,8c0-1.76,1.44-3.2,3.2-3.2s3.2,1.44,3.2,3.2-1.28,3.2-3.2,3.2c-1.76,0-3.2-1.44-3.2-3.2Zm0,8c0-1.76,1.44-3.2,3.2-3.2s3.2,1.44,3.2,3.2-1.28,3.2-3.2,3.2c-1.76,0-3.2-1.44-3.2-3.2Zm0,8c0-1.76,1.44-3.2,3.2-3.2s3.2,1.44,3.2,3.2-1.28,3.2-3.2,3.2c-1.76,0-3.2-1.44-3.2-3.2Zm0,8c0-1.76,1.44-3.2,3.2-3.2s3.2,1.44,3.2,3.2-1.28,3.2-3.2,3.2c-1.76,0-3.2-1.44-3.2-3.2Zm0,8c0-1.76,1.44-3.2,3.2-3.2s3.2,1.44,3.2,3.2-1.28,3.2-3.2,3.2c-1.76,0-3.2-1.44-3.2-3.2Zm0,8c0-1.76,1.44-3.2,3.2-3.2s3.2,1.44,3.2,3.2-1.28,3.2-3.2,3.2c-1.76,0-3.2-1.44-3.2-3.2Zm0,8c0-1.76,1.44-3.2,3.2-3.2s3.2,1.44,3.2,3.2-1.28,3.2-3.2,3.2c-1.76,0-3.2-1.44-3.2-3.2Zm0,8c0-1.76,1.44-3.2,3.2-3.2s3.2,1.44,3.2,3.2-1.28,3.2-3.2,3.2c-1.76,0-3.2-1.44-3.2-3.2Zm0,8c0-1.76,1.44-3.2,3.2-3.2s3.2,1.44,3.2,3.2-1.28,3.2-3.2,3.2c-1.76,0-3.2-1.44-3.2-3.2Zm0,8c0-1.76,1.44-3.2,3.2-3.2s3.2,1.44,3.2,3.2-1.28,3.2-3.2,3.2c-1.76,0-3.2-1.44-3.2-3.2Zm0,8c0-1.76,1.44-3.2,3.2-3.2s3.2,1.44,3.2,3.2-1.28,3.2-3.2,3.2c-1.76,0-3.2-1.44-3.2-3.2Zm0,8c0-1.76,1.44-3.2,3.2-3.2s3.2,1.44,3.2,3.2-1.28,3.2-3.2,3.2c-1.76,0-3.2-1.44-3.2-3.2Zm0,8c0-1.76,1.44-3.2,3.2-3.2s3.2,1.44,3.2,3.2-1.28,3.2-3.2,3.2c-1.76,0-3.2-1.44-3.2-3.2Zm0,8c0-1.76,1.44-3.2,3.2-3.2s3.2,1.44,3.2,3.2-1.28,3.2-3.2,3.2c-1.76,0-3.2-1.44-3.2-3.2Zm0,8c0-1.76,1.44-3.2,3.2-3.2s3.2,1.44,3.2,3.2-1.28,3.2-3.2,3.2c-1.76,0-3.2-1.44-3.2-3.2Zm8-112c0-1.76,1.44-3.2,3.2-3.2s3.2,1.44,3.2,3.2-1.28,3.2-3.2,3.2c-1.76,0-3.2-1.44-3.2-3.2Zm0,8c0-1.76,1.44-3.2,3.2-3.2s3.2,1.44,3.2,3.2-1.28,3.2-3.2,3.2c-1.76,0-3.2-1.44-3.2-3.2Zm0,8c0-1.76,1.44-3.2,3.2-3.2s3.2,1.44,3.2,3.2-1.28,3.2-3.2,3.2c-1.76,0-3.2-1.44-3.2-3.2Zm0,8c0-1.76,1.44-3.2,3.2-3.2s3.2,1.44,3.2,3.2-1.28,3.2-3.2,3.2c-1.76,0-3.2-1.44-3.2-3.2Zm0,8c0-1.76,1.44-3.2,3.2-3.2s3.2,1.44,3.2,3.2-1.28,3.2-3.2,3.2c-1.76,0-3.2-1.44-3.2-3.2Zm0,8c0-1.76,1.44-3.2,3.2-3.2s3.2,1.44,3.2,3.2-1.28,3.2-3.2,3.2c-1.76,0-3.2-1.44-3.2-3.2Zm0,8c0-1.76,1.44-3.2,3.2-3.2s3.2,1.44,3.2,3.2-1.28,3.2-3.2,3.2c-1.76,0-3.2-1.44-3.2-3.2Zm0,8c0-1.76,1.44-3.2,3.2-3.2s3.2,1.44,3.2,3.2-1.28,3.2-3.2,3.2c-1.76,0-3.2-1.44-3.2-3.2Zm0,8c0-1.76,1.44-3.2,3.2-3.2s3.2,1.44,3.2,3.2-1.28,3.2-3.2,3.2c-1.76,0-3.2-1.44-3.2-3.2Zm0,8c0-1.76,1.44-3.2,3.2-3.2s3.2,1.44,3.2,3.2-1.28,3.2-3.2,3.2c-1.76,0-3.2-1.44-3.2-3.2Zm0,8c0-1.76,1.44-3.2,3.2-3.2s3.2,1.44,3.2,3.2-1.28,3.2-3.2,3.2c-1.76,0-3.2-1.44-3.2-3.2Zm0,8c0-1.76,1.44-3.2,3.2-3.2s3.2,1.44,3.2,3.2-1.28,3.2-3.2,3.2c-1.76,0-3.2-1.44-3.2-3.2Zm0,8c0-1.76,1.44-3.2,3.2-3.2s3.2,1.44,3.2,3.2-1.28,3.2-3.2,3.2c-1.76,0-3.2-1.44-3.2-3.2Zm0,8c0-1.76,1.44-3.2,3.2-3.2s3.2,1.44,3.2,3.2-1.28,3.2-3.2,3.2c-1.76,0-3.2-1.44-3.2-3.2Zm0,8c0-1.76,1.44-3.2,3.2-3.2s3.2,1.44,3.2,3.2-1.28,3.2-3.2,3.2c-1.76,0-3.2-1.44-3.2-3.2Z"/>
        <path class="cls-1" d="m368,3.2C368,1.44,369.44,0,371.2,0s3.2,1.44,3.2,3.2-1.44,3.2-3.2,3.2-3.2-1.44-3.2-3.2Zm0,8c0-1.76,1.44-3.2,3.2-3.2s3.2,1.44,3.2,3.2-1.44,3.2-3.2,3.2-3.2-1.44-3.2-3.2Zm0,8c0-1.76,1.44-3.2,3.2-3.2s3.2,1.44,3.2,3.2-1.44,3.2-3.2,3.2-3.2-1.44-3.2-3.2Zm0,8c0-1.76,1.44-3.2,3.2-3.2s3.2,1.44,3.2,3.2-1.44,3.2-3.2,3.2-3.2-1.44-3.2-3.2Zm0,8c0-1.76,1.44-3.2,3.2-3.2s3.2,1.44,3.2,3.2-1.44,3.2-3.2,3.2-3.2-1.44-3.2-3.2Zm0,8c0-1.76,1.44-3.2,3.2-3.2s3.2,1.44,3.2,3.2-1.44,3.2-3.2,3.2-3.2-1.44-3.2-3.2Zm0,8c0-1.76,1.44-3.2,3.2-3.2s3.2,1.44,3.2,3.2-1.44,3.2-3.2,3.2-3.2-1.44-3.2-3.2Zm0,8c0-1.76,1.44-3.2,3.2-3.2s3.2,1.44,3.2,3.2-1.44,3.2-3.2,3.2-3.2-1.44-3.2-3.2Zm0,8c0-1.76,1.44-3.2,3.2-3.2s3.2,1.44,3.2,3.2-1.44,3.2-3.2,3.2-3.2-1.44-3.2-3.2Zm0,8c0-1.76,1.44-3.2,3.2-3.2s3.2,1.44,3.2,3.2-1.44,3.2-3.2,3.2-3.2-1.44-3.2-3.2Zm0,8c0-1.76,1.44-3.2,3.2-3.2s3.2,1.44,3.2,3.2-1.44,3.2-3.2,3.2-3.2-1.44-3.2-3.2Zm0,8c0-1.76,1.44-3.2,3.2-3.2s3.2,1.44,3.2,3.2-1.44,3.2-3.2,3.2-3.2-1.44-3.2-3.2Zm0,8c0-1.76,1.44-3.2,3.2-3.2s3.2,1.44,3.2,3.2-1.44,3.2-3.2,3.2-3.2-1.44-3.2-3.2Zm0,8c0-1.76,1.44-3.2,3.2-3.2s3.2,1.44,3.2,3.2-1.44,3.2-3.2,3.2-3.2-1.44-3.2-3.2Zm0,8c0-1.76,1.44-3.2,3.2-3.2s3.2,1.44,3.2,3.2-1.44,3.2-3.2,3.2-3.2-1.44-3.2-3.2Zm0,8c0-1.76,1.44-3.2,3.2-3.2s3.2,1.44,3.2,3.2-1.44,3.2-3.2,3.2-3.2-1.44-3.2-3.2Zm8-120c0-1.76,1.44-3.2,3.2-3.2s3.2,1.44,3.2,3.2-1.28,3.2-3.2,3.2c-1.76,0-3.2-1.44-3.2-3.2Zm0,8c0-1.76,1.44-3.2,3.2-3.2s3.2,1.44,3.2,3.2-1.28,3.2-3.2,3.2c-1.76,0-3.2-1.44-3.2-3.2Zm0,8c0-1.76,1.44-3.2,3.2-3.2s3.2,1.44,3.2,3.2-1.28,3.2-3.2,3.2c-1.76,0-3.2-1.44-3.2-3.2Zm0,8c0-1.76,1.44-3.2,3.2-3.2s3.2,1.44,3.2,3.2-1.28,3.2-3.2,3.2c-1.76,0-3.2-1.44-3.2-3.2Zm0,8c0-1.76,1.44-3.2,3.2-3.2s3.2,1.44,3.2,3.2-1.28,3.2-3.2,3.2c-1.76,0-3.2-1.44-3.2-3.2Zm0,8c0-1.76,1.44-3.2,3.2-3.2s3.2,1.44,3.2,3.2-1.28,3.2-3.2,3.2c-1.76,0-3.2-1.44-3.2-3.2Zm0,8c0-1.76,1.44-3.2,3.2-3.2s3.2,1.44,3.2,3.2-1.28,3.2-3.2,3.2c-1.76,0-3.2-1.44-3.2-3.2Zm0,8c0-1.76,1.44-3.2,3.2-3.2s3.2,1.44,3.2,3.2-1.28,3.2-3.2,3.2c-1.76,0-3.2-1.44-3.2-3.2Zm0,8c0-1.76,1.44-3.2,3.2-3.2s3.2,1.44,3.2,3.2-1.28,3.2-3.2,3.2c-1.76,0-3.2-1.44-3.2-3.2Zm0,8c0-1.76,1.44-3.2,3.2-3.2s3.2,1.44,3.2,3.2-1.28,3.2-3.2,3.2c-1.76,0-3.2-1.44-3.2-3.2Zm0,8c0-1.76,1.44-3.2,3.2-3.2s3.2,1.44,3.2,3.2-1.28,3.2-3.2,3.2c-1.76,0-3.2-1.44-3.2-3.2Zm0,8c0-1.76,1.44-3.2,3.2-3.2s3.2,1.44,3.2,3.2-1.28,3.2-3.2,3.2c-1.76,0-3.2-1.44-3.2-3.2Zm0,8c0-1.76,1.44-3.2,3.2-3.2s3.2,1.44,3.2,3.2-1.28,3.2-3.2,3.2c-1.76,0-3.2-1.44-3.2-3.2Zm0,8c0-1.76,1.44-3.2,3.2-3.2s3.2,1.44,3.2,3.2-1.28,3.2-3.2,3.2c-1.76,0-3.2-1.44-3.2-3.2Zm0,8c0-1.76,1.44-3.2,3.2-3.2s3.2,1.44,3.2,3.2-1.28,3.2-3.2,3.2c-1.76,0-3.2-1.44-3.2-3.2Zm0,8c0-1.76,1.44-3.2,3.2-3.2s3.2,1.44,3.2,3.2-1.28,3.2-3.2,3.2c-1.76,0-3.2-1.44-3.2-3.2Zm8-120c0-1.76,1.44-3.2,3.2-3.2s3.2,1.44,3.2,3.2-1.28,3.2-3.2,3.2c-1.76,0-3.2-1.44-3.2-3.2Zm0,8c0-1.76,1.44-3.2,3.2-3.2s3.2,1.44,3.2,3.2-1.28,3.2-3.2,3.2c-1.76,0-3.2-1.44-3.2-3.2Zm0,8c0-1.76,1.44-3.2,3.2-3.2s3.2,1.44,3.2,3.2-1.28,3.2-3.2,3.2c-1.76,0-3.2-1.44-3.2-3.2Zm0,8c0-1.76,1.44-3.2,3.2-3.2s3.2,1.44,3.2,3.2-1.28,3.2-3.2,3.2c-1.76,0-3.2-1.44-3.2-3.2Zm0,8c0-1.76,1.44-3.2,3.2-3.2s3.2,1.44,3.2,3.2-1.28,3.2-3.2,3.2c-1.76,0-3.2-1.44-3.2-3.2Zm0,8c0-1.76,1.44-3.2,3.2-3.2s3.2,1.44,3.2,3.2-1.28,3.2-3.2,3.2c-1.76,0-3.2-1.44-3.2-3.2Zm0,8c0-1.76,1.44-3.2,3.2-3.2s3.2,1.44,3.2,3.2-1.28,3.2-3.2,3.2c-1.76,0-3.2-1.44-3.2-3.2Zm0,8c0-1.76,1.44-3.2,3.2-3.2s3.2,1.44,3.2,3.2-1.28,3.2-3.2,3.2c-1.76,0-3.2-1.44-3.2-3.2Zm0,8c0-1.76,1.44-3.2,3.2-3.2s3.2,1.44,3.2,3.2-1.28,3.2-3.2,3.2c-1.76,0-3.2-1.44-3.2-3.2Zm0,8c0-1.76,1.44-3.2,3.2-3.2s3.2,1.44,3.2,3.2-1.28,3.2-3.2,3.2c-1.76,0-3.2-1.44-3.2-3.2Zm0,8c0-1.76,1.44-3.2,3.2-3.2s3.2,1.44,3.2,3.2-1.28,3.2-3.2,3.2c-1.76,0-3.2-1.44-3.2-3.2Zm0,8c0-1.76,1.44-3.2,3.2-3.2s3.2,1.44,3.2,3.2-1.28,3.2-3.2,3.2c-1.76,0-3.2-1.44-3.2-3.2Zm0,8c0-1.76,1.44-3.2,3.2-3.2s3.2,1.44,3.2,3.2-1.28,3.2-3.2,3.2c-1.76,0-3.2-1.44-3.2-3.2Zm0,8c0-1.76,1.44-3.2,3.2-3.2s3.2,1.44,3.2,3.2-1.28,3.2-3.2,3.2c-1.76,0-3.2-1.44-3.2-3.2Zm0,8c0-1.76,1.44-3.2,3.2-3.2s3.2,1.44,3.2,3.2-1.28,3.2-3.2,3.2c-1.76,0-3.2-1.44-3.2-3.2Zm0,8c0-1.76,1.44-3.2,3.2-3.2s3.2,1.44,3.2,3.2-1.28,3.2-3.2,3.2c-1.76,0-3.2-1.44-3.2-3.2Zm8-120c0-1.76,1.44-3.2,3.2-3.2s3.2,1.44,3.2,3.2-1.28,3.2-3.2,3.2c-1.76,0-3.2-1.44-3.2-3.2Zm0,8c0-1.76,1.44-3.2,3.2-3.2s3.2,1.44,3.2,3.2-1.28,3.2-3.2,3.2c-1.76,0-3.2-1.44-3.2-3.2Zm0,8c0-1.76,1.44-3.2,3.2-3.2s3.2,1.44,3.2,3.2-1.28,3.2-3.2,3.2c-1.76,0-3.2-1.44-3.2-3.2Zm0,8c0-1.76,1.44-3.2,3.2-3.2s3.2,1.44,3.2,3.2-1.28,3.2-3.2,3.2c-1.76,0-3.2-1.44-3.2-3.2Zm0,8c0-1.76,1.44-3.2,3.2-3.2s3.2,1.44,3.2,3.2-1.28,3.2-3.2,3.2c-1.76,0-3.2-1.44-3.2-3.2Zm0,8c0-1.76,1.44-3.2,3.2-3.2s3.2,1.44,3.2,3.2-1.28,3.2-3.2,3.2c-1.76,0-3.2-1.44-3.2-3.2Zm0,8c0-1.76,1.44-3.2,3.2-3.2s3.2,1.44,3.2,3.2-1.28,3.2-3.2,3.2c-1.76,0-3.2-1.44-3.2-3.2Zm0,8c0-1.76,1.44-3.2,3.2-3.2s3.2,1.44,3.2,3.2-1.28,3.2-3.2,3.2c-1.76,0-3.2-1.44-3.2-3.2Zm0,8c0-1.76,1.44-3.2,3.2-3.2s3.2,1.44,3.2,3.2-1.28,3.2-3.2,3.2c-1.76,0-3.2-1.44-3.2-3.2Zm0,8c0-1.76,1.44-3.2,3.2-3.2s3.2,1.44,3.2,3.2-1.28,3.2-3.2,3.2c-1.76,0-3.2-1.44-3.2-3.2Zm0,8c0-1.76,1.44-3.2,3.2-3.2s3.2,1.44,3.2,3.2-1.28,3.2-3.2,3.2c-1.76,0-3.2-1.44-3.2-3.2Zm0,8c0-1.76,1.44-3.2,3.2-3.2s3.2,1.44,3.2,3.2-1.28,3.2-3.2,3.2c-1.76,0-3.2-1.44-3.2-3.2Zm0,8c0-1.76,1.44-3.2,3.2-3.2s3.2,1.44,3.2,3.2-1.28,3.2-3.2,3.2c-1.76,0-3.2-1.44-3.2-3.2Zm0,8c0-1.76,1.44-3.2,3.2-3.2s3.2,1.44,3.2,3.2-1.28,3.2-3.2,3.2c-1.76,0-3.2-1.44-3.2-3.2Zm0,8c0-1.76,1.44-3.2,3.2-3.2s3.2,1.44,3.2,3.2-1.28,3.2-3.2,3.2c-1.76,0-3.2-1.44-3.2-3.2Zm0,8c0-1.76,1.44-3.2,3.2-3.2s3.2,1.44,3.2,3.2-1.28,3.2-3.2,3.2c-1.76,0-3.2-1.44-3.2-3.2Zm8-120c0-1.76,1.44-3.2,3.2-3.2s3.2,1.44,3.2,3.2-1.28,3.2-3.2,3.2c-1.76,0-3.2-1.44-3.2-3.2Zm0,8c0-1.76,1.44-3.2,3.2-3.2s3.2,1.44,3.2,3.2-1.28,3.2-3.2,3.2c-1.76,0-3.2-1.44-3.2-3.2Zm0,8c0-1.76,1.44-3.2,3.2-3.2s3.2,1.44,3.2,3.2-1.28,3.2-3.2,3.2c-1.76,0-3.2-1.44-3.2-3.2Zm0,8c0-1.76,1.44-3.2,3.2-3.2s3.2,1.44,3.2,3.2-1.28,3.2-3.2,3.2c-1.76,0-3.2-1.44-3.2-3.2Zm0,24c0-1.76,1.44-3.2,3.2-3.2s3.2,1.44,3.2,3.2-1.28,3.2-3.2,3.2c-1.76,0-3.2-1.44-3.2-3.2Zm0,8c0-1.76,1.44-3.2,3.2-3.2s3.2,1.44,3.2,3.2-1.28,3.2-3.2,3.2c-1.76,0-3.2-1.44-3.2-3.2Zm0,8c0-1.76,1.44-3.2,3.2-3.2s3.2,1.44,3.2,3.2-1.28,3.2-3.2,3.2c-1.76,0-3.2-1.44-3.2-3.2Zm0,8c0-1.76,1.44-3.2,3.2-3.2s3.2,1.44,3.2,3.2-1.28,3.2-3.2,3.2c-1.76,0-3.2-1.44-3.2-3.2Zm0,24c0-1.76,1.44-3.2,3.2-3.2s3.2,1.44,3.2,3.2-1.28,3.2-3.2,3.2c-1.76,0-3.2-1.44-3.2-3.2Zm0,8c0-1.76,1.44-3.2,3.2-3.2s3.2,1.44,3.2,3.2-1.28,3.2-3.2,3.2c-1.76,0-3.2-1.44-3.2-3.2Zm0,8c0-1.76,1.44-3.2,3.2-3.2s3.2,1.44,3.2,3.2-1.28,3.2-3.2,3.2c-1.76,0-3.2-1.44-3.2-3.2Zm0,8c0-1.76,1.44-3.2,3.2-3.2s3.2,1.44,3.2,3.2-1.28,3.2-3.2,3.2c-1.76,0-3.2-1.44-3.2-3.2Zm8-120c0-1.76,1.44-3.2,3.2-3.2s3.2,1.44,3.2,3.2-1.28,3.2-3.2,3.2c-1.76,0-3.2-1.44-3.2-3.2Zm0,8c0-1.76,1.44-3.2,3.2-3.2s3.2,1.44,3.2,3.2-1.28,3.2-3.2,3.2c-1.76,0-3.2-1.44-3.2-3.2Zm0,8c0-1.76,1.44-3.2,3.2-3.2s3.2,1.44,3.2,3.2-1.28,3.2-3.2,3.2c-1.76,0-3.2-1.44-3.2-3.2Zm0,8c0-1.76,1.44-3.2,3.2-3.2s3.2,1.44,3.2,3.2-1.28,3.2-3.2,3.2c-1.76,0-3.2-1.44-3.2-3.2Zm0,8c0-1.76,1.44-3.2,3.2-3.2s3.2,1.44,3.2,3.2-1.28,3.2-3.2,3.2c-1.76,0-3.2-1.44-3.2-3.2Zm0,8c0-1.76,1.44-3.2,3.2-3.2s3.2,1.44,3.2,3.2-1.28,3.2-3.2,3.2c-1.76,0-3.2-1.44-3.2-3.2Zm0,8c0-1.76,1.44-3.2,3.2-3.2s3.2,1.44,3.2,3.2-1.28,3.2-3.2,3.2c-1.76,0-3.2-1.44-3.2-3.2Zm0,8c0-1.76,1.44-3.2,3.2-3.2s3.2,1.44,3.2,3.2-1.28,3.2-3.2,3.2c-1.76,0-3.2-1.44-3.2-3.2Zm0,8c0-1.76,1.44-3.2,3.2-3.2s3.2,1.44,3.2,3.2-1.28,3.2-3.2,3.2c-1.76,0-3.2-1.44-3.2-3.2Zm0,8c0-1.76,1.44-3.2,3.2-3.2s3.2,1.44,3.2,3.2-1.28,3.2-3.2,3.2c-1.76,0-3.2-1.44-3.2-3.2Zm0,8c0-1.76,1.44-3.2,3.2-3.2s3.2,1.44,3.2,3.2-1.28,3.2-3.2,3.2c-1.76,0-3.2-1.44-3.2-3.2Zm0,8c0-1.76,1.44-3.2,3.2-3.2s3.2,1.44,3.2,3.2-1.28,3.2-3.2,3.2c-1.76,0-3.2-1.44-3.2-3.2Zm0,8c0-1.76,1.44-3.2,3.2-3.2s3.2,1.44,3.2,3.2-1.28,3.2-3.2,3.2c-1.76,0-3.2-1.44-3.2-3.2Zm0,8c0-1.76,1.44-3.2,3.2-3.2s3.2,1.44,3.2,3.2-1.28,3.2-3.2,3.2c-1.76,0-3.2-1.44-3.2-3.2Zm0,8c0-1.76,1.44-3.2,3.2-3.2s3.2,1.44,3.2,3.2-1.28,3.2-3.2,3.2c-1.76,0-3.2-1.44-3.2-3.2Zm0,8c0-1.76,1.44-3.2,3.2-3.2s3.2,1.44,3.2,3.2-1.28,3.2-3.2,3.2c-1.76,0-3.2-1.44-3.2-3.2Zm8-120c0-1.76,1.44-3.2,3.2-3.2s3.2,1.44,3.2,3.2-1.28,3.2-3.2,3.2c-1.76,0-3.2-1.44-3.2-3.2Zm0,8c0-1.76,1.44-3.2,3.2-3.2s3.2,1.44,3.2,3.2-1.28,3.2-3.2,3.2c-1.76,0-3.2-1.44-3.2-3.2Zm0,8c0-1.76,1.44-3.2,3.2-3.2s3.2,1.44,3.2,3.2-1.28,3.2-3.2,3.2c-1.76,0-3.2-1.44-3.2-3.2Zm0,8c0-1.76,1.44-3.2,3.2-3.2s3.2,1.44,3.2,3.2-1.28,3.2-3.2,3.2c-1.76,0-3.2-1.44-3.2-3.2Zm0,8c0-1.76,1.44-3.2,3.2-3.2s3.2,1.44,3.2,3.2-1.28,3.2-3.2,3.2c-1.76,0-3.2-1.44-3.2-3.2Zm0,8c0-1.76,1.44-3.2,3.2-3.2s3.2,1.44,3.2,3.2-1.28,3.2-3.2,3.2c-1.76,0-3.2-1.44-3.2-3.2Zm0,8c0-1.76,1.44-3.2,3.2-3.2s3.2,1.44,3.2,3.2-1.28,3.2-3.2,3.2c-1.76,0-3.2-1.44-3.2-3.2Zm0,8c0-1.76,1.44-3.2,3.2-3.2s3.2,1.44,3.2,3.2-1.28,3.2-3.2,3.2c-1.76,0-3.2-1.44-3.2-3.2Zm0,8c0-1.76,1.44-3.2,3.2-3.2s3.2,1.44,3.2,3.2-1.28,3.2-3.2,3.2c-1.76,0-3.2-1.44-3.2-3.2Zm0,8c0-1.76,1.44-3.2,3.2-3.2s3.2,1.44,3.2,3.2-1.28,3.2-3.2,3.2c-1.76,0-3.2-1.44-3.2-3.2Zm0,8c0-1.76,1.44-3.2,3.2-3.2s3.2,1.44,3.2,3.2-1.28,3.2-3.2,3.2c-1.76,0-3.2-1.44-3.2-3.2Zm0,8c0-1.76,1.44-3.2,3.2-3.2s3.2,1.44,3.2,3.2-1.28,3.2-3.2,3.2c-1.76,0-3.2-1.44-3.2-3.2Zm0,8c0-1.76,1.44-3.2,3.2-3.2s3.2,1.44,3.2,3.2-1.28,3.2-3.2,3.2c-1.76,0-3.2-1.44-3.2-3.2Zm0,8c0-1.76,1.44-3.2,3.2-3.2s3.2,1.44,3.2,3.2-1.28,3.2-3.2,3.2c-1.76,0-3.2-1.44-3.2-3.2Zm0,8c0-1.76,1.44-3.2,3.2-3.2s3.2,1.44,3.2,3.2-1.28,3.2-3.2,3.2c-1.76,0-3.2-1.44-3.2-3.2Zm0,8c0-1.76,1.44-3.2,3.2-3.2s3.2,1.44,3.2,3.2-1.28,3.2-3.2,3.2c-1.76,0-3.2-1.44-3.2-3.2Zm8-120c0-1.76,1.44-3.2,3.2-3.2s3.2,1.44,3.2,3.2-1.28,3.2-3.2,3.2c-1.76,0-3.2-1.44-3.2-3.2Zm0,8c0-1.76,1.44-3.2,3.2-3.2s3.2,1.44,3.2,3.2-1.28,3.2-3.2,3.2c-1.76,0-3.2-1.44-3.2-3.2Zm0,8c0-1.76,1.44-3.2,3.2-3.2s3.2,1.44,3.2,3.2-1.28,3.2-3.2,3.2c-1.76,0-3.2-1.44-3.2-3.2Zm0,8c0-1.76,1.44-3.2,3.2-3.2s3.2,1.44,3.2,3.2-1.28,3.2-3.2,3.2c-1.76,0-3.2-1.44-3.2-3.2Zm0,8c0-1.76,1.44-3.2,3.2-3.2s3.2,1.44,3.2,3.2-1.28,3.2-3.2,3.2c-1.76,0-3.2-1.44-3.2-3.2Zm0,8c0-1.76,1.44-3.2,3.2-3.2s3.2,1.44,3.2,3.2-1.28,3.2-3.2,3.2c-1.76,0-3.2-1.44-3.2-3.2Zm0,8c0-1.76,1.44-3.2,3.2-3.2s3.2,1.44,3.2,3.2-1.28,3.2-3.2,3.2c-1.76,0-3.2-1.44-3.2-3.2Zm0,8c0-1.76,1.44-3.2,3.2-3.2s3.2,1.44,3.2,3.2-1.28,3.2-3.2,3.2c-1.76,0-3.2-1.44-3.2-3.2Zm0,8c0-1.76,1.44-3.2,3.2-3.2s3.2,1.44,3.2,3.2-1.28,3.2-3.2,3.2c-1.76,0-3.2-1.44-3.2-3.2Zm0,8c0-1.76,1.44-3.2,3.2-3.2s3.2,1.44,3.2,3.2-1.28,3.2-3.2,3.2c-1.76,0-3.2-1.44-3.2-3.2Zm0,8c0-1.76,1.44-3.2,3.2-3.2s3.2,1.44,3.2,3.2-1.28,3.2-3.2,3.2c-1.76,0-3.2-1.44-3.2-3.2Zm0,8c0-1.76,1.44-3.2,3.2-3.2s3.2,1.44,3.2,3.2-1.28,3.2-3.2,3.2c-1.76,0-3.2-1.44-3.2-3.2Zm0,8c0-1.76,1.44-3.2,3.2-3.2s3.2,1.44,3.2,3.2-1.28,3.2-3.2,3.2c-1.76,0-3.2-1.44-3.2-3.2Zm0,8c0-1.76,1.44-3.2,3.2-3.2s3.2,1.44,3.2,3.2-1.28,3.2-3.2,3.2c-1.76,0-3.2-1.44-3.2-3.2Zm0,8c0-1.76,1.44-3.2,3.2-3.2s3.2,1.44,3.2,3.2-1.28,3.2-3.2,3.2c-1.76,0-3.2-1.44-3.2-3.2Zm0,8c0-1.76,1.44-3.2,3.2-3.2s3.2,1.44,3.2,3.2-1.28,3.2-3.2,3.2c-1.76,0-3.2-1.44-3.2-3.2Zm8-112c0-1.76,1.44-3.2,3.2-3.2s3.2,1.44,3.2,3.2-1.28,3.2-3.2,3.2c-1.76,0-3.2-1.44-3.2-3.2Zm0,8c0-1.76,1.44-3.2,3.2-3.2s3.2,1.44,3.2,3.2-1.28,3.2-3.2,3.2c-1.76,0-3.2-1.44-3.2-3.2Zm0,8c0-1.76,1.44-3.2,3.2-3.2s3.2,1.44,3.2,3.2-1.28,3.2-3.2,3.2c-1.76,0-3.2-1.44-3.2-3.2Zm0,8c0-1.76,1.44-3.2,3.2-3.2s3.2,1.44,3.2,3.2-1.28,3.2-3.2,3.2c-1.76,0-3.2-1.44-3.2-3.2Zm0,8c0-1.76,1.44-3.2,3.2-3.2s3.2,1.44,3.2,3.2-1.28,3.2-3.2,3.2c-1.76,0-3.2-1.44-3.2-3.2Zm0,8c0-1.76,1.44-3.2,3.2-3.2s3.2,1.44,3.2,3.2-1.28,3.2-3.2,3.2c-1.76,0-3.2-1.44-3.2-3.2Zm0,8c0-1.76,1.44-3.2,3.2-3.2s3.2,1.44,3.2,3.2-1.28,3.2-3.2,3.2c-1.76,0-3.2-1.44-3.2-3.2Zm0,16c0-1.76,1.44-3.2,3.2-3.2s3.2,1.44,3.2,3.2-1.28,3.2-3.2,3.2c-1.76,0-3.2-1.44-3.2-3.2Zm0,8c0-1.76,1.44-3.2,3.2-3.2s3.2,1.44,3.2,3.2-1.28,3.2-3.2,3.2c-1.76,0-3.2-1.44-3.2-3.2Zm0,8c0-1.76,1.44-3.2,3.2-3.2s3.2,1.44,3.2,3.2-1.28,3.2-3.2,3.2c-1.76,0-3.2-1.44-3.2-3.2Zm0,8c0-1.76,1.44-3.2,3.2-3.2s3.2,1.44,3.2,3.2-1.28,3.2-3.2,3.2c-1.76,0-3.2-1.44-3.2-3.2Zm0,8c0-1.76,1.44-3.2,3.2-3.2s3.2,1.44,3.2,3.2-1.28,3.2-3.2,3.2c-1.76,0-3.2-1.44-3.2-3.2Zm0,8c0-1.76,1.44-3.2,3.2-3.2s3.2,1.44,3.2,3.2-1.28,3.2-3.2,3.2c-1.76,0-3.2-1.44-3.2-3.2Z"/>
        <path class="cls-1" d="m448,11.2c0-1.76,1.44-3.2,3.2-3.2s3.2,1.44,3.2,3.2-1.44,3.2-3.2,3.2-3.2-1.44-3.2-3.2Zm0,8c0-1.76,1.44-3.2,3.2-3.2s3.2,1.44,3.2,3.2-1.44,3.2-3.2,3.2-3.2-1.44-3.2-3.2Zm0,8c0-1.76,1.44-3.2,3.2-3.2s3.2,1.44,3.2,3.2-1.44,3.2-3.2,3.2-3.2-1.44-3.2-3.2Zm0,8c0-1.76,1.44-3.2,3.2-3.2s3.2,1.44,3.2,3.2-1.44,3.2-3.2,3.2-3.2-1.44-3.2-3.2Zm0,8c0-1.76,1.44-3.2,3.2-3.2s3.2,1.44,3.2,3.2-1.44,3.2-3.2,3.2-3.2-1.44-3.2-3.2Zm0,8c0-1.76,1.44-3.2,3.2-3.2s3.2,1.44,3.2,3.2-1.44,3.2-3.2,3.2-3.2-1.44-3.2-3.2Zm0,8c0-1.76,1.44-3.2,3.2-3.2s3.2,1.44,3.2,3.2-1.44,3.2-3.2,3.2-3.2-1.44-3.2-3.2Zm0,32c0-1.76,1.44-3.2,3.2-3.2s3.2,1.44,3.2,3.2-1.44,3.2-3.2,3.2-3.2-1.44-3.2-3.2Zm0,8c0-1.76,1.44-3.2,3.2-3.2s3.2,1.44,3.2,3.2-1.44,3.2-3.2,3.2-3.2-1.44-3.2-3.2Zm0,8c0-1.76,1.44-3.2,3.2-3.2s3.2,1.44,3.2,3.2-1.44,3.2-3.2,3.2-3.2-1.44-3.2-3.2Zm0,8c0-1.76,1.44-3.2,3.2-3.2s3.2,1.44,3.2,3.2-1.44,3.2-3.2,3.2-3.2-1.44-3.2-3.2Zm8-112c0-1.76,1.44-3.2,3.2-3.2s3.2,1.44,3.2,3.2-1.28,3.2-3.2,3.2c-1.76,0-3.2-1.44-3.2-3.2Zm0,8c0-1.76,1.44-3.2,3.2-3.2s3.2,1.44,3.2,3.2-1.44,3.2-3.2,3.2-3.2-1.44-3.2-3.2Zm0,8c0-1.76,1.44-3.2,3.2-3.2s3.2,1.44,3.2,3.2-1.28,3.2-3.2,3.2c-1.76,0-3.2-1.44-3.2-3.2Zm0,8c0-1.76,1.44-3.2,3.2-3.2s3.2,1.44,3.2,3.2-1.28,3.2-3.2,3.2c-1.76,0-3.2-1.44-3.2-3.2Zm0,8c0-1.76,1.44-3.2,3.2-3.2s3.2,1.44,3.2,3.2-1.28,3.2-3.2,3.2c-1.76,0-3.2-1.44-3.2-3.2Zm0,8c0-1.76,1.44-3.2,3.2-3.2s3.2,1.44,3.2,3.2-1.28,3.2-3.2,3.2c-1.76,0-3.2-1.44-3.2-3.2Zm0,8c0-1.76,1.44-3.2,3.2-3.2s3.2,1.44,3.2,3.2-1.28,3.2-3.2,3.2c-1.76,0-3.2-1.44-3.2-3.2Zm0,8c0-1.76,1.44-3.2,3.2-3.2s3.2,1.44,3.2,3.2-1.28,3.2-3.2,3.2c-1.76,0-3.2-1.44-3.2-3.2Zm0,8c0-1.76,1.44-3.2,3.2-3.2s3.2,1.44,3.2,3.2-1.28,3.2-3.2,3.2c-1.76,0-3.2-1.44-3.2-3.2Zm0,24c0-1.76,1.44-3.2,3.2-3.2s3.2,1.44,3.2,3.2-1.44,3.2-3.2,3.2-3.2-1.44-3.2-3.2Zm0,8c0-1.76,1.44-3.2,3.2-3.2s3.2,1.44,3.2,3.2-1.44,3.2-3.2,3.2-3.2-1.44-3.2-3.2Zm0,8c0-1.76,1.44-3.2,3.2-3.2s3.2,1.44,3.2,3.2-1.44,3.2-3.2,3.2-3.2-1.44-3.2-3.2Zm0,8c0-1.76,1.44-3.2,3.2-3.2s3.2,1.44,3.2,3.2-1.28,3.2-3.2,3.2c-1.76,0-3.2-1.44-3.2-3.2Zm0,8c0-1.76,1.44-3.2,3.2-3.2s3.2,1.44,3.2,3.2-1.28,3.2-3.2,3.2c-1.76,0-3.2-1.44-3.2-3.2Zm8-120c0-1.76,1.44-3.2,3.2-3.2s3.2,1.44,3.2,3.2-1.28,3.2-3.2,3.2c-1.76,0-3.2-1.44-3.2-3.2Zm0,8c0-1.76,1.44-3.2,3.2-3.2s3.2,1.44,3.2,3.2-1.28,3.2-3.2,3.2c-1.76,0-3.2-1.44-3.2-3.2Zm0,8c0-1.76,1.44-3.2,3.2-3.2s3.2,1.44,3.2,3.2-1.28,3.2-3.2,3.2c-1.76,0-3.2-1.44-3.2-3.2Zm0,8c0-1.76,1.44-3.2,3.2-3.2s3.2,1.44,3.2,3.2-1.28,3.2-3.2,3.2c-1.76,0-3.2-1.44-3.2-3.2Zm0,8c0-1.76,1.44-3.2,3.2-3.2s3.2,1.44,3.2,3.2-1.28,3.2-3.2,3.2c-1.76,0-3.2-1.44-3.2-3.2Zm0,8c0-1.76,1.44-3.2,3.2-3.2s3.2,1.44,3.2,3.2-1.28,3.2-3.2,3.2c-1.76,0-3.2-1.44-3.2-3.2Zm0,8c0-1.76,1.44-3.2,3.2-3.2s3.2,1.44,3.2,3.2-1.28,3.2-3.2,3.2c-1.76,0-3.2-1.44-3.2-3.2Zm0,8c0-1.76,1.44-3.2,3.2-3.2s3.2,1.44,3.2,3.2-1.28,3.2-3.2,3.2c-1.76,0-3.2-1.44-3.2-3.2Zm0,8c0-1.76,1.44-3.2,3.2-3.2s3.2,1.44,3.2,3.2-1.28,3.2-3.2,3.2c-1.76,0-3.2-1.44-3.2-3.2Zm0,8c0-1.76,1.44-3.2,3.2-3.2s3.2,1.44,3.2,3.2-1.28,3.2-3.2,3.2c-1.76,0-3.2-1.44-3.2-3.2Zm0,16c0-1.76,1.44-3.2,3.2-3.2s3.2,1.44,3.2,3.2-1.28,3.2-3.2,3.2c-1.76,0-3.2-1.44-3.2-3.2Zm0,8c0-1.76,1.44-3.2,3.2-3.2s3.2,1.44,3.2,3.2-1.28,3.2-3.2,3.2c-1.76,0-3.2-1.44-3.2-3.2Zm0,8c0-1.76,1.44-3.2,3.2-3.2s3.2,1.44,3.2,3.2-1.28,3.2-3.2,3.2c-1.76,0-3.2-1.44-3.2-3.2Zm0,8c0-1.76,1.44-3.2,3.2-3.2s3.2,1.44,3.2,3.2-1.28,3.2-3.2,3.2c-1.76,0-3.2-1.44-3.2-3.2Zm0,8c0-1.76,1.44-3.2,3.2-3.2s3.2,1.44,3.2,3.2-1.28,3.2-3.2,3.2c-1.76,0-3.2-1.44-3.2-3.2Zm8-120c0-1.76,1.44-3.2,3.2-3.2s3.2,1.44,3.2,3.2-1.28,3.2-3.2,3.2c-1.76,0-3.2-1.44-3.2-3.2Zm0,8c0-1.76,1.44-3.2,3.2-3.2s3.2,1.44,3.2,3.2-1.28,3.2-3.2,3.2c-1.76,0-3.2-1.44-3.2-3.2Zm0,8c0-1.76,1.44-3.2,3.2-3.2s3.2,1.44,3.2,3.2-1.28,3.2-3.2,3.2c-1.76,0-3.2-1.44-3.2-3.2Zm0,8c0-1.76,1.44-3.2,3.2-3.2s3.2,1.44,3.2,3.2-1.28,3.2-3.2,3.2c-1.76,0-3.2-1.44-3.2-3.2Zm0,8c0-1.76,1.44-3.2,3.2-3.2s3.2,1.44,3.2,3.2-1.28,3.2-3.2,3.2c-1.76,0-3.2-1.44-3.2-3.2Zm0,8c0-1.76,1.44-3.2,3.2-3.2s3.2,1.44,3.2,3.2-1.28,3.2-3.2,3.2c-1.76,0-3.2-1.44-3.2-3.2Zm0,8c0-1.76,1.44-3.2,3.2-3.2s3.2,1.44,3.2,3.2-1.28,3.2-3.2,3.2c-1.76,0-3.2-1.44-3.2-3.2Zm0,8c0-1.76,1.44-3.2,3.2-3.2s3.2,1.44,3.2,3.2-1.28,3.2-3.2,3.2c-1.76,0-3.2-1.44-3.2-3.2Zm0,8c0-1.76,1.44-3.2,3.2-3.2s3.2,1.44,3.2,3.2-1.28,3.2-3.2,3.2c-1.76,0-3.2-1.44-3.2-3.2Zm0,8c0-1.76,1.44-3.2,3.2-3.2s3.2,1.44,3.2,3.2-1.28,3.2-3.2,3.2c-1.76,0-3.2-1.44-3.2-3.2Zm0,16c0-1.76,1.44-3.2,3.2-3.2s3.2,1.44,3.2,3.2-1.28,3.2-3.2,3.2c-1.76,0-3.2-1.44-3.2-3.2Zm0,8c0-1.76,1.44-3.2,3.2-3.2s3.2,1.44,3.2,3.2-1.28,3.2-3.2,3.2c-1.76,0-3.2-1.44-3.2-3.2Zm0,8c0-1.76,1.44-3.2,3.2-3.2s3.2,1.44,3.2,3.2-1.28,3.2-3.2,3.2c-1.76,0-3.2-1.44-3.2-3.2Zm0,8c0-1.76,1.44-3.2,3.2-3.2s3.2,1.44,3.2,3.2-1.28,3.2-3.2,3.2c-1.76,0-3.2-1.44-3.2-3.2Zm0,8c0-1.76,1.44-3.2,3.2-3.2s3.2,1.44,3.2,3.2-1.28,3.2-3.2,3.2c-1.76,0-3.2-1.44-3.2-3.2Zm8-120c0-1.76,1.44-3.2,3.2-3.2s3.2,1.44,3.2,3.2-1.28,3.2-3.2,3.2c-1.76,0-3.2-1.44-3.2-3.2Zm0,8c0-1.76,1.44-3.2,3.2-3.2s3.2,1.44,3.2,3.2-1.28,3.2-3.2,3.2c-1.76,0-3.2-1.44-3.2-3.2Zm0,8c0-1.76,1.44-3.2,3.2-3.2s3.2,1.44,3.2,3.2-1.28,3.2-3.2,3.2c-1.76,0-3.2-1.44-3.2-3.2Zm0,8c0-1.76,1.44-3.2,3.2-3.2s3.2,1.44,3.2,3.2-1.28,3.2-3.2,3.2c-1.76,0-3.2-1.44-3.2-3.2Zm0,24c0-1.76,1.44-3.2,3.2-3.2s3.2,1.44,3.2,3.2-1.28,3.2-3.2,3.2c-1.76,0-3.2-1.44-3.2-3.2Zm0,8c0-1.76,1.44-3.2,3.2-3.2s3.2,1.44,3.2,3.2-1.28,3.2-3.2,3.2c-1.76,0-3.2-1.44-3.2-3.2Zm0,8c0-1.76,1.44-3.2,3.2-3.2s3.2,1.44,3.2,3.2-1.28,3.2-3.2,3.2c-1.76,0-3.2-1.44-3.2-3.2Zm0,8c0-1.76,1.44-3.2,3.2-3.2s3.2,1.44,3.2,3.2-1.28,3.2-3.2,3.2c-1.76,0-3.2-1.44-3.2-3.2Zm0,24c0-1.76,1.44-3.2,3.2-3.2s3.2,1.44,3.2,3.2-1.28,3.2-3.2,3.2c-1.76,0-3.2-1.44-3.2-3.2Zm0,8c0-1.76,1.44-3.2,3.2-3.2s3.2,1.44,3.2,3.2-1.28,3.2-3.2,3.2c-1.76,0-3.2-1.44-3.2-3.2Zm0,8c0-1.76,1.44-3.2,3.2-3.2s3.2,1.44,3.2,3.2-1.28,3.2-3.2,3.2c-1.76,0-3.2-1.44-3.2-3.2Zm0,8c0-1.76,1.44-3.2,3.2-3.2s3.2,1.44,3.2,3.2-1.28,3.2-3.2,3.2c-1.76,0-3.2-1.44-3.2-3.2Zm8-120c0-1.76,1.44-3.2,3.2-3.2s3.2,1.44,3.2,3.2-1.28,3.2-3.2,3.2c-1.76,0-3.2-1.44-3.2-3.2Zm0,8c0-1.76,1.44-3.2,3.2-3.2s3.2,1.44,3.2,3.2-1.28,3.2-3.2,3.2c-1.76,0-3.2-1.44-3.2-3.2Zm0,8c0-1.76,1.44-3.2,3.2-3.2s3.2,1.44,3.2,3.2-1.28,3.2-3.2,3.2c-1.76,0-3.2-1.44-3.2-3.2Zm0,8c0-1.76,1.44-3.2,3.2-3.2s3.2,1.44,3.2,3.2-1.28,3.2-3.2,3.2c-1.76,0-3.2-1.44-3.2-3.2Zm0,8c0-1.76,1.44-3.2,3.2-3.2s3.2,1.44,3.2,3.2-1.28,3.2-3.2,3.2c-1.76,0-3.2-1.44-3.2-3.2Zm0,16c0-1.76,1.44-3.2,3.2-3.2s3.2,1.44,3.2,3.2-1.28,3.2-3.2,3.2c-1.76,0-3.2-1.44-3.2-3.2Zm0,8c0-1.76,1.44-3.2,3.2-3.2s3.2,1.44,3.2,3.2-1.28,3.2-3.2,3.2c-1.76,0-3.2-1.44-3.2-3.2Zm0,8c0-1.76,1.44-3.2,3.2-3.2s3.2,1.44,3.2,3.2-1.28,3.2-3.2,3.2c-1.76,0-3.2-1.44-3.2-3.2Zm0,8c0-1.76,1.44-3.2,3.2-3.2s3.2,1.44,3.2,3.2-1.28,3.2-3.2,3.2c-1.76,0-3.2-1.44-3.2-3.2Zm0,8c0-1.76,1.44-3.2,3.2-3.2s3.2,1.44,3.2,3.2-1.28,3.2-3.2,3.2c-1.76,0-3.2-1.44-3.2-3.2Zm0,8c0-1.76,1.44-3.2,3.2-3.2s3.2,1.44,3.2,3.2-1.28,3.2-3.2,3.2c-1.76,0-3.2-1.44-3.2-3.2Zm0,8c0-1.76,1.44-3.2,3.2-3.2s3.2,1.44,3.2,3.2-1.28,3.2-3.2,3.2c-1.76,0-3.2-1.44-3.2-3.2Zm0,8c0-1.76,1.44-3.2,3.2-3.2s3.2,1.44,3.2,3.2-1.28,3.2-3.2,3.2c-1.76,0-3.2-1.44-3.2-3.2Zm0,8c0-1.76,1.44-3.2,3.2-3.2s3.2,1.44,3.2,3.2-1.28,3.2-3.2,3.2c-1.76,0-3.2-1.44-3.2-3.2Zm0,8c0-1.76,1.44-3.2,3.2-3.2s3.2,1.44,3.2,3.2-1.28,3.2-3.2,3.2c-1.76,0-3.2-1.44-3.2-3.2Zm8-120c0-1.76,1.44-3.2,3.2-3.2s3.2,1.44,3.2,3.2-1.28,3.2-3.2,3.2c-1.76,0-3.2-1.44-3.2-3.2Zm0,8c0-1.76,1.44-3.2,3.2-3.2s3.2,1.44,3.2,3.2-1.28,3.2-3.2,3.2c-1.76,0-3.2-1.44-3.2-3.2Zm0,8c0-1.76,1.44-3.2,3.2-3.2s3.2,1.44,3.2,3.2-1.28,3.2-3.2,3.2c-1.76,0-3.2-1.44-3.2-3.2Zm0,8c0-1.76,1.44-3.2,3.2-3.2s3.2,1.44,3.2,3.2-1.28,3.2-3.2,3.2c-1.76,0-3.2-1.44-3.2-3.2Zm0,8c0-1.76,1.44-3.2,3.2-3.2s3.2,1.44,3.2,3.2-1.28,3.2-3.2,3.2c-1.76,0-3.2-1.44-3.2-3.2Zm0,16c0-1.76,1.44-3.2,3.2-3.2s3.2,1.44,3.2,3.2-1.28,3.2-3.2,3.2c-1.76,0-3.2-1.44-3.2-3.2Zm0,8c0-1.76,1.44-3.2,3.2-3.2s3.2,1.44,3.2,3.2-1.28,3.2-3.2,3.2c-1.76,0-3.2-1.44-3.2-3.2Zm0,8c0-1.76,1.44-3.2,3.2-3.2s3.2,1.44,3.2,3.2-1.28,3.2-3.2,3.2c-1.76,0-3.2-1.44-3.2-3.2Zm0,8c0-1.76,1.44-3.2,3.2-3.2s3.2,1.44,3.2,3.2-1.28,3.2-3.2,3.2c-1.76,0-3.2-1.44-3.2-3.2Zm0,8c0-1.76,1.44-3.2,3.2-3.2s3.2,1.44,3.2,3.2-1.28,3.2-3.2,3.2c-1.76,0-3.2-1.44-3.2-3.2Zm0,8c0-1.76,1.44-3.2,3.2-3.2s3.2,1.44,3.2,3.2-1.28,3.2-3.2,3.2c-1.76,0-3.2-1.44-3.2-3.2Zm0,8c0-1.76,1.44-3.2,3.2-3.2s3.2,1.44,3.2,3.2-1.28,3.2-3.2,3.2c-1.76,0-3.2-1.44-3.2-3.2Zm0,8c0-1.76,1.44-3.2,3.2-3.2s3.2,1.44,3.2,3.2-1.28,3.2-3.2,3.2c-1.76,0-3.2-1.44-3.2-3.2Zm0,8c0-1.76,1.44-3.2,3.2-3.2s3.2,1.44,3.2,3.2-1.28,3.2-3.2,3.2c-1.76,0-3.2-1.44-3.2-3.2Zm0,8c0-1.76,1.44-3.2,3.2-3.2s3.2,1.44,3.2,3.2-1.28,3.2-3.2,3.2c-1.76,0-3.2-1.44-3.2-3.2Zm8-120c0-1.76,1.44-3.2,3.2-3.2s3.2,1.44,3.2,3.2-1.28,3.2-3.2,3.2c-1.76,0-3.2-1.44-3.2-3.2Zm0,8c0-1.76,1.44-3.2,3.2-3.2s3.2,1.44,3.2,3.2-1.28,3.2-3.2,3.2c-1.76,0-3.2-1.44-3.2-3.2Zm0,8c0-1.76,1.44-3.2,3.2-3.2s3.2,1.44,3.2,3.2-1.28,3.2-3.2,3.2c-1.76,0-3.2-1.44-3.2-3.2Zm0,8c0-1.76,1.44-3.2,3.2-3.2s3.2,1.44,3.2,3.2-1.28,3.2-3.2,3.2c-1.76,0-3.2-1.44-3.2-3.2Zm0,8c0-1.76,1.44-3.2,3.2-3.2s3.2,1.44,3.2,3.2-1.28,3.2-3.2,3.2c-1.76,0-3.2-1.44-3.2-3.2Zm0,24c0-1.76,1.44-3.2,3.2-3.2s3.2,1.44,3.2,3.2-1.28,3.2-3.2,3.2c-1.76,0-3.2-1.44-3.2-3.2Zm0,8c0-1.76,1.44-3.2,3.2-3.2s3.2,1.44,3.2,3.2-1.28,3.2-3.2,3.2c-1.76,0-3.2-1.44-3.2-3.2Zm0,8c0-1.76,1.44-3.2,3.2-3.2s3.2,1.44,3.2,3.2-1.28,3.2-3.2,3.2c-1.76,0-3.2-1.44-3.2-3.2Zm0,8c0-1.76,1.44-3.2,3.2-3.2s3.2,1.44,3.2,3.2-1.28,3.2-3.2,3.2c-1.76,0-3.2-1.44-3.2-3.2Zm0,8c0-1.76,1.44-3.2,3.2-3.2s3.2,1.44,3.2,3.2-1.28,3.2-3.2,3.2c-1.76,0-3.2-1.44-3.2-3.2Zm0,8c0-1.76,1.44-3.2,3.2-3.2s3.2,1.44,3.2,3.2-1.28,3.2-3.2,3.2c-1.76,0-3.2-1.44-3.2-3.2Zm0,8c0-1.76,1.44-3.2,3.2-3.2s3.2,1.44,3.2,3.2-1.28,3.2-3.2,3.2c-1.76,0-3.2-1.44-3.2-3.2Zm0,8c0-1.76,1.44-3.2,3.2-3.2s3.2,1.44,3.2,3.2-1.28,3.2-3.2,3.2c-1.76,0-3.2-1.44-3.2-3.2Zm0,8c0-1.76,1.44-3.2,3.2-3.2s3.2,1.44,3.2,3.2-1.28,3.2-3.2,3.2c-1.76,0-3.2-1.44-3.2-3.2Zm8-112c0-1.76,1.44-3.2,3.2-3.2s3.2,1.44,3.2,3.2-1.28,3.2-3.2,3.2c-1.76,0-3.2-1.44-3.2-3.2Zm0,8c0-1.76,1.44-3.2,3.2-3.2s3.2,1.44,3.2,3.2-1.28,3.2-3.2,3.2c-1.76,0-3.2-1.44-3.2-3.2Zm0,8c0-1.76,1.44-3.2,3.2-3.2s3.2,1.44,3.2,3.2-1.28,3.2-3.2,3.2c-1.76,0-3.2-1.44-3.2-3.2Zm0,8c0-1.76,1.44-3.2,3.2-3.2s3.2,1.44,3.2,3.2-1.28,3.2-3.2,3.2c-1.76,0-3.2-1.44-3.2-3.2Zm0,32c0-1.76,1.44-3.2,3.2-3.2s3.2,1.44,3.2,3.2-1.28,3.2-3.2,3.2c-1.76,0-3.2-1.44-3.2-3.2Zm0,8c0-1.76,1.44-3.2,3.2-3.2s3.2,1.44,3.2,3.2-1.28,3.2-3.2,3.2c-1.76,0-3.2-1.44-3.2-3.2Zm0,8c0-1.76,1.44-3.2,3.2-3.2s3.2,1.44,3.2,3.2-1.28,3.2-3.2,3.2c-1.76,0-3.2-1.44-3.2-3.2Zm0,8c0-1.76,1.44-3.2,3.2-3.2s3.2,1.44,3.2,3.2-1.28,3.2-3.2,3.2c-1.76,0-3.2-1.44-3.2-3.2Zm0,8c0-1.76,1.44-3.2,3.2-3.2s3.2,1.44,3.2,3.2-1.28,3.2-3.2,3.2c-1.76,0-3.2-1.44-3.2-3.2Zm0,8c0-1.76,1.44-3.2,3.2-3.2s3.2,1.44,3.2,3.2-1.28,3.2-3.2,3.2c-1.76,0-3.2-1.44-3.2-3.2Zm0,8c0-1.76,1.44-3.2,3.2-3.2s3.2,1.44,3.2,3.2-1.28,3.2-3.2,3.2c-1.76,0-3.2-1.44-3.2-3.2Z"/>
      </g>
    </g>
  </g>
</svg>