<?xml version="1.0" encoding="UTF-8"?>
<svg id="Layer_2" data-name="Layer 2" xmlns="http://www.w3.org/2000/svg" viewBox="0 0 566.4 126.4">
  <defs>
    <style>
      .cls-1 {
        fill: #ff9fe2;
      }
    </style>
  </defs>
  <g id="Layer_2-2" data-name="Layer 2">
    <g id="Layer_1-2" data-name="Layer 1-2">
      <g>
        <path class="cls-1" d="m0,3.2C0,1.44,1.44,0,3.2,0s3.2,1.44,3.2,3.2-1.28,3.2-3.2,3.2c-1.76,0-3.2-1.44-3.2-3.2Zm0,8c0-1.76,1.44-3.2,3.2-3.2s3.2,1.44,3.2,3.2-1.44,3.2-3.2,3.2-3.2-1.44-3.2-3.2Zm0,8c0-1.76,1.44-3.2,3.2-3.2s3.2,1.44,3.2,3.2-1.44,3.2-3.2,3.2-3.2-1.44-3.2-3.2Zm0,8c0-1.76,1.44-3.2,3.2-3.2s3.2,1.44,3.2,3.2-1.44,3.2-3.2,3.2-3.2-1.44-3.2-3.2Zm0,8c0-1.76,1.44-3.2,3.2-3.2s3.2,1.44,3.2,3.2-1.44,3.2-3.2,3.2-3.2-1.44-3.2-3.2Zm0,8c0-1.76,1.44-3.2,3.2-3.2s3.2,1.44,3.2,3.2-1.44,3.2-3.2,3.2-3.2-1.44-3.2-3.2Zm0,8c0-1.76,1.44-3.2,3.2-3.2s3.2,1.44,3.2,3.2-1.44,3.2-3.2,3.2-3.2-1.44-3.2-3.2Zm0,8c0-1.76,1.44-3.2,3.2-3.2s3.2,1.44,3.2,3.2-1.44,3.2-3.2,3.2-3.2-1.44-3.2-3.2Zm0,8c0-1.76,1.44-3.2,3.2-3.2s3.2,1.44,3.2,3.2-1.44,3.2-3.2,3.2-3.2-1.44-3.2-3.2Zm0,8c0-1.76,1.44-3.2,3.2-3.2s3.2,1.44,3.2,3.2-1.44,3.2-3.2,3.2-3.2-1.44-3.2-3.2Zm0,8c0-1.76,1.44-3.2,3.2-3.2s3.2,1.44,3.2,3.2-1.44,3.2-3.2,3.2-3.2-1.44-3.2-3.2Zm0,8c0-1.76,1.44-3.2,3.2-3.2s3.2,1.44,3.2,3.2-1.44,3.2-3.2,3.2-3.2-1.44-3.2-3.2Zm0,8c0-1.76,1.44-3.2,3.2-3.2s3.2,1.44,3.2,3.2-1.44,3.2-3.2,3.2-3.2-1.44-3.2-3.2Zm0,8c0-1.76,1.44-3.2,3.2-3.2s3.2,1.44,3.2,3.2-1.44,3.2-3.2,3.2-3.2-1.44-3.2-3.2Zm0,8c0-1.76,1.44-3.2,3.2-3.2s3.2,1.44,3.2,3.2-1.44,3.2-3.2,3.2-3.2-1.44-3.2-3.2Zm0,8c0-1.76,1.44-3.2,3.2-3.2s3.2,1.44,3.2,3.2-1.28,3.2-3.2,3.2c-1.76,0-3.2-1.44-3.2-3.2ZM8,3.2C8,1.44,9.44,0,11.2,0s3.2,1.44,3.2,3.2-1.28,3.2-3.2,3.2c-1.76,0-3.2-1.44-3.2-3.2Zm0,8c0-1.76,1.44-3.2,3.2-3.2s3.2,1.44,3.2,3.2-1.28,3.2-3.2,3.2c-1.76,0-3.2-1.44-3.2-3.2Zm0,8c0-1.76,1.44-3.2,3.2-3.2s3.2,1.44,3.2,3.2-1.28,3.2-3.2,3.2c-1.76,0-3.2-1.44-3.2-3.2Zm0,8c0-1.76,1.44-3.2,3.2-3.2s3.2,1.44,3.2,3.2-1.28,3.2-3.2,3.2c-1.76,0-3.2-1.44-3.2-3.2Zm0,8c0-1.76,1.44-3.2,3.2-3.2s3.2,1.44,3.2,3.2-1.28,3.2-3.2,3.2c-1.76,0-3.2-1.44-3.2-3.2Zm0,8c0-1.76,1.44-3.2,3.2-3.2s3.2,1.44,3.2,3.2-1.28,3.2-3.2,3.2c-1.76,0-3.2-1.44-3.2-3.2Zm0,8c0-1.76,1.44-3.2,3.2-3.2s3.2,1.44,3.2,3.2-1.28,3.2-3.2,3.2c-1.76,0-3.2-1.44-3.2-3.2Zm0,8c0-1.76,1.44-3.2,3.2-3.2s3.2,1.44,3.2,3.2-1.28,3.2-3.2,3.2c-1.76,0-3.2-1.44-3.2-3.2Zm0,8c0-1.76,1.44-3.2,3.2-3.2s3.2,1.44,3.2,3.2-1.28,3.2-3.2,3.2c-1.76,0-3.2-1.44-3.2-3.2Zm0,8c0-1.76,1.44-3.2,3.2-3.2s3.2,1.44,3.2,3.2-1.28,3.2-3.2,3.2c-1.76,0-3.2-1.44-3.2-3.2Zm0,8c0-1.76,1.44-3.2,3.2-3.2s3.2,1.44,3.2,3.2-1.28,3.2-3.2,3.2c-1.76,0-3.2-1.44-3.2-3.2Zm0,8c0-1.76,1.44-3.2,3.2-3.2s3.2,1.44,3.2,3.2-1.28,3.2-3.2,3.2c-1.76,0-3.2-1.44-3.2-3.2Zm0,8c0-1.76,1.44-3.2,3.2-3.2s3.2,1.44,3.2,3.2-1.28,3.2-3.2,3.2c-1.76,0-3.2-1.44-3.2-3.2Zm0,8c0-1.76,1.44-3.2,3.2-3.2s3.2,1.44,3.2,3.2-1.28,3.2-3.2,3.2c-1.76,0-3.2-1.44-3.2-3.2Zm0,8c0-1.76,1.44-3.2,3.2-3.2s3.2,1.44,3.2,3.2-1.28,3.2-3.2,3.2c-1.76,0-3.2-1.44-3.2-3.2Zm0,8c0-1.76,1.44-3.2,3.2-3.2s3.2,1.44,3.2,3.2-1.28,3.2-3.2,3.2c-1.76,0-3.2-1.44-3.2-3.2ZM16,3.2C16,1.44,17.44,0,19.2,0s3.2,1.44,3.2,3.2-1.28,3.2-3.2,3.2c-1.76,0-3.2-1.44-3.2-3.2Zm0,8c0-1.76,1.44-3.2,3.2-3.2s3.2,1.44,3.2,3.2-1.28,3.2-3.2,3.2c-1.76,0-3.2-1.44-3.2-3.2Zm0,8c0-1.76,1.44-3.2,3.2-3.2s3.2,1.44,3.2,3.2-1.28,3.2-3.2,3.2c-1.76,0-3.2-1.44-3.2-3.2Zm0,8c0-1.76,1.44-3.2,3.2-3.2s3.2,1.44,3.2,3.2-1.28,3.2-3.2,3.2c-1.76,0-3.2-1.44-3.2-3.2Zm0,8c0-1.76,1.44-3.2,3.2-3.2s3.2,1.44,3.2,3.2-1.28,3.2-3.2,3.2c-1.76,0-3.2-1.44-3.2-3.2Zm0,8c0-1.76,1.44-3.2,3.2-3.2s3.2,1.44,3.2,3.2-1.28,3.2-3.2,3.2c-1.76,0-3.2-1.44-3.2-3.2Zm0,8c0-1.76,1.44-3.2,3.2-3.2s3.2,1.44,3.2,3.2-1.28,3.2-3.2,3.2c-1.76,0-3.2-1.44-3.2-3.2Zm0,8c0-1.76,1.44-3.2,3.2-3.2s3.2,1.44,3.2,3.2-1.28,3.2-3.2,3.2c-1.76,0-3.2-1.44-3.2-3.2Zm0,8c0-1.76,1.44-3.2,3.2-3.2s3.2,1.44,3.2,3.2-1.28,3.2-3.2,3.2c-1.76,0-3.2-1.44-3.2-3.2Zm0,8c0-1.76,1.44-3.2,3.2-3.2s3.2,1.44,3.2,3.2-1.28,3.2-3.2,3.2c-1.76,0-3.2-1.44-3.2-3.2Zm0,8c0-1.76,1.44-3.2,3.2-3.2s3.2,1.44,3.2,3.2-1.28,3.2-3.2,3.2c-1.76,0-3.2-1.44-3.2-3.2Zm0,8c0-1.76,1.44-3.2,3.2-3.2s3.2,1.44,3.2,3.2-1.28,3.2-3.2,3.2c-1.76,0-3.2-1.44-3.2-3.2Zm0,8c0-1.76,1.44-3.2,3.2-3.2s3.2,1.44,3.2,3.2-1.28,3.2-3.2,3.2c-1.76,0-3.2-1.44-3.2-3.2Zm0,8c0-1.76,1.44-3.2,3.2-3.2s3.2,1.44,3.2,3.2-1.28,3.2-3.2,3.2c-1.76,0-3.2-1.44-3.2-3.2Zm0,8c0-1.76,1.44-3.2,3.2-3.2s3.2,1.44,3.2,3.2-1.28,3.2-3.2,3.2c-1.76,0-3.2-1.44-3.2-3.2Zm0,8c0-1.76,1.44-3.2,3.2-3.2s3.2,1.44,3.2,3.2-1.28,3.2-3.2,3.2c-1.76,0-3.2-1.44-3.2-3.2ZM24,3.2C24,1.44,25.44,0,27.2,0s3.2,1.44,3.2,3.2-1.28,3.2-3.2,3.2c-1.76,0-3.2-1.44-3.2-3.2Zm0,8c0-1.76,1.44-3.2,3.2-3.2s3.2,1.44,3.2,3.2-1.28,3.2-3.2,3.2c-1.76,0-3.2-1.44-3.2-3.2Zm0,8c0-1.76,1.44-3.2,3.2-3.2s3.2,1.44,3.2,3.2-1.28,3.2-3.2,3.2c-1.76,0-3.2-1.44-3.2-3.2Zm0,8c0-1.76,1.44-3.2,3.2-3.2s3.2,1.44,3.2,3.2-1.28,3.2-3.2,3.2c-1.76,0-3.2-1.44-3.2-3.2Zm0,8c0-1.76,1.44-3.2,3.2-3.2s3.2,1.44,3.2,3.2-1.28,3.2-3.2,3.2c-1.76,0-3.2-1.44-3.2-3.2Zm0,8c0-1.76,1.44-3.2,3.2-3.2s3.2,1.44,3.2,3.2-1.28,3.2-3.2,3.2c-1.76,0-3.2-1.44-3.2-3.2Zm0,8c0-1.76,1.44-3.2,3.2-3.2s3.2,1.44,3.2,3.2-1.28,3.2-3.2,3.2c-1.76,0-3.2-1.44-3.2-3.2Zm0,8c0-1.76,1.44-3.2,3.2-3.2s3.2,1.44,3.2,3.2-1.28,3.2-3.2,3.2c-1.76,0-3.2-1.44-3.2-3.2Zm0,8c0-1.76,1.44-3.2,3.2-3.2s3.2,1.44,3.2,3.2-1.28,3.2-3.2,3.2c-1.76,0-3.2-1.44-3.2-3.2Zm0,8c0-1.76,1.44-3.2,3.2-3.2s3.2,1.44,3.2,3.2-1.28,3.2-3.2,3.2c-1.76,0-3.2-1.44-3.2-3.2Zm0,8c0-1.76,1.44-3.2,3.2-3.2s3.2,1.44,3.2,3.2-1.28,3.2-3.2,3.2c-1.76,0-3.2-1.44-3.2-3.2Zm0,8c0-1.76,1.44-3.2,3.2-3.2s3.2,1.44,3.2,3.2-1.28,3.2-3.2,3.2c-1.76,0-3.2-1.44-3.2-3.2Zm0,8c0-1.76,1.44-3.2,3.2-3.2s3.2,1.44,3.2,3.2-1.28,3.2-3.2,3.2c-1.76,0-3.2-1.44-3.2-3.2Zm0,8c0-1.76,1.44-3.2,3.2-3.2s3.2,1.44,3.2,3.2-1.28,3.2-3.2,3.2c-1.76,0-3.2-1.44-3.2-3.2Zm0,8c0-1.76,1.44-3.2,3.2-3.2s3.2,1.44,3.2,3.2-1.28,3.2-3.2,3.2c-1.76,0-3.2-1.44-3.2-3.2Zm0,8c0-1.76,1.44-3.2,3.2-3.2s3.2,1.44,3.2,3.2-1.28,3.2-3.2,3.2c-1.76,0-3.2-1.44-3.2-3.2ZM32,3.2C32,1.44,33.44,0,35.2,0s3.2,1.44,3.2,3.2-1.28,3.2-3.2,3.2c-1.76,0-3.2-1.44-3.2-3.2Zm0,8c0-1.76,1.44-3.2,3.2-3.2s3.2,1.44,3.2,3.2-1.28,3.2-3.2,3.2c-1.76,0-3.2-1.44-3.2-3.2Zm0,8c0-1.76,1.44-3.2,3.2-3.2s3.2,1.44,3.2,3.2-1.28,3.2-3.2,3.2c-1.76,0-3.2-1.44-3.2-3.2Zm0,8c0-1.76,1.44-3.2,3.2-3.2s3.2,1.44,3.2,3.2-1.28,3.2-3.2,3.2c-1.76,0-3.2-1.44-3.2-3.2Zm0,72c0-1.76,1.44-3.2,3.2-3.2s3.2,1.44,3.2,3.2-1.28,3.2-3.2,3.2c-1.76,0-3.2-1.44-3.2-3.2Zm0,8c0-1.76,1.44-3.2,3.2-3.2s3.2,1.44,3.2,3.2-1.28,3.2-3.2,3.2c-1.76,0-3.2-1.44-3.2-3.2Zm0,8c0-1.76,1.44-3.2,3.2-3.2s3.2,1.44,3.2,3.2-1.28,3.2-3.2,3.2c-1.76,0-3.2-1.44-3.2-3.2Zm0,8c0-1.76,1.44-3.2,3.2-3.2s3.2,1.44,3.2,3.2-1.28,3.2-3.2,3.2c-1.76,0-3.2-1.44-3.2-3.2ZM40,3.2C40,1.44,41.44,0,43.2,0s3.2,1.44,3.2,3.2-1.28,3.2-3.2,3.2c-1.76,0-3.2-1.44-3.2-3.2Zm0,8c0-1.76,1.44-3.2,3.2-3.2s3.2,1.44,3.2,3.2-1.28,3.2-3.2,3.2c-1.76,0-3.2-1.44-3.2-3.2Zm0,8c0-1.76,1.44-3.2,3.2-3.2s3.2,1.44,3.2,3.2-1.28,3.2-3.2,3.2c-1.76,0-3.2-1.44-3.2-3.2Zm0,8c0-1.76,1.44-3.2,3.2-3.2s3.2,1.44,3.2,3.2-1.28,3.2-3.2,3.2c-1.76,0-3.2-1.44-3.2-3.2Zm0,8c0-1.76,1.44-3.2,3.2-3.2s3.2,1.44,3.2,3.2-1.28,3.2-3.2,3.2c-1.76,0-3.2-1.44-3.2-3.2Zm0,8c0-1.76,1.44-3.2,3.2-3.2s3.2,1.44,3.2,3.2-1.28,3.2-3.2,3.2c-1.76,0-3.2-1.44-3.2-3.2Zm0,8c0-1.76,1.44-3.2,3.2-3.2s3.2,1.44,3.2,3.2-1.28,3.2-3.2,3.2c-1.76,0-3.2-1.44-3.2-3.2Zm0,8c0-1.76,1.44-3.2,3.2-3.2s3.2,1.44,3.2,3.2-1.28,3.2-3.2,3.2c-1.76,0-3.2-1.44-3.2-3.2Zm0,8c0-1.76,1.44-3.2,3.2-3.2s3.2,1.44,3.2,3.2-1.28,3.2-3.2,3.2c-1.76,0-3.2-1.44-3.2-3.2Zm0,8c0-1.76,1.44-3.2,3.2-3.2s3.2,1.44,3.2,3.2-1.28,3.2-3.2,3.2c-1.76,0-3.2-1.44-3.2-3.2Zm0,8c0-1.76,1.44-3.2,3.2-3.2s3.2,1.44,3.2,3.2-1.28,3.2-3.2,3.2c-1.76,0-3.2-1.44-3.2-3.2Zm0,8c0-1.76,1.44-3.2,3.2-3.2s3.2,1.44,3.2,3.2-1.28,3.2-3.2,3.2c-1.76,0-3.2-1.44-3.2-3.2Zm0,8c0-1.76,1.44-3.2,3.2-3.2s3.2,1.44,3.2,3.2-1.28,3.2-3.2,3.2c-1.76,0-3.2-1.44-3.2-3.2Zm0,8c0-1.76,1.44-3.2,3.2-3.2s3.2,1.44,3.2,3.2-1.28,3.2-3.2,3.2c-1.76,0-3.2-1.44-3.2-3.2Zm0,8c0-1.76,1.44-3.2,3.2-3.2s3.2,1.44,3.2,3.2-1.28,3.2-3.2,3.2c-1.76,0-3.2-1.44-3.2-3.2Zm0,8c0-1.76,1.44-3.2,3.2-3.2s3.2,1.44,3.2,3.2-1.28,3.2-3.2,3.2c-1.76,0-3.2-1.44-3.2-3.2ZM48,3.2C48,1.44,49.44,0,51.2,0s3.2,1.44,3.2,3.2-1.28,3.2-3.2,3.2c-1.76,0-3.2-1.44-3.2-3.2Zm0,8c0-1.76,1.44-3.2,3.2-3.2s3.2,1.44,3.2,3.2-1.28,3.2-3.2,3.2c-1.76,0-3.2-1.44-3.2-3.2Zm0,8c0-1.76,1.44-3.2,3.2-3.2s3.2,1.44,3.2,3.2-1.28,3.2-3.2,3.2c-1.76,0-3.2-1.44-3.2-3.2Zm0,8c0-1.76,1.44-3.2,3.2-3.2s3.2,1.44,3.2,3.2-1.28,3.2-3.2,3.2c-1.76,0-3.2-1.44-3.2-3.2Zm0,8c0-1.76,1.44-3.2,3.2-3.2s3.2,1.44,3.2,3.2-1.28,3.2-3.2,3.2c-1.76,0-3.2-1.44-3.2-3.2Zm0,8c0-1.76,1.44-3.2,3.2-3.2s3.2,1.44,3.2,3.2-1.28,3.2-3.2,3.2c-1.76,0-3.2-1.44-3.2-3.2Zm0,8c0-1.76,1.44-3.2,3.2-3.2s3.2,1.44,3.2,3.2-1.28,3.2-3.2,3.2c-1.76,0-3.2-1.44-3.2-3.2Zm0,8c0-1.76,1.44-3.2,3.2-3.2s3.2,1.44,3.2,3.2-1.28,3.2-3.2,3.2c-1.76,0-3.2-1.44-3.2-3.2Zm0,8c0-1.76,1.44-3.2,3.2-3.2s3.2,1.44,3.2,3.2-1.28,3.2-3.2,3.2c-1.76,0-3.2-1.44-3.2-3.2Zm0,8c0-1.76,1.44-3.2,3.2-3.2s3.2,1.44,3.2,3.2-1.28,3.2-3.2,3.2c-1.76,0-3.2-1.44-3.2-3.2Zm0,8c0-1.76,1.44-3.2,3.2-3.2s3.2,1.44,3.2,3.2-1.28,3.2-3.2,3.2c-1.76,0-3.2-1.44-3.2-3.2Zm0,8c0-1.76,1.44-3.2,3.2-3.2s3.2,1.44,3.2,3.2-1.28,3.2-3.2,3.2c-1.76,0-3.2-1.44-3.2-3.2Zm0,8c0-1.76,1.44-3.2,3.2-3.2s3.2,1.44,3.2,3.2-1.28,3.2-3.2,3.2c-1.76,0-3.2-1.44-3.2-3.2Zm0,8c0-1.76,1.44-3.2,3.2-3.2s3.2,1.44,3.2,3.2-1.28,3.2-3.2,3.2c-1.76,0-3.2-1.44-3.2-3.2Zm0,8c0-1.76,1.44-3.2,3.2-3.2s3.2,1.44,3.2,3.2-1.28,3.2-3.2,3.2c-1.76,0-3.2-1.44-3.2-3.2Zm0,8c0-1.76,1.44-3.2,3.2-3.2s3.2,1.44,3.2,3.2-1.28,3.2-3.2,3.2c-1.76,0-3.2-1.44-3.2-3.2ZM56,3.2C56,1.44,57.44,0,59.2,0s3.2,1.44,3.2,3.2-1.28,3.2-3.2,3.2c-1.76,0-3.2-1.44-3.2-3.2Zm0,8c0-1.76,1.44-3.2,3.2-3.2s3.2,1.44,3.2,3.2-1.28,3.2-3.2,3.2c-1.76,0-3.2-1.44-3.2-3.2Zm0,8c0-1.76,1.44-3.2,3.2-3.2s3.2,1.44,3.2,3.2-1.28,3.2-3.2,3.2c-1.76,0-3.2-1.44-3.2-3.2Zm0,8c0-1.76,1.44-3.2,3.2-3.2s3.2,1.44,3.2,3.2-1.28,3.2-3.2,3.2c-1.76,0-3.2-1.44-3.2-3.2Zm0,8c0-1.76,1.44-3.2,3.2-3.2s3.2,1.44,3.2,3.2-1.28,3.2-3.2,3.2c-1.76,0-3.2-1.44-3.2-3.2Zm0,8c0-1.76,1.44-3.2,3.2-3.2s3.2,1.44,3.2,3.2-1.28,3.2-3.2,3.2c-1.76,0-3.2-1.44-3.2-3.2Zm0,8c0-1.76,1.44-3.2,3.2-3.2s3.2,1.44,3.2,3.2-1.28,3.2-3.2,3.2c-1.76,0-3.2-1.44-3.2-3.2Zm0,8c0-1.76,1.44-3.2,3.2-3.2s3.2,1.44,3.2,3.2-1.28,3.2-3.2,3.2c-1.76,0-3.2-1.44-3.2-3.2Zm0,8c0-1.76,1.44-3.2,3.2-3.2s3.2,1.44,3.2,3.2-1.28,3.2-3.2,3.2c-1.76,0-3.2-1.44-3.2-3.2Zm0,8c0-1.76,1.44-3.2,3.2-3.2s3.2,1.44,3.2,3.2-1.28,3.2-3.2,3.2c-1.76,0-3.2-1.44-3.2-3.2Zm0,8c0-1.76,1.44-3.2,3.2-3.2s3.2,1.44,3.2,3.2-1.28,3.2-3.2,3.2c-1.76,0-3.2-1.44-3.2-3.2Zm0,8c0-1.76,1.44-3.2,3.2-3.2s3.2,1.44,3.2,3.2-1.28,3.2-3.2,3.2c-1.76,0-3.2-1.44-3.2-3.2Zm0,8c0-1.76,1.44-3.2,3.2-3.2s3.2,1.44,3.2,3.2-1.28,3.2-3.2,3.2c-1.76,0-3.2-1.44-3.2-3.2Zm0,8c0-1.76,1.44-3.2,3.2-3.2s3.2,1.44,3.2,3.2-1.28,3.2-3.2,3.2c-1.76,0-3.2-1.44-3.2-3.2Zm0,8c0-1.76,1.44-3.2,3.2-3.2s3.2,1.44,3.2,3.2-1.28,3.2-3.2,3.2c-1.76,0-3.2-1.44-3.2-3.2Zm0,8c0-1.76,1.44-3.2,3.2-3.2s3.2,1.44,3.2,3.2-1.28,3.2-3.2,3.2c-1.76,0-3.2-1.44-3.2-3.2Zm8-112c0-1.76,1.44-3.2,3.2-3.2s3.2,1.44,3.2,3.2-1.28,3.2-3.2,3.2c-1.76,0-3.2-1.44-3.2-3.2Zm0,8c0-1.76,1.44-3.2,3.2-3.2s3.2,1.44,3.2,3.2-1.28,3.2-3.2,3.2c-1.76,0-3.2-1.44-3.2-3.2Zm0,8c0-1.76,1.44-3.2,3.2-3.2s3.2,1.44,3.2,3.2-1.28,3.2-3.2,3.2c-1.76,0-3.2-1.44-3.2-3.2Zm0,8c0-1.76,1.44-3.2,3.2-3.2s3.2,1.44,3.2,3.2-1.28,3.2-3.2,3.2c-1.76,0-3.2-1.44-3.2-3.2Zm0,8c0-1.76,1.44-3.2,3.2-3.2s3.2,1.44,3.2,3.2-1.28,3.2-3.2,3.2c-1.76,0-3.2-1.44-3.2-3.2Zm0,8c0-1.76,1.44-3.2,3.2-3.2s3.2,1.44,3.2,3.2-1.28,3.2-3.2,3.2c-1.76,0-3.2-1.44-3.2-3.2Zm0,8c0-1.76,1.44-3.2,3.2-3.2s3.2,1.44,3.2,3.2-1.28,3.2-3.2,3.2c-1.76,0-3.2-1.44-3.2-3.2Zm0,8c0-1.76,1.44-3.2,3.2-3.2s3.2,1.44,3.2,3.2-1.28,3.2-3.2,3.2c-1.76,0-3.2-1.44-3.2-3.2Zm0,8c0-1.76,1.44-3.2,3.2-3.2s3.2,1.44,3.2,3.2-1.28,3.2-3.2,3.2c-1.76,0-3.2-1.44-3.2-3.2Zm0,8c0-1.76,1.44-3.2,3.2-3.2s3.2,1.44,3.2,3.2-1.28,3.2-3.2,3.2c-1.76,0-3.2-1.44-3.2-3.2Zm0,8c0-1.76,1.44-3.2,3.2-3.2s3.2,1.44,3.2,3.2-1.28,3.2-3.2,3.2c-1.76,0-3.2-1.44-3.2-3.2Zm0,8c0-1.76,1.44-3.2,3.2-3.2s3.2,1.44,3.2,3.2-1.28,3.2-3.2,3.2c-1.76,0-3.2-1.44-3.2-3.2Zm0,8c0-1.76,1.44-3.2,3.2-3.2s3.2,1.44,3.2,3.2-1.28,3.2-3.2,3.2c-1.76,0-3.2-1.44-3.2-3.2Zm0,8c0-1.76,1.44-3.2,3.2-3.2s3.2,1.44,3.2,3.2-1.28,3.2-3.2,3.2c-1.76,0-3.2-1.44-3.2-3.2Z"/>
        <path class="cls-1" d="m80,3.2C80,1.44,81.44,0,83.2,0s3.2,1.44,3.2,3.2-1.44,3.2-3.2,3.2-3.2-1.44-3.2-3.2Zm0,8c0-1.76,1.44-3.2,3.2-3.2s3.2,1.44,3.2,3.2-1.44,3.2-3.2,3.2-3.2-1.44-3.2-3.2Zm0,8c0-1.76,1.44-3.2,3.2-3.2s3.2,1.44,3.2,3.2-1.44,3.2-3.2,3.2-3.2-1.44-3.2-3.2Zm0,8c0-1.76,1.44-3.2,3.2-3.2s3.2,1.44,3.2,3.2-1.44,3.2-3.2,3.2-3.2-1.44-3.2-3.2Zm0,8c0-1.76,1.44-3.2,3.2-3.2s3.2,1.44,3.2,3.2-1.44,3.2-3.2,3.2-3.2-1.44-3.2-3.2Zm0,8c0-1.76,1.44-3.2,3.2-3.2s3.2,1.44,3.2,3.2-1.44,3.2-3.2,3.2-3.2-1.44-3.2-3.2Zm0,8c0-1.76,1.44-3.2,3.2-3.2s3.2,1.44,3.2,3.2-1.44,3.2-3.2,3.2-3.2-1.44-3.2-3.2Zm0,8c0-1.76,1.44-3.2,3.2-3.2s3.2,1.44,3.2,3.2-1.44,3.2-3.2,3.2-3.2-1.44-3.2-3.2Zm0,8c0-1.76,1.44-3.2,3.2-3.2s3.2,1.44,3.2,3.2-1.44,3.2-3.2,3.2-3.2-1.44-3.2-3.2Zm0,8c0-1.76,1.44-3.2,3.2-3.2s3.2,1.44,3.2,3.2-1.44,3.2-3.2,3.2-3.2-1.44-3.2-3.2Zm0,8c0-1.76,1.44-3.2,3.2-3.2s3.2,1.44,3.2,3.2-1.44,3.2-3.2,3.2-3.2-1.44-3.2-3.2Zm0,8c0-1.76,1.44-3.2,3.2-3.2s3.2,1.44,3.2,3.2-1.44,3.2-3.2,3.2-3.2-1.44-3.2-3.2Zm0,8c0-1.76,1.44-3.2,3.2-3.2s3.2,1.44,3.2,3.2-1.44,3.2-3.2,3.2-3.2-1.44-3.2-3.2Zm0,8c0-1.76,1.44-3.2,3.2-3.2s3.2,1.44,3.2,3.2-1.44,3.2-3.2,3.2-3.2-1.44-3.2-3.2Zm0,8c0-1.76,1.44-3.2,3.2-3.2s3.2,1.44,3.2,3.2-1.44,3.2-3.2,3.2-3.2-1.44-3.2-3.2Zm0,8c0-1.76,1.44-3.2,3.2-3.2s3.2,1.44,3.2,3.2-1.44,3.2-3.2,3.2-3.2-1.44-3.2-3.2ZM88,3.2C88,1.44,89.44,0,91.2,0s3.2,1.44,3.2,3.2-1.28,3.2-3.2,3.2c-1.76,0-3.2-1.44-3.2-3.2Zm0,8c0-1.76,1.44-3.2,3.2-3.2s3.2,1.44,3.2,3.2-1.28,3.2-3.2,3.2c-1.76,0-3.2-1.44-3.2-3.2Zm0,8c0-1.76,1.44-3.2,3.2-3.2s3.2,1.44,3.2,3.2-1.28,3.2-3.2,3.2c-1.76,0-3.2-1.44-3.2-3.2Zm0,8c0-1.76,1.44-3.2,3.2-3.2s3.2,1.44,3.2,3.2-1.28,3.2-3.2,3.2c-1.76,0-3.2-1.44-3.2-3.2Zm0,8c0-1.76,1.44-3.2,3.2-3.2s3.2,1.44,3.2,3.2-1.28,3.2-3.2,3.2c-1.76,0-3.2-1.44-3.2-3.2Zm0,8c0-1.76,1.44-3.2,3.2-3.2s3.2,1.44,3.2,3.2-1.28,3.2-3.2,3.2c-1.76,0-3.2-1.44-3.2-3.2Zm0,8c0-1.76,1.44-3.2,3.2-3.2s3.2,1.44,3.2,3.2-1.28,3.2-3.2,3.2c-1.76,0-3.2-1.44-3.2-3.2Zm0,8c0-1.76,1.44-3.2,3.2-3.2s3.2,1.44,3.2,3.2-1.28,3.2-3.2,3.2c-1.76,0-3.2-1.44-3.2-3.2Zm0,8c0-1.76,1.44-3.2,3.2-3.2s3.2,1.44,3.2,3.2-1.28,3.2-3.2,3.2c-1.76,0-3.2-1.44-3.2-3.2Zm0,8c0-1.76,1.44-3.2,3.2-3.2s3.2,1.44,3.2,3.2-1.28,3.2-3.2,3.2c-1.76,0-3.2-1.44-3.2-3.2Zm0,8c0-1.76,1.44-3.2,3.2-3.2s3.2,1.44,3.2,3.2-1.28,3.2-3.2,3.2c-1.76,0-3.2-1.44-3.2-3.2Zm0,8c0-1.76,1.44-3.2,3.2-3.2s3.2,1.44,3.2,3.2-1.28,3.2-3.2,3.2c-1.76,0-3.2-1.44-3.2-3.2Zm0,8c0-1.76,1.44-3.2,3.2-3.2s3.2,1.44,3.2,3.2-1.28,3.2-3.2,3.2c-1.76,0-3.2-1.44-3.2-3.2Zm0,8c0-1.76,1.44-3.2,3.2-3.2s3.2,1.44,3.2,3.2-1.28,3.2-3.2,3.2c-1.76,0-3.2-1.44-3.2-3.2Zm0,8c0-1.76,1.44-3.2,3.2-3.2s3.2,1.44,3.2,3.2-1.28,3.2-3.2,3.2c-1.76,0-3.2-1.44-3.2-3.2Zm0,8c0-1.76,1.44-3.2,3.2-3.2s3.2,1.44,3.2,3.2-1.28,3.2-3.2,3.2c-1.76,0-3.2-1.44-3.2-3.2ZM96,3.2C96,1.44,97.44,0,99.2,0s3.2,1.44,3.2,3.2-1.28,3.2-3.2,3.2c-1.76,0-3.2-1.44-3.2-3.2Zm0,8c0-1.76,1.44-3.2,3.2-3.2s3.2,1.44,3.2,3.2-1.28,3.2-3.2,3.2c-1.76,0-3.2-1.44-3.2-3.2Zm0,8c0-1.76,1.44-3.2,3.2-3.2s3.2,1.44,3.2,3.2-1.28,3.2-3.2,3.2c-1.76,0-3.2-1.44-3.2-3.2Zm0,8c0-1.76,1.44-3.2,3.2-3.2s3.2,1.44,3.2,3.2-1.28,3.2-3.2,3.2c-1.76,0-3.2-1.44-3.2-3.2Zm0,8c0-1.76,1.44-3.2,3.2-3.2s3.2,1.44,3.2,3.2-1.28,3.2-3.2,3.2c-1.76,0-3.2-1.44-3.2-3.2Zm0,8c0-1.76,1.44-3.2,3.2-3.2s3.2,1.44,3.2,3.2-1.28,3.2-3.2,3.2c-1.76,0-3.2-1.44-3.2-3.2Zm0,8c0-1.76,1.44-3.2,3.2-3.2s3.2,1.44,3.2,3.2-1.28,3.2-3.2,3.2c-1.76,0-3.2-1.44-3.2-3.2Zm0,8c0-1.76,1.44-3.2,3.2-3.2s3.2,1.44,3.2,3.2-1.28,3.2-3.2,3.2c-1.76,0-3.2-1.44-3.2-3.2Zm0,8c0-1.76,1.44-3.2,3.2-3.2s3.2,1.44,3.2,3.2-1.28,3.2-3.2,3.2c-1.76,0-3.2-1.44-3.2-3.2Zm0,8c0-1.76,1.44-3.2,3.2-3.2s3.2,1.44,3.2,3.2-1.28,3.2-3.2,3.2c-1.76,0-3.2-1.44-3.2-3.2Zm0,8c0-1.76,1.44-3.2,3.2-3.2s3.2,1.44,3.2,3.2-1.28,3.2-3.2,3.2c-1.76,0-3.2-1.44-3.2-3.2Zm0,8c0-1.76,1.44-3.2,3.2-3.2s3.2,1.44,3.2,3.2-1.28,3.2-3.2,3.2c-1.76,0-3.2-1.44-3.2-3.2Zm0,8c0-1.76,1.44-3.2,3.2-3.2s3.2,1.44,3.2,3.2-1.28,3.2-3.2,3.2c-1.76,0-3.2-1.44-3.2-3.2Zm0,8c0-1.76,1.44-3.2,3.2-3.2s3.2,1.44,3.2,3.2-1.28,3.2-3.2,3.2c-1.76,0-3.2-1.44-3.2-3.2Zm0,8c0-1.76,1.44-3.2,3.2-3.2s3.2,1.44,3.2,3.2-1.28,3.2-3.2,3.2c-1.76,0-3.2-1.44-3.2-3.2Zm0,8c0-1.76,1.44-3.2,3.2-3.2s3.2,1.44,3.2,3.2-1.28,3.2-3.2,3.2c-1.76,0-3.2-1.44-3.2-3.2ZM104,3.2C104,1.44,105.44,0,107.2,0s3.2,1.44,3.2,3.2-1.28,3.2-3.2,3.2c-1.76,0-3.2-1.44-3.2-3.2Zm0,8c0-1.76,1.44-3.2,3.2-3.2s3.2,1.44,3.2,3.2-1.28,3.2-3.2,3.2c-1.76,0-3.2-1.44-3.2-3.2Zm0,8c0-1.76,1.44-3.2,3.2-3.2s3.2,1.44,3.2,3.2-1.28,3.2-3.2,3.2c-1.76,0-3.2-1.44-3.2-3.2Zm0,8c0-1.76,1.44-3.2,3.2-3.2s3.2,1.44,3.2,3.2-1.28,3.2-3.2,3.2c-1.76,0-3.2-1.44-3.2-3.2Zm0,8c0-1.76,1.44-3.2,3.2-3.2s3.2,1.44,3.2,3.2-1.28,3.2-3.2,3.2c-1.76,0-3.2-1.44-3.2-3.2Zm0,8c0-1.76,1.44-3.2,3.2-3.2s3.2,1.44,3.2,3.2-1.28,3.2-3.2,3.2c-1.76,0-3.2-1.44-3.2-3.2Zm0,8c0-1.76,1.44-3.2,3.2-3.2s3.2,1.44,3.2,3.2-1.28,3.2-3.2,3.2c-1.76,0-3.2-1.44-3.2-3.2Zm0,8c0-1.76,1.44-3.2,3.2-3.2s3.2,1.44,3.2,3.2-1.28,3.2-3.2,3.2c-1.76,0-3.2-1.44-3.2-3.2Zm0,8c0-1.76,1.44-3.2,3.2-3.2s3.2,1.44,3.2,3.2-1.28,3.2-3.2,3.2c-1.76,0-3.2-1.44-3.2-3.2Zm0,8c0-1.76,1.44-3.2,3.2-3.2s3.2,1.44,3.2,3.2-1.28,3.2-3.2,3.2c-1.76,0-3.2-1.44-3.2-3.2Zm0,8c0-1.76,1.44-3.2,3.2-3.2s3.2,1.44,3.2,3.2-1.28,3.2-3.2,3.2c-1.76,0-3.2-1.44-3.2-3.2Zm0,8c0-1.76,1.44-3.2,3.2-3.2s3.2,1.44,3.2,3.2-1.28,3.2-3.2,3.2c-1.76,0-3.2-1.44-3.2-3.2Zm0,8c0-1.76,1.44-3.2,3.2-3.2s3.2,1.44,3.2,3.2-1.28,3.2-3.2,3.2c-1.76,0-3.2-1.44-3.2-3.2Zm0,8c0-1.76,1.44-3.2,3.2-3.2s3.2,1.44,3.2,3.2-1.28,3.2-3.2,3.2c-1.76,0-3.2-1.44-3.2-3.2Zm0,8c0-1.76,1.44-3.2,3.2-3.2s3.2,1.44,3.2,3.2-1.28,3.2-3.2,3.2c-1.76,0-3.2-1.44-3.2-3.2Zm0,8c0-1.76,1.44-3.2,3.2-3.2s3.2,1.44,3.2,3.2-1.28,3.2-3.2,3.2c-1.76,0-3.2-1.44-3.2-3.2Z"/>
        <path class="cls-1" d="m120,11.2c0-1.76,1.44-3.2,3.2-3.2s3.2,1.44,3.2,3.2-1.44,3.2-3.2,3.2-3.2-1.44-3.2-3.2Zm0,8c0-1.76,1.44-3.2,3.2-3.2s3.2,1.44,3.2,3.2-1.44,3.2-3.2,3.2-3.2-1.44-3.2-3.2Zm0,8c0-1.76,1.44-3.2,3.2-3.2s3.2,1.44,3.2,3.2-1.44,3.2-3.2,3.2-3.2-1.44-3.2-3.2Zm0,8c0-1.76,1.44-3.2,3.2-3.2s3.2,1.44,3.2,3.2-1.44,3.2-3.2,3.2-3.2-1.44-3.2-3.2Zm0,8c0-1.76,1.44-3.2,3.2-3.2s3.2,1.44,3.2,3.2-1.44,3.2-3.2,3.2-3.2-1.44-3.2-3.2Zm0,8c0-1.76,1.44-3.2,3.2-3.2s3.2,1.44,3.2,3.2-1.44,3.2-3.2,3.2-3.2-1.44-3.2-3.2Zm0,8c0-1.76,1.44-3.2,3.2-3.2s3.2,1.44,3.2,3.2-1.44,3.2-3.2,3.2-3.2-1.44-3.2-3.2Zm0,8c0-1.76,1.44-3.2,3.2-3.2s3.2,1.44,3.2,3.2-1.44,3.2-3.2,3.2-3.2-1.44-3.2-3.2Zm0,8c0-1.76,1.44-3.2,3.2-3.2s3.2,1.44,3.2,3.2-1.44,3.2-3.2,3.2-3.2-1.44-3.2-3.2Zm0,8c0-1.76,1.44-3.2,3.2-3.2s3.2,1.44,3.2,3.2-1.44,3.2-3.2,3.2-3.2-1.44-3.2-3.2Zm0,8c0-1.76,1.44-3.2,3.2-3.2s3.2,1.44,3.2,3.2-1.44,3.2-3.2,3.2-3.2-1.44-3.2-3.2Zm0,8c0-1.76,1.44-3.2,3.2-3.2s3.2,1.44,3.2,3.2-1.44,3.2-3.2,3.2-3.2-1.44-3.2-3.2Zm0,8c0-1.76,1.44-3.2,3.2-3.2s3.2,1.44,3.2,3.2-1.44,3.2-3.2,3.2-3.2-1.44-3.2-3.2Zm0,8c0-1.76,1.44-3.2,3.2-3.2s3.2,1.44,3.2,3.2-1.44,3.2-3.2,3.2-3.2-1.44-3.2-3.2ZM128,3.2C128,1.44,129.44,0,131.2,0s3.2,1.44,3.2,3.2-1.28,3.2-3.2,3.2c-1.76,0-3.2-1.44-3.2-3.2Zm0,8c0-1.76,1.44-3.2,3.2-3.2s3.2,1.44,3.2,3.2-1.28,3.2-3.2,3.2c-1.76,0-3.2-1.44-3.2-3.2Zm0,8c0-1.76,1.44-3.2,3.2-3.2s3.2,1.44,3.2,3.2-1.28,3.2-3.2,3.2c-1.76,0-3.2-1.44-3.2-3.2Zm0,8c0-1.76,1.44-3.2,3.2-3.2s3.2,1.44,3.2,3.2-1.28,3.2-3.2,3.2c-1.76,0-3.2-1.44-3.2-3.2Zm0,8c0-1.76,1.44-3.2,3.2-3.2s3.2,1.44,3.2,3.2-1.28,3.2-3.2,3.2c-1.76,0-3.2-1.44-3.2-3.2Zm0,8c0-1.76,1.44-3.2,3.2-3.2s3.2,1.44,3.2,3.2-1.28,3.2-3.2,3.2c-1.76,0-3.2-1.44-3.2-3.2Zm0,8c0-1.76,1.44-3.2,3.2-3.2s3.2,1.44,3.2,3.2-1.28,3.2-3.2,3.2c-1.76,0-3.2-1.44-3.2-3.2Zm0,8c0-1.76,1.44-3.2,3.2-3.2s3.2,1.44,3.2,3.2-1.28,3.2-3.2,3.2c-1.76,0-3.2-1.44-3.2-3.2Zm0,8c0-1.76,1.44-3.2,3.2-3.2s3.2,1.44,3.2,3.2-1.28,3.2-3.2,3.2c-1.76,0-3.2-1.44-3.2-3.2Zm0,8c0-1.76,1.44-3.2,3.2-3.2s3.2,1.44,3.2,3.2-1.28,3.2-3.2,3.2c-1.76,0-3.2-1.44-3.2-3.2Zm0,8c0-1.76,1.44-3.2,3.2-3.2s3.2,1.44,3.2,3.2-1.28,3.2-3.2,3.2c-1.76,0-3.2-1.44-3.2-3.2Zm0,8c0-1.76,1.44-3.2,3.2-3.2s3.2,1.44,3.2,3.2-1.28,3.2-3.2,3.2c-1.76,0-3.2-1.44-3.2-3.2Zm0,8c0-1.76,1.44-3.2,3.2-3.2s3.2,1.44,3.2,3.2-1.28,3.2-3.2,3.2c-1.76,0-3.2-1.44-3.2-3.2Zm0,8c0-1.76,1.44-3.2,3.2-3.2s3.2,1.44,3.2,3.2-1.28,3.2-3.2,3.2c-1.76,0-3.2-1.44-3.2-3.2Zm0,8c0-1.76,1.44-3.2,3.2-3.2s3.2,1.44,3.2,3.2-1.28,3.2-3.2,3.2c-1.76,0-3.2-1.44-3.2-3.2Zm0,8c0-1.76,1.44-3.2,3.2-3.2s3.2,1.44,3.2,3.2-1.28,3.2-3.2,3.2c-1.76,0-3.2-1.44-3.2-3.2ZM136,3.2C136,1.44,137.44,0,139.2,0s3.2,1.44,3.2,3.2-1.28,3.2-3.2,3.2c-1.76,0-3.2-1.44-3.2-3.2Zm0,8c0-1.76,1.44-3.2,3.2-3.2s3.2,1.44,3.2,3.2-1.28,3.2-3.2,3.2c-1.76,0-3.2-1.44-3.2-3.2Zm0,8c0-1.76,1.44-3.2,3.2-3.2s3.2,1.44,3.2,3.2-1.28,3.2-3.2,3.2c-1.76,0-3.2-1.44-3.2-3.2Zm0,8c0-1.76,1.44-3.2,3.2-3.2s3.2,1.44,3.2,3.2-1.28,3.2-3.2,3.2c-1.76,0-3.2-1.44-3.2-3.2Zm0,8c0-1.76,1.44-3.2,3.2-3.2s3.2,1.44,3.2,3.2-1.28,3.2-3.2,3.2c-1.76,0-3.2-1.44-3.2-3.2Zm0,8c0-1.76,1.44-3.2,3.2-3.2s3.2,1.44,3.2,3.2-1.28,3.2-3.2,3.2c-1.76,0-3.2-1.44-3.2-3.2Zm0,8c0-1.76,1.44-3.2,3.2-3.2s3.2,1.44,3.2,3.2-1.28,3.2-3.2,3.2c-1.76,0-3.2-1.44-3.2-3.2Zm0,8c0-1.76,1.44-3.2,3.2-3.2s3.2,1.44,3.2,3.2-1.28,3.2-3.2,3.2c-1.76,0-3.2-1.44-3.2-3.2Zm0,8c0-1.76,1.44-3.2,3.2-3.2s3.2,1.44,3.2,3.2-1.28,3.2-3.2,3.2c-1.76,0-3.2-1.44-3.2-3.2Zm0,8c0-1.76,1.44-3.2,3.2-3.2s3.2,1.44,3.2,3.2-1.28,3.2-3.2,3.2c-1.76,0-3.2-1.44-3.2-3.2Zm0,8c0-1.76,1.44-3.2,3.2-3.2s3.2,1.44,3.2,3.2-1.28,3.2-3.2,3.2c-1.76,0-3.2-1.44-3.2-3.2Zm0,8c0-1.76,1.44-3.2,3.2-3.2s3.2,1.44,3.2,3.2-1.28,3.2-3.2,3.2c-1.76,0-3.2-1.44-3.2-3.2Zm0,8c0-1.76,1.44-3.2,3.2-3.2s3.2,1.44,3.2,3.2-1.28,3.2-3.2,3.2c-1.76,0-3.2-1.44-3.2-3.2Zm0,8c0-1.76,1.44-3.2,3.2-3.2s3.2,1.44,3.2,3.2-1.28,3.2-3.2,3.2c-1.76,0-3.2-1.44-3.2-3.2Zm0,8c0-1.76,1.44-3.2,3.2-3.2s3.2,1.44,3.2,3.2-1.28,3.2-3.2,3.2c-1.76,0-3.2-1.44-3.2-3.2Zm0,8c0-1.76,1.44-3.2,3.2-3.2s3.2,1.44,3.2,3.2-1.28,3.2-3.2,3.2c-1.76,0-3.2-1.44-3.2-3.2ZM144,3.2C144,1.44,145.44,0,147.2,0s3.2,1.44,3.2,3.2-1.28,3.2-3.2,3.2c-1.76,0-3.2-1.44-3.2-3.2Zm0,8c0-1.76,1.44-3.2,3.2-3.2s3.2,1.44,3.2,3.2-1.28,3.2-3.2,3.2c-1.76,0-3.2-1.44-3.2-3.2Zm0,8c0-1.76,1.44-3.2,3.2-3.2s3.2,1.44,3.2,3.2-1.28,3.2-3.2,3.2c-1.76,0-3.2-1.44-3.2-3.2Zm0,8c0-1.76,1.44-3.2,3.2-3.2s3.2,1.44,3.2,3.2-1.28,3.2-3.2,3.2c-1.76,0-3.2-1.44-3.2-3.2Zm0,8c0-1.76,1.44-3.2,3.2-3.2s3.2,1.44,3.2,3.2-1.28,3.2-3.2,3.2c-1.76,0-3.2-1.44-3.2-3.2Zm0,8c0-1.76,1.44-3.2,3.2-3.2s3.2,1.44,3.2,3.2-1.28,3.2-3.2,3.2c-1.76,0-3.2-1.44-3.2-3.2Zm0,8c0-1.76,1.44-3.2,3.2-3.2s3.2,1.44,3.2,3.2-1.28,3.2-3.2,3.2c-1.76,0-3.2-1.44-3.2-3.2Zm0,8c0-1.76,1.44-3.2,3.2-3.2s3.2,1.44,3.2,3.2-1.28,3.2-3.2,3.2c-1.76,0-3.2-1.44-3.2-3.2Zm0,8c0-1.76,1.44-3.2,3.2-3.2s3.2,1.44,3.2,3.2-1.28,3.2-3.2,3.2c-1.76,0-3.2-1.44-3.2-3.2Zm0,8c0-1.76,1.44-3.2,3.2-3.2s3.2,1.44,3.2,3.2-1.28,3.2-3.2,3.2c-1.76,0-3.2-1.44-3.2-3.2Zm0,8c0-1.76,1.44-3.2,3.2-3.2s3.2,1.44,3.2,3.2-1.28,3.2-3.2,3.2c-1.76,0-3.2-1.44-3.2-3.2Zm0,8c0-1.76,1.44-3.2,3.2-3.2s3.2,1.44,3.2,3.2-1.28,3.2-3.2,3.2c-1.76,0-3.2-1.44-3.2-3.2Zm0,8c0-1.76,1.44-3.2,3.2-3.2s3.2,1.44,3.2,3.2-1.28,3.2-3.2,3.2c-1.76,0-3.2-1.44-3.2-3.2Zm0,8c0-1.76,1.44-3.2,3.2-3.2s3.2,1.44,3.2,3.2-1.28,3.2-3.2,3.2c-1.76,0-3.2-1.44-3.2-3.2Zm0,8c0-1.76,1.44-3.2,3.2-3.2s3.2,1.44,3.2,3.2-1.28,3.2-3.2,3.2c-1.76,0-3.2-1.44-3.2-3.2Zm0,8c0-1.76,1.44-3.2,3.2-3.2s3.2,1.44,3.2,3.2-1.28,3.2-3.2,3.2c-1.76,0-3.2-1.44-3.2-3.2ZM152,3.2C152,1.44,153.44,0,155.2,0s3.2,1.44,3.2,3.2-1.28,3.2-3.2,3.2c-1.76,0-3.2-1.44-3.2-3.2Zm0,8c0-1.76,1.44-3.2,3.2-3.2s3.2,1.44,3.2,3.2-1.28,3.2-3.2,3.2c-1.76,0-3.2-1.44-3.2-3.2Zm0,8c0-1.76,1.44-3.2,3.2-3.2s3.2,1.44,3.2,3.2-1.28,3.2-3.2,3.2c-1.76,0-3.2-1.44-3.2-3.2Zm0,8c0-1.76,1.44-3.2,3.2-3.2s3.2,1.44,3.2,3.2-1.28,3.2-3.2,3.2c-1.76,0-3.2-1.44-3.2-3.2Zm0,72c0-1.76,1.44-3.2,3.2-3.2s3.2,1.44,3.2,3.2-1.28,3.2-3.2,3.2c-1.76,0-3.2-1.44-3.2-3.2Zm0,8c0-1.76,1.44-3.2,3.2-3.2s3.2,1.44,3.2,3.2-1.28,3.2-3.2,3.2c-1.76,0-3.2-1.44-3.2-3.2Zm0,8c0-1.76,1.44-3.2,3.2-3.2s3.2,1.44,3.2,3.2-1.28,3.2-3.2,3.2c-1.76,0-3.2-1.44-3.2-3.2Zm0,8c0-1.76,1.44-3.2,3.2-3.2s3.2,1.44,3.2,3.2-1.28,3.2-3.2,3.2c-1.76,0-3.2-1.44-3.2-3.2ZM160,3.2C160,1.44,161.44,0,163.2,0s3.2,1.44,3.2,3.2-1.28,3.2-3.2,3.2c-1.76,0-3.2-1.44-3.2-3.2Zm0,8c0-1.76,1.44-3.2,3.2-3.2s3.2,1.44,3.2,3.2-1.28,3.2-3.2,3.2c-1.76,0-3.2-1.44-3.2-3.2Zm0,8c0-1.76,1.44-3.2,3.2-3.2s3.2,1.44,3.2,3.2-1.28,3.2-3.2,3.2c-1.76,0-3.2-1.44-3.2-3.2Zm0,8c0-1.76,1.44-3.2,3.2-3.2s3.2,1.44,3.2,3.2-1.28,3.2-3.2,3.2c-1.76,0-3.2-1.44-3.2-3.2Zm0,8c0-1.76,1.44-3.2,3.2-3.2s3.2,1.44,3.2,3.2-1.28,3.2-3.2,3.2c-1.76,0-3.2-1.44-3.2-3.2Zm0,24c0-1.76,1.44-3.2,3.2-3.2s3.2,1.44,3.2,3.2-1.28,3.2-3.2,3.2c-1.76,0-3.2-1.44-3.2-3.2Zm0,8c0-1.76,1.44-3.2,3.2-3.2s3.2,1.44,3.2,3.2-1.28,3.2-3.2,3.2c-1.76,0-3.2-1.44-3.2-3.2Zm0,8c0-1.76,1.44-3.2,3.2-3.2s3.2,1.44,3.2,3.2-1.28,3.2-3.2,3.2c-1.76,0-3.2-1.44-3.2-3.2Zm0,8c0-1.76,1.44-3.2,3.2-3.2s3.2,1.44,3.2,3.2-1.28,3.2-3.2,3.2c-1.76,0-3.2-1.44-3.2-3.2Zm0,16c0-1.76,1.44-3.2,3.2-3.2s3.2,1.44,3.2,3.2-1.28,3.2-3.2,3.2c-1.76,0-3.2-1.44-3.2-3.2Zm0,8c0-1.76,1.44-3.2,3.2-3.2s3.2,1.44,3.2,3.2-1.28,3.2-3.2,3.2c-1.76,0-3.2-1.44-3.2-3.2Zm0,8c0-1.76,1.44-3.2,3.2-3.2s3.2,1.44,3.2,3.2-1.28,3.2-3.2,3.2c-1.76,0-3.2-1.44-3.2-3.2Zm0,8c0-1.76,1.44-3.2,3.2-3.2s3.2,1.44,3.2,3.2-1.28,3.2-3.2,3.2c-1.76,0-3.2-1.44-3.2-3.2ZM168,3.2C168,1.44,169.44,0,171.2,0s3.2,1.44,3.2,3.2-1.28,3.2-3.2,3.2c-1.76,0-3.2-1.44-3.2-3.2Zm0,8c0-1.76,1.44-3.2,3.2-3.2s3.2,1.44,3.2,3.2-1.28,3.2-3.2,3.2c-1.76,0-3.2-1.44-3.2-3.2Zm0,8c0-1.76,1.44-3.2,3.2-3.2s3.2,1.44,3.2,3.2-1.28,3.2-3.2,3.2c-1.76,0-3.2-1.44-3.2-3.2Zm0,8c0-1.76,1.44-3.2,3.2-3.2s3.2,1.44,3.2,3.2-1.28,3.2-3.2,3.2c-1.76,0-3.2-1.44-3.2-3.2Zm0,8c0-1.76,1.44-3.2,3.2-3.2s3.2,1.44,3.2,3.2-1.28,3.2-3.2,3.2c-1.76,0-3.2-1.44-3.2-3.2Zm0,24c0-1.76,1.44-3.2,3.2-3.2s3.2,1.44,3.2,3.2-1.28,3.2-3.2,3.2c-1.76,0-3.2-1.44-3.2-3.2Zm0,8c0-1.76,1.44-3.2,3.2-3.2s3.2,1.44,3.2,3.2-1.28,3.2-3.2,3.2c-1.76,0-3.2-1.44-3.2-3.2Zm0,8c0-1.76,1.44-3.2,3.2-3.2s3.2,1.44,3.2,3.2-1.28,3.2-3.2,3.2c-1.76,0-3.2-1.44-3.2-3.2Zm0,8c0-1.76,1.44-3.2,3.2-3.2s3.2,1.44,3.2,3.2-1.28,3.2-3.2,3.2c-1.76,0-3.2-1.44-3.2-3.2Zm0,8c0-1.76,1.44-3.2,3.2-3.2s3.2,1.44,3.2,3.2-1.28,3.2-3.2,3.2c-1.76,0-3.2-1.44-3.2-3.2Zm0,8c0-1.76,1.44-3.2,3.2-3.2s3.2,1.44,3.2,3.2-1.28,3.2-3.2,3.2c-1.76,0-3.2-1.44-3.2-3.2Zm0,8c0-1.76,1.44-3.2,3.2-3.2s3.2,1.44,3.2,3.2-1.28,3.2-3.2,3.2c-1.76,0-3.2-1.44-3.2-3.2Zm0,8c0-1.76,1.44-3.2,3.2-3.2s3.2,1.44,3.2,3.2-1.28,3.2-3.2,3.2c-1.76,0-3.2-1.44-3.2-3.2Zm0,8c0-1.76,1.44-3.2,3.2-3.2s3.2,1.44,3.2,3.2-1.28,3.2-3.2,3.2c-1.76,0-3.2-1.44-3.2-3.2ZM176,3.2C176,1.44,177.44,0,179.2,0s3.2,1.44,3.2,3.2-1.28,3.2-3.2,3.2c-1.76,0-3.2-1.44-3.2-3.2Zm0,8c0-1.76,1.44-3.2,3.2-3.2s3.2,1.44,3.2,3.2-1.28,3.2-3.2,3.2c-1.76,0-3.2-1.44-3.2-3.2Zm0,8c0-1.76,1.44-3.2,3.2-3.2s3.2,1.44,3.2,3.2-1.28,3.2-3.2,3.2c-1.76,0-3.2-1.44-3.2-3.2Zm0,8c0-1.76,1.44-3.2,3.2-3.2s3.2,1.44,3.2,3.2-1.28,3.2-3.2,3.2c-1.76,0-3.2-1.44-3.2-3.2Zm0,8c0-1.76,1.44-3.2,3.2-3.2s3.2,1.44,3.2,3.2-1.28,3.2-3.2,3.2c-1.76,0-3.2-1.44-3.2-3.2Zm0,24c0-1.76,1.44-3.2,3.2-3.2s3.2,1.44,3.2,3.2-1.28,3.2-3.2,3.2c-1.76,0-3.2-1.44-3.2-3.2Zm0,8c0-1.76,1.44-3.2,3.2-3.2s3.2,1.44,3.2,3.2-1.28,3.2-3.2,3.2c-1.76,0-3.2-1.44-3.2-3.2Zm0,8c0-1.76,1.44-3.2,3.2-3.2s3.2,1.44,3.2,3.2-1.28,3.2-3.2,3.2c-1.76,0-3.2-1.44-3.2-3.2Zm0,8c0-1.76,1.44-3.2,3.2-3.2s3.2,1.44,3.2,3.2-1.28,3.2-3.2,3.2c-1.76,0-3.2-1.44-3.2-3.2Zm0,8c0-1.76,1.44-3.2,3.2-3.2s3.2,1.44,3.2,3.2-1.28,3.2-3.2,3.2c-1.76,0-3.2-1.44-3.2-3.2Zm0,8c0-1.76,1.44-3.2,3.2-3.2s3.2,1.44,3.2,3.2-1.28,3.2-3.2,3.2c-1.76,0-3.2-1.44-3.2-3.2Zm0,8c0-1.76,1.44-3.2,3.2-3.2s3.2,1.44,3.2,3.2-1.28,3.2-3.2,3.2c-1.76,0-3.2-1.44-3.2-3.2Zm0,8c0-1.76,1.44-3.2,3.2-3.2s3.2,1.44,3.2,3.2-1.28,3.2-3.2,3.2c-1.76,0-3.2-1.44-3.2-3.2Zm0,8c0-1.76,1.44-3.2,3.2-3.2s3.2,1.44,3.2,3.2-1.28,3.2-3.2,3.2c-1.76,0-3.2-1.44-3.2-3.2Zm8-112c0-1.76,1.44-3.2,3.2-3.2s3.2,1.44,3.2,3.2-1.28,3.2-3.2,3.2c-1.76,0-3.2-1.44-3.2-3.2Zm0,8c0-1.76,1.44-3.2,3.2-3.2s3.2,1.44,3.2,3.2-1.28,3.2-3.2,3.2c-1.76,0-3.2-1.44-3.2-3.2Zm0,8c0-1.76,1.44-3.2,3.2-3.2s3.2,1.44,3.2,3.2-1.28,3.2-3.2,3.2c-1.76,0-3.2-1.44-3.2-3.2Zm0,8c0-1.76,1.44-3.2,3.2-3.2s3.2,1.44,3.2,3.2-1.28,3.2-3.2,3.2c-1.76,0-3.2-1.44-3.2-3.2Zm0,24c0-1.76,1.44-3.2,3.2-3.2s3.2,1.44,3.2,3.2-1.28,3.2-3.2,3.2c-1.76,0-3.2-1.44-3.2-3.2Zm0,8c0-1.76,1.44-3.2,3.2-3.2s3.2,1.44,3.2,3.2-1.28,3.2-3.2,3.2c-1.76,0-3.2-1.44-3.2-3.2Zm0,8c0-1.76,1.44-3.2,3.2-3.2s3.2,1.44,3.2,3.2-1.28,3.2-3.2,3.2c-1.76,0-3.2-1.44-3.2-3.2Zm0,8c0-1.76,1.44-3.2,3.2-3.2s3.2,1.44,3.2,3.2-1.28,3.2-3.2,3.2c-1.76,0-3.2-1.44-3.2-3.2Zm0,8c0-1.76,1.44-3.2,3.2-3.2s3.2,1.44,3.2,3.2-1.28,3.2-3.2,3.2c-1.76,0-3.2-1.44-3.2-3.2Zm0,8c0-1.76,1.44-3.2,3.2-3.2s3.2,1.44,3.2,3.2-1.28,3.2-3.2,3.2c-1.76,0-3.2-1.44-3.2-3.2Zm0,8c0-1.76,1.44-3.2,3.2-3.2s3.2,1.44,3.2,3.2-1.28,3.2-3.2,3.2c-1.76,0-3.2-1.44-3.2-3.2Zm0,8c0-1.76,1.44-3.2,3.2-3.2s3.2,1.44,3.2,3.2-1.28,3.2-3.2,3.2c-1.76,0-3.2-1.44-3.2-3.2Z"/>
        <path class="cls-1" d="m200,3.2C200,1.44,201.44,0,203.2,0s3.2,1.44,3.2,3.2-1.44,3.2-3.2,3.2-3.2-1.44-3.2-3.2Zm0,8c0-1.76,1.44-3.2,3.2-3.2s3.2,1.44,3.2,3.2-1.44,3.2-3.2,3.2-3.2-1.44-3.2-3.2Zm0,8c0-1.76,1.44-3.2,3.2-3.2s3.2,1.44,3.2,3.2-1.44,3.2-3.2,3.2-3.2-1.44-3.2-3.2Zm0,8c0-1.76,1.44-3.2,3.2-3.2s3.2,1.44,3.2,3.2-1.44,3.2-3.2,3.2-3.2-1.44-3.2-3.2Zm0,8c0-1.76,1.44-3.2,3.2-3.2s3.2,1.44,3.2,3.2-1.44,3.2-3.2,3.2-3.2-1.44-3.2-3.2Zm0,8c0-1.76,1.44-3.2,3.2-3.2s3.2,1.44,3.2,3.2-1.44,3.2-3.2,3.2-3.2-1.44-3.2-3.2Zm0,8c0-1.76,1.44-3.2,3.2-3.2s3.2,1.44,3.2,3.2-1.44,3.2-3.2,3.2-3.2-1.44-3.2-3.2Zm0,8c0-1.76,1.44-3.2,3.2-3.2s3.2,1.44,3.2,3.2-1.44,3.2-3.2,3.2-3.2-1.44-3.2-3.2Zm0,8c0-1.76,1.44-3.2,3.2-3.2s3.2,1.44,3.2,3.2-1.44,3.2-3.2,3.2-3.2-1.44-3.2-3.2Zm0,8c0-1.76,1.44-3.2,3.2-3.2s3.2,1.44,3.2,3.2-1.44,3.2-3.2,3.2-3.2-1.44-3.2-3.2Zm0,8c0-1.76,1.44-3.2,3.2-3.2s3.2,1.44,3.2,3.2-1.44,3.2-3.2,3.2-3.2-1.44-3.2-3.2Zm0,8c0-1.76,1.44-3.2,3.2-3.2s3.2,1.44,3.2,3.2-1.44,3.2-3.2,3.2-3.2-1.44-3.2-3.2Zm0,8c0-1.76,1.44-3.2,3.2-3.2s3.2,1.44,3.2,3.2-1.44,3.2-3.2,3.2-3.2-1.44-3.2-3.2Zm0,8c0-1.76,1.44-3.2,3.2-3.2s3.2,1.44,3.2,3.2-1.44,3.2-3.2,3.2-3.2-1.44-3.2-3.2Zm0,8c0-1.76,1.44-3.2,3.2-3.2s3.2,1.44,3.2,3.2-1.44,3.2-3.2,3.2-3.2-1.44-3.2-3.2Zm0,8c0-1.76,1.44-3.2,3.2-3.2s3.2,1.44,3.2,3.2-1.44,3.2-3.2,3.2-3.2-1.44-3.2-3.2ZM208,3.2C208,1.44,209.44,0,211.2,0s3.2,1.44,3.2,3.2-1.28,3.2-3.2,3.2c-1.76,0-3.2-1.44-3.2-3.2Zm0,8c0-1.76,1.44-3.2,3.2-3.2s3.2,1.44,3.2,3.2-1.28,3.2-3.2,3.2c-1.76,0-3.2-1.44-3.2-3.2Zm0,8c0-1.76,1.44-3.2,3.2-3.2s3.2,1.44,3.2,3.2-1.28,3.2-3.2,3.2c-1.76,0-3.2-1.44-3.2-3.2Zm0,8c0-1.76,1.44-3.2,3.2-3.2s3.2,1.44,3.2,3.2-1.28,3.2-3.2,3.2c-1.76,0-3.2-1.44-3.2-3.2Zm0,8c0-1.76,1.44-3.2,3.2-3.2s3.2,1.44,3.2,3.2-1.28,3.2-3.2,3.2c-1.76,0-3.2-1.44-3.2-3.2Zm0,8c0-1.76,1.44-3.2,3.2-3.2s3.2,1.44,3.2,3.2-1.28,3.2-3.2,3.2c-1.76,0-3.2-1.44-3.2-3.2Zm0,8c0-1.76,1.44-3.2,3.2-3.2s3.2,1.44,3.2,3.2-1.28,3.2-3.2,3.2c-1.76,0-3.2-1.44-3.2-3.2Zm0,8c0-1.76,1.44-3.2,3.2-3.2s3.2,1.44,3.2,3.2-1.28,3.2-3.2,3.2c-1.76,0-3.2-1.44-3.2-3.2Zm0,8c0-1.76,1.44-3.2,3.2-3.2s3.2,1.44,3.2,3.2-1.28,3.2-3.2,3.2c-1.76,0-3.2-1.44-3.2-3.2Zm0,8c0-1.76,1.44-3.2,3.2-3.2s3.2,1.44,3.2,3.2-1.28,3.2-3.2,3.2c-1.76,0-3.2-1.44-3.2-3.2Zm0,8c0-1.76,1.44-3.2,3.2-3.2s3.2,1.44,3.2,3.2-1.28,3.2-3.2,3.2c-1.76,0-3.2-1.44-3.2-3.2Zm0,8c0-1.76,1.44-3.2,3.2-3.2s3.2,1.44,3.2,3.2-1.28,3.2-3.2,3.2c-1.76,0-3.2-1.44-3.2-3.2Zm0,8c0-1.76,1.44-3.2,3.2-3.2s3.2,1.44,3.2,3.2-1.28,3.2-3.2,3.2c-1.76,0-3.2-1.44-3.2-3.2Zm0,8c0-1.76,1.44-3.2,3.2-3.2s3.2,1.44,3.2,3.2-1.28,3.2-3.2,3.2c-1.76,0-3.2-1.44-3.2-3.2Zm0,8c0-1.76,1.44-3.2,3.2-3.2s3.2,1.44,3.2,3.2-1.28,3.2-3.2,3.2c-1.76,0-3.2-1.44-3.2-3.2Zm0,8c0-1.76,1.44-3.2,3.2-3.2s3.2,1.44,3.2,3.2-1.28,3.2-3.2,3.2c-1.76,0-3.2-1.44-3.2-3.2ZM216,3.2C216,1.44,217.44,0,219.2,0s3.2,1.44,3.2,3.2-1.28,3.2-3.2,3.2c-1.76,0-3.2-1.44-3.2-3.2Zm0,8c0-1.76,1.44-3.2,3.2-3.2s3.2,1.44,3.2,3.2-1.28,3.2-3.2,3.2c-1.76,0-3.2-1.44-3.2-3.2Zm0,8c0-1.76,1.44-3.2,3.2-3.2s3.2,1.44,3.2,3.2-1.28,3.2-3.2,3.2c-1.76,0-3.2-1.44-3.2-3.2Zm0,8c0-1.76,1.44-3.2,3.2-3.2s3.2,1.44,3.2,3.2-1.28,3.2-3.2,3.2c-1.76,0-3.2-1.44-3.2-3.2Zm0,8c0-1.76,1.44-3.2,3.2-3.2s3.2,1.44,3.2,3.2-1.28,3.2-3.2,3.2c-1.76,0-3.2-1.44-3.2-3.2Zm0,8c0-1.76,1.44-3.2,3.2-3.2s3.2,1.44,3.2,3.2-1.28,3.2-3.2,3.2c-1.76,0-3.2-1.44-3.2-3.2Zm0,8c0-1.76,1.44-3.2,3.2-3.2s3.2,1.44,3.2,3.2-1.28,3.2-3.2,3.2c-1.76,0-3.2-1.44-3.2-3.2Zm0,8c0-1.76,1.44-3.2,3.2-3.2s3.2,1.44,3.2,3.2-1.28,3.2-3.2,3.2c-1.76,0-3.2-1.44-3.2-3.2Zm0,8c0-1.76,1.44-3.2,3.2-3.2s3.2,1.44,3.2,3.2-1.28,3.2-3.2,3.2c-1.76,0-3.2-1.44-3.2-3.2Zm0,8c0-1.76,1.44-3.2,3.2-3.2s3.2,1.44,3.2,3.2-1.28,3.2-3.2,3.2c-1.76,0-3.2-1.44-3.2-3.2Zm0,8c0-1.76,1.44-3.2,3.2-3.2s3.2,1.44,3.2,3.2-1.28,3.2-3.2,3.2c-1.76,0-3.2-1.44-3.2-3.2Zm0,8c0-1.76,1.44-3.2,3.2-3.2s3.2,1.44,3.2,3.2-1.28,3.2-3.2,3.2c-1.76,0-3.2-1.44-3.2-3.2Zm0,8c0-1.76,1.44-3.2,3.2-3.2s3.2,1.44,3.2,3.2-1.28,3.2-3.2,3.2c-1.76,0-3.2-1.44-3.2-3.2Zm0,8c0-1.76,1.44-3.2,3.2-3.2s3.2,1.44,3.2,3.2-1.28,3.2-3.2,3.2c-1.76,0-3.2-1.44-3.2-3.2Zm0,8c0-1.76,1.44-3.2,3.2-3.2s3.2,1.44,3.2,3.2-1.28,3.2-3.2,3.2c-1.76,0-3.2-1.44-3.2-3.2Zm0,8c0-1.76,1.44-3.2,3.2-3.2s3.2,1.44,3.2,3.2-1.28,3.2-3.2,3.2c-1.76,0-3.2-1.44-3.2-3.2ZM224,3.2C224,1.44,225.44,0,227.2,0s3.2,1.44,3.2,3.2-1.28,3.2-3.2,3.2c-1.76,0-3.2-1.44-3.2-3.2Zm0,8c0-1.76,1.44-3.2,3.2-3.2s3.2,1.44,3.2,3.2-1.28,3.2-3.2,3.2c-1.76,0-3.2-1.44-3.2-3.2Zm0,8c0-1.76,1.44-3.2,3.2-3.2s3.2,1.44,3.2,3.2-1.28,3.2-3.2,3.2c-1.76,0-3.2-1.44-3.2-3.2Zm0,8c0-1.76,1.44-3.2,3.2-3.2s3.2,1.44,3.2,3.2-1.28,3.2-3.2,3.2c-1.76,0-3.2-1.44-3.2-3.2Zm0,8c0-1.76,1.44-3.2,3.2-3.2s3.2,1.44,3.2,3.2-1.28,3.2-3.2,3.2c-1.76,0-3.2-1.44-3.2-3.2Zm0,8c0-1.76,1.44-3.2,3.2-3.2s3.2,1.44,3.2,3.2-1.28,3.2-3.2,3.2c-1.76,0-3.2-1.44-3.2-3.2Zm0,8c0-1.76,1.44-3.2,3.2-3.2s3.2,1.44,3.2,3.2-1.28,3.2-3.2,3.2c-1.76,0-3.2-1.44-3.2-3.2Zm0,8c0-1.76,1.44-3.2,3.2-3.2s3.2,1.44,3.2,3.2-1.28,3.2-3.2,3.2c-1.76,0-3.2-1.44-3.2-3.2Zm0,8c0-1.76,1.44-3.2,3.2-3.2s3.2,1.44,3.2,3.2-1.28,3.2-3.2,3.2c-1.76,0-3.2-1.44-3.2-3.2Zm0,8c0-1.76,1.44-3.2,3.2-3.2s3.2,1.44,3.2,3.2-1.28,3.2-3.2,3.2c-1.76,0-3.2-1.44-3.2-3.2Zm0,8c0-1.76,1.44-3.2,3.2-3.2s3.2,1.44,3.2,3.2-1.28,3.2-3.2,3.2c-1.76,0-3.2-1.44-3.2-3.2Zm0,8c0-1.76,1.44-3.2,3.2-3.2s3.2,1.44,3.2,3.2-1.28,3.2-3.2,3.2c-1.76,0-3.2-1.44-3.2-3.2Zm0,8c0-1.76,1.44-3.2,3.2-3.2s3.2,1.44,3.2,3.2-1.28,3.2-3.2,3.2c-1.76,0-3.2-1.44-3.2-3.2Zm0,8c0-1.76,1.44-3.2,3.2-3.2s3.2,1.44,3.2,3.2-1.28,3.2-3.2,3.2c-1.76,0-3.2-1.44-3.2-3.2Zm0,8c0-1.76,1.44-3.2,3.2-3.2s3.2,1.44,3.2,3.2-1.28,3.2-3.2,3.2c-1.76,0-3.2-1.44-3.2-3.2Zm0,8c0-1.76,1.44-3.2,3.2-3.2s3.2,1.44,3.2,3.2-1.28,3.2-3.2,3.2c-1.76,0-3.2-1.44-3.2-3.2Z"/>
        <path class="cls-1" d="m236,3.2C236,1.44,237.44,0,239.2,0s3.2,1.44,3.2,3.2-1.44,3.2-3.2,3.2-3.2-1.44-3.2-3.2Zm0,8c0-1.76,1.44-3.2,3.2-3.2s3.2,1.44,3.2,3.2-1.44,3.2-3.2,3.2-3.2-1.44-3.2-3.2Zm0,8c0-1.76,1.44-3.2,3.2-3.2s3.2,1.44,3.2,3.2-1.44,3.2-3.2,3.2-3.2-1.44-3.2-3.2Zm0,8c0-1.76,1.44-3.2,3.2-3.2s3.2,1.44,3.2,3.2-1.44,3.2-3.2,3.2-3.2-1.44-3.2-3.2Zm8-24C244,1.44,245.44,0,247.2,0s3.2,1.44,3.2,3.2-1.28,3.2-3.2,3.2c-1.76,0-3.2-1.44-3.2-3.2Zm0,8c0-1.76,1.44-3.2,3.2-3.2s3.2,1.44,3.2,3.2-1.28,3.2-3.2,3.2c-1.76,0-3.2-1.44-3.2-3.2Zm0,8c0-1.76,1.44-3.2,3.2-3.2s3.2,1.44,3.2,3.2-1.28,3.2-3.2,3.2c-1.76,0-3.2-1.44-3.2-3.2Zm0,8c0-1.76,1.44-3.2,3.2-3.2s3.2,1.44,3.2,3.2-1.28,3.2-3.2,3.2c-1.76,0-3.2-1.44-3.2-3.2Zm8-24C252,1.44,253.44,0,255.2,0s3.2,1.44,3.2,3.2-1.28,3.2-3.2,3.2c-1.76,0-3.2-1.44-3.2-3.2Zm0,8c0-1.76,1.44-3.2,3.2-3.2s3.2,1.44,3.2,3.2-1.28,3.2-3.2,3.2c-1.76,0-3.2-1.44-3.2-3.2Zm0,8c0-1.76,1.44-3.2,3.2-3.2s3.2,1.44,3.2,3.2-1.28,3.2-3.2,3.2c-1.76,0-3.2-1.44-3.2-3.2Zm0,8c0-1.76,1.44-3.2,3.2-3.2s3.2,1.44,3.2,3.2-1.28,3.2-3.2,3.2c-1.76,0-3.2-1.44-3.2-3.2Zm0,8c0-1.76,1.44-3.2,3.2-3.2s3.2,1.44,3.2,3.2-1.28,3.2-3.2,3.2c-1.76,0-3.2-1.44-3.2-3.2Zm0,8c0-1.76,1.44-3.2,3.2-3.2s3.2,1.44,3.2,3.2-1.28,3.2-3.2,3.2c-1.76,0-3.2-1.44-3.2-3.2Zm0,8c0-1.76,1.44-3.2,3.2-3.2s3.2,1.44,3.2,3.2-1.28,3.2-3.2,3.2c-1.76,0-3.2-1.44-3.2-3.2Zm0,8c0-1.76,1.44-3.2,3.2-3.2s3.2,1.44,3.2,3.2-1.28,3.2-3.2,3.2c-1.76,0-3.2-1.44-3.2-3.2Zm0,8c0-1.76,1.44-3.2,3.2-3.2s3.2,1.44,3.2,3.2-1.28,3.2-3.2,3.2c-1.76,0-3.2-1.44-3.2-3.2Zm0,8c0-1.76,1.44-3.2,3.2-3.2s3.2,1.44,3.2,3.2-1.28,3.2-3.2,3.2c-1.76,0-3.2-1.44-3.2-3.2Zm0,8c0-1.76,1.44-3.2,3.2-3.2s3.2,1.44,3.2,3.2-1.28,3.2-3.2,3.2c-1.76,0-3.2-1.44-3.2-3.2Zm0,8c0-1.76,1.44-3.2,3.2-3.2s3.2,1.44,3.2,3.2-1.28,3.2-3.2,3.2c-1.76,0-3.2-1.44-3.2-3.2Zm0,8c0-1.76,1.44-3.2,3.2-3.2s3.2,1.44,3.2,3.2-1.28,3.2-3.2,3.2c-1.76,0-3.2-1.44-3.2-3.2Zm0,8c0-1.76,1.44-3.2,3.2-3.2s3.2,1.44,3.2,3.2-1.28,3.2-3.2,3.2c-1.76,0-3.2-1.44-3.2-3.2Zm0,8c0-1.76,1.44-3.2,3.2-3.2s3.2,1.44,3.2,3.2-1.28,3.2-3.2,3.2c-1.76,0-3.2-1.44-3.2-3.2Zm0,8c0-1.76,1.44-3.2,3.2-3.2s3.2,1.44,3.2,3.2-1.28,3.2-3.2,3.2c-1.76,0-3.2-1.44-3.2-3.2Zm8-120c0-1.76,1.44-3.2,3.2-3.2s3.2,1.44,3.2,3.2-1.28,3.2-3.2,3.2c-1.76,0-3.2-1.44-3.2-3.2Zm0,8c0-1.76,1.44-3.2,3.2-3.2s3.2,1.44,3.2,3.2-1.28,3.2-3.2,3.2c-1.76,0-3.2-1.44-3.2-3.2Zm0,8c0-1.76,1.44-3.2,3.2-3.2s3.2,1.44,3.2,3.2-1.28,3.2-3.2,3.2c-1.76,0-3.2-1.44-3.2-3.2Zm0,8c0-1.76,1.44-3.2,3.2-3.2s3.2,1.44,3.2,3.2-1.28,3.2-3.2,3.2c-1.76,0-3.2-1.44-3.2-3.2Zm0,8c0-1.76,1.44-3.2,3.2-3.2s3.2,1.44,3.2,3.2-1.28,3.2-3.2,3.2c-1.76,0-3.2-1.44-3.2-3.2Zm0,8c0-1.76,1.44-3.2,3.2-3.2s3.2,1.44,3.2,3.2-1.28,3.2-3.2,3.2c-1.76,0-3.2-1.44-3.2-3.2Zm0,8c0-1.76,1.44-3.2,3.2-3.2s3.2,1.44,3.2,3.2-1.28,3.2-3.2,3.2c-1.76,0-3.2-1.44-3.2-3.2Zm0,8c0-1.76,1.44-3.2,3.2-3.2s3.2,1.44,3.2,3.2-1.28,3.2-3.2,3.2c-1.76,0-3.2-1.44-3.2-3.2Zm0,8c0-1.76,1.44-3.2,3.2-3.2s3.2,1.44,3.2,3.2-1.28,3.2-3.2,3.2c-1.76,0-3.2-1.44-3.2-3.2Zm0,8c0-1.76,1.44-3.2,3.2-3.2s3.2,1.44,3.2,3.2-1.28,3.2-3.2,3.2c-1.76,0-3.2-1.44-3.2-3.2Zm0,8c0-1.76,1.44-3.2,3.2-3.2s3.2,1.44,3.2,3.2-1.28,3.2-3.2,3.2c-1.76,0-3.2-1.44-3.2-3.2Zm0,8c0-1.76,1.44-3.2,3.2-3.2s3.2,1.44,3.2,3.2-1.28,3.2-3.2,3.2c-1.76,0-3.2-1.44-3.2-3.2Zm0,8c0-1.76,1.44-3.2,3.2-3.2s3.2,1.44,3.2,3.2-1.28,3.2-3.2,3.2c-1.76,0-3.2-1.44-3.2-3.2Zm0,8c0-1.76,1.44-3.2,3.2-3.2s3.2,1.44,3.2,3.2-1.28,3.2-3.2,3.2c-1.76,0-3.2-1.44-3.2-3.2Zm0,8c0-1.76,1.44-3.2,3.2-3.2s3.2,1.44,3.2,3.2-1.28,3.2-3.2,3.2c-1.76,0-3.2-1.44-3.2-3.2Zm0,8c0-1.76,1.44-3.2,3.2-3.2s3.2,1.44,3.2,3.2-1.28,3.2-3.2,3.2c-1.76,0-3.2-1.44-3.2-3.2Zm8-120c0-1.76,1.44-3.2,3.2-3.2s3.2,1.44,3.2,3.2-1.28,3.2-3.2,3.2c-1.76,0-3.2-1.44-3.2-3.2Zm0,8c0-1.76,1.44-3.2,3.2-3.2s3.2,1.44,3.2,3.2-1.28,3.2-3.2,3.2c-1.76,0-3.2-1.44-3.2-3.2Zm0,8c0-1.76,1.44-3.2,3.2-3.2s3.2,1.44,3.2,3.2-1.28,3.2-3.2,3.2c-1.76,0-3.2-1.44-3.2-3.2Zm0,8c0-1.76,1.44-3.2,3.2-3.2s3.2,1.44,3.2,3.2-1.28,3.2-3.2,3.2c-1.76,0-3.2-1.44-3.2-3.2Zm0,8c0-1.76,1.44-3.2,3.2-3.2s3.2,1.44,3.2,3.2-1.28,3.2-3.2,3.2c-1.76,0-3.2-1.44-3.2-3.2Zm0,8c0-1.76,1.44-3.2,3.2-3.2s3.2,1.44,3.2,3.2-1.28,3.2-3.2,3.2c-1.76,0-3.2-1.44-3.2-3.2Zm0,8c0-1.76,1.44-3.2,3.2-3.2s3.2,1.44,3.2,3.2-1.28,3.2-3.2,3.2c-1.76,0-3.2-1.44-3.2-3.2Zm0,8c0-1.76,1.44-3.2,3.2-3.2s3.2,1.44,3.2,3.2-1.28,3.2-3.2,3.2c-1.76,0-3.2-1.44-3.2-3.2Zm0,8c0-1.76,1.44-3.2,3.2-3.2s3.2,1.44,3.2,3.2-1.28,3.2-3.2,3.2c-1.76,0-3.2-1.44-3.2-3.2Zm0,8c0-1.76,1.44-3.2,3.2-3.2s3.2,1.44,3.2,3.2-1.28,3.2-3.2,3.2c-1.76,0-3.2-1.44-3.2-3.2Zm0,8c0-1.76,1.44-3.2,3.2-3.2s3.2,1.44,3.2,3.2-1.28,3.2-3.2,3.2c-1.76,0-3.2-1.44-3.2-3.2Zm0,8c0-1.76,1.44-3.2,3.2-3.2s3.2,1.44,3.2,3.2-1.28,3.2-3.2,3.2c-1.76,0-3.2-1.44-3.2-3.2Zm0,8c0-1.76,1.44-3.2,3.2-3.2s3.2,1.44,3.2,3.2-1.28,3.2-3.2,3.2c-1.76,0-3.2-1.44-3.2-3.2Zm0,8c0-1.76,1.44-3.2,3.2-3.2s3.2,1.44,3.2,3.2-1.28,3.2-3.2,3.2c-1.76,0-3.2-1.44-3.2-3.2Zm0,8c0-1.76,1.44-3.2,3.2-3.2s3.2,1.44,3.2,3.2-1.28,3.2-3.2,3.2c-1.76,0-3.2-1.44-3.2-3.2Zm0,8c0-1.76,1.44-3.2,3.2-3.2s3.2,1.44,3.2,3.2-1.28,3.2-3.2,3.2c-1.76,0-3.2-1.44-3.2-3.2Zm8-120c0-1.76,1.44-3.2,3.2-3.2s3.2,1.44,3.2,3.2-1.28,3.2-3.2,3.2c-1.76,0-3.2-1.44-3.2-3.2Zm0,8c0-1.76,1.44-3.2,3.2-3.2s3.2,1.44,3.2,3.2-1.28,3.2-3.2,3.2c-1.76,0-3.2-1.44-3.2-3.2Zm0,8c0-1.76,1.44-3.2,3.2-3.2s3.2,1.44,3.2,3.2-1.28,3.2-3.2,3.2c-1.76,0-3.2-1.44-3.2-3.2Zm0,8c0-1.76,1.44-3.2,3.2-3.2s3.2,1.44,3.2,3.2-1.28,3.2-3.2,3.2c-1.76,0-3.2-1.44-3.2-3.2Zm0,8c0-1.76,1.44-3.2,3.2-3.2s3.2,1.44,3.2,3.2-1.28,3.2-3.2,3.2c-1.76,0-3.2-1.44-3.2-3.2Zm0,8c0-1.76,1.44-3.2,3.2-3.2s3.2,1.44,3.2,3.2-1.28,3.2-3.2,3.2c-1.76,0-3.2-1.44-3.2-3.2Zm0,8c0-1.76,1.44-3.2,3.2-3.2s3.2,1.44,3.2,3.2-1.28,3.2-3.2,3.2c-1.76,0-3.2-1.44-3.2-3.2Zm0,8c0-1.76,1.44-3.2,3.2-3.2s3.2,1.44,3.2,3.2-1.28,3.2-3.2,3.2c-1.76,0-3.2-1.44-3.2-3.2Zm0,8c0-1.76,1.44-3.2,3.2-3.2s3.2,1.44,3.2,3.2-1.28,3.2-3.2,3.2c-1.76,0-3.2-1.44-3.2-3.2Zm0,8c0-1.76,1.44-3.2,3.2-3.2s3.2,1.44,3.2,3.2-1.28,3.2-3.2,3.2c-1.76,0-3.2-1.44-3.2-3.2Zm0,8c0-1.76,1.44-3.2,3.2-3.2s3.2,1.44,3.2,3.2-1.28,3.2-3.2,3.2c-1.76,0-3.2-1.44-3.2-3.2Zm0,8c0-1.76,1.44-3.2,3.2-3.2s3.2,1.44,3.2,3.2-1.28,3.2-3.2,3.2c-1.76,0-3.2-1.44-3.2-3.2Zm0,8c0-1.76,1.44-3.2,3.2-3.2s3.2,1.44,3.2,3.2-1.28,3.2-3.2,3.2c-1.76,0-3.2-1.44-3.2-3.2Zm0,8c0-1.76,1.44-3.2,3.2-3.2s3.2,1.44,3.2,3.2-1.28,3.2-3.2,3.2c-1.76,0-3.2-1.44-3.2-3.2Zm0,8c0-1.76,1.44-3.2,3.2-3.2s3.2,1.44,3.2,3.2-1.28,3.2-3.2,3.2c-1.76,0-3.2-1.44-3.2-3.2Zm0,8c0-1.76,1.44-3.2,3.2-3.2s3.2,1.44,3.2,3.2-1.28,3.2-3.2,3.2c-1.76,0-3.2-1.44-3.2-3.2Zm8-120c0-1.76,1.44-3.2,3.2-3.2s3.2,1.44,3.2,3.2-1.28,3.2-3.2,3.2c-1.76,0-3.2-1.44-3.2-3.2Zm0,8c0-1.76,1.44-3.2,3.2-3.2s3.2,1.44,3.2,3.2-1.28,3.2-3.2,3.2c-1.76,0-3.2-1.44-3.2-3.2Zm0,8c0-1.76,1.44-3.2,3.2-3.2s3.2,1.44,3.2,3.2-1.28,3.2-3.2,3.2c-1.76,0-3.2-1.44-3.2-3.2Zm0,8c0-1.76,1.44-3.2,3.2-3.2s3.2,1.44,3.2,3.2-1.28,3.2-3.2,3.2c-1.76,0-3.2-1.44-3.2-3.2Zm8-24c0-1.76,1.44-3.2,3.2-3.2s3.2,1.44,3.2,3.2-1.28,3.2-3.2,3.2c-1.76,0-3.2-1.44-3.2-3.2Zm0,8c0-1.76,1.44-3.2,3.2-3.2s3.2,1.44,3.2,3.2-1.28,3.2-3.2,3.2c-1.76,0-3.2-1.44-3.2-3.2Zm0,8c0-1.76,1.44-3.2,3.2-3.2s3.2,1.44,3.2,3.2-1.28,3.2-3.2,3.2c-1.76,0-3.2-1.44-3.2-3.2Zm0,8c0-1.76,1.44-3.2,3.2-3.2s3.2,1.44,3.2,3.2-1.28,3.2-3.2,3.2c-1.76,0-3.2-1.44-3.2-3.2Z"/>
        <path class="cls-1" d="m304,11.2c0-1.76,1.44-3.2,3.2-3.2s3.2,1.44,3.2,3.2-1.44,3.2-3.2,3.2-3.2-1.44-3.2-3.2Zm0,8c0-1.76,1.44-3.2,3.2-3.2s3.2,1.44,3.2,3.2-1.44,3.2-3.2,3.2-3.2-1.44-3.2-3.2Zm0,8c0-1.76,1.44-3.2,3.2-3.2s3.2,1.44,3.2,3.2-1.44,3.2-3.2,3.2-3.2-1.44-3.2-3.2Zm0,8c0-1.76,1.44-3.2,3.2-3.2s3.2,1.44,3.2,3.2-1.44,3.2-3.2,3.2-3.2-1.44-3.2-3.2Zm0,8c0-1.76,1.44-3.2,3.2-3.2s3.2,1.44,3.2,3.2-1.44,3.2-3.2,3.2-3.2-1.44-3.2-3.2Zm0,8c0-1.76,1.44-3.2,3.2-3.2s3.2,1.44,3.2,3.2-1.44,3.2-3.2,3.2-3.2-1.44-3.2-3.2Zm0,8c0-1.76,1.44-3.2,3.2-3.2s3.2,1.44,3.2,3.2-1.44,3.2-3.2,3.2-3.2-1.44-3.2-3.2Zm0,8c0-1.76,1.44-3.2,3.2-3.2s3.2,1.44,3.2,3.2-1.44,3.2-3.2,3.2-3.2-1.44-3.2-3.2Zm0,8c0-1.76,1.44-3.2,3.2-3.2s3.2,1.44,3.2,3.2-1.44,3.2-3.2,3.2-3.2-1.44-3.2-3.2Zm0,8c0-1.76,1.44-3.2,3.2-3.2s3.2,1.44,3.2,3.2-1.44,3.2-3.2,3.2-3.2-1.44-3.2-3.2Zm0,8c0-1.76,1.44-3.2,3.2-3.2s3.2,1.44,3.2,3.2-1.44,3.2-3.2,3.2-3.2-1.44-3.2-3.2Zm0,8c0-1.76,1.44-3.2,3.2-3.2s3.2,1.44,3.2,3.2-1.44,3.2-3.2,3.2-3.2-1.44-3.2-3.2Zm0,8c0-1.76,1.44-3.2,3.2-3.2s3.2,1.44,3.2,3.2-1.44,3.2-3.2,3.2-3.2-1.44-3.2-3.2Zm0,8c0-1.76,1.44-3.2,3.2-3.2s3.2,1.44,3.2,3.2-1.44,3.2-3.2,3.2-3.2-1.44-3.2-3.2Zm0,8c0-1.76,1.44-3.2,3.2-3.2s3.2,1.44,3.2,3.2-1.44,3.2-3.2,3.2-3.2-1.44-3.2-3.2Zm8-120c0-1.76,1.44-3.2,3.2-3.2s3.2,1.44,3.2,3.2-1.28,3.2-3.2,3.2c-1.76,0-3.2-1.44-3.2-3.2Zm0,8c0-1.76,1.44-3.2,3.2-3.2s3.2,1.44,3.2,3.2-1.28,3.2-3.2,3.2c-1.76,0-3.2-1.44-3.2-3.2Zm0,8c0-1.76,1.44-3.2,3.2-3.2s3.2,1.44,3.2,3.2-1.28,3.2-3.2,3.2c-1.76,0-3.2-1.44-3.2-3.2Zm0,8c0-1.76,1.44-3.2,3.2-3.2s3.2,1.44,3.2,3.2-1.28,3.2-3.2,3.2c-1.76,0-3.2-1.44-3.2-3.2Zm0,8c0-1.76,1.44-3.2,3.2-3.2s3.2,1.44,3.2,3.2-1.28,3.2-3.2,3.2c-1.76,0-3.2-1.44-3.2-3.2Zm0,8c0-1.76,1.44-3.2,3.2-3.2s3.2,1.44,3.2,3.2-1.28,3.2-3.2,3.2c-1.76,0-3.2-1.44-3.2-3.2Zm0,8c0-1.76,1.44-3.2,3.2-3.2s3.2,1.44,3.2,3.2-1.28,3.2-3.2,3.2c-1.76,0-3.2-1.44-3.2-3.2Zm0,8c0-1.76,1.44-3.2,3.2-3.2s3.2,1.44,3.2,3.2-1.28,3.2-3.2,3.2c-1.76,0-3.2-1.44-3.2-3.2Zm0,8c0-1.76,1.44-3.2,3.2-3.2s3.2,1.44,3.2,3.2-1.28,3.2-3.2,3.2c-1.76,0-3.2-1.44-3.2-3.2Zm0,8c0-1.76,1.44-3.2,3.2-3.2s3.2,1.44,3.2,3.2-1.28,3.2-3.2,3.2c-1.76,0-3.2-1.44-3.2-3.2Zm0,8c0-1.76,1.44-3.2,3.2-3.2s3.2,1.44,3.2,3.2-1.28,3.2-3.2,3.2c-1.76,0-3.2-1.44-3.2-3.2Zm0,8c0-1.76,1.44-3.2,3.2-3.2s3.2,1.44,3.2,3.2-1.28,3.2-3.2,3.2c-1.76,0-3.2-1.44-3.2-3.2Zm0,8c0-1.76,1.44-3.2,3.2-3.2s3.2,1.44,3.2,3.2-1.28,3.2-3.2,3.2c-1.76,0-3.2-1.44-3.2-3.2Zm0,8c0-1.76,1.44-3.2,3.2-3.2s3.2,1.44,3.2,3.2-1.28,3.2-3.2,3.2c-1.76,0-3.2-1.44-3.2-3.2Zm0,8c0-1.76,1.44-3.2,3.2-3.2s3.2,1.44,3.2,3.2-1.28,3.2-3.2,3.2c-1.76,0-3.2-1.44-3.2-3.2Zm0,8c0-1.76,1.44-3.2,3.2-3.2s3.2,1.44,3.2,3.2-1.28,3.2-3.2,3.2c-1.76,0-3.2-1.44-3.2-3.2Zm8-120c0-1.76,1.44-3.2,3.2-3.2s3.2,1.44,3.2,3.2-1.28,3.2-3.2,3.2c-1.76,0-3.2-1.44-3.2-3.2Zm0,8c0-1.76,1.44-3.2,3.2-3.2s3.2,1.44,3.2,3.2-1.28,3.2-3.2,3.2c-1.76,0-3.2-1.44-3.2-3.2Zm0,8c0-1.76,1.44-3.2,3.2-3.2s3.2,1.44,3.2,3.2-1.28,3.2-3.2,3.2c-1.76,0-3.2-1.44-3.2-3.2Zm0,8c0-1.76,1.44-3.2,3.2-3.2s3.2,1.44,3.2,3.2-1.28,3.2-3.2,3.2c-1.76,0-3.2-1.44-3.2-3.2Zm0,8c0-1.76,1.44-3.2,3.2-3.2s3.2,1.44,3.2,3.2-1.28,3.2-3.2,3.2c-1.76,0-3.2-1.44-3.2-3.2Zm0,8c0-1.76,1.44-3.2,3.2-3.2s3.2,1.44,3.2,3.2-1.28,3.2-3.2,3.2c-1.76,0-3.2-1.44-3.2-3.2Zm0,8c0-1.76,1.44-3.2,3.2-3.2s3.2,1.44,3.2,3.2-1.28,3.2-3.2,3.2c-1.76,0-3.2-1.44-3.2-3.2Zm0,8c0-1.76,1.44-3.2,3.2-3.2s3.2,1.44,3.2,3.2-1.28,3.2-3.2,3.2c-1.76,0-3.2-1.44-3.2-3.2Zm0,8c0-1.76,1.44-3.2,3.2-3.2s3.2,1.44,3.2,3.2-1.28,3.2-3.2,3.2c-1.76,0-3.2-1.44-3.2-3.2Zm0,8c0-1.76,1.44-3.2,3.2-3.2s3.2,1.44,3.2,3.2-1.28,3.2-3.2,3.2c-1.76,0-3.2-1.44-3.2-3.2Zm0,8c0-1.76,1.44-3.2,3.2-3.2s3.2,1.44,3.2,3.2-1.28,3.2-3.2,3.2c-1.76,0-3.2-1.44-3.2-3.2Zm0,8c0-1.76,1.44-3.2,3.2-3.2s3.2,1.44,3.2,3.2-1.28,3.2-3.2,3.2c-1.76,0-3.2-1.44-3.2-3.2Zm0,8c0-1.76,1.44-3.2,3.2-3.2s3.2,1.44,3.2,3.2-1.28,3.2-3.2,3.2c-1.76,0-3.2-1.44-3.2-3.2Zm0,8c0-1.76,1.44-3.2,3.2-3.2s3.2,1.44,3.2,3.2-1.28,3.2-3.2,3.2c-1.76,0-3.2-1.44-3.2-3.2Zm0,8c0-1.76,1.44-3.2,3.2-3.2s3.2,1.44,3.2,3.2-1.28,3.2-3.2,3.2c-1.76,0-3.2-1.44-3.2-3.2Zm0,8c0-1.76,1.44-3.2,3.2-3.2s3.2,1.44,3.2,3.2-1.28,3.2-3.2,3.2c-1.76,0-3.2-1.44-3.2-3.2Zm8-120c0-1.76,1.44-3.2,3.2-3.2s3.2,1.44,3.2,3.2-1.28,3.2-3.2,3.2c-1.76,0-3.2-1.44-3.2-3.2Zm0,8c0-1.76,1.44-3.2,3.2-3.2s3.2,1.44,3.2,3.2-1.28,3.2-3.2,3.2c-1.76,0-3.2-1.44-3.2-3.2Zm0,8c0-1.76,1.44-3.2,3.2-3.2s3.2,1.44,3.2,3.2-1.28,3.2-3.2,3.2c-1.76,0-3.2-1.44-3.2-3.2Zm0,8c0-1.76,1.44-3.2,3.2-3.2s3.2,1.44,3.2,3.2-1.28,3.2-3.2,3.2c-1.76,0-3.2-1.44-3.2-3.2Zm0,8c0-1.76,1.44-3.2,3.2-3.2s3.2,1.44,3.2,3.2-1.28,3.2-3.2,3.2c-1.76,0-3.2-1.44-3.2-3.2Zm0,8c0-1.76,1.44-3.2,3.2-3.2s3.2,1.44,3.2,3.2-1.28,3.2-3.2,3.2c-1.76,0-3.2-1.44-3.2-3.2Zm0,8c0-1.76,1.44-3.2,3.2-3.2s3.2,1.44,3.2,3.2-1.28,3.2-3.2,3.2c-1.76,0-3.2-1.44-3.2-3.2Zm0,8c0-1.76,1.44-3.2,3.2-3.2s3.2,1.44,3.2,3.2-1.28,3.2-3.2,3.2c-1.76,0-3.2-1.44-3.2-3.2Zm0,8c0-1.76,1.44-3.2,3.2-3.2s3.2,1.44,3.2,3.2-1.28,3.2-3.2,3.2c-1.76,0-3.2-1.44-3.2-3.2Zm0,8c0-1.76,1.44-3.2,3.2-3.2s3.2,1.44,3.2,3.2-1.28,3.2-3.2,3.2c-1.76,0-3.2-1.44-3.2-3.2Zm0,8c0-1.76,1.44-3.2,3.2-3.2s3.2,1.44,3.2,3.2-1.28,3.2-3.2,3.2c-1.76,0-3.2-1.44-3.2-3.2Zm0,8c0-1.76,1.44-3.2,3.2-3.2s3.2,1.44,3.2,3.2-1.28,3.2-3.2,3.2c-1.76,0-3.2-1.44-3.2-3.2Zm0,8c0-1.76,1.44-3.2,3.2-3.2s3.2,1.44,3.2,3.2-1.28,3.2-3.2,3.2c-1.76,0-3.2-1.44-3.2-3.2Zm0,8c0-1.76,1.44-3.2,3.2-3.2s3.2,1.44,3.2,3.2-1.28,3.2-3.2,3.2c-1.76,0-3.2-1.44-3.2-3.2Zm0,8c0-1.76,1.44-3.2,3.2-3.2s3.2,1.44,3.2,3.2-1.28,3.2-3.2,3.2c-1.76,0-3.2-1.44-3.2-3.2Zm0,8c0-1.76,1.44-3.2,3.2-3.2s3.2,1.44,3.2,3.2-1.28,3.2-3.2,3.2c-1.76,0-3.2-1.44-3.2-3.2Zm8-120c0-1.76,1.44-3.2,3.2-3.2s3.2,1.44,3.2,3.2-1.28,3.2-3.2,3.2c-1.76,0-3.2-1.44-3.2-3.2Zm0,8c0-1.76,1.44-3.2,3.2-3.2s3.2,1.44,3.2,3.2-1.28,3.2-3.2,3.2c-1.76,0-3.2-1.44-3.2-3.2Zm0,8c0-1.76,1.44-3.2,3.2-3.2s3.2,1.44,3.2,3.2-1.28,3.2-3.2,3.2c-1.76,0-3.2-1.44-3.2-3.2Zm0,8c0-1.76,1.44-3.2,3.2-3.2s3.2,1.44,3.2,3.2-1.28,3.2-3.2,3.2c-1.76,0-3.2-1.44-3.2-3.2Zm0,32c0-1.76,1.44-3.2,3.2-3.2s3.2,1.44,3.2,3.2-1.28,3.2-3.2,3.2c-1.76,0-3.2-1.44-3.2-3.2Zm0,8c0-1.76,1.44-3.2,3.2-3.2s3.2,1.44,3.2,3.2-1.28,3.2-3.2,3.2c-1.76,0-3.2-1.44-3.2-3.2Zm0,8c0-1.76,1.44-3.2,3.2-3.2s3.2,1.44,3.2,3.2-1.28,3.2-3.2,3.2c-1.76,0-3.2-1.44-3.2-3.2Zm0,8c0-1.76,1.44-3.2,3.2-3.2s3.2,1.44,3.2,3.2-1.28,3.2-3.2,3.2c-1.76,0-3.2-1.44-3.2-3.2Zm8-80c0-1.76,1.44-3.2,3.2-3.2s3.2,1.44,3.2,3.2-1.28,3.2-3.2,3.2c-1.76,0-3.2-1.44-3.2-3.2Zm0,8c0-1.76,1.44-3.2,3.2-3.2s3.2,1.44,3.2,3.2-1.28,3.2-3.2,3.2c-1.76,0-3.2-1.44-3.2-3.2Zm0,8c0-1.76,1.44-3.2,3.2-3.2s3.2,1.44,3.2,3.2-1.28,3.2-3.2,3.2c-1.76,0-3.2-1.44-3.2-3.2Zm0,8c0-1.76,1.44-3.2,3.2-3.2s3.2,1.44,3.2,3.2-1.28,3.2-3.2,3.2c-1.76,0-3.2-1.44-3.2-3.2Zm0,8c0-1.76,1.44-3.2,3.2-3.2s3.2,1.44,3.2,3.2-1.28,3.2-3.2,3.2c-1.76,0-3.2-1.44-3.2-3.2Zm0,8c0-1.76,1.44-3.2,3.2-3.2s3.2,1.44,3.2,3.2-1.28,3.2-3.2,3.2c-1.76,0-3.2-1.44-3.2-3.2Zm0,8c0-1.76,1.44-3.2,3.2-3.2s3.2,1.44,3.2,3.2-1.28,3.2-3.2,3.2c-1.76,0-3.2-1.44-3.2-3.2Zm0,8c0-1.76,1.44-3.2,3.2-3.2s3.2,1.44,3.2,3.2-1.28,3.2-3.2,3.2c-1.76,0-3.2-1.44-3.2-3.2Zm0,8c0-1.76,1.44-3.2,3.2-3.2s3.2,1.44,3.2,3.2-1.28,3.2-3.2,3.2c-1.76,0-3.2-1.44-3.2-3.2Zm0,8c0-1.76,1.44-3.2,3.2-3.2s3.2,1.44,3.2,3.2-1.28,3.2-3.2,3.2c-1.76,0-3.2-1.44-3.2-3.2Zm0,8c0-1.76,1.44-3.2,3.2-3.2s3.2,1.44,3.2,3.2-1.28,3.2-3.2,3.2c-1.76,0-3.2-1.44-3.2-3.2Zm0,8c0-1.76,1.44-3.2,3.2-3.2s3.2,1.44,3.2,3.2-1.28,3.2-3.2,3.2c-1.76,0-3.2-1.44-3.2-3.2Zm0,8c0-1.76,1.44-3.2,3.2-3.2s3.2,1.44,3.2,3.2-1.28,3.2-3.2,3.2c-1.76,0-3.2-1.44-3.2-3.2Zm0,8c0-1.76,1.44-3.2,3.2-3.2s3.2,1.44,3.2,3.2-1.28,3.2-3.2,3.2c-1.76,0-3.2-1.44-3.2-3.2Zm0,8c0-1.76,1.44-3.2,3.2-3.2s3.2,1.44,3.2,3.2-1.28,3.2-3.2,3.2c-1.76,0-3.2-1.44-3.2-3.2Zm0,8c0-1.76,1.44-3.2,3.2-3.2s3.2,1.44,3.2,3.2-1.28,3.2-3.2,3.2c-1.76,0-3.2-1.44-3.2-3.2Zm8-120c0-1.76,1.44-3.2,3.2-3.2s3.2,1.44,3.2,3.2-1.28,3.2-3.2,3.2c-1.76,0-3.2-1.44-3.2-3.2Zm0,8c0-1.76,1.44-3.2,3.2-3.2s3.2,1.44,3.2,3.2-1.28,3.2-3.2,3.2c-1.76,0-3.2-1.44-3.2-3.2Zm0,8c0-1.76,1.44-3.2,3.2-3.2s3.2,1.44,3.2,3.2-1.28,3.2-3.2,3.2c-1.76,0-3.2-1.44-3.2-3.2Zm0,8c0-1.76,1.44-3.2,3.2-3.2s3.2,1.44,3.2,3.2-1.28,3.2-3.2,3.2c-1.76,0-3.2-1.44-3.2-3.2Zm0,8c0-1.76,1.44-3.2,3.2-3.2s3.2,1.44,3.2,3.2-1.28,3.2-3.2,3.2c-1.76,0-3.2-1.44-3.2-3.2Zm0,8c0-1.76,1.44-3.2,3.2-3.2s3.2,1.44,3.2,3.2-1.28,3.2-3.2,3.2c-1.76,0-3.2-1.44-3.2-3.2Zm0,8c0-1.76,1.44-3.2,3.2-3.2s3.2,1.44,3.2,3.2-1.28,3.2-3.2,3.2c-1.76,0-3.2-1.44-3.2-3.2Zm0,8c0-1.76,1.44-3.2,3.2-3.2s3.2,1.44,3.2,3.2-1.28,3.2-3.2,3.2c-1.76,0-3.2-1.44-3.2-3.2Zm0,8c0-1.76,1.44-3.2,3.2-3.2s3.2,1.44,3.2,3.2-1.28,3.2-3.2,3.2c-1.76,0-3.2-1.44-3.2-3.2Zm0,8c0-1.76,1.44-3.2,3.2-3.2s3.2,1.44,3.2,3.2-1.28,3.2-3.2,3.2c-1.76,0-3.2-1.44-3.2-3.2Zm0,8c0-1.76,1.44-3.2,3.2-3.2s3.2,1.44,3.2,3.2-1.28,3.2-3.2,3.2c-1.76,0-3.2-1.44-3.2-3.2Zm0,8c0-1.76,1.44-3.2,3.2-3.2s3.2,1.44,3.2,3.2-1.28,3.2-3.2,3.2c-1.76,0-3.2-1.44-3.2-3.2Zm0,8c0-1.76,1.44-3.2,3.2-3.2s3.2,1.44,3.2,3.2-1.28,3.2-3.2,3.2c-1.76,0-3.2-1.44-3.2-3.2Zm0,8c0-1.76,1.44-3.2,3.2-3.2s3.2,1.44,3.2,3.2-1.28,3.2-3.2,3.2c-1.76,0-3.2-1.44-3.2-3.2Zm0,8c0-1.76,1.44-3.2,3.2-3.2s3.2,1.44,3.2,3.2-1.28,3.2-3.2,3.2c-1.76,0-3.2-1.44-3.2-3.2Zm0,8c0-1.76,1.44-3.2,3.2-3.2s3.2,1.44,3.2,3.2-1.28,3.2-3.2,3.2c-1.76,0-3.2-1.44-3.2-3.2Zm8-120c0-1.76,1.44-3.2,3.2-3.2s3.2,1.44,3.2,3.2-1.28,3.2-3.2,3.2c-1.76,0-3.2-1.44-3.2-3.2Zm0,8c0-1.76,1.44-3.2,3.2-3.2s3.2,1.44,3.2,3.2-1.28,3.2-3.2,3.2c-1.76,0-3.2-1.44-3.2-3.2Zm0,8c0-1.76,1.44-3.2,3.2-3.2s3.2,1.44,3.2,3.2-1.28,3.2-3.2,3.2c-1.76,0-3.2-1.44-3.2-3.2Zm0,8c0-1.76,1.44-3.2,3.2-3.2s3.2,1.44,3.2,3.2-1.28,3.2-3.2,3.2c-1.76,0-3.2-1.44-3.2-3.2Zm0,8c0-1.76,1.44-3.2,3.2-3.2s3.2,1.44,3.2,3.2-1.28,3.2-3.2,3.2c-1.76,0-3.2-1.44-3.2-3.2Zm0,8c0-1.76,1.44-3.2,3.2-3.2s3.2,1.44,3.2,3.2-1.28,3.2-3.2,3.2c-1.76,0-3.2-1.44-3.2-3.2Zm0,8c0-1.76,1.44-3.2,3.2-3.2s3.2,1.44,3.2,3.2-1.28,3.2-3.2,3.2c-1.76,0-3.2-1.44-3.2-3.2Zm0,8c0-1.76,1.44-3.2,3.2-3.2s3.2,1.44,3.2,3.2-1.28,3.2-3.2,3.2c-1.76,0-3.2-1.44-3.2-3.2Zm0,8c0-1.76,1.44-3.2,3.2-3.2s3.2,1.44,3.2,3.2-1.28,3.2-3.2,3.2c-1.76,0-3.2-1.44-3.2-3.2Zm0,8c0-1.76,1.44-3.2,3.2-3.2s3.2,1.44,3.2,3.2-1.28,3.2-3.2,3.2c-1.76,0-3.2-1.44-3.2-3.2Zm0,8c0-1.76,1.44-3.2,3.2-3.2s3.2,1.44,3.2,3.2-1.28,3.2-3.2,3.2c-1.76,0-3.2-1.44-3.2-3.2Zm0,8c0-1.76,1.44-3.2,3.2-3.2s3.2,1.44,3.2,3.2-1.28,3.2-3.2,3.2c-1.76,0-3.2-1.44-3.2-3.2Zm0,8c0-1.76,1.44-3.2,3.2-3.2s3.2,1.44,3.2,3.2-1.28,3.2-3.2,3.2c-1.76,0-3.2-1.44-3.2-3.2Zm0,8c0-1.76,1.44-3.2,3.2-3.2s3.2,1.44,3.2,3.2-1.28,3.2-3.2,3.2c-1.76,0-3.2-1.44-3.2-3.2Zm0,8c0-1.76,1.44-3.2,3.2-3.2s3.2,1.44,3.2,3.2-1.28,3.2-3.2,3.2c-1.76,0-3.2-1.44-3.2-3.2Zm0,8c0-1.76,1.44-3.2,3.2-3.2s3.2,1.44,3.2,3.2-1.28,3.2-3.2,3.2c-1.76,0-3.2-1.44-3.2-3.2Zm8-112c0-1.76,1.44-3.2,3.2-3.2s3.2,1.44,3.2,3.2-1.28,3.2-3.2,3.2c-1.76,0-3.2-1.44-3.2-3.2Zm0,8c0-1.76,1.44-3.2,3.2-3.2s3.2,1.44,3.2,3.2-1.28,3.2-3.2,3.2c-1.76,0-3.2-1.44-3.2-3.2Zm0,8c0-1.76,1.44-3.2,3.2-3.2s3.2,1.44,3.2,3.2-1.28,3.2-3.2,3.2c-1.76,0-3.2-1.44-3.2-3.2Zm0,8c0-1.76,1.44-3.2,3.2-3.2s3.2,1.44,3.2,3.2-1.28,3.2-3.2,3.2c-1.76,0-3.2-1.44-3.2-3.2Zm0,8c0-1.76,1.44-3.2,3.2-3.2s3.2,1.44,3.2,3.2-1.28,3.2-3.2,3.2c-1.76,0-3.2-1.44-3.2-3.2Zm0,8c0-1.76,1.44-3.2,3.2-3.2s3.2,1.44,3.2,3.2-1.28,3.2-3.2,3.2c-1.76,0-3.2-1.44-3.2-3.2Zm0,8c0-1.76,1.44-3.2,3.2-3.2s3.2,1.44,3.2,3.2-1.28,3.2-3.2,3.2c-1.76,0-3.2-1.44-3.2-3.2Zm0,8c0-1.76,1.44-3.2,3.2-3.2s3.2,1.44,3.2,3.2-1.28,3.2-3.2,3.2c-1.76,0-3.2-1.44-3.2-3.2Zm0,8c0-1.76,1.44-3.2,3.2-3.2s3.2,1.44,3.2,3.2-1.28,3.2-3.2,3.2c-1.76,0-3.2-1.44-3.2-3.2Zm0,8c0-1.76,1.44-3.2,3.2-3.2s3.2,1.44,3.2,3.2-1.28,3.2-3.2,3.2c-1.76,0-3.2-1.44-3.2-3.2Zm0,8c0-1.76,1.44-3.2,3.2-3.2s3.2,1.44,3.2,3.2-1.28,3.2-3.2,3.2c-1.76,0-3.2-1.44-3.2-3.2Zm0,8c0-1.76,1.44-3.2,3.2-3.2s3.2,1.44,3.2,3.2-1.28,3.2-3.2,3.2c-1.76,0-3.2-1.44-3.2-3.2Zm0,8c0-1.76,1.44-3.2,3.2-3.2s3.2,1.44,3.2,3.2-1.28,3.2-3.2,3.2c-1.76,0-3.2-1.44-3.2-3.2Zm0,8c0-1.76,1.44-3.2,3.2-3.2s3.2,1.44,3.2,3.2-1.28,3.2-3.2,3.2c-1.76,0-3.2-1.44-3.2-3.2Zm0,8c0-1.76,1.44-3.2,3.2-3.2s3.2,1.44,3.2,3.2-1.28,3.2-3.2,3.2c-1.76,0-3.2-1.44-3.2-3.2Z"/>
        <path class="cls-1" d="m384,3.2C384,1.44,385.44,0,387.2,0s3.2,1.44,3.2,3.2-1.44,3.2-3.2,3.2-3.2-1.44-3.2-3.2Zm0,8c0-1.76,1.44-3.2,3.2-3.2s3.2,1.44,3.2,3.2-1.44,3.2-3.2,3.2-3.2-1.44-3.2-3.2Zm0,8c0-1.76,1.44-3.2,3.2-3.2s3.2,1.44,3.2,3.2-1.44,3.2-3.2,3.2-3.2-1.44-3.2-3.2Zm0,8c0-1.76,1.44-3.2,3.2-3.2s3.2,1.44,3.2,3.2-1.44,3.2-3.2,3.2-3.2-1.44-3.2-3.2Zm0,8c0-1.76,1.44-3.2,3.2-3.2s3.2,1.44,3.2,3.2-1.44,3.2-3.2,3.2-3.2-1.44-3.2-3.2Zm0,8c0-1.76,1.44-3.2,3.2-3.2s3.2,1.44,3.2,3.2-1.44,3.2-3.2,3.2-3.2-1.44-3.2-3.2Zm0,8c0-1.76,1.44-3.2,3.2-3.2s3.2,1.44,3.2,3.2-1.44,3.2-3.2,3.2-3.2-1.44-3.2-3.2Zm0,8c0-1.76,1.44-3.2,3.2-3.2s3.2,1.44,3.2,3.2-1.44,3.2-3.2,3.2-3.2-1.44-3.2-3.2Zm0,8c0-1.76,1.44-3.2,3.2-3.2s3.2,1.44,3.2,3.2-1.44,3.2-3.2,3.2-3.2-1.44-3.2-3.2Zm0,8c0-1.76,1.44-3.2,3.2-3.2s3.2,1.44,3.2,3.2-1.44,3.2-3.2,3.2-3.2-1.44-3.2-3.2Zm0,8c0-1.76,1.44-3.2,3.2-3.2s3.2,1.44,3.2,3.2-1.44,3.2-3.2,3.2-3.2-1.44-3.2-3.2Zm0,8c0-1.76,1.44-3.2,3.2-3.2s3.2,1.44,3.2,3.2-1.44,3.2-3.2,3.2-3.2-1.44-3.2-3.2Zm0,8c0-1.76,1.44-3.2,3.2-3.2s3.2,1.44,3.2,3.2-1.44,3.2-3.2,3.2-3.2-1.44-3.2-3.2Zm0,8c0-1.76,1.44-3.2,3.2-3.2s3.2,1.44,3.2,3.2-1.44,3.2-3.2,3.2-3.2-1.44-3.2-3.2Zm0,8c0-1.76,1.44-3.2,3.2-3.2s3.2,1.44,3.2,3.2-1.44,3.2-3.2,3.2-3.2-1.44-3.2-3.2Zm0,8c0-1.76,1.44-3.2,3.2-3.2s3.2,1.44,3.2,3.2-1.44,3.2-3.2,3.2-3.2-1.44-3.2-3.2Zm8-120c0-1.76,1.44-3.2,3.2-3.2s3.2,1.44,3.2,3.2-1.28,3.2-3.2,3.2c-1.76,0-3.2-1.44-3.2-3.2Zm0,8c0-1.76,1.44-3.2,3.2-3.2s3.2,1.44,3.2,3.2-1.28,3.2-3.2,3.2c-1.76,0-3.2-1.44-3.2-3.2Zm0,8c0-1.76,1.44-3.2,3.2-3.2s3.2,1.44,3.2,3.2-1.28,3.2-3.2,3.2c-1.76,0-3.2-1.44-3.2-3.2Zm0,8c0-1.76,1.44-3.2,3.2-3.2s3.2,1.44,3.2,3.2-1.28,3.2-3.2,3.2c-1.76,0-3.2-1.44-3.2-3.2Zm0,8c0-1.76,1.44-3.2,3.2-3.2s3.2,1.44,3.2,3.2-1.28,3.2-3.2,3.2c-1.76,0-3.2-1.44-3.2-3.2Zm0,8c0-1.76,1.44-3.2,3.2-3.2s3.2,1.44,3.2,3.2-1.28,3.2-3.2,3.2c-1.76,0-3.2-1.44-3.2-3.2Zm0,8c0-1.76,1.44-3.2,3.2-3.2s3.2,1.44,3.2,3.2-1.28,3.2-3.2,3.2c-1.76,0-3.2-1.44-3.2-3.2Zm0,8c0-1.76,1.44-3.2,3.2-3.2s3.2,1.44,3.2,3.2-1.28,3.2-3.2,3.2c-1.76,0-3.2-1.44-3.2-3.2Zm0,8c0-1.76,1.44-3.2,3.2-3.2s3.2,1.44,3.2,3.2-1.28,3.2-3.2,3.2c-1.76,0-3.2-1.44-3.2-3.2Zm0,8c0-1.76,1.44-3.2,3.2-3.2s3.2,1.44,3.2,3.2-1.28,3.2-3.2,3.2c-1.76,0-3.2-1.44-3.2-3.2Zm0,8c0-1.76,1.44-3.2,3.2-3.2s3.2,1.44,3.2,3.2-1.28,3.2-3.2,3.2c-1.76,0-3.2-1.44-3.2-3.2Zm0,8c0-1.76,1.44-3.2,3.2-3.2s3.2,1.44,3.2,3.2-1.28,3.2-3.2,3.2c-1.76,0-3.2-1.44-3.2-3.2Zm0,8c0-1.76,1.44-3.2,3.2-3.2s3.2,1.44,3.2,3.2-1.28,3.2-3.2,3.2c-1.76,0-3.2-1.44-3.2-3.2Zm0,8c0-1.76,1.44-3.2,3.2-3.2s3.2,1.44,3.2,3.2-1.28,3.2-3.2,3.2c-1.76,0-3.2-1.44-3.2-3.2Zm0,8c0-1.76,1.44-3.2,3.2-3.2s3.2,1.44,3.2,3.2-1.28,3.2-3.2,3.2c-1.76,0-3.2-1.44-3.2-3.2Zm0,8c0-1.76,1.44-3.2,3.2-3.2s3.2,1.44,3.2,3.2-1.28,3.2-3.2,3.2c-1.76,0-3.2-1.44-3.2-3.2Zm8-120c0-1.76,1.44-3.2,3.2-3.2s3.2,1.44,3.2,3.2-1.28,3.2-3.2,3.2c-1.76,0-3.2-1.44-3.2-3.2Zm0,8c0-1.76,1.44-3.2,3.2-3.2s3.2,1.44,3.2,3.2-1.28,3.2-3.2,3.2c-1.76,0-3.2-1.44-3.2-3.2Zm0,8c0-1.76,1.44-3.2,3.2-3.2s3.2,1.44,3.2,3.2-1.28,3.2-3.2,3.2c-1.76,0-3.2-1.44-3.2-3.2Zm0,8c0-1.76,1.44-3.2,3.2-3.2s3.2,1.44,3.2,3.2-1.28,3.2-3.2,3.2c-1.76,0-3.2-1.44-3.2-3.2Zm0,8c0-1.76,1.44-3.2,3.2-3.2s3.2,1.44,3.2,3.2-1.28,3.2-3.2,3.2c-1.76,0-3.2-1.44-3.2-3.2Zm0,8c0-1.76,1.44-3.2,3.2-3.2s3.2,1.44,3.2,3.2-1.28,3.2-3.2,3.2c-1.76,0-3.2-1.44-3.2-3.2Zm0,8c0-1.76,1.44-3.2,3.2-3.2s3.2,1.44,3.2,3.2-1.28,3.2-3.2,3.2c-1.76,0-3.2-1.44-3.2-3.2Zm0,8c0-1.76,1.44-3.2,3.2-3.2s3.2,1.44,3.2,3.2-1.28,3.2-3.2,3.2c-1.76,0-3.2-1.44-3.2-3.2Zm0,8c0-1.76,1.44-3.2,3.2-3.2s3.2,1.44,3.2,3.2-1.28,3.2-3.2,3.2c-1.76,0-3.2-1.44-3.2-3.2Zm0,8c0-1.76,1.44-3.2,3.2-3.2s3.2,1.44,3.2,3.2-1.28,3.2-3.2,3.2c-1.76,0-3.2-1.44-3.2-3.2Zm0,8c0-1.76,1.44-3.2,3.2-3.2s3.2,1.44,3.2,3.2-1.28,3.2-3.2,3.2c-1.76,0-3.2-1.44-3.2-3.2Zm0,8c0-1.76,1.44-3.2,3.2-3.2s3.2,1.44,3.2,3.2-1.28,3.2-3.2,3.2c-1.76,0-3.2-1.44-3.2-3.2Zm0,8c0-1.76,1.44-3.2,3.2-3.2s3.2,1.44,3.2,3.2-1.28,3.2-3.2,3.2c-1.76,0-3.2-1.44-3.2-3.2Zm0,8c0-1.76,1.44-3.2,3.2-3.2s3.2,1.44,3.2,3.2-1.28,3.2-3.2,3.2c-1.76,0-3.2-1.44-3.2-3.2Zm0,8c0-1.76,1.44-3.2,3.2-3.2s3.2,1.44,3.2,3.2-1.28,3.2-3.2,3.2c-1.76,0-3.2-1.44-3.2-3.2Zm0,8c0-1.76,1.44-3.2,3.2-3.2s3.2,1.44,3.2,3.2-1.28,3.2-3.2,3.2c-1.76,0-3.2-1.44-3.2-3.2Zm8-120c0-1.76,1.44-3.2,3.2-3.2s3.2,1.44,3.2,3.2-1.28,3.2-3.2,3.2c-1.76,0-3.2-1.44-3.2-3.2Zm0,8c0-1.76,1.44-3.2,3.2-3.2s3.2,1.44,3.2,3.2-1.28,3.2-3.2,3.2c-1.76,0-3.2-1.44-3.2-3.2Zm0,8c0-1.76,1.44-3.2,3.2-3.2s3.2,1.44,3.2,3.2-1.28,3.2-3.2,3.2c-1.76,0-3.2-1.44-3.2-3.2Zm0,8c0-1.76,1.44-3.2,3.2-3.2s3.2,1.44,3.2,3.2-1.28,3.2-3.2,3.2c-1.76,0-3.2-1.44-3.2-3.2Zm0,8c0-1.76,1.44-3.2,3.2-3.2s3.2,1.44,3.2,3.2-1.28,3.2-3.2,3.2c-1.76,0-3.2-1.44-3.2-3.2Zm0,8c0-1.76,1.44-3.2,3.2-3.2s3.2,1.44,3.2,3.2-1.28,3.2-3.2,3.2c-1.76,0-3.2-1.44-3.2-3.2Zm0,8c0-1.76,1.44-3.2,3.2-3.2s3.2,1.44,3.2,3.2-1.28,3.2-3.2,3.2c-1.76,0-3.2-1.44-3.2-3.2Zm0,8c0-1.76,1.44-3.2,3.2-3.2s3.2,1.44,3.2,3.2-1.28,3.2-3.2,3.2c-1.76,0-3.2-1.44-3.2-3.2Zm0,8c0-1.76,1.44-3.2,3.2-3.2s3.2,1.44,3.2,3.2-1.28,3.2-3.2,3.2c-1.76,0-3.2-1.44-3.2-3.2Zm0,8c0-1.76,1.44-3.2,3.2-3.2s3.2,1.44,3.2,3.2-1.28,3.2-3.2,3.2c-1.76,0-3.2-1.44-3.2-3.2Zm0,8c0-1.76,1.44-3.2,3.2-3.2s3.2,1.44,3.2,3.2-1.28,3.2-3.2,3.2c-1.76,0-3.2-1.44-3.2-3.2Zm0,8c0-1.76,1.44-3.2,3.2-3.2s3.2,1.44,3.2,3.2-1.28,3.2-3.2,3.2c-1.76,0-3.2-1.44-3.2-3.2Zm0,8c0-1.76,1.44-3.2,3.2-3.2s3.2,1.44,3.2,3.2-1.28,3.2-3.2,3.2c-1.76,0-3.2-1.44-3.2-3.2Zm0,8c0-1.76,1.44-3.2,3.2-3.2s3.2,1.44,3.2,3.2-1.28,3.2-3.2,3.2c-1.76,0-3.2-1.44-3.2-3.2Zm0,8c0-1.76,1.44-3.2,3.2-3.2s3.2,1.44,3.2,3.2-1.28,3.2-3.2,3.2c-1.76,0-3.2-1.44-3.2-3.2Zm0,8c0-1.76,1.44-3.2,3.2-3.2s3.2,1.44,3.2,3.2-1.28,3.2-3.2,3.2c-1.76,0-3.2-1.44-3.2-3.2Zm8-24c0-1.76,1.44-3.2,3.2-3.2s3.2,1.44,3.2,3.2-1.28,3.2-3.2,3.2c-1.76,0-3.2-1.44-3.2-3.2Zm0,8c0-1.76,1.44-3.2,3.2-3.2s3.2,1.44,3.2,3.2-1.28,3.2-3.2,3.2c-1.76,0-3.2-1.44-3.2-3.2Zm0,8c0-1.76,1.44-3.2,3.2-3.2s3.2,1.44,3.2,3.2-1.28,3.2-3.2,3.2c-1.76,0-3.2-1.44-3.2-3.2Zm0,8c0-1.76,1.44-3.2,3.2-3.2s3.2,1.44,3.2,3.2-1.28,3.2-3.2,3.2c-1.76,0-3.2-1.44-3.2-3.2Zm8-24c0-1.76,1.44-3.2,3.2-3.2s3.2,1.44,3.2,3.2-1.28,3.2-3.2,3.2c-1.76,0-3.2-1.44-3.2-3.2Zm0,8c0-1.76,1.44-3.2,3.2-3.2s3.2,1.44,3.2,3.2-1.28,3.2-3.2,3.2c-1.76,0-3.2-1.44-3.2-3.2Zm0,8c0-1.76,1.44-3.2,3.2-3.2s3.2,1.44,3.2,3.2-1.28,3.2-3.2,3.2c-1.76,0-3.2-1.44-3.2-3.2Zm0,8c0-1.76,1.44-3.2,3.2-3.2s3.2,1.44,3.2,3.2-1.28,3.2-3.2,3.2c-1.76,0-3.2-1.44-3.2-3.2Zm8-24c0-1.76,1.44-3.2,3.2-3.2s3.2,1.44,3.2,3.2-1.28,3.2-3.2,3.2c-1.76,0-3.2-1.44-3.2-3.2Zm0,8c0-1.76,1.44-3.2,3.2-3.2s3.2,1.44,3.2,3.2-1.28,3.2-3.2,3.2c-1.76,0-3.2-1.44-3.2-3.2Zm0,8c0-1.76,1.44-3.2,3.2-3.2s3.2,1.44,3.2,3.2-1.28,3.2-3.2,3.2c-1.76,0-3.2-1.44-3.2-3.2Zm0,8c0-1.76,1.44-3.2,3.2-3.2s3.2,1.44,3.2,3.2-1.28,3.2-3.2,3.2c-1.76,0-3.2-1.44-3.2-3.2Z"/>
        <path class="cls-1" d="m448,3.2C448,1.44,449.44,0,451.2,0s3.2,1.44,3.2,3.2-1.44,3.2-3.2,3.2-3.2-1.44-3.2-3.2Zm0,8c0-1.76,1.44-3.2,3.2-3.2s3.2,1.44,3.2,3.2-1.44,3.2-3.2,3.2-3.2-1.44-3.2-3.2Zm0,8c0-1.76,1.44-3.2,3.2-3.2s3.2,1.44,3.2,3.2-1.44,3.2-3.2,3.2-3.2-1.44-3.2-3.2Zm0,8c0-1.76,1.44-3.2,3.2-3.2s3.2,1.44,3.2,3.2-1.44,3.2-3.2,3.2-3.2-1.44-3.2-3.2Zm0,8c0-1.76,1.44-3.2,3.2-3.2s3.2,1.44,3.2,3.2-1.44,3.2-3.2,3.2-3.2-1.44-3.2-3.2Zm0,8c0-1.76,1.44-3.2,3.2-3.2s3.2,1.44,3.2,3.2-1.44,3.2-3.2,3.2-3.2-1.44-3.2-3.2Zm0,8c0-1.76,1.44-3.2,3.2-3.2s3.2,1.44,3.2,3.2-1.44,3.2-3.2,3.2-3.2-1.44-3.2-3.2Zm0,8c0-1.76,1.44-3.2,3.2-3.2s3.2,1.44,3.2,3.2-1.44,3.2-3.2,3.2-3.2-1.44-3.2-3.2Zm0,8c0-1.76,1.44-3.2,3.2-3.2s3.2,1.44,3.2,3.2-1.44,3.2-3.2,3.2-3.2-1.44-3.2-3.2Zm0,8c0-1.76,1.44-3.2,3.2-3.2s3.2,1.44,3.2,3.2-1.44,3.2-3.2,3.2-3.2-1.44-3.2-3.2Zm0,8c0-1.76,1.44-3.2,3.2-3.2s3.2,1.44,3.2,3.2-1.44,3.2-3.2,3.2-3.2-1.44-3.2-3.2Zm0,8c0-1.76,1.44-3.2,3.2-3.2s3.2,1.44,3.2,3.2-1.44,3.2-3.2,3.2-3.2-1.44-3.2-3.2Zm0,8c0-1.76,1.44-3.2,3.2-3.2s3.2,1.44,3.2,3.2-1.44,3.2-3.2,3.2-3.2-1.44-3.2-3.2Zm0,8c0-1.76,1.44-3.2,3.2-3.2s3.2,1.44,3.2,3.2-1.44,3.2-3.2,3.2-3.2-1.44-3.2-3.2Zm0,8c0-1.76,1.44-3.2,3.2-3.2s3.2,1.44,3.2,3.2-1.44,3.2-3.2,3.2-3.2-1.44-3.2-3.2Zm0,8c0-1.76,1.44-3.2,3.2-3.2s3.2,1.44,3.2,3.2-1.44,3.2-3.2,3.2-3.2-1.44-3.2-3.2Zm8-120c0-1.76,1.44-3.2,3.2-3.2s3.2,1.44,3.2,3.2-1.28,3.2-3.2,3.2c-1.76,0-3.2-1.44-3.2-3.2Zm0,8c0-1.76,1.44-3.2,3.2-3.2s3.2,1.44,3.2,3.2-1.28,3.2-3.2,3.2c-1.76,0-3.2-1.44-3.2-3.2Zm0,8c0-1.76,1.44-3.2,3.2-3.2s3.2,1.44,3.2,3.2-1.28,3.2-3.2,3.2c-1.76,0-3.2-1.44-3.2-3.2Zm0,8c0-1.76,1.44-3.2,3.2-3.2s3.2,1.44,3.2,3.2-1.28,3.2-3.2,3.2c-1.76,0-3.2-1.44-3.2-3.2Zm0,8c0-1.76,1.44-3.2,3.2-3.2s3.2,1.44,3.2,3.2-1.28,3.2-3.2,3.2c-1.76,0-3.2-1.44-3.2-3.2Zm0,8c0-1.76,1.44-3.2,3.2-3.2s3.2,1.44,3.2,3.2-1.28,3.2-3.2,3.2c-1.76,0-3.2-1.44-3.2-3.2Zm0,8c0-1.76,1.44-3.2,3.2-3.2s3.2,1.44,3.2,3.2-1.28,3.2-3.2,3.2c-1.76,0-3.2-1.44-3.2-3.2Zm0,8c0-1.76,1.44-3.2,3.2-3.2s3.2,1.44,3.2,3.2-1.28,3.2-3.2,3.2c-1.76,0-3.2-1.44-3.2-3.2Zm0,8c0-1.76,1.44-3.2,3.2-3.2s3.2,1.44,3.2,3.2-1.28,3.2-3.2,3.2c-1.76,0-3.2-1.44-3.2-3.2Zm0,8c0-1.76,1.44-3.2,3.2-3.2s3.2,1.44,3.2,3.2-1.28,3.2-3.2,3.2c-1.76,0-3.2-1.44-3.2-3.2Zm0,8c0-1.76,1.44-3.2,3.2-3.2s3.2,1.44,3.2,3.2-1.28,3.2-3.2,3.2c-1.76,0-3.2-1.44-3.2-3.2Zm0,8c0-1.76,1.44-3.2,3.2-3.2s3.2,1.44,3.2,3.2-1.28,3.2-3.2,3.2c-1.76,0-3.2-1.44-3.2-3.2Zm0,8c0-1.76,1.44-3.2,3.2-3.2s3.2,1.44,3.2,3.2-1.28,3.2-3.2,3.2c-1.76,0-3.2-1.44-3.2-3.2Zm0,8c0-1.76,1.44-3.2,3.2-3.2s3.2,1.44,3.2,3.2-1.28,3.2-3.2,3.2c-1.76,0-3.2-1.44-3.2-3.2Zm0,8c0-1.76,1.44-3.2,3.2-3.2s3.2,1.44,3.2,3.2-1.28,3.2-3.2,3.2c-1.76,0-3.2-1.44-3.2-3.2Zm0,8c0-1.76,1.44-3.2,3.2-3.2s3.2,1.44,3.2,3.2-1.28,3.2-3.2,3.2c-1.76,0-3.2-1.44-3.2-3.2Zm8-120c0-1.76,1.44-3.2,3.2-3.2s3.2,1.44,3.2,3.2-1.28,3.2-3.2,3.2c-1.76,0-3.2-1.44-3.2-3.2Zm0,8c0-1.76,1.44-3.2,3.2-3.2s3.2,1.44,3.2,3.2-1.28,3.2-3.2,3.2c-1.76,0-3.2-1.44-3.2-3.2Zm0,8c0-1.76,1.44-3.2,3.2-3.2s3.2,1.44,3.2,3.2-1.28,3.2-3.2,3.2c-1.76,0-3.2-1.44-3.2-3.2Zm0,8c0-1.76,1.44-3.2,3.2-3.2s3.2,1.44,3.2,3.2-1.28,3.2-3.2,3.2c-1.76,0-3.2-1.44-3.2-3.2Zm0,8c0-1.76,1.44-3.2,3.2-3.2s3.2,1.44,3.2,3.2-1.28,3.2-3.2,3.2c-1.76,0-3.2-1.44-3.2-3.2Zm0,8c0-1.76,1.44-3.2,3.2-3.2s3.2,1.44,3.2,3.2-1.28,3.2-3.2,3.2c-1.76,0-3.2-1.44-3.2-3.2Zm0,8c0-1.76,1.44-3.2,3.2-3.2s3.2,1.44,3.2,3.2-1.28,3.2-3.2,3.2c-1.76,0-3.2-1.44-3.2-3.2Zm0,8c0-1.76,1.44-3.2,3.2-3.2s3.2,1.44,3.2,3.2-1.28,3.2-3.2,3.2c-1.76,0-3.2-1.44-3.2-3.2Zm0,8c0-1.76,1.44-3.2,3.2-3.2s3.2,1.44,3.2,3.2-1.28,3.2-3.2,3.2c-1.76,0-3.2-1.44-3.2-3.2Zm0,8c0-1.76,1.44-3.2,3.2-3.2s3.2,1.44,3.2,3.2-1.28,3.2-3.2,3.2c-1.76,0-3.2-1.44-3.2-3.2Zm0,8c0-1.76,1.44-3.2,3.2-3.2s3.2,1.44,3.2,3.2-1.28,3.2-3.2,3.2c-1.76,0-3.2-1.44-3.2-3.2Zm0,8c0-1.76,1.44-3.2,3.2-3.2s3.2,1.44,3.2,3.2-1.28,3.2-3.2,3.2c-1.76,0-3.2-1.44-3.2-3.2Zm0,8c0-1.76,1.44-3.2,3.2-3.2s3.2,1.44,3.2,3.2-1.28,3.2-3.2,3.2c-1.76,0-3.2-1.44-3.2-3.2Zm0,8c0-1.76,1.44-3.2,3.2-3.2s3.2,1.44,3.2,3.2-1.28,3.2-3.2,3.2c-1.76,0-3.2-1.44-3.2-3.2Zm0,8c0-1.76,1.44-3.2,3.2-3.2s3.2,1.44,3.2,3.2-1.28,3.2-3.2,3.2c-1.76,0-3.2-1.44-3.2-3.2Zm0,8c0-1.76,1.44-3.2,3.2-3.2s3.2,1.44,3.2,3.2-1.28,3.2-3.2,3.2c-1.76,0-3.2-1.44-3.2-3.2Zm8-120c0-1.76,1.44-3.2,3.2-3.2s3.2,1.44,3.2,3.2-1.28,3.2-3.2,3.2c-1.76,0-3.2-1.44-3.2-3.2Zm0,8c0-1.76,1.44-3.2,3.2-3.2s3.2,1.44,3.2,3.2-1.28,3.2-3.2,3.2c-1.76,0-3.2-1.44-3.2-3.2Zm0,8c0-1.76,1.44-3.2,3.2-3.2s3.2,1.44,3.2,3.2-1.28,3.2-3.2,3.2c-1.76,0-3.2-1.44-3.2-3.2Zm0,8c0-1.76,1.44-3.2,3.2-3.2s3.2,1.44,3.2,3.2-1.28,3.2-3.2,3.2c-1.76,0-3.2-1.44-3.2-3.2Zm0,8c0-1.76,1.44-3.2,3.2-3.2s3.2,1.44,3.2,3.2-1.28,3.2-3.2,3.2c-1.76,0-3.2-1.44-3.2-3.2Zm0,8c0-1.76,1.44-3.2,3.2-3.2s3.2,1.44,3.2,3.2-1.28,3.2-3.2,3.2c-1.76,0-3.2-1.44-3.2-3.2Zm0,8c0-1.76,1.44-3.2,3.2-3.2s3.2,1.44,3.2,3.2-1.28,3.2-3.2,3.2c-1.76,0-3.2-1.44-3.2-3.2Zm0,8c0-1.76,1.44-3.2,3.2-3.2s3.2,1.44,3.2,3.2-1.28,3.2-3.2,3.2c-1.76,0-3.2-1.44-3.2-3.2Zm0,8c0-1.76,1.44-3.2,3.2-3.2s3.2,1.44,3.2,3.2-1.28,3.2-3.2,3.2c-1.76,0-3.2-1.44-3.2-3.2Zm0,8c0-1.76,1.44-3.2,3.2-3.2s3.2,1.44,3.2,3.2-1.28,3.2-3.2,3.2c-1.76,0-3.2-1.44-3.2-3.2Zm0,8c0-1.76,1.44-3.2,3.2-3.2s3.2,1.44,3.2,3.2-1.28,3.2-3.2,3.2c-1.76,0-3.2-1.44-3.2-3.2Zm0,8c0-1.76,1.44-3.2,3.2-3.2s3.2,1.44,3.2,3.2-1.28,3.2-3.2,3.2c-1.76,0-3.2-1.44-3.2-3.2Zm0,8c0-1.76,1.44-3.2,3.2-3.2s3.2,1.44,3.2,3.2-1.28,3.2-3.2,3.2c-1.76,0-3.2-1.44-3.2-3.2Zm0,8c0-1.76,1.44-3.2,3.2-3.2s3.2,1.44,3.2,3.2-1.28,3.2-3.2,3.2c-1.76,0-3.2-1.44-3.2-3.2Zm0,8c0-1.76,1.44-3.2,3.2-3.2s3.2,1.44,3.2,3.2-1.28,3.2-3.2,3.2c-1.76,0-3.2-1.44-3.2-3.2Zm0,8c0-1.76,1.44-3.2,3.2-3.2s3.2,1.44,3.2,3.2-1.28,3.2-3.2,3.2c-1.76,0-3.2-1.44-3.2-3.2Zm8-24c0-1.76,1.44-3.2,3.2-3.2s3.2,1.44,3.2,3.2-1.28,3.2-3.2,3.2c-1.76,0-3.2-1.44-3.2-3.2Zm0,8c0-1.76,1.44-3.2,3.2-3.2s3.2,1.44,3.2,3.2-1.28,3.2-3.2,3.2c-1.76,0-3.2-1.44-3.2-3.2Zm0,8c0-1.76,1.44-3.2,3.2-3.2s3.2,1.44,3.2,3.2-1.28,3.2-3.2,3.2c-1.76,0-3.2-1.44-3.2-3.2Zm0,8c0-1.76,1.44-3.2,3.2-3.2s3.2,1.44,3.2,3.2-1.28,3.2-3.2,3.2c-1.76,0-3.2-1.44-3.2-3.2Zm8-24c0-1.76,1.44-3.2,3.2-3.2s3.2,1.44,3.2,3.2-1.28,3.2-3.2,3.2c-1.76,0-3.2-1.44-3.2-3.2Zm0,8c0-1.76,1.44-3.2,3.2-3.2s3.2,1.44,3.2,3.2-1.28,3.2-3.2,3.2c-1.76,0-3.2-1.44-3.2-3.2Zm0,8c0-1.76,1.44-3.2,3.2-3.2s3.2,1.44,3.2,3.2-1.28,3.2-3.2,3.2c-1.76,0-3.2-1.44-3.2-3.2Zm0,8c0-1.76,1.44-3.2,3.2-3.2s3.2,1.44,3.2,3.2-1.28,3.2-3.2,3.2c-1.76,0-3.2-1.44-3.2-3.2Zm8-24c0-1.76,1.44-3.2,3.2-3.2s3.2,1.44,3.2,3.2-1.28,3.2-3.2,3.2c-1.76,0-3.2-1.44-3.2-3.2Zm0,8c0-1.76,1.44-3.2,3.2-3.2s3.2,1.44,3.2,3.2-1.28,3.2-3.2,3.2c-1.76,0-3.2-1.44-3.2-3.2Zm0,8c0-1.76,1.44-3.2,3.2-3.2s3.2,1.44,3.2,3.2-1.28,3.2-3.2,3.2c-1.76,0-3.2-1.44-3.2-3.2Zm0,8c0-1.76,1.44-3.2,3.2-3.2s3.2,1.44,3.2,3.2-1.28,3.2-3.2,3.2c-1.76,0-3.2-1.44-3.2-3.2Z"/>
        <path class="cls-1" d="m496,3.2C496,1.44,497.44,0,499.2,0s3.2,1.44,3.2,3.2-1.44,3.2-3.2,3.2-3.2-1.44-3.2-3.2Zm0,8c0-1.76,1.44-3.2,3.2-3.2s3.2,1.44,3.2,3.2-1.44,3.2-3.2,3.2-3.2-1.44-3.2-3.2Zm0,8c0-1.76,1.44-3.2,3.2-3.2s3.2,1.44,3.2,3.2-1.44,3.2-3.2,3.2-3.2-1.44-3.2-3.2Zm0,8c0-1.76,1.44-3.2,3.2-3.2s3.2,1.44,3.2,3.2-1.44,3.2-3.2,3.2-3.2-1.44-3.2-3.2Zm0,8c0-1.76,1.44-3.2,3.2-3.2s3.2,1.44,3.2,3.2-1.44,3.2-3.2,3.2-3.2-1.44-3.2-3.2Zm0,8c0-1.76,1.44-3.2,3.2-3.2s3.2,1.44,3.2,3.2-1.44,3.2-3.2,3.2-3.2-1.44-3.2-3.2Zm0,8c0-1.76,1.44-3.2,3.2-3.2s3.2,1.44,3.2,3.2-1.44,3.2-3.2,3.2-3.2-1.44-3.2-3.2Zm0,8c0-1.76,1.44-3.2,3.2-3.2s3.2,1.44,3.2,3.2-1.44,3.2-3.2,3.2-3.2-1.44-3.2-3.2Zm0,8c0-1.76,1.44-3.2,3.2-3.2s3.2,1.44,3.2,3.2-1.44,3.2-3.2,3.2-3.2-1.44-3.2-3.2Zm8-64c0-1.76,1.44-3.2,3.2-3.2s3.2,1.44,3.2,3.2-1.28,3.2-3.2,3.2c-1.76,0-3.2-1.44-3.2-3.2Zm0,8c0-1.76,1.44-3.2,3.2-3.2s3.2,1.44,3.2,3.2-1.28,3.2-3.2,3.2c-1.76,0-3.2-1.44-3.2-3.2Zm0,8c0-1.76,1.44-3.2,3.2-3.2s3.2,1.44,3.2,3.2-1.28,3.2-3.2,3.2c-1.76,0-3.2-1.44-3.2-3.2Zm0,8c0-1.76,1.44-3.2,3.2-3.2s3.2,1.44,3.2,3.2-1.28,3.2-3.2,3.2c-1.76,0-3.2-1.44-3.2-3.2Zm0,8c0-1.76,1.44-3.2,3.2-3.2s3.2,1.44,3.2,3.2-1.28,3.2-3.2,3.2c-1.76,0-3.2-1.44-3.2-3.2Zm0,8c0-1.76,1.44-3.2,3.2-3.2s3.2,1.44,3.2,3.2-1.28,3.2-3.2,3.2c-1.76,0-3.2-1.44-3.2-3.2Zm0,8c0-1.76,1.44-3.2,3.2-3.2s3.2,1.44,3.2,3.2-1.28,3.2-3.2,3.2c-1.76,0-3.2-1.44-3.2-3.2Zm0,8c0-1.76,1.44-3.2,3.2-3.2s3.2,1.44,3.2,3.2-1.28,3.2-3.2,3.2c-1.76,0-3.2-1.44-3.2-3.2Zm0,8c0-1.76,1.44-3.2,3.2-3.2s3.2,1.44,3.2,3.2-1.28,3.2-3.2,3.2c-1.76,0-3.2-1.44-3.2-3.2Zm0,8c0-1.76,1.44-3.2,3.2-3.2s3.2,1.44,3.2,3.2-1.28,3.2-3.2,3.2c-1.76,0-3.2-1.44-3.2-3.2Zm8-72c0-1.76,1.44-3.2,3.2-3.2s3.2,1.44,3.2,3.2-1.28,3.2-3.2,3.2c-1.76,0-3.2-1.44-3.2-3.2Zm0,8c0-1.76,1.44-3.2,3.2-3.2s3.2,1.44,3.2,3.2-1.28,3.2-3.2,3.2c-1.76,0-3.2-1.44-3.2-3.2Zm0,8c0-1.76,1.44-3.2,3.2-3.2s3.2,1.44,3.2,3.2-1.28,3.2-3.2,3.2c-1.76,0-3.2-1.44-3.2-3.2Zm0,8c0-1.76,1.44-3.2,3.2-3.2s3.2,1.44,3.2,3.2-1.28,3.2-3.2,3.2c-1.76,0-3.2-1.44-3.2-3.2Zm0,8c0-1.76,1.44-3.2,3.2-3.2s3.2,1.44,3.2,3.2-1.28,3.2-3.2,3.2c-1.76,0-3.2-1.44-3.2-3.2Zm0,8c0-1.76,1.44-3.2,3.2-3.2s3.2,1.44,3.2,3.2-1.28,3.2-3.2,3.2c-1.76,0-3.2-1.44-3.2-3.2Zm0,8c0-1.76,1.44-3.2,3.2-3.2s3.2,1.44,3.2,3.2-1.28,3.2-3.2,3.2c-1.76,0-3.2-1.44-3.2-3.2Zm0,8c0-1.76,1.44-3.2,3.2-3.2s3.2,1.44,3.2,3.2-1.28,3.2-3.2,3.2c-1.76,0-3.2-1.44-3.2-3.2Zm0,8c0-1.76,1.44-3.2,3.2-3.2s3.2,1.44,3.2,3.2-1.28,3.2-3.2,3.2c-1.76,0-3.2-1.44-3.2-3.2Zm0,8c0-1.76,1.44-3.2,3.2-3.2s3.2,1.44,3.2,3.2-1.28,3.2-3.2,3.2c-1.76,0-3.2-1.44-3.2-3.2Zm0,8c0-1.76,1.44-3.2,3.2-3.2s3.2,1.44,3.2,3.2-1.28,3.2-3.2,3.2c-1.76,0-3.2-1.44-3.2-3.2Zm0,8c0-1.76,1.44-3.2,3.2-3.2s3.2,1.44,3.2,3.2-1.28,3.2-3.2,3.2c-1.76,0-3.2-1.44-3.2-3.2Zm0,8c0-1.76,1.44-3.2,3.2-3.2s3.2,1.44,3.2,3.2-1.28,3.2-3.2,3.2c-1.76,0-3.2-1.44-3.2-3.2Zm0,8c0-1.76,1.44-3.2,3.2-3.2s3.2,1.44,3.2,3.2-1.28,3.2-3.2,3.2c-1.76,0-3.2-1.44-3.2-3.2Zm0,8c0-1.76,1.44-3.2,3.2-3.2s3.2,1.44,3.2,3.2-1.28,3.2-3.2,3.2c-1.76,0-3.2-1.44-3.2-3.2Zm0,8c0-1.76,1.44-3.2,3.2-3.2s3.2,1.44,3.2,3.2-1.28,3.2-3.2,3.2c-1.76,0-3.2-1.44-3.2-3.2Zm8-120c0-1.76,1.44-3.2,3.2-3.2s3.2,1.44,3.2,3.2-1.28,3.2-3.2,3.2c-1.76,0-3.2-1.44-3.2-3.2Zm0,8c0-1.76,1.44-3.2,3.2-3.2s3.2,1.44,3.2,3.2-1.28,3.2-3.2,3.2c-1.76,0-3.2-1.44-3.2-3.2Zm0,8c0-1.76,1.44-3.2,3.2-3.2s3.2,1.44,3.2,3.2-1.28,3.2-3.2,3.2c-1.76,0-3.2-1.44-3.2-3.2Zm0,8c0-1.76,1.44-3.2,3.2-3.2s3.2,1.44,3.2,3.2-1.28,3.2-3.2,3.2c-1.76,0-3.2-1.44-3.2-3.2Zm0,8c0-1.76,1.44-3.2,3.2-3.2s3.2,1.44,3.2,3.2-1.28,3.2-3.2,3.2c-1.76,0-3.2-1.44-3.2-3.2Zm0,8c0-1.76,1.44-3.2,3.2-3.2s3.2,1.44,3.2,3.2-1.28,3.2-3.2,3.2c-1.76,0-3.2-1.44-3.2-3.2Zm0,8c0-1.76,1.44-3.2,3.2-3.2s3.2,1.44,3.2,3.2-1.28,3.2-3.2,3.2c-1.76,0-3.2-1.44-3.2-3.2Zm0,8c0-1.76,1.44-3.2,3.2-3.2s3.2,1.44,3.2,3.2-1.28,3.2-3.2,3.2c-1.76,0-3.2-1.44-3.2-3.2Zm0,8c0-1.76,1.44-3.2,3.2-3.2s3.2,1.44,3.2,3.2-1.28,3.2-3.2,3.2c-1.76,0-3.2-1.44-3.2-3.2Zm0,8c0-1.76,1.44-3.2,3.2-3.2s3.2,1.44,3.2,3.2-1.28,3.2-3.2,3.2c-1.76,0-3.2-1.44-3.2-3.2Zm0,8c0-1.76,1.44-3.2,3.2-3.2s3.2,1.44,3.2,3.2-1.28,3.2-3.2,3.2c-1.76,0-3.2-1.44-3.2-3.2Zm0,8c0-1.76,1.44-3.2,3.2-3.2s3.2,1.44,3.2,3.2-1.28,3.2-3.2,3.2c-1.76,0-3.2-1.44-3.2-3.2Zm0,8c0-1.76,1.44-3.2,3.2-3.2s3.2,1.44,3.2,3.2-1.28,3.2-3.2,3.2c-1.76,0-3.2-1.44-3.2-3.2Zm0,8c0-1.76,1.44-3.2,3.2-3.2s3.2,1.44,3.2,3.2-1.28,3.2-3.2,3.2c-1.76,0-3.2-1.44-3.2-3.2Zm0,8c0-1.76,1.44-3.2,3.2-3.2s3.2,1.44,3.2,3.2-1.28,3.2-3.2,3.2c-1.76,0-3.2-1.44-3.2-3.2Zm0,8c0-1.76,1.44-3.2,3.2-3.2s3.2,1.44,3.2,3.2-1.28,3.2-3.2,3.2c-1.76,0-3.2-1.44-3.2-3.2Zm8-56c0-1.76,1.44-3.2,3.2-3.2s3.2,1.44,3.2,3.2-1.28,3.2-3.2,3.2c-1.76,0-3.2-1.44-3.2-3.2Zm0,8c0-1.76,1.44-3.2,3.2-3.2s3.2,1.44,3.2,3.2-1.28,3.2-3.2,3.2c-1.76,0-3.2-1.44-3.2-3.2Zm0,8c0-1.76,1.44-3.2,3.2-3.2s3.2,1.44,3.2,3.2-1.28,3.2-3.2,3.2c-1.76,0-3.2-1.44-3.2-3.2Zm0,8c0-1.76,1.44-3.2,3.2-3.2s3.2,1.44,3.2,3.2-1.28,3.2-3.2,3.2c-1.76,0-3.2-1.44-3.2-3.2Zm0,8c0-1.76,1.44-3.2,3.2-3.2s3.2,1.44,3.2,3.2-1.28,3.2-3.2,3.2c-1.76,0-3.2-1.44-3.2-3.2Zm0,8c0-1.76,1.44-3.2,3.2-3.2s3.2,1.44,3.2,3.2-1.28,3.2-3.2,3.2c-1.76,0-3.2-1.44-3.2-3.2Zm0,8c0-1.76,1.44-3.2,3.2-3.2s3.2,1.44,3.2,3.2-1.28,3.2-3.2,3.2c-1.76,0-3.2-1.44-3.2-3.2Zm0,8c0-1.76,1.44-3.2,3.2-3.2s3.2,1.44,3.2,3.2-1.28,3.2-3.2,3.2c-1.76,0-3.2-1.44-3.2-3.2Zm8-120c0-1.76,1.44-3.2,3.2-3.2s3.2,1.44,3.2,3.2-1.28,3.2-3.2,3.2c-1.76,0-3.2-1.44-3.2-3.2Zm0,8c0-1.76,1.44-3.2,3.2-3.2s3.2,1.44,3.2,3.2-1.28,3.2-3.2,3.2c-1.76,0-3.2-1.44-3.2-3.2Zm0,8c0-1.76,1.44-3.2,3.2-3.2s3.2,1.44,3.2,3.2-1.28,3.2-3.2,3.2c-1.76,0-3.2-1.44-3.2-3.2Zm0,8c0-1.76,1.44-3.2,3.2-3.2s3.2,1.44,3.2,3.2-1.28,3.2-3.2,3.2c-1.76,0-3.2-1.44-3.2-3.2Zm0,8c0-1.76,1.44-3.2,3.2-3.2s3.2,1.44,3.2,3.2-1.28,3.2-3.2,3.2c-1.76,0-3.2-1.44-3.2-3.2Zm0,8c0-1.76,1.44-3.2,3.2-3.2s3.2,1.44,3.2,3.2-1.28,3.2-3.2,3.2c-1.76,0-3.2-1.44-3.2-3.2Zm0,8c0-1.76,1.44-3.2,3.2-3.2s3.2,1.44,3.2,3.2-1.28,3.2-3.2,3.2c-1.76,0-3.2-1.44-3.2-3.2Zm0,8c0-1.76,1.44-3.2,3.2-3.2s3.2,1.44,3.2,3.2-1.28,3.2-3.2,3.2c-1.76,0-3.2-1.44-3.2-3.2Zm0,8c0-1.76,1.44-3.2,3.2-3.2s3.2,1.44,3.2,3.2-1.28,3.2-3.2,3.2c-1.76,0-3.2-1.44-3.2-3.2Zm0,8c0-1.76,1.44-3.2,3.2-3.2s3.2,1.44,3.2,3.2-1.28,3.2-3.2,3.2c-1.76,0-3.2-1.44-3.2-3.2Zm0,8c0-1.76,1.44-3.2,3.2-3.2s3.2,1.44,3.2,3.2-1.28,3.2-3.2,3.2c-1.76,0-3.2-1.44-3.2-3.2Zm0,8c0-1.76,1.44-3.2,3.2-3.2s3.2,1.44,3.2,3.2-1.28,3.2-3.2,3.2c-1.76,0-3.2-1.44-3.2-3.2Zm0,8c0-1.76,1.44-3.2,3.2-3.2s3.2,1.44,3.2,3.2-1.28,3.2-3.2,3.2c-1.76,0-3.2-1.44-3.2-3.2Zm0,8c0-1.76,1.44-3.2,3.2-3.2s3.2,1.44,3.2,3.2-1.28,3.2-3.2,3.2c-1.76,0-3.2-1.44-3.2-3.2Zm0,8c0-1.76,1.44-3.2,3.2-3.2s3.2,1.44,3.2,3.2-1.28,3.2-3.2,3.2c-1.76,0-3.2-1.44-3.2-3.2Zm0,8c0-1.76,1.44-3.2,3.2-3.2s3.2,1.44,3.2,3.2-1.28,3.2-3.2,3.2c-1.76,0-3.2-1.44-3.2-3.2Zm8-120c0-1.76,1.44-3.2,3.2-3.2s3.2,1.44,3.2,3.2-1.28,3.2-3.2,3.2c-1.76,0-3.2-1.44-3.2-3.2Zm0,8c0-1.76,1.44-3.2,3.2-3.2s3.2,1.44,3.2,3.2-1.28,3.2-3.2,3.2c-1.76,0-3.2-1.44-3.2-3.2Zm0,8c0-1.76,1.44-3.2,3.2-3.2s3.2,1.44,3.2,3.2-1.28,3.2-3.2,3.2c-1.76,0-3.2-1.44-3.2-3.2Zm0,8c0-1.76,1.44-3.2,3.2-3.2s3.2,1.44,3.2,3.2-1.28,3.2-3.2,3.2c-1.76,0-3.2-1.44-3.2-3.2Zm0,8c0-1.76,1.44-3.2,3.2-3.2s3.2,1.44,3.2,3.2-1.28,3.2-3.2,3.2c-1.76,0-3.2-1.44-3.2-3.2Zm0,8c0-1.76,1.44-3.2,3.2-3.2s3.2,1.44,3.2,3.2-1.28,3.2-3.2,3.2c-1.76,0-3.2-1.44-3.2-3.2Zm0,8c0-1.76,1.44-3.2,3.2-3.2s3.2,1.44,3.2,3.2-1.28,3.2-3.2,3.2c-1.76,0-3.2-1.44-3.2-3.2Zm0,8c0-1.76,1.44-3.2,3.2-3.2s3.2,1.44,3.2,3.2-1.28,3.2-3.2,3.2c-1.76,0-3.2-1.44-3.2-3.2Zm0,8c0-1.76,1.44-3.2,3.2-3.2s3.2,1.44,3.2,3.2-1.28,3.2-3.2,3.2c-1.76,0-3.2-1.44-3.2-3.2Zm0,8c0-1.76,1.44-3.2,3.2-3.2s3.2,1.44,3.2,3.2-1.28,3.2-3.2,3.2c-1.76,0-3.2-1.44-3.2-3.2Zm0,8c0-1.76,1.44-3.2,3.2-3.2s3.2,1.44,3.2,3.2-1.28,3.2-3.2,3.2c-1.76,0-3.2-1.44-3.2-3.2Zm0,8c0-1.76,1.44-3.2,3.2-3.2s3.2,1.44,3.2,3.2-1.28,3.2-3.2,3.2c-1.76,0-3.2-1.44-3.2-3.2Zm0,8c0-1.76,1.44-3.2,3.2-3.2s3.2,1.44,3.2,3.2-1.28,3.2-3.2,3.2c-1.76,0-3.2-1.44-3.2-3.2Zm0,8c0-1.76,1.44-3.2,3.2-3.2s3.2,1.44,3.2,3.2-1.28,3.2-3.2,3.2c-1.76,0-3.2-1.44-3.2-3.2Zm0,8c0-1.76,1.44-3.2,3.2-3.2s3.2,1.44,3.2,3.2-1.28,3.2-3.2,3.2c-1.76,0-3.2-1.44-3.2-3.2Zm0,8c0-1.76,1.44-3.2,3.2-3.2s3.2,1.44,3.2,3.2-1.28,3.2-3.2,3.2c-1.76,0-3.2-1.44-3.2-3.2Zm8-120c0-1.76,1.44-3.2,3.2-3.2s3.2,1.44,3.2,3.2-1.28,3.2-3.2,3.2c-1.76,0-3.2-1.44-3.2-3.2Zm0,8c0-1.76,1.44-3.2,3.2-3.2s3.2,1.44,3.2,3.2-1.28,3.2-3.2,3.2c-1.76,0-3.2-1.44-3.2-3.2Zm0,8c0-1.76,1.44-3.2,3.2-3.2s3.2,1.44,3.2,3.2-1.28,3.2-3.2,3.2c-1.76,0-3.2-1.44-3.2-3.2Zm0,8c0-1.76,1.44-3.2,3.2-3.2s3.2,1.44,3.2,3.2-1.28,3.2-3.2,3.2c-1.76,0-3.2-1.44-3.2-3.2Zm0,8c0-1.76,1.44-3.2,3.2-3.2s3.2,1.44,3.2,3.2-1.28,3.2-3.2,3.2c-1.76,0-3.2-1.44-3.2-3.2Zm0,8c0-1.76,1.44-3.2,3.2-3.2s3.2,1.44,3.2,3.2-1.28,3.2-3.2,3.2c-1.76,0-3.2-1.44-3.2-3.2Zm0,8c0-1.76,1.44-3.2,3.2-3.2s3.2,1.44,3.2,3.2-1.28,3.2-3.2,3.2c-1.76,0-3.2-1.44-3.2-3.2Zm0,8c0-1.76,1.44-3.2,3.2-3.2s3.2,1.44,3.2,3.2-1.28,3.2-3.2,3.2c-1.76,0-3.2-1.44-3.2-3.2Zm0,8c0-1.76,1.44-3.2,3.2-3.2s3.2,1.44,3.2,3.2-1.28,3.2-3.2,3.2c-1.76,0-3.2-1.44-3.2-3.2Zm0,8c0-1.76,1.44-3.2,3.2-3.2s3.2,1.44,3.2,3.2-1.28,3.2-3.2,3.2c-1.76,0-3.2-1.44-3.2-3.2Zm8-72c0-1.76,1.44-3.2,3.2-3.2s3.2,1.44,3.2,3.2-1.28,3.2-3.2,3.2c-1.76,0-3.2-1.44-3.2-3.2Zm0,8c0-1.76,1.44-3.2,3.2-3.2s3.2,1.44,3.2,3.2-1.28,3.2-3.2,3.2c-1.76,0-3.2-1.44-3.2-3.2Zm0,8c0-1.76,1.44-3.2,3.2-3.2s3.2,1.44,3.2,3.2-1.28,3.2-3.2,3.2c-1.76,0-3.2-1.44-3.2-3.2Zm0,8c0-1.76,1.44-3.2,3.2-3.2s3.2,1.44,3.2,3.2-1.28,3.2-3.2,3.2c-1.76,0-3.2-1.44-3.2-3.2Zm0,8c0-1.76,1.44-3.2,3.2-3.2s3.2,1.44,3.2,3.2-1.28,3.2-3.2,3.2c-1.76,0-3.2-1.44-3.2-3.2Zm0,8c0-1.76,1.44-3.2,3.2-3.2s3.2,1.44,3.2,3.2-1.28,3.2-3.2,3.2c-1.76,0-3.2-1.44-3.2-3.2Zm0,8c0-1.76,1.44-3.2,3.2-3.2s3.2,1.44,3.2,3.2-1.28,3.2-3.2,3.2c-1.76,0-3.2-1.44-3.2-3.2Zm0,8c0-1.76,1.44-3.2,3.2-3.2s3.2,1.44,3.2,3.2-1.28,3.2-3.2,3.2c-1.76,0-3.2-1.44-3.2-3.2Zm0,8c0-1.76,1.44-3.2,3.2-3.2s3.2,1.44,3.2,3.2-1.28,3.2-3.2,3.2c-1.76,0-3.2-1.44-3.2-3.2Z"/>
      </g>
    </g>
  </g>
</svg>